<svg width="111" height="209" xmlns="http://www.w3.org/2000/svg">
 <title>Drawing</title>

 <g id="Layer_1">
  <title>Layer 1</title>
  <g id="svg_2">
   <desc>Created with Fabric.js 3.6.6</desc>
   <g id="svg_3" transform="matrix(4.36, 0, 0, 4.36, 65.26, 18.24)">
    <g id="svg_4">
     <g transform="matrix(1, 0, 0, 1, -1.14, 41.35)" id="svg_1">
      <ellipse id="svg_5" cx="0.57615" cy="-0.00348" rx="10.7" ry="0.72" stroke=" none" stroke-dasharray=" none" stroke-linecap=" butt" stroke-dashoffset="0" stroke-linejoin=" miter" stroke-miterlimit="4" fill=" rgb(1,2,2)" fill-rule=" nonzero" opacity="0.13"/>
     </g>
     <g transform="matrix(1, 0, 0, 1, -4.38, 32.51)" id="Capa_2">
      <path id="svg_6" d="m2.75615,-5.58349c-0.68,2.18 -1.25,4.29 -1.91,6.6c-0.3,1.44 -1.01,5.27 -1.23,6.6c-0.02,0 -0.02,0.11 -0.04,0.11c-0.63,0.04 -0.58,-0.07 -1.17,-0.03c0.03,-2.21 0.11,-5.61 0.07,-7.89c0.11,-2.01 0.7,-5.33 0.81,-7.54c1.27,0.55 2.27,1.48 3.47,2.15z" stroke-linecap=" butt" stroke=" none" stroke-dasharray=" none" stroke-dashoffset="0" stroke-linejoin=" miter" stroke-miterlimit="4" fill=" rgb(33,38,75)" fill-rule=" nonzero"/>
     </g>
     <g transform="matrix(1, 0, 0, 1, 0.97, 32.06)" id="Capa_2">
      <polygon id="svg_7" points="-1.7838516235351562,-4.663486480712891 0.5161514282226562,0.9765129089355469 0.956146240234375,6.876514434814453 1.0761489868164062,7.276512145996094 1.0161514282226562,7.636512756347656 2.1861495971679688,7.576511383056641 2.9361495971679688,-0.053485870361328125 1.0461502075195312,-7.643486022949219 " stroke=" none" stroke-dasharray=" none" stroke-linecap=" butt" stroke-dashoffset="0" stroke-linejoin=" miter" stroke-miterlimit="4" fill=" rgb(33,38,75)" fill-rule=" nonzero"/>
     </g>
     <g transform="matrix(1, 0, 0, 1, -1.88, 26.79)" id="Capa_2">
      <polygon id="svg_8" points="4.376152038574219,2.106517791748047 -2.38385009765625,2.5165176391601562 -3.2238540649414062,-2.0934829711914062 3.8761520385742188,-2.5234832763671875 " stroke=" none" stroke-dasharray=" none" stroke-linecap=" butt" stroke-dashoffset="0" stroke-linejoin=" miter" stroke-miterlimit="4" fill=" rgb(33,38,75)" fill-rule=" nonzero"/>
     </g>
     <g transform="matrix(1, 0, 0, 1, -6.28, 9.58)" id="Capa_2">
      <polygon id="svg_9" points="-4.94384765625,-3.7934951782226562 -0.39385223388671875,-7.83349609375 2.646148681640625,-6.523494720458984 4.376152038574219,1.2365074157714844 6.0961456298828125,1.3965072631835938 6.0961456298828125,6.9665069580078125 5.2861480712890625,7.826507568359375 3.9661483764648438,7.456504821777344 2.5261459350585938,6.876506805419922 2.5261459350585938,5.7465057373046875 0.5761489868164062,5.336505889892578 -2.6138534545898438,0.06650543212890625 -3.5238494873046875,-0.7934951782226562 -3.8338470458984375,-1.9534950256347656 " stroke=" none" stroke-dasharray=" none" stroke-linecap=" butt" stroke-dashoffset="0" stroke-linejoin=" miter" stroke-miterlimit="4" fill=" rgb(234,179,152)" fill-rule=" nonzero"/>
     </g>
     <g transform="matrix(1, 0, 0, 1, -3, 6.03)" id="Capa_2">
      <path id="svg_10" d="m-4.42385,-3.67349c0,0 4.27,8.6 4.5,9.43c0.43,-0.13 5.49,-1.6 5.49,-1.6l-1.67,-9.92l-2.02,0.95l-5.56,0.52l-0.74,0.62z" stroke-linecap=" butt" stroke=" none" stroke-dasharray=" none" stroke-dashoffset="0" stroke-linejoin=" miter" stroke-miterlimit="4" fill=" rgb(242,200,176)" fill-rule=" nonzero"/>
     </g>
     <g transform="matrix(1, 0, 0, 1, -3.14, 14.04)" id="Capa_2">
      <polygon id="svg_11" points="2.956146240234375,-3.0334854125976562 0.2261505126953125,-2.243488311767578 -1.8138504028320312,-2.093486785888672 -0.5838546752929688,-1.323486328125 1.8861465454101562,-0.33348846435546875 2.5261459350585938,1.4465141296386719 2.4861526489257812,3.0365142822265625 2.956146240234375,2.5665130615234375 2.956146240234375,1.6565132141113281 2.3561477661132812,-0.013484954833984375 2.956146240234375,-0.2134857177734375 " stroke=" none" stroke-dasharray=" none" stroke-linecap=" butt" stroke-dashoffset="0" stroke-linejoin=" miter" stroke-miterlimit="4" fill=" rgb(198,145,129)" fill-rule=" nonzero"/>
     </g>
     <g transform="matrix(1, 0, 0, 1, -8.66, 9.71)" id="Capa_2">
      <polygon id="svg_12" points="-0.0838470458984375,-0.12348556518554688 1.2361602783203125,-1.1934852600097656 0.5761566162109375,1.176513671875 " stroke=" none" stroke-dasharray=" none" stroke-linecap=" butt" stroke-dashoffset="0" stroke-linejoin=" miter" stroke-miterlimit="4" fill=" rgb(198,145,129)" fill-rule=" nonzero"/>
     </g>
     <g transform="matrix(1, 0, 0, 1, -6.48, 3.64)" id="Capa_2">
      <polygon id="svg_13" points="-3.5238494873046875,4.016513824462891 -2.2638473510742188,2.9865150451660156 -0.94384765625,3.506511688232422 -0.5238494873046875,3.2465133666992188 -1.603851318359375,-0.6434857845306396 -0.19384765625,-1.8934857845306396 5.36614990234375,-2.4134862422943115 7.386146545410156,-3.3634870052337646 8.166152954101562,1.2765123844146729 9.05615234375,-1.103484869003296 8.23614501953125,-5.093486547470093 5.6961517333984375,-7.083484649658203 0.3161468505859375,-7.823486328125 -4.313850402832031,-6.243488311767578 -7.2438507080078125,-2.6334874629974365 -7.9038543701171875,1.646515130996704 -5.44384765625,5.556514739990234 -2.7338485717773438,6.376514434814453 -1.3138504028320312,7.8165130615234375 -2.2638473510742188,5.956512451171875 -3.3238525390625,5.146514892578125 " stroke=" none" stroke-dasharray=" none" stroke-linecap=" butt" stroke-dashoffset="0" stroke-linejoin=" miter" stroke-miterlimit="4" fill=" rgb(178,89,23)" fill-rule=" nonzero"/>
     </g>
     <g transform="matrix(1, 0, 0, 1, -1.56, 5.86)" id="Capa_2">
      <polygon id="svg_14" points="-0.3238525390625,-1.4334864616394043 0.2561492919921875,1.1265149116516113 0.3161468505859375,1.4165120124816895 0.7161483764648438,1.3265156745910645 1.4661483764648438,1.1365132331848145 0.1961517333984375,-1.4334864616394043 " stroke=" none" stroke-dasharray=" none" stroke-linecap=" butt" stroke-dashoffset="0" stroke-linejoin=" miter" stroke-miterlimit="4" fill=" rgb(219,135,92)" fill-rule=" nonzero"/>
     </g>
     <g transform="matrix(1, 0, 0, 1, -1.36, 8.02)" id="Capa_2">
      <path id="svg_15" d="m1.94615,-0.54349c-0.05,0.05 -0.11,0.09 -0.16,0.14c0.01,-0.01 0.03,-0.02 0.04,-0.03c-0.15,0.11 -0.31,0.21 -0.48,0.3c-0.05,0.02 -0.09,0.04 -0.14,0.07c0.02,-0.01 0.03,-0.01 0.05,-0.02c-0.22,0.09 -0.45,0.16 -0.68,0.2c-0.07,0.01 -0.13,0.02 -0.2,0.03c0.02,0 0.04,-0.01 0.06,-0.01c-0.18,0.02 -0.35,0.04 -0.53,0.04c-0.18,0.01 -0.36,0 -0.54,0c-0.1,0 -0.21,-0.01 -0.31,-0.02c-0.03,0 -0.06,0.01 -0.08,0.02c-0.03,0.01 -0.05,0.02 -0.07,0.04c-0.04,0.04 -0.06,0.1 -0.06,0.15c0,0.05 0.02,0.11 0.06,0.15c0.01,0.01 0.03,0.02 0.04,0.03c0.03,0.02 0.07,0.03 0.11,0.03c0.22,0.01 0.43,0.02 0.65,0.02c0.21,0 0.42,-0.01 0.64,-0.03c0.22,-0.03 0.44,-0.06 0.66,-0.12c0.22,-0.06 0.43,-0.14 0.62,-0.24c0.21,-0.11 0.4,-0.24 0.57,-0.39c0.02,-0.02 0.04,-0.04 0.06,-0.05c0.02,-0.02 0.04,-0.04 0.04,-0.07c0.01,-0.03 0.02,-0.05 0.02,-0.08c0,-0.05 -0.02,-0.11 -0.06,-0.15c-0.04,-0.04 -0.09,-0.06 -0.15,-0.06c-0.02,0 -0.04,0.01 -0.06,0.01c-0.04,-0.01 -0.07,0.01 -0.1,0.04l0,0z" stroke-linecap=" butt" stroke=" none" stroke-dasharray=" none" stroke-dashoffset="0" stroke-linejoin=" miter" stroke-miterlimit="4" fill=" rgb(73,39,26)" fill-rule=" nonzero"/>
     </g>
     <g transform="matrix(1, 0, 0, 1, -4.03, 4.81)" id="Capa_2">
      <circle id="svg_16" cx="0.57615" cy="-0.00349" r="0.29" stroke=" none" stroke-dasharray=" none" stroke-linecap=" butt" stroke-dashoffset="0" stroke-linejoin=" miter" stroke-miterlimit="4" fill=" rgb(73,39,26)" fill-rule=" nonzero"/>
     </g>
     <g transform="matrix(1, 0, 0, 1, -0.67, 4.14)" id="Capa_2">
      <circle id="svg_17" cx="0.57615" cy="-0.00349" r="0.29" stroke=" none" stroke-dasharray=" none" stroke-linecap=" butt" stroke-dashoffset="0" stroke-linejoin=" miter" stroke-miterlimit="4" fill=" rgb(73,39,26)" fill-rule=" nonzero"/>
     </g>
     <g transform="matrix(0.91, -0.41, 0.41, 0.91, -3.74, 6.61)" id="Capa_2">
      <ellipse id="svg_18" cx="0.52773" cy="0.23394" rx="0.76" ry="0.58" stroke=" none" stroke-dasharray=" none" stroke-linecap=" butt" stroke-dashoffset="0" stroke-linejoin=" miter" stroke-miterlimit="4" fill=" rgb(219,135,92)" fill-rule=" nonzero"/>
     </g>
     <g transform="matrix(0.27, -0.96, 0.96, 0.27, 0.16, 5.71)" id="Capa_2">
      <ellipse id="svg_19" cx="0.15979" cy="0.55522" rx="0.58" ry="0.76" stroke=" none" stroke-dasharray=" none" stroke-linecap=" butt" stroke-dashoffset="0" stroke-linejoin=" miter" stroke-miterlimit="4" fill=" rgb(219,135,92)" fill-rule=" nonzero"/>
     </g>
     <g transform="matrix(1, 0, 0, 1, -9.23, 7.98)" id="Capa_2">
      <polygon id="svg_20" points="1.23614501953125,-0.24348783493041992 0.23614501953125,-0.24348783493041992 -0.0838623046875,0.07651567459106445 0.576141357421875,0.07651567459106445 1.23614501953125,0.23651552200317383 " stroke=" none" stroke-dasharray=" none" stroke-linecap=" butt" stroke-dashoffset="0" stroke-linejoin=" miter" stroke-miterlimit="4" fill=" rgb(198,145,129)" fill-rule=" nonzero"/>
     </g>
     <g transform="matrix(1, 0, 0, 1, -6.48, 4.01)" id="Capa_2">
      <polygon id="svg_21" points="-7.9038543701171875,1.2765049934387207 -7.2438507080078125,-3.0034937858581543 -4.313850402832031,-6.613494396209717 -6.603851318359375,-2.2634921073913574 -6.533851623535156,0.7965054512023926 -4.603851318359375,2.43650484085083 -2.9638519287109375,1.656506061553955 -1.88385009765625,1.8465046882629395 -2.2638473510742188,-1.6834940910339355 -0.7238540649414062,-3.493495464324951 4.956146240234375,-3.7334933280944824 7.30615234375,-4.9934916496276855 5.6961517333984375,-7.453494548797607 8.23614501953125,-5.4634928703308105 9.05615234375,-1.4734950065612793 8.166152954101562,0.9065060615539551 7.386146545410156,-3.7334933280944824 5.36614990234375,-2.7834925651550293 -0.19384765625,-2.2634921073913574 -1.603851318359375,-1.0134921073913574 -0.5238494873046875,2.87650728225708 -0.94384765625,3.136505603790283 -2.2638473510742188,2.6165051460266113 -3.5238494873046875,3.646507740020752 -3.3238525390625,4.776504993438721 -2.2638473510742188,5.586506366729736 -1.3138504028320312,7.446507453918457 -2.7338485717773438,6.0065083503723145 -5.44384765625,5.18650484085083 " stroke=" none" stroke-dasharray=" none" stroke-linecap=" butt" stroke-dashoffset="0" stroke-linejoin=" miter" stroke-miterlimit="4" fill=" rgb(124,59,17)" fill-rule=" nonzero"/>
     </g>
     <g transform="matrix(1, 0, 0, 1, -5.16, 21.97)" id="Capa_2">
      <polygon id="svg_22" points="-1.5138397216796875,-7.263490676879883 1.406158447265625,-6.643487930297852 1.406158447265625,-5.513490676879883 2.8461532592773438,-4.933488845825195 4.37615966796875,4.166509628295898 3.8661575317382812,6.316511154174805 -0.7438430786132812,7.266511917114258 -3.2138442993164062,-4.933488845825195 -1.5138397216796875,-5.883489608764648 -1.8538436889648438,-7.263490676879883 " stroke=" none" stroke-dasharray=" none" stroke-linecap=" butt" stroke-dashoffset="0" stroke-linejoin=" miter" stroke-miterlimit="4" fill=" rgb(73,89,164)" fill-rule=" nonzero"/>
     </g>
     <g transform="matrix(1, 0, 0, 1, 0.68, 20.5)" id="Capa_2">
      <polygon id="svg_23" points="0.6561508178710938,-7.173488616943359 -1.4538497924804688,-6.483489990234375 -0.853851318359375,-4.8134918212890625 -0.853851318359375,-3.51348876953125 -0.47385406494140625,5.456508636474609 0.6561508178710938,7.166507720947266 2.61614990234375,6.6565093994140625 2.61614990234375,-6.043491363525391 0.8761520385742188,-6.303489685058594 " stroke=" none" stroke-dasharray=" none" stroke-linecap=" butt" stroke-dashoffset="0" stroke-linejoin=" miter" stroke-miterlimit="4" fill=" rgb(73,89,164)" fill-rule=" nonzero"/>
     </g>
     <g transform="matrix(1, 0, 0, 1, -0.94, 25.65)" id="Capa_2">
      <polygon id="svg_24" points="0.15615081787109375,0.4865131378173828 1.1261520385742188,0.30651283264160156 1.1261520385742188,-0.5034885406494141 0.02614593505859375,-0.2634868621826172 " stroke=" none" stroke-dasharray=" none" stroke-linecap=" butt" stroke-dashoffset="0" stroke-linejoin=" miter" stroke-miterlimit="4" fill=" rgb(29,30,38)" fill-rule=" nonzero"/>
     </g>
     <g transform="matrix(1, 0, 0, 1, -1.64, 20.97)" id="Capa_2">
      <polygon id="svg_25" points="-0.6738510131835938,-3.9334888458251953 0.646148681640625,-3.5634899139404297 1.456146240234375,-4.423486709594727 1.836151123046875,4.176511764526367 0.7261505126953125,4.416509628295898 " stroke=" none" stroke-dasharray=" none" stroke-linecap=" butt" stroke-dashoffset="0" stroke-linejoin=" miter" stroke-miterlimit="4" fill=" rgb(164,164,152)" fill-rule=" nonzero"/>
     </g>
     <g transform="matrix(1, 0, 0, 1, -1.5, 20.6)" id="Capa_2">
      <polygon id="svg_26" points="-0.37384796142578125,-0.9134807586669922 1.4461517333984375,-0.9734821319580078 1.5361480712890625,0.9665203094482422 -0.06385040283203125,0.9665203094482422 " stroke=" none" stroke-dasharray=" none" stroke-linecap=" butt" stroke-dashoffset="0" stroke-linejoin=" miter" stroke-miterlimit="4" fill=" rgb(29,30,38)" fill-rule=" nonzero"/>
     </g>
     <g transform="matrix(1, 0, 0, 1, -6.94, 14.41)" id="Capa_2">
      <polygon id="svg_27" points="0.6261520385742188,-0.5134849548339844 -0.0738525390625,0.2965126037597656 0.26615142822265625,0.2965126037597656 1.2361526489257812,0.5065116882324219 " stroke=" none" stroke-dasharray=" none" stroke-linecap=" butt" stroke-dashoffset="0" stroke-linejoin=" miter" stroke-miterlimit="4" fill=" rgb(42,60,124)" fill-rule=" nonzero"/>
     </g>
     <g transform="matrix(1, 0, 0, 1, 0, 13.32)" id="Capa_2">
      <polygon id="svg_28" points="1.3261489868164062,-0.00348663330078125 -0.1838531494140625,-0.5034866333007812 -0.1838531494140625,0.4865150451660156 " stroke=" none" stroke-dasharray=" none" stroke-linecap=" butt" stroke-dashoffset="0" stroke-linejoin=" miter" stroke-miterlimit="4" fill=" rgb(42,60,124)" fill-rule=" nonzero"/>
     </g>
     <g transform="matrix(1, 0, 0, 1, -4.89, 15.47)" id="Capa_2">
      <polygon id="svg_29" points="1.7261505126953125,1.2265129089355469 2.5761489868164062,1.5665130615234375 2.5061492919921875,1.1165122985839844 1.5961456298828125,0.8365135192871094 1.6761474609375,-0.4634857177734375 -0.8138504028320312,-1.0634880065917969 -1.4238510131835938,-1.5634880065917969 -1.1738510131835938,-1.1534881591796875 -0.8138504028320312,-0.5534858703613281 1.1361465454101562,-0.14348602294921875 1.1361465454101562,0.9865150451660156 " stroke=" none" stroke-dasharray=" none" stroke-linecap=" butt" stroke-dashoffset="0" stroke-linejoin=" miter" stroke-miterlimit="4" fill=" rgb(198,145,129)" fill-rule=" nonzero"/>
     </g>
     <g transform="matrix(1, 0, 0, 1, -6.4, 31.57)" id="Capa_2">
      <path id="svg_30" d="m1.58616,0.48652c-0.05,-0.09 -0.09,-0.18 -0.13,-0.28c0.04,0.05 0.08,0.09 0.12,0.14c0.3,0.4 0.74,0.04 0.19,-0.52c-0.17,-0.18 -0.36,-0.32 -0.56,-0.44c-0.04,-0.03 -0.09,-0.05 -0.14,-0.07c-0.1,-0.25 -0.18,-0.5 -0.25,-0.74l-1.69,0.25c0.02,0.07 0.03,0.15 0.05,0.22c0.04,0.16 0.09,0.33 0.14,0.49c0.08,0.27 0.17,0.54 0.27,0.81c0.24,0.67 0.38,0.81 0.55,0.79c0.06,-0.01 0.09,-0.04 0.12,-0.1c0.13,0.26 0.23,0.32 0.35,0.31c0.12,-0.01 0.16,-0.14 0.12,-0.39c0.16,0.38 0.28,0.47 0.42,0.46c0.12,-0.01 0.17,-0.15 0.12,-0.41c0.16,0.27 0.27,0.33 0.4,0.31c0.19,-0.02 0.18,-0.3 -0.08,-0.83z" stroke-linecap=" butt" stroke=" none" stroke-dasharray=" none" stroke-dashoffset="0" stroke-linejoin=" miter" stroke-miterlimit="4" fill=" rgb(242,200,176)" fill-rule=" nonzero"/>
     </g>
     <g transform="matrix(1, 0, 0, 1, -8.49, 21.25)" id="Capa_2">
      <polygon id="svg_31" points="1.8161468505859375,4.206508636474609 0.11614990234375,-4.213489532470703 -0.6738510131835938,-2.8434906005859375 -0.6738510131835938,3.5465087890625 " stroke=" none" stroke-dasharray=" none" stroke-linecap=" butt" stroke-dashoffset="0" stroke-linejoin=" miter" stroke-miterlimit="4" fill=" rgb(73,89,164)" fill-rule=" nonzero"/>
     </g>
     <g transform="matrix(1, 0, 0, 1, -7.84, 27.78)" id="Capa_2">
      <polygon id="svg_32" points="2.4661407470703125,2.866518020629883 0.7761383056640625,3.596517562866211 -1.3138580322265625,-2.983480453491211 1.73614501953125,-3.6034793853759766 " stroke=" none" stroke-dasharray=" none" stroke-linecap=" butt" stroke-dashoffset="0" stroke-linejoin=" miter" stroke-miterlimit="4" fill=" rgb(73,89,164)" fill-rule=" nonzero"/>
     </g>
     <g transform="matrix(1, 0, 0, 1, 2.91, 27.96)" id="Capa_2">
      <path id="svg_33" d="m-0.32385,0.47652c0.05,-0.09 0.09,-0.18 0.13,-0.28c-0.04,0.05 -0.08,0.09 -0.12,0.14c-0.3,0.4 -0.74,0.04 -0.19,-0.52c0.17,-0.18 0.36,-0.32 0.56,-0.44c0.04,-0.03 0.09,-0.05 0.14,-0.07c0.1,-0.25 0.18,-0.5 0.25,-0.74l1.36,0.26c0.02,0.16 0.08,0.45 0.11,0.71c-0.08,0.27 -0.17,0.54 -0.27,0.81c-0.24,0.67 -0.38,0.81 -0.55,0.79c-0.06,-0.01 -0.09,-0.04 -0.12,-0.1c-0.13,0.26 -0.23,0.32 -0.35,0.31c-0.12,-0.01 -0.16,-0.14 -0.12,-0.39c-0.16,0.38 -0.28,0.47 -0.42,0.46c-0.12,-0.01 -0.17,-0.15 -0.12,-0.41c-0.16,0.27 -0.27,0.33 -0.4,0.31c-0.16,-0.03 -0.16,-0.3 0.11,-0.84z" stroke-linecap=" butt" stroke=" none" stroke-dasharray=" none" stroke-dashoffset="0" stroke-linejoin=" miter" stroke-miterlimit="4" fill=" rgb(242,200,176)" fill-rule=" nonzero"/>
     </g>
     <g transform="matrix(1, 0, 0, 1, -5.01, 40.52)" id="Capa_2">
      <polygon id="svg_34" points="0.2261505126953125,-0.33348846435546875 0.32614898681640625,-0.17348480224609375 0.6261520385742188,0.016513824462890625 1.6261520385742188,0.0665130615234375 2.1661453247070312,0.4365119934082031 1.9861526489257812,1.0465126037597656 1.7961502075195312,1.0465126037597656 -1.0138473510742188,0.9065132141113281 -0.9538497924804688,-0.6734848022460938 -1.0138473510742188,-1.0134849548339844 -0.103851318359375,-1.0634880065917969 -0.08385467529296875,-0.4834861755371094 " stroke=" none" stroke-dasharray=" none" stroke-linecap=" butt" stroke-dashoffset="0" stroke-linejoin=" miter" stroke-miterlimit="4" fill=" rgb(209,208,209)" fill-rule=" nonzero"/>
     </g>
     <g transform="matrix(1, 0, 0, 1, -5.11, 39.91)" id="Capa_2">
      <polygon id="svg_35" points="0.46614837646484375,-0.4434852600097656 0.7161483764648438,-0.3434867858886719 0.836151123046875,-0.12348556518554688 0.4261474609375,0.4465141296386719 0.32614898681640625,0.2865142822265625 " stroke=" none" stroke-dasharray=" none" stroke-linecap=" butt" stroke-dashoffset="0" stroke-linejoin=" miter" stroke-miterlimit="4" fill=" rgb(141,140,141)" fill-rule=" nonzero"/>
     </g>
     <g transform="matrix(1, 0, 0, 1, 2.94, 39.95)" id="Capa_2">
      <polygon id="svg_36" points="0.2261505126953125,-0.33348846435546875 0.3161468505859375,-0.17348480224609375 0.6261520385742188,0.016513824462890625 1.61614990234375,0.07651519775390625 2.1661453247070312,0.4465141296386719 1.9861526489257812,1.0565147399902344 1.7961502075195312,1.0565147399902344 -1.0138473510742188,0.9065132141113281 -0.9538497924804688,-0.6634864807128906 -1.0138473510742188,-1.0134849548339844 -0.103851318359375,-1.0634880065917969 -0.08385467529296875,-0.4834861755371094 " stroke=" none" stroke-dasharray=" none" stroke-linecap=" butt" stroke-dashoffset="0" stroke-linejoin=" miter" stroke-miterlimit="4" fill=" rgb(209,208,209)" fill-rule=" nonzero"/>
     </g>
     <g transform="matrix(1, 0, 0, 1, 2.85, 39.36)" id="Capa_2">
      <polygon id="svg_37" points="0.37615203857421875,-0.4234886169433594 0.706146240234375,-0.3734893798828125 0.836151123046875,-0.15349197387695312 0.41614532470703125,0.4165077209472656 0.32614898681640625,0.266510009765625 " stroke=" none" stroke-dasharray=" none" stroke-linecap=" butt" stroke-dashoffset="0" stroke-linejoin=" miter" stroke-miterlimit="4" fill=" rgb(141,140,141)" fill-rule=" nonzero"/>
     </g>
     <g transform="matrix(1, 0, 0, 1, -5.9, 25.24)" id="Capa_2">
      <path id="svg_38" d="m0.94616,3.79653c0,0 -0.17,0.04 -0.58,0.19c-0.05,-0.42 -0.58,-5.06 -0.58,-5.06l0.3,-2.92l1.28,7.7l-0.42,0.09z" stroke-linecap=" butt" stroke=" none" stroke-dasharray=" none" stroke-dashoffset="0" stroke-linejoin=" miter" stroke-miterlimit="4" fill=" rgb(52,65,114)" fill-rule=" nonzero"/>
     </g>
     <g transform="matrix(1, 0, 0, 1, -4.86, 19.87)" id="Capa_2">
      <polygon id="svg_39" points="-0.3038482666015625,0.06651115417480469 1.6061477661132812,-0.4634876251220703 1.6061477661132812,-0.03348731994628906 -0.4638519287109375,0.4565105438232422 " stroke=" none" stroke-dasharray=" none" stroke-linecap=" butt" stroke-dashoffset="0" stroke-linejoin=" miter" stroke-miterlimit="4" fill=" rgb(52,65,114)" fill-rule=" nonzero"/>
     </g>
     <g transform="matrix(1, 0, 0, 1, 0.88, 18.73)" id="Capa_2">
      <polygon id="svg_40" points="1.4361495971679688,-0.2634849548339844 -0.5538482666015625,-0.16348648071289062 -0.4038543701171875,0.2565116882324219 1.706146240234375,0.07651519775390625 " stroke=" none" stroke-dasharray=" none" stroke-linecap=" butt" stroke-dashoffset="0" stroke-linejoin=" miter" stroke-miterlimit="4" fill=" rgb(52,65,114)" fill-rule=" nonzero"/>
     </g>
     <g transform="matrix(1, 0, 0, 1, -4.33, 4.3)" id="Capa_2">
      <path id="svg_41" d="m0.44616,0.10651c0.01,-0.01 0.02,-0.02 0.03,-0.03c0.01,-0.01 0.01,-0.01 0.02,-0.02c0,0 0.01,0 0.01,-0.01c0,0 0.01,-0.01 0,0c0.01,-0.01 0.03,-0.02 0.04,-0.03c0.01,-0.01 0.03,-0.02 0.04,-0.02c0,0 0.01,0 0.01,0c0,0 0,0 0.01,0c-0.01,0 -0.01,0 0,0c0.01,0 0.01,-0.01 0.02,-0.01c0.01,-0.01 0.03,-0.01 0.04,-0.01c0.01,0 0.02,0 0.02,-0.01c0,0 0.01,0 0.01,0c0.01,0 -0.01,0 0,0c0.02,0 0.03,0 0.05,0c0.03,0 0.05,-0.02 0.05,-0.05c0,-0.03 -0.02,-0.05 -0.05,-0.05c-0.14,0 -0.28,0.06 -0.37,0.17c-0.02,0.02 -0.02,0.05 0,0.07c0.02,0.02 0.05,0.03 0.07,0l0,0z" stroke-linecap=" butt" stroke=" none" stroke-dasharray=" none" stroke-dashoffset="0" stroke-linejoin=" miter" stroke-miterlimit="4" fill=" rgb(73,39,26)" fill-rule=" nonzero"/>
     </g>
     <g transform="matrix(1, 0, 0, 1, -0.86, 3.6)" id="Capa_2">
      <path id="svg_42" d="m0.45615,0.07651c0.01,-0.01 0.01,-0.01 0.02,-0.02c0.01,-0.01 -0.01,0.01 0,0c0,0 0.01,0 0.01,-0.01c0.01,-0.01 0.02,-0.02 0.04,-0.02c0.01,0 0.01,-0.01 0.02,-0.01c0,0 0,0 0,0c0,0 0,0 0,0c0,0 0.01,0 0.01,0c0.01,-0.01 0.03,-0.01 0.04,-0.01c0.01,0 0.01,0 0.02,0c0,0 0.01,0 0.01,0c0.01,0 -0.01,0 0,0c0.01,0 0.03,0 0.04,0c0.01,0 0.02,0 0.02,0c0,0 0.01,0 0.01,0c0,0 0.01,0 0,0c0.01,0 0.03,0.01 0.04,0.01c0.03,0.01 0.06,-0.01 0.06,-0.04c0.01,-0.03 -0.01,-0.06 -0.04,-0.06c-0.14,-0.04 -0.29,0 -0.39,0.1c-0.02,0.02 -0.02,0.05 0,0.07c0.04,0.01 0.07,0.01 0.09,-0.01l0,0z" stroke-linecap=" butt" stroke=" none" stroke-dasharray=" none" stroke-dashoffset="0" stroke-linejoin=" miter" stroke-miterlimit="4" fill=" rgb(73,39,26)" fill-rule=" nonzero"/>
     </g>
     <g transform="matrix(1, 0, 0, 1, 2.17, 23.15)" id="Capa_2">
      <polygon id="svg_43" points="0.0361480712890625,4.28651237487793 1.11614990234375,4.006513595581055 1.05615234375,-4.293489456176758 0.6861495971679688,-3.4434871673583984 0.43614959716796875,0.9765110015869141 " stroke=" none" stroke-dasharray=" none" stroke-linecap=" butt" stroke-dashoffset="0" stroke-linejoin=" miter" stroke-miterlimit="4" fill=" rgb(52,65,114)" fill-rule=" nonzero"/>
     </g>
     <g transform="matrix(1, 0, 0, 1, 3.7, 24.25)" id="Capa_2">
      <polygon id="svg_44" points="-0.5938491821289062,2.966510772705078 1.1661453247070312,3.466510772705078 1.7461471557617188,-3.003490447998047 -0.5238494873046875,-3.483489990234375 " stroke=" none" stroke-dasharray=" none" stroke-linecap=" butt" stroke-dashoffset="0" stroke-linejoin=" miter" stroke-miterlimit="4" fill=" rgb(73,89,164)" fill-rule=" nonzero"/>
     </g>
     <g transform="matrix(1, 0, 0, 1, 3.72, 18.26)" id="Capa_2">
      <polygon id="svg_45" points="-0.5738525390625,3.796510696411133 -0.5638504028320312,2.946512222290039 -0.4338531494140625,-3.803487777709961 0.80615234375,-2.823488235473633 1.7261505126953125,2.986513137817383 " stroke=" none" stroke-dasharray=" none" stroke-linecap=" butt" stroke-dashoffset="0" stroke-linejoin=" miter" stroke-miterlimit="4" fill=" rgb(73,89,164)" fill-rule=" nonzero"/>
     </g>
    </g>
   </g>
  </g>
 </g>
</svg>