<svg width="25" height="42.5" xmlns="http://www.w3.org/2000/svg" xml:space="preserve" version="1.1">
 <defs>
  <linearGradient y2="0.49964" x2="0.95238" y1="0.49964" x1="0.01175" id="SVGID_1_">
   <stop stop-color="#000000" offset="0"/>
   <stop stop-color="#040303" offset="0.137"/>
   <stop stop-color="#110D0A" offset="0.2804"/>
   <stop stop-color="#261D18" offset="0.4266"/>
   <stop stop-color="#43342A" offset="0.5749"/>
   <stop stop-color="#695242" offset="0.7248"/>
   <stop stop-color="#96755E" offset="0.8737"/>
   <stop stop-color="#C3987A" offset="1"/>
  </linearGradient>
  <linearGradient y2="0.57272" x2="0.78942" y1="0.39109" x1="0.20478" id="SVGID_2_">
   <stop stop-color="#000000" offset="0"/>
   <stop stop-color="#040303" offset="0.137"/>
   <stop stop-color="#110D0A" offset="0.2804"/>
   <stop stop-color="#261D18" offset="0.4266"/>
   <stop stop-color="#43342A" offset="0.5749"/>
   <stop stop-color="#695242" offset="0.7248"/>
   <stop stop-color="#96755E" offset="0.8737"/>
   <stop stop-color="#C3987A" offset="1"/>
  </linearGradient>
  <linearGradient y2="1.22183" x2="0.67416" y1="-0.17545" x1="0.41926" id="SVGID_3_">
   <stop stop-color="#FFFFFF" offset="0.0251"/>
   <stop stop-color="#FFF49F" offset="0.2199"/>
   <stop stop-color="#FEEB15" offset="0.3919"/>
   <stop stop-color="#D1C549" offset="0.4481"/>
   <stop stop-color="#A19C5E" offset="0.525"/>
   <stop stop-color="#7D7F64" offset="0.6026"/>
   <stop stop-color="#616965" offset="0.68"/>
   <stop stop-color="#4E5C63" offset="0.757"/>
   <stop stop-color="#445462" offset="0.8334"/>
   <stop stop-color="#405161" offset="0.9088"/>
  </linearGradient>
 </defs>
 <g>
  <title>Layer 1</title>
  <g id="svg_56">
   <ellipse id="svg_1" enable-background="new" fill="#010202" opacity="0.13" ry="0.8" rx="11.8" cy="40.38379" cx="12.34054" class="st0"/>
   <g id="svg_2">
    <polygon id="svg_3" fill="#2A363F" points="10.440538227558136,35.28378677368164 9.640538990497589,32.883785247802734 9.640538990497589,32.383785247802734 6.340539753437042,32.48378372192383 6.340539753437042,33.18378829956055 5.540540516376495,35.883785247802734 6.540540516376495,35.78378677368164 6.740537464618683,38.18378829956055 4.840539753437042,38.68378829956055 3.8405397534370422,40.18378829956055 8.340539753437042,39.58378982543945 8.340539753437042,39.68378829956055 9.440538227558136,39.78378677368164 9.440538227558136,39.383785247802734 9.440538227558136,38.68378829956055 9.440538227558136,37.883785247802734 9.440538227558136,37.383785247802734 9.540540516376495,35.383785247802734 " class="st1"/>
    <polygon id="svg_4" fill="#2A363F" points="11.140538990497589,35.28378677368164 11.940538227558136,32.98378372192383 11.940538227558136,32.383785247802734 15.340539753437042,32.58378982543945 15.240537464618683,33.28378677368164 15.940538227558136,35.98378372192383 14.940538227558136,35.883785247802734 14.740537464618683,38.28378677368164 16.540540516376495,38.78378677368164 17.540540516376495,40.383785247802734 13.040540516376495,39.58378982543945 13.040540516376495,39.78378677368164 11.940538227558136,39.78378677368164 11.940538227558136,39.48378372192383 11.940538227558136,38.68378829956055 11.940538227558136,37.883785247802734 11.940538227558136,37.383785247802734 11.940538227558136,35.48378372192383 " class="st1"/>
    <path id="svg_5" fill="#5D6E7D" d="m11.94054,0.78379c0,0 -1.3,-0.3 -1.5,-0.3c-0.1,0 -0.9,0 -1.8,0c-1.6,0.6 -3.1,1.1 -3.1,1.1l-2.1,2.9l-0.1,2.3l-0.7,1.2l0.9,4l1.8,0.8l0.7,0.8l0.4,0.2l1.1,0.6l1.2,0.2l0.9,0.2l1.4,1.6l1.3,0.1l1.1,-1.2l1.3,-2.5l0.3,-1.8l-0.8,1.8l-0.6,1l-2.8,0.2l-1.5,-1.4l-2.1,-5.3l0.1,-3.2l3.4,-3.2l1.2,-0.1z" class="st2"/>
    <path id="svg_6" fill="#5D6E7D" d="m5.14054,16.28379l-0.6,0.2l-2.7,4.8l0.1,0.8l3.3,3.4l1.1,1.6l-1.6,10.7c0,0 5.4,-0.4 5.5,-0.4c0.1,0 2.4,0.2 2.4,0.2l3.4,0.3l0,-10l-0.5,-2.1l-0.3,-0.6l0.3,-1.5l0,-3.4l1.2,1.3l1,0.6l1.4,0.3l0.5,0.2l1.2,1l0.4,-1.4l-0.1,-1.6l-0.5,-2.3l-2.3,0.2l-2.5,-4.2l-0.8,-0.1l-3,3l-0.4,0l-2.1,-0.8l-2.6,-0.7l-1.8,0.5z" class="st2"/>
    <polygon id="svg_7" fill="#7E8C96" points="15.240537464618683,25.183788299560547 7.940538227558136,25.183788299560547 7.840539753437042,24.78378677368164 10.840539753437042,24.683788299560547 15.240537464618683,24.78378677368164 " class="st3"/>
    <polygon id="svg_8" fill="#405161" points="15.540540516376495,21.183788299560547 15.540540516376495,23.683788299560547 15.240537464618683,24.78378677368164 10.840539753437042,24.683788299560547 7.940538227558136,24.78378677368164 7.740537464618683,24.083789825439453 7.740537464618683,22.983783721923828 7.940538227558136,23.183788299560547 8.140538990497589,23.78378677368164 8.740537464618683,24.183788299560547 10.340539753437042,24.383785247802734 13.440538227558136,24.483783721923828 15.040540516376495,24.383785247802734 15.240537464618683,23.683788299560547 15.440538227558136,21.083789825439453 " class="st4"/>
    <polygon id="svg_9" fill="#020203" points="6.840539753437042,27.583789825439453 7.240537464618683,27.583789825439453 7.540540516376495,27.183788299560547 7.940538227558136,25.28378677368164 8.040540516376495,23.583789825439453 7.840539753437042,23.183788299560547 7.640538990497589,22.983783721923828 7.340539753437042,23.083789825439453 7.040540516376495,23.28378677368164 6.840539753437042,23.683788299560547 6.340539753437042,25.583789825439453 6.440538227558136,27.083789825439453 " class="st5"/>
    <polygon id="svg_10" fill="#405161" points="15.540540516376495,20.183788299560547 16.740537464618683,21.483783721923828 17.740537464618683,22.183788299560547 19.240537464618683,22.483783721923828 17.740537464618683,21.883785247802734 16.740537464618683,21.28378677368164 15.640538990497589,19.683788299560547 15.440538227558136,17.28378677368164 15.340539753437042,19.983783721923828 15.440538227558136,21.083789825439453 15.540540516376495,21.183788299560547 " class="st4"/>
    <polygon id="svg_11" fill="#020203" points="20.740537464618683,18.483783721923828 20.540540516376495,18.683788299560547 20.340539753437042,19.583789825439453 20.340539753437042,20.78378677368164 20.340539753437042,22.28378677368164 20.64053899049759,23.383785247802734 20.740537464618683,23.583789825439453 20.840539753437042,23.683788299560547 20.940538227558136,23.583789825439453 21.040540516376495,23.383785247802734 21.340539753437042,22.28378677368164 21.340539753437042,20.683788299560547 21.240537464618683,19.383785247802734 21.040540516376495,18.683788299560547 20.940538227558136,18.483783721923828 " class="st5"/>
    <polygon id="svg_12" fill="#405161" points="10.040540516376495,17.78378677368164 7.140538990497589,17.383785247802734 5.740537464618683,16.183788299560547 6.340539753437042,15.983787536621094 7.340539753437042,17.083786010742188 " class="st4"/>
    <path id="svg_13" fill="#C3987A" d="m22.74054,18.48379c-0.1,0 -0.2,0 -0.2,0c0,0 0.1,0 0.1,-0.1c0.4,-0.1 0.2,-0.6 -0.4,-0.3c-0.2,0.1 -0.3,0.2 -0.5,0.3c0,0 -0.1,0.1 -0.1,0.1c-0.2,0 -0.4,0 -0.6,0l-0.2,1.4c0.1,0 0.1,0 0.2,0c0.1,0 0.3,0 0.4,0c0.2,0 0.5,0 0.7,0c0.6,0 0.7,-0.1 0.8,-0.3c0,0 0,-0.1 -0.1,-0.1c0.2,0 0.3,-0.1 0.3,-0.2c0,-0.1 -0.1,-0.2 -0.3,-0.2c0.3,0 0.4,-0.1 0.5,-0.2c0,-0.1 -0.1,-0.2 -0.3,-0.2c0.2,-0.1 0.3,-0.1 0.3,-0.2c0.1,0 -0.1,0 -0.6,0z" class="st6"/>
    <polygon id="svg_14" fill="url(#SVGID_1_)" points="20.740537464618683,18.683788299560547 21.440538227558136,18.683788299560547 21.340539753437042,20.083789825439453 20.64053899049759,20.083789825439453 " class="st7"/>
    <path id="svg_15" fill="#C3987A" d="m9.44054,23.68379c-0.1,0 -0.2,0 -0.2,-0.1c0,0.1 0.1,0.1 0.2,0.1c0.3,-0.1 0.3,-0.5 -0.3,-0.5c-0.2,0 -0.4,0.1 -0.6,0.1c0,0 -0.1,0 -0.1,0.1c-0.2,-0.1 -0.4,-0.1 -0.6,-0.2l-0.7,1.2c0.1,0 0.1,0.1 0.2,0.1c0.1,0.1 0.3,0.1 0.4,0.2c0.2,0.1 0.4,0.2 0.7,0.2c0.6,0.2 0.7,0.2 0.8,0c0,0 0,-0.1 0,-0.1c0.2,0 0.3,0 0.4,-0.1c0.1,-0.1 0,-0.2 -0.2,-0.3c0.3,0.1 0.5,0.1 0.5,0c0.1,-0.1 0,-0.2 -0.2,-0.3c0.3,0 0.4,0 0.4,-0.1c0,0 -0.2,-0.2 -0.7,-0.3z" class="st6"/>
    <polygon id="svg_16" fill="url(#SVGID_2_)" points="7.540540516376495,23.183788299560547 8.140538990497589,23.383785247802734 7.540540516376495,24.683788299560547 6.940538227558136,24.483783721923828 " class="st8"/>
    <polygon id="svg_17" fill="#405161" points="22.14053899049759,20.183788299560547 21.340539753437042,35.883785247802734 21.240537464618683,36.78378677368164 21.340539753437042,38.98378372192383 21.14053899049759,39.78378677368164 20.740537464618683,40.383785247802734 21.340539753437042,40.28378677368164 21.440538227558136,40.28378677368164 22.040540516376495,40.383785247802734 21.64053899049759,40.08378982543945 21.840539753437042,39.78378677368164 21.740537464618683,39.383785247802734 21.740537464618683,37.68378829956055 21.740537464618683,36.68378829956055 21.740537464618683,35.28378677368164 22.040540516376495,28.983783721923828 22.440538227558136,24.28378677368164 23.340539753437042,13.083786010742188 23.540540516376495,12.183788299560547 23.540540516376495,9.583786010742188 24.14053899049759,5.283786773681641 22.940538227558136,5.283786773681641 22.240537464618683,5.883785247802734 22.340539753437042,6.983787536621094 22.440538227558136,9.28378677368164 22.64053899049759,12.383785247802734 22.540540516376495,13.78378677368164 " class="st4"/>
    <path id="svg_18" fill="url(#SVGID_3_)" d="m23.74054,7.88379c0,0 -0.3,0.1 -0.7,0.1c-0.3,0 -0.5,0.1 -0.6,0.1c0,0 0,-1.1 -0.1,-1.4c0,-0.4 -0.1,-0.9 -0.1,-0.9l0.7,-0.6l1.2,0l-0.4,2.7z" class="st9"/>
    <g id="svg_19">
     <path id="svg_20" fill="#FFFFFF" d="m22.94054,5.48379c0,0 -0.1,-0.1 -0.1,-0.1c0,0 0,0 0,0l-0.3,0.1l0.3,-0.2c0,0 0.1,-0.1 0.1,-0.2l-0.2,-0.5l0.3,0.5c0,0 0.1,0.1 0.1,0.1c0,0 0,0 0,0l0.4,-0.1l-0.4,0.2c-0.1,0 -0.1,0.1 -0.2,0.2l0.2,0.3l-0.2,-0.3z" class="st10"/>
     <path id="svg_21" fill="#FEEB15" d="m22.54054,4.58379l0.3,0.5c0,0 0.1,0.1 0.2,0.1c0,0 0,0 0,0l0.4,-0.1l-0.4,0.2c-0.1,0 -0.1,0.1 -0.1,0.2l0.1,0.4l-0.2,-0.3c0,0 -0.1,-0.1 -0.1,-0.1c0,0 0,0 0,0l-0.3,0.1l0.3,-0.2c0,0 0.1,-0.1 0.1,-0.2l-0.3,-0.6m0,0l0.2,0.6c0,0.1 0,0.1 -0.1,0.2l-0.3,0.2l0.3,-0.1c0,0 0,0 0,0c0.1,0 0.1,0 0.1,0.1l0.2,0.4l-0.1,-0.4c0,-0.1 0,-0.1 0.1,-0.2l0.4,-0.2l-0.4,0.1c0,0 0,0 0,0c-0.1,0 -0.1,0 -0.1,-0.1l-0.3,-0.6l0,0z" class="st11"/>
    </g>
    <polygon id="svg_22" fill="#020203" points="11.940538227558136,0.7837867736816406 10.640538990497589,0.8837852478027344 8.740537464618683,2.0837860107421875 7.740537464618683,3.8837852478027344 7.340539753437042,7.183788299560547 8.640538990497589,11.683788299560547 9.440538227558136,12.383785247802734 10.140538990497589,13.383785247802734 10.940538227558136,13.883785247802734 11.540540516376495,13.883785247802734 11.840539753437042,14.28378677368164 12.340539753437042,14.483787536621094 12.840539753437042,14.28378677368164 13.140538990497589,13.883785247802734 13.740537464618683,13.683788299560547 14.440538227558136,12.78378677368164 15.140538990497589,10.883785247802734 15.440538227558136,8.383785247802734 15.440538227558136,5.483787536621094 14.840539753437042,3.0837860107421875 13.340539753437042,1.4837875366210938 " class="st5"/>
    <polygon id="svg_23" fill="#405161" points="6.040540516376495,13.683788299560547 5.340539753437042,14.483787536621094 4.740537464618683,16.483787536621094 6.940538227558136,15.78378677368164 9.540540516376495,16.983787536621094 11.840539753437042,17.483787536621094 12.740537464618683,17.083786010742188 14.240537464618683,15.583786010742188 15.140538990497589,14.28378677368164 14.140538990497589,13.78378677368164 13.440538227558136,15.183788299560547 12.540540516376495,16.083786010742188 12.140538990497589,16.383785247802734 11.540540516376495,16.383785247802734 11.040540516376495,16.083786010742188 9.640538990497589,14.78378677368164 9.540540516376495,14.78378677368164 9.240537464618683,14.78378677368164 7.540540516376495,14.483787536621094 " class="st4"/>
    <g id="svg_24">
     <path id="svg_25" fill="#FEEB15" d="m20.54054,6.58379l3,-1.2c0.1,-0.1 0.1,-0.2 0.1,-0.3l-1.3,-3.4l1.5,3.3c0.1,0.1 0.2,0.2 0.4,0.1l2.4,-0.9l-2.4,1.1c-0.1,0.1 -0.1,0.2 -0.1,0.3l1.3,3.6l-1.5,-3.4c-0.1,-0.1 -0.2,-0.2 -0.4,-0.1l-3,0.9z" class="st11"/>
    </g>
    <g id="svg_26">
     <circle id="svg_27" fill="#29337B" r="0.3" cy="8.68379" cx="13.84054" class="st12"/>
     <circle id="svg_28" fill="#0561A8" r="0.3" cy="8.68379" cx="13.84054" class="st13"/>
     <circle id="svg_29" fill="#03A0C4" r="0.2" cy="8.68379" cx="13.84054" class="st14"/>
     <circle id="svg_30" fill="#10B5C4" r="0.2" cy="8.68379" cx="13.84054" class="st15"/>
    </g>
    <g id="svg_31">
     <circle id="svg_32" fill="#29337B" r="0.3" cy="8.68379" cx="10.94054" class="st12"/>
     <circle id="svg_33" fill="#0561A8" r="0.3" cy="8.68379" cx="10.94054" class="st13"/>
     <circle id="svg_34" fill="#03A0C4" r="0.2" cy="8.68379" cx="10.94054" class="st14"/>
     <circle id="svg_35" fill="#10B5C4" r="0.2" cy="8.68379" cx="10.94054" class="st15"/>
    </g>
    <path id="svg_36" fill="#405161" d="m9.64054,14.78379c0,0 -0.8,-0.5 -0.8,-0.5s-0.8,-0.8 -0.8,-0.8l-0.1,-1.4l-0.1,1.5l0.8,0.7l0.4,0.3l0.6,0.2z" class="st4"/>
    <polygon id="svg_37" fill="#405161" points="6.040540516376495,13.683788299560547 5.340539753437042,12.883785247802734 3.5405386090278625,12.083786010742188 3.440538227558136,11.683788299560547 5.040540516376495,12.28378677368164 5.440538227558136,10.78378677368164 5.340539753437042,12.383785247802734 5.740537464618683,12.883785247802734 6.440538227558136,13.883785247802734 " class="st4"/>
    <polygon id="svg_38" fill="#405161" points="8.040540516376495,4.283786773681641 7.440538227558136,4.483787536621094 6.940538227558136,5.183788299560547 6.840539753437042,7.283786773681641 7.140538990497589,8.683788299560547 6.740537464618683,7.283786773681641 6.840539753437042,5.183788299560547 7.240537464618683,3.7837867736816406 8.640538990497589,1.7837867736816406 10.740537464618683,0.6837882995605469 11.940538227558136,0.7837867736816406 12.640538990497589,1.1837882995605469 10.640538990497589,1.3837852478027344 9.040540516376495,2.5837860107421875 " class="st4"/>
    <polygon id="svg_39" fill="#405161" points="7.640538990497589,7.0837860107421875 8.640538990497589,11.683788299560547 8.340539753437042,11.483787536621094 7.140538990497589,7.183788299560547 7.440538227558136,4.383785247802734 8.040540516376495,4.283786773681641 " class="st4"/>
    <path id="svg_40" fill="#405161" d="m7.24054,8.18379l-0.3,-0.9l0.2,-2.4l0.2,-0.3c0,0 -0.3,2.7 -0.3,2.7s0.2,0.9 0.2,0.9z" class="st4"/>
    <path id="svg_41" fill="#405161" d="m3.34054,6.78379l0,0.8l0.1,0.6c0,0 0.4,1 0.4,0.9c0,0 -0.5,-0.9 -0.5,-0.9l-0.2,-0.6l-0.1,-0.5l0.3,-0.3z" class="st4"/>
    <path id="svg_42" fill="#405161" d="m10.54054,25.18379l0.1,0.3l-0.1,0.5c0,0 -0.2,0.4 -0.1,0.4c0,0 0.3,-0.3 0.3,-0.3l0.1,-0.5l0,-0.3l-0.3,-0.1l0,0z" class="st4"/>
    <path id="svg_43" fill="#405161" d="m12.54054,25.18379l0,0l0.3,0l-0.1,0.1l0.1,0.3c0,0 0.1,0.1 0.1,0.2c0,0 -0.3,-0.2 -0.3,-0.2l-0.1,-0.3l0,0.1l0.1,0.5c0,0 0.2,0.4 0.1,0.4c0,0 -0.3,-0.3 -0.3,-0.3l-0.1,-0.5l0,-0.3l0.2,0l0,0z" class="st4"/>
    <path id="svg_44" fill="#405161" d="m9.04054,1.78379l-0.9,0.5l-0.7,0.6c0,0 -0.9,1.1 -0.9,1.1c0,-0.1 0.7,-1.2 0.7,-1.2l0.5,-0.6l0.9,-0.4l0.4,0z" class="st4"/>
    <polygon id="svg_45" fill="#405161" points="5.840539753437042,21.583789825439453 7.640538990497589,22.983783721923828 7.740537464618683,23.183788299560547 7.740537464618683,22.983783721923828 " class="st4"/>
    <path id="svg_46" fill="#405161" d="m18.34054,18.38379l0,0l0.1,0.2l-0.2,0l-0.1,0.2c0,0 -0.1,0.2 -0.1,0.2c0,0 0,-0.3 0,-0.3l0.2,-0.2l-0.1,0l-0.5,0.3c0,0 -0.3,0.4 -0.3,0.3s0.1,-0.4 0.1,-0.4l0.4,-0.4l0.2,-0.2l0.3,0.3z" class="st4"/>
    <path id="svg_47" fill="#405161" d="m5.04054,20.88379l0,0l0.3,0.3l-0.3,-0.1l-0.2,0.2c0,0 -0.1,0.1 -0.1,0.2c0,0 0,-0.3 0,-0.3l0.2,-0.2l-0.1,0l-0.3,0.3c0,0 -0.2,0.3 -0.2,0.3c0,0 0.1,-0.3 0.1,-0.3l0.4,-0.3l0.1,-0.1l0,-0.4l0.1,0.3l0,0.1z" class="st4"/>
    <polygon id="svg_48" fill="#405161" points="10.340539753437042,37.383785247802734 16.040540516376495,37.78378677368164 16.040540516376495,37.58378982543945 10.340539753437042,37.08378982543945 10.240537464618683,32.78378677368164 10.040540516376495,33.58378982543945 10.040540516376495,34.68378829956055 9.640538990497589,35.18378829956055 9.540540516376495,36.28378677368164 8.740537464618683,37.28378677368164 4.840539753437042,37.58378982543945 4.740537464618683,37.78378677368164 " class="st4"/>
    <path id="svg_49" fill="#405161" d="m10.64054,14.48379c0,0.4 -0.1,0.7 -0.1,1.1c0.1,0.2 0.3,0.7 0.3,0.7l0.4,0.1l-0.5,-0.8l-0.1,-1.1z" class="st4"/>
    <path id="svg_50" fill="#405161" d="m13.34054,14.08379c0,0.4 0.1,0.7 0.1,1.1c-0.1,0.2 -0.3,0.7 -0.3,0.7l-0.4,0.1l0.5,-0.8l0.1,-1.1z" class="st4"/>
    <path id="svg_51" fill="#405161" d="m19.64054,22.68379l0,-0.2l0,-0.2c0,0 0,-0.1 0.1,-0.3c-0.1,0.2 -0.2,0.3 -0.2,0.3l0,0.2l-0.1,-0.3l-0.1,-0.5c0,0 0,-0.1 0,-0.4c0,0.2 -0.1,0.4 -0.1,0.4l0,0.5l0.1,0.3l0.3,0.2z" class="st4"/>
    <path id="svg_52" fill="#405161" d="m10.34054,25.18379l0.1,0.2l0,0.4c0,0 -0.1,0.4 -0.1,0.3c0,0 0.2,-0.3 0.2,-0.3l0.1,-0.5l0,-0.2l-0.3,0l0,0.1z" class="st4"/>
    <polygon id="svg_53" fill="#405161" points="5.940538227558136,19.183788299560547 5.140538990497589,20.583789825439453 5.040540516376495,20.883785247802734 5.340539753437042,21.083789825439453 5.940538227558136,21.683788299560547 6.840539753437042,22.383785247802734 6.540540516376495,21.483783721923828 6.240537464618683,20.683788299560547 6.140538990497589,19.78378677368164 6.340539753437042,18.983783721923828 " class="st4"/>
    <polygon id="svg_54" fill="#405161" points="14.840539753437042,25.183788299560547 15.340539753437042,25.883785247802734 15.940538227558136,27.883785247802734 16.040540516376495,30.883785247802734 16.040540516376495,30.983783721923828 16.14053899049759,27.883785247802734 15.540540516376495,25.78378677368164 15.240537464618683,25.183788299560547 " class="st4"/>
    <polygon id="svg_55" fill="#1D2A33" points="12.640538990497589,1.1837882995605469 13.340539753437042,1.7837867736816406 15.040540516376495,3.8837852478027344 15.440538227558136,5.783786773681641 15.340539753437042,8.183788299560547 15.340539753437042,9.183788299560547 15.240537464618683,10.083786010742188 15.240537464618683,9.183788299560547 15.140538990497589,8.183788299560547 15.240537464618683,5.783786773681641 14.740537464618683,3.8837852478027344 12.340539753437042,1.1837882995605469 " class="st16"/>
   </g>
  </g>
 </g>
</svg>