<svg width="28" height="52" xmlns="http://www.w3.org/2000/svg" xml:space="preserve" version="1.1">

 <g>
  <title>Layer 1</title>
  <g id="svg_91">
   <g id="svg_1">
    <polygon id="svg_2" fill="#94A7D6" points="18.705714225769043,36.494300842285156 8.28571605682373,36.494300842285156 10.335715293884277,22.574302673339844 11.00571346282959,22.264301300048828 18.26571559906006,22.304302215576172 " class="st0"/>
    <polygon id="svg_3" fill="#838383" points="20.09571361541748,39.304298400878906 7.305712699890137,39.304298400878906 7.735713005065918,33.48429870605469 18.18571376800537,33.67430114746094 " class="st1"/>
    <polygon id="svg_4" fill="#838383" points="10.575713157653809,47.96430206298828 6.865714073181152,47.96430206298828 7.325713157653809,34.89430236816406 13.215716361999512,35.77429962158203 " class="st1"/>
    <polygon id="svg_5" fill="#838383" points="20.57571315765381,47.71430206298828 17.245715141296387,47.71430206298828 15.335715293884277,35.264305114746094 21.1657133102417,35.70429992675781 " class="st1"/>
    <path id="svg_6" fill="#352E29" d="m4.57571,9.8643c0.12,0.02 1.67,1.07 1.87,1.13c0.2,0.06 2.72,0.79 2.72,0.79l0.16,-1.05l-2.1,-0.47l-2.65,-0.4z" class="st2"/>
    <polygon id="svg_7" fill="#C3987A" points="13.125716209411621,7.314300537109375 20.115714073181152,9.054302215576172 22.60571575164795,8.084300994873047 23.315714836120605,11.414302825927734 23.405714988708496,20.994300842285156 18.28571605682373,22.2843017578125 17.815714836120605,23.494300842285156 14.745715141296387,27.304302215576172 11.00571346282959,23.324302673339844 9.985713005065918,16.974300384521484 8.985713005065918,16.554302215576172 8.28571605682373,13.954303741455078 8.675715446472168,13.094303131103516 9.015715599060059,12.814300537109375 9.4157133102417,12.804302215576172 10.365714073181152,14.674301147460938 11.625716209411621,14.474300384521484 10.615714073181152,9.344303131103516 " class="st3"/>
    <polygon id="svg_8" fill="#E0BDA5" points="13.34571361541748,7.384300231933594 13.85571575164795,20.884300231933594 23.405714988708496,20.994300842285156 23.315714836120605,11.064300537109375 22.835715293884277,8.114303588867188 20.245715141296387,9.064300537109375 " class="st4"/>
    <polygon id="svg_9" fill="#8A6752" points="23.405714988708496,20.994300842285156 20.35571575164795,20.954303741455078 20.085715293884277,21.484302520751953 18.295714378356934,21.324302673339844 17.94571590423584,20.924301147460938 13.85571575164795,20.884300231933594 11.525713920593262,19.514301300048828 13.50571346282959,22.654300689697266 17.815714836120605,23.494300842285156 18.28571605682373,22.2843017578125 " class="st5"/>
    <circle id="svg_10" fill="#49271A" r="0.29" cy="13.2243" cx="17.28571" class="st6"/>
    <g id="svg_11">
     <g id="svg_12">
      <g id="svg_13">
       <path id="svg_14" fill="#49271A" d="m17.13571,12.6843c0.01,0 0.02,-0.01 0.02,-0.01c0.01,0 -0.02,0.01 0,0c0,0 0.01,0 0.01,0c0.01,-0.01 0.03,-0.01 0.04,-0.01c0.01,0 0.02,-0.01 0.04,-0.01c0.01,0 0.01,0 0.02,0c0,0 0.01,0 0.01,0c0.01,0 -0.02,0 -0.01,0c0.02,0 0.04,0 0.07,0c0.01,0 -0.02,0 -0.01,0c0,0 0.01,0 0.01,0c0,0 0.01,0 0.01,0c0.01,0 0.02,0.01 0.03,0.01c0.02,0.01 -0.02,-0.01 0,0c0,0 0.01,0 0.01,0.01c0.01,0.01 0.02,0.01 0.03,0.02c0,0 0.01,0.01 0.01,0.01c0.02,0.01 -0.01,-0.01 0,0c0.01,0.01 0.02,0.01 0.03,0.02c0.04,0.03 0.07,0.07 0.1,0.11c0.01,0.01 0.01,0.01 0.01,0.02c0,0 0,0.01 0.01,0.01c0.01,0.01 -0.01,-0.02 0,0c0.01,0.01 0.02,0.03 0.03,0.04c0.03,0.03 0.05,0.07 0.08,0.1c0.01,0.01 0.04,0.02 0.05,0.02c0.02,0 0.04,-0.01 0.05,-0.02c0.01,-0.01 0.02,-0.03 0.02,-0.05c0,-0.02 -0.01,-0.04 -0.02,-0.05c0.01,0.02 0,0 0,0c0,0 -0.01,-0.01 -0.01,-0.01c0,-0.01 -0.01,-0.01 -0.01,-0.02c-0.01,-0.01 -0.02,-0.03 -0.03,-0.04c-0.02,-0.03 -0.04,-0.06 -0.07,-0.09c-0.03,-0.04 -0.07,-0.08 -0.11,-0.12c-0.08,-0.07 -0.17,-0.12 -0.28,-0.11c-0.08,0.01 -0.15,0.03 -0.22,0.06c-0.04,0.02 -0.05,0.07 -0.03,0.11c0.03,0.01 0.07,0.02 0.11,0l0,0z" class="st6"/>
      </g>
     </g>
    </g>
    <circle id="svg_15" fill="#49271A" r="0.29" cy="13.5643" cx="20.85571" class="st6"/>
    <g id="svg_16">
     <g id="svg_17">
      <path id="svg_18" fill="#49271A" d="m21.20571,13.2343c-0.1,-0.05 -0.22,-0.08 -0.33,-0.08c-0.11,0 -0.23,0.02 -0.33,0.07c-0.02,0.01 -0.03,0.03 -0.04,0.05c-0.01,0.02 0,0.05 0.01,0.06c0.03,0.04 0.07,0.05 0.11,0.03c0,0 0.01,0 0.01,-0.01c0.01,0 -0.02,0.01 0,0c0.01,0 0.01,-0.01 0.02,-0.01c0.02,-0.01 0.03,-0.01 0.05,-0.01c0.03,-0.01 0.06,-0.02 0.09,-0.02c-0.01,0 -0.01,0 -0.02,0c0.06,-0.01 0.12,-0.01 0.18,0c-0.01,0 -0.01,0 -0.02,0c0.04,0 0.07,0.01 0.1,0.02c0.02,0.01 0.03,0.01 0.05,0.02c0,0 0.01,0 0.01,0c0,0 0,0 0.01,0c0,0 -0.01,0 -0.01,0c0.01,0 0.02,0.01 0.03,0.01c0.02,0.01 0.04,0.01 0.06,0.01c0.02,-0.01 0.04,-0.02 0.05,-0.04c0.02,-0.03 0.01,-0.08 -0.03,-0.1l0,0z" class="st6"/>
     </g>
    </g>
    <ellipse id="svg_19" fill="#DDAC8A" ry="0.78" rx="0.6" cy="26.92421" cx="77.73654" class="st7" transform="matrix(0.0108, -0.9999, 0.9999, 0.0108, -10.9095, 93.337)"/>
    <ellipse id="svg_20" fill="#DDAC8A" ry="0.78" rx="0.6" cy="26.97421" cx="82.26654" class="st7" transform="matrix(0.0108, -0.9999, 0.9999, 0.0108, -6.4739, 97.919)"/>
    <polygon id="svg_21" fill="#E0BDA5" points="17.885714530944824,20.85430145263672 18.295714378356934,21.324302673339844 20.085715293884277,21.484302520751953 20.455714225769043,20.764301300048828 " class="st4"/>
    <path id="svg_22" enable-background="new" fill="#694F3F" opacity="0.21" d="m23.36571,16.4743c0,0 -0.57,1.92 -0.54,1.82c-0.63,-0.42 -2.46,-1.55 -2.46,-1.55l-0.59,0l-0.34,0.36l-0.41,-0.46l-0.59,0.02l-2.93,1.1l-0.23,-1.21l-1.63,-1.28l-1.97,-0.95l-1.03,0.39l0.88,4.8l2.33,1.37l4.09,0.05l0.35,0.4l1.78,0.15l0.27,-0.53l3.06,0.03l-0.04,-4.51zm-2.79,3.67l-0.32,-0.91l-0.69,-0.54l-0.62,0.03l-0.69,0.39l-0.46,0.83l-0.75,-0.23l-0.22,-1.16l1.67,-0.83l1.78,0.1c0,0 0.83,0.57 1.31,0.76c-0.02,0.06 -0.46,1.3 -0.46,1.3l-0.55,0.26z" class="st8"/>
    <g id="svg_23">
     <g id="svg_24">
      <g id="svg_25">
       <path id="svg_26" fill="#49271A" d="m20.11571,18.1043c-0.3,0.01 -0.6,0.08 -0.9,0.09c-0.08,0 -0.16,0 -0.24,-0.01c0.01,0 0.03,0 0.04,0.01c-0.08,-0.01 -0.17,-0.03 -0.25,-0.07c0.01,0.01 0.02,0.01 0.04,0.02c-0.06,-0.03 -0.12,-0.06 -0.18,-0.11c0.01,0.01 0.02,0.02 0.03,0.02c-0.02,-0.01 -0.04,-0.03 -0.05,-0.04c-0.03,-0.03 -0.07,-0.04 -0.11,-0.04c-0.04,0 -0.08,0.02 -0.11,0.04c-0.03,0.03 -0.05,0.07 -0.04,0.11c0,0.04 0.01,0.08 0.04,0.11c0.05,0.04 0.1,0.09 0.16,0.12c0.05,0.03 0.11,0.06 0.17,0.08c0.11,0.04 0.23,0.06 0.34,0.07c0.22,0.01 0.45,-0.02 0.67,-0.05c0.13,-0.02 0.26,-0.03 0.38,-0.04c0.04,0 0.08,-0.02 0.11,-0.04c0.03,-0.03 0.05,-0.07 0.04,-0.11c0,-0.04 -0.01,-0.08 -0.04,-0.11c-0.02,-0.03 -0.06,-0.05 -0.1,-0.05l0,0z" class="st6"/>
      </g>
     </g>
    </g>
    <polygon id="svg_27" fill="#7B5938" points="4.575715065002441,9.864303588867188 7.915713310241699,10.69430160522461 12.615714073181152,11.484302520751953 17.10571575164795,11.7843017578125 24.655714988708496,11.334300994873047 27.12571620941162,10.704303741455078 28.795714378356934,9.684303283691406 9.865714073181152,10.164302825927734 5.155714988708496,9.62430191040039 " class="st9"/>
    <polygon id="svg_28" fill="#7B5938" points="13.085715293884277,0.46430206298828125 10.03571605682373,2.7443008422851562 9.44571590423584,10.114303588867188 13.1657133102417,10.69430160522461 23.145712852478027,10.614303588867188 23.495715141296387,8.554302215576172 23.00571346282959,7.054302215576172 22.645712852478027,3.484302520751953 19.885714530944824,0.4143028259277344 16.51571559906006,0.9143028259277344 " class="st9"/>
    <path id="svg_29" fill="#352E29" d="m9.56571,7.5143l-0.12,2.6l2.42,-0.09c0,0 3.12,-0.42 3.2,-0.42c0.08,0 8.29,0.21 8.29,0.21l0.14,-1.27l-0.42,-1.34l-0.07,-0.44l-5.54,0.25l-7.9,0.5z" class="st2"/>
    <polygon id="svg_30" fill="#4F3D2E" points="9.09571361541748,12.804302215576172 9.145712852478027,10.904300689697266 11.625716209411621,11.314300537109375 11.735713005065918,13.484302520751953 11.515715599060059,15.934303283691406 10.865714073181152,15.954303741455078 10.365714073181152,14.724300384521484 9.4157133102417,12.804302215576172 " class="st10"/>
    <polygon id="svg_31" enable-background="new" fill="#694F3F" opacity="0.21" points="11.655714988708496,11.87430191040039 11.69571590423584,12.654300689697266 13.565714836120605,13.304302215576172 23.32571315765381,12.114303588867188 23.315714836120605,11.414302825927734 17.34571361541748,11.7843017578125 12.615714073181152,11.484302520751953 11.625716209411621,11.264301300048828 " class="st8"/>
    <polygon id="svg_32" fill="#B58E73" points="18.905714988708496,12.244300842285156 18.705714225769043,16.744300842285156 20.365714073181152,16.744300842285156 19.68571376800537,12.394302368164062 " class="st11"/>
    <polygon id="svg_33" fill="#010202" points="10.775713920593262,34.014305114746094 17.805712699890137,34.014305114746094 17.82571315765381,33.22430419921875 10.75571346282959,33.11430358886719 " class="st12"/>
    <polygon id="svg_34" fill="#2C1C11" points="20.71571636199951,47.71430206298828 22.43571376800537,48.10430145263672 23.735713005065918,49.124305725097656 23.735713005065918,49.83430480957031 17.37571620941162,49.46430206298828 17.175715446472168,47.71430206298828 " class="st13"/>
    <polygon id="svg_35" fill="#2C1C11" points="10.405714988708496,47.96430206298828 12.125716209411621,48.36430358886719 13.425715446472168,49.374305725097656 13.425715446472168,50.09429931640625 7.0657148361206055,49.72430419921875 6.865714073181152,47.96430206298828 " class="st13"/>
    <rect id="svg_36" fill="#FFD402" height="1.07" width="1.61" class="st14" y="33.0343" x="13.75571"/>
    <polygon id="svg_37" fill="#7088B9" points="14.745715141296387,27.304302215576172 17.25571346282959,25.924301147460938 17.69571590423584,25.684303283691406 16.87571620941162,33.21430206298828 17.34571361541748,33.22430419921875 18.065714836120605,24.704303741455078 17.03571605682373,25.634300231933594 " class="st15"/>
    <polygon id="svg_38" fill="#7088B9" points="10.75571346282959,33.11430358886719 11.085715293884277,33.124305725097656 10.895712852478027,25.314300537109375 12.465716361999512,26.274303436279297 14.745715141296387,27.304302215576172 12.895712852478027,25.94430160522461 11.4157133102417,24.44430160522461 10.435713768005371,25.164302825927734 " class="st15"/>
    <polygon id="svg_39" fill="#71706F" points="7.155714988708496,39.744300842285156 11.19571590423584,39.744300842285156 11.19571590423584,34.014305114746094 10.775713920593262,34.014305114746094 10.75571346282959,39.304298400878906 7.155714988708496,39.304298400878906 " class="st16"/>
    <polygon id="svg_40" fill="#694F3F" points="16.82571315765381,39.304298400878906 21.395712852478027,39.304298400878906 22.205714225769043,27.474300384521484 25.145712852478027,29.814300537109375 27.19571590423584,27.934303283691406 22.52571392059326,23.494300842285156 20.455714225769043,23.21430206298828 19.53571605682373,22.844303131103516 18.26571559906006,22.304302215576172 " class="st17"/>
    <polygon id="svg_41" fill="#4D69A4" points="14.765715599060059,27.304302215576172 17.03571605682373,25.634300231933594 18.57571315765381,24.244300842285156 20.18571376800537,25.404300689697266 19.53571605682373,22.844303131103516 18.26571559906006,22.304302215576172 17.815714836120605,23.494300842285156 " class="st18"/>
    <polygon id="svg_42" fill="#71706F" points="16.82571315765381,34.014305114746094 16.43571376800537,39.744300842285156 20.96571636199951,39.744300842285156 20.985713005065918,39.304298400878906 16.82571315765381,39.304298400878906 17.27571392059326,34.014305114746094 " class="st16"/>
    <path id="svg_43" fill="#71706F" d="m16.82571,33.2143" class="st16"/>
    <path id="svg_44" fill="#71706F" d="m17.49571,25.9243" class="st16"/>
    <polygon id="svg_45" fill="#56413A" points="17.975714683532715,25.684303283691406 18.77571392059326,24.824302673339844 20.18571376800537,25.404300689697266 18.57571315765381,24.244300842285156 18.065714836120605,24.704303741455078 " class="st19"/>
    <polygon id="svg_46" fill="#694F3F" points="11.00571346282959,39.304298400878906 6.215714454650879,39.304298400878906 6.425715446472168,32.79430389404297 5.855713844299316,24.174301147460938 6.64571475982666,23.87430191040039 7.495715141296387,23.564300537109375 8.955714225769043,23.204303741455078 9.725714683532715,22.7843017578125 10.335715293884277,22.574302673339844 " class="st17"/>
    <polygon id="svg_47" fill="#644940" points="4.665715217590332,27.674301147460938 6.135714530944824,26.514301300048828 7.155714988708496,26.514301300048828 8.28571605682373,26.69430160522461 9.045714378356934,27.344303131103516 9.395712852478027,28.924301147460938 8.955714225769043,29.954299926757812 9.10571575164795,30.90430450439453 8.205714225769043,31.694305419921875 7.8157148361206055,31.614303588867188 7.305712699890137,31.934303283691406 7.155714988708496,32.7843017578125 6.655714988708496,33.48429870605469 3.705714225769043,29.814300537109375 " class="st20"/>
    <polygon id="svg_48" fill="#694F3F" points="7.5657148361206055,27.764305114746094 2.2757139205932617,30.504302978515625 0.28571414947509766,27.934303283691406 5.855713844299316,24.174301147460938 " class="st17"/>
    <path id="svg_49" fill="#F7AF2A" d="m4.52571,33.4443c-0.06,0.08 -0.08,0.23 -0.18,0.25c-0.23,0.06 -0.59,-0.12 -0.87,-0.32c-0.22,-0.16 -0.48,-0.42 -0.55,-0.62c-0.05,-0.15 0.07,-0.25 0.15,-0.36c0.18,-0.25 0.65,-0.22 1.05,0.07c0.4,0.3 0.58,0.73 0.4,0.98z" class="st21"/>
    <ellipse id="svg_50" fill="#CA8631" ry="0.42" rx="0.51" cy="27.97992" cx="43.45411" class="st22" transform="matrix(0.585, -0.8111, 0.8111, 0.585, -44.4084, 51.9612)"/>
    <circle id="svg_51" fill="#F7AF2A" r="0.03" cy="32.9243" cx="3.62571" class="st21"/>
    <circle id="svg_52" fill="#F7AF2A" r="0.03" cy="33.0843" cx="3.89571" class="st21"/>
    <polygon id="svg_53" fill="#F7AF2A" points="3.4957151412963867,33.20429992675781 3.5457143783569336,33.194305419921875 3.695713996887207,33.304298400878906 3.735714912414551,33.324302673339844 3.655714988708496,33.314300537109375 " class="st21"/>
    <path id="svg_54" fill="#F7AF2A" d="m2.72571,31.4643c0,0 0.41,-0.68 0.44,-0.72c0.03,-0.04 0.82,-0.65 0.82,-0.65l-1.02,0.5l-0.32,0.45l0.08,0.42z" class="st21"/>
    <polygon id="svg_55" fill="#F7AF2A" points="5.5657148361206055,33.514305114746094 6.005715370178223,33.40430450439453 6.275713920593262,32.79430389404297 6.235714912414551,31.934303283691406 6.025713920593262,32.804298400878906 " class="st21"/>
    <polygon id="svg_56" fill="#CA8631" points="3.735714912414551,29.514305114746094 4.465714454650879,28.234298706054688 5.245715141296387,27.2843017578125 6.125714302062988,26.664302825927734 7.25571346282959,26.594303131103516 8.315714836120605,27.19430160522461 8.875716209411621,27.944305419921875 8.955714225769043,29.02429962158203 8.59571361541748,29.97430419921875 7.985713005065918,30.934303283691406 6.945713996887207,31.72430419921875 3.8157148361206055,29.874305725097656 " class="st22"/>
    <path id="svg_57" fill="#CA8631" d="m4.23571,29.2443l-1.3,0.7l-0.33,0.46l-0.18,0.55l0.13,0.75l-0.11,0.15l-0.46,0.3c0,0 0.25,0.39 0.29,0.42c0.04,0.03 0.75,0.4 0.75,0.4l0.2,-0.07l-0.11,-0.34l0.7,-0.14l0.36,0.15l0.26,0.4l-0.07,0.54l-0.13,0.18l0.21,0.32l0.3,0.16l0.48,-0.11l0.26,-0.36l0.86,-0.23l0.22,-0.31c0,0 0.44,-1 0.47,-1.05c0.02,-0.05 0.04,-0.68 0.04,-0.68l-0.48,0.22l-0.67,-0.01l-0.86,-0.51l-0.71,-0.72l-0.2,-0.58l0.08,-0.59z" class="st22"/>
    <polygon id="svg_58" fill="#CA8631" points="7.25571346282959,30.764305114746094 8.145712852478027,31.174301147460938 8.565714836120605,30.77429962158203 8.78571605682373,30.2843017578125 8.60571575164795,29.754302978515625 8.00571346282959,29.72430419921875 " class="st22"/>
    <polygon id="svg_59" fill="#CA8631" points="4.8457136154174805,29.02429962158203 4.175715446472168,28.314300537109375 4.425715446472168,27.7843017578125 4.8157148361206055,27.424301147460938 5.375714302062988,27.424301147460938 5.5957136154174805,27.984298706054688 " class="st22"/>
    <polygon id="svg_60" fill="#F7AF2A" points="6.245715141296387,26.87430191040039 5.0957136154174805,27.734298706054688 4.795714378356934,28.054298400878906 4.105713844299316,29.324302673339844 4.155714988708496,30.424301147460938 4.735714912414551,31.10430145263672 5.755715370178223,31.754302978515625 6.495715141296387,31.764305114746094 7.3457136154174805,31.254302978515625 8.10571575164795,30.494300842285156 8.725714683532715,29.064300537109375 8.675715446472168,28.04430389404297 8.205714225769043,27.46430206298828 7.125714302062988,26.824302673339844 " class="st21"/>
    <polygon id="svg_61" fill="#CA8631" points="6.8457136154174805,29.77429962158203 5.905714988708496,29.10430145263672 6.035714149475098,28.924301147460938 6.3157148361206055,28.90430450439453 7.075715065002441,28.074302673339844 7.295714378356934,28.22430419921875 6.835715293884277,29.254302978515625 6.945713996887207,29.5343017578125 " class="st22"/>
    <path id="svg_62" fill="#CA8631" d="m5.01571,29.9943l-0.29,-0.07c0,0 -0.07,-0.14 -0.05,-0.18c0.02,-0.03 0.36,-0.35 0.36,-0.35l0.55,-0.1l0.54,0.49l0.49,0.31l0.11,0.44l-0.26,0.5l-0.2,0l-0.3,-0.35l-0.95,-0.69z" class="st22"/>
    <polygon id="svg_63" fill="#F7AF2A" points="6.705714225769043,30.27429962158203 5.365714073181152,29.29430389404297 5.045714378356934,29.5343017578125 6.545714378356934,30.614303588867188 " class="st21"/>
    <polygon id="svg_64" fill="#F7AF2A" points="4.865714073181152,29.91429901123047 6.205714225769043,30.90430450439453 6.515713691711426,30.674301147460938 5.035714149475098,29.574302673339844 " class="st21"/>
    <circle id="svg_65" fill="#CA8631" r="0.13" cy="28.0643" cx="6.65571" class="st22"/>
    <circle id="svg_66" fill="#CA8631" r="0.13" cy="28.6243" cx="7.43571" class="st22"/>
    <path id="svg_67" fill="#E0BDA5" d="m7.98571,34.1943c-0.09,-0.06 -0.18,-0.11 -0.26,-0.17c0.06,0.01 0.12,0.03 0.18,0.05c0.47,0.17 0.59,-0.43 -0.16,-0.59c-0.24,-0.05 -0.46,-0.06 -0.68,-0.05c-0.05,0 -0.1,0.01 -0.15,0.02c-0.22,-0.17 -0.43,-0.34 -0.63,-0.52l-1.14,1.28c0.06,0.05 0.11,0.11 0.17,0.17c0.13,0.12 0.27,0.24 0.4,0.36c0.23,0.19 0.45,0.39 0.69,0.57c0.58,0.45 0.77,0.5 0.89,0.37c0.04,-0.04 0.05,-0.09 0.03,-0.16c0.25,0.15 0.37,0.15 0.45,0.06c0.08,-0.08 0.04,-0.23 -0.14,-0.42c0.35,0.24 0.49,0.25 0.59,0.15c0.08,-0.09 0.04,-0.24 -0.16,-0.45c0.28,0.14 0.41,0.13 0.48,0.03c0.13,-0.13 -0.04,-0.38 -0.56,-0.7z" class="st4"/>
    <polygon id="svg_68" fill="#694F3F" points="6.935713768005371,33.45429992675781 5.355713844299316,34.58430480957031 0.30571460723876953,28.7843017578125 0.28571414947509766,27.934303283691406 2.2457151412963867,26.60430145263672 " class="st17"/>
    <path id="svg_69" fill="#010202" d="m6.64571,23.8743l3.87,3.2c0,0 11.08,7.31 11,7.31c0.01,-0.28 0.05,-0.73 0.05,-0.73l-11.01,-7.46l-3.06,-2.62l-0.85,0.3z" class="st12"/>
    <polygon id="svg_70" fill="#4D69A4" points="14.745715141296387,27.304302215576172 12.895712852478027,25.94430160522461 11.4157133102417,24.44430160522461 9.325713157653809,25.984302520751953 9.725714683532715,22.7843017578125 10.84571361541748,22.334300994873047 " class="st18"/>
    <path id="svg_71" fill="#56413A" d="m10.24571,25.9243c0,0 0.16,-0.11 0.21,-0.16c0.01,-0.01 -0.02,-0.6 -0.02,-0.6l-0.58,0.43l0.39,0.33z" class="st19"/>
    <path id="svg_72" fill="#E0BDA5" d="m19.86571,33.9543c0.09,-0.06 0.17,-0.12 0.25,-0.19c-0.06,0.02 -0.12,0.04 -0.17,0.06c-0.46,0.21 -0.62,-0.38 0.12,-0.6c0.23,-0.07 0.46,-0.1 0.68,-0.09c0.05,0 0.1,0.01 0.15,0.01c0.21,-0.18 0.41,-0.37 0.59,-0.56l1.23,1.2c-0.05,0.06 -0.1,0.12 -0.16,0.18c-0.12,0.13 -0.25,0.26 -0.38,0.39c-0.21,0.21 -0.43,0.42 -0.65,0.62c-0.55,0.49 -0.73,0.55 -0.86,0.43c-0.04,-0.04 -0.05,-0.09 -0.04,-0.16c-0.24,0.17 -0.36,0.17 -0.45,0.09c-0.09,-0.08 -0.06,-0.22 0.11,-0.43c-0.33,0.27 -0.48,0.29 -0.58,0.19c-0.09,-0.08 -0.05,-0.24 0.13,-0.46c-0.27,0.16 -0.4,0.15 -0.48,0.06c-0.13,-0.13 0.02,-0.38 0.51,-0.74z" class="st4"/>
    <polygon id="svg_73" fill="#694F3F" points="20.865714073181152,33.11430358886719 22.305712699890137,34.304298400878906 27.705714225769043,30.0343017578125 27.815714836120605,28.504302978515625 26.78571605682373,27.5343017578125 24.43571376800537,29.244300842285156 " class="st17"/>
    <path id="svg_74" fill="#F5D39A" d="m5.02571,26.4143l1.08,0.37c0.04,0 0.09,-0.02 0.11,-0.06l0.43,-1.18l-0.37,1.2c0,0.05 0.02,0.09 0.06,0.12l0.84,0.33l-0.88,-0.25c-0.04,0 -0.08,0.02 -0.11,0.05l-0.5,1.24l0.43,-1.25c0.01,-0.05 -0.02,-0.09 -0.06,-0.12l-1.03,-0.45z" class="st23"/>
    <path id="svg_75" fill="#F5D39A" d="m6.09571,31.6243l0.32,0.06c0.04,0 0.09,-0.02 0.11,-0.06l0.12,-0.28l-0.05,0.3c0,0.05 0.02,0.09 0.06,0.12l0.19,0.11l-0.23,-0.03c-0.04,0 -0.08,0.02 -0.11,0.05l-0.16,0.39l0.09,-0.4c0.01,-0.05 -0.02,-0.09 -0.06,-0.12l-0.28,-0.14z" class="st23"/>
    <path id="svg_76" fill="#F5D39A" d="m5.30571,29.4843l-0.17,0.06c-0.02,0.01 -0.04,0.03 -0.04,0.06l0.02,0.17l-0.06,-0.16c-0.01,-0.02 -0.04,-0.04 -0.07,-0.04l-0.12,0l0.12,-0.05c0.02,-0.01 0.03,-0.03 0.04,-0.06l-0.04,-0.24l0.07,0.23c0.01,0.03 0.04,0.04 0.06,0.04l0.19,-0.01z" class="st23"/>
    <path id="svg_77" fill="#F5D39A" d="m8.64571,30.1143l0.14,0.12c0.02,0.01 0.05,0.02 0.07,0.01l0.14,-0.1l-0.11,0.13c-0.02,0.02 -0.02,0.05 0,0.08l0.06,0.11l-0.1,-0.08c-0.02,-0.01 -0.05,-0.01 -0.07,0l-0.19,0.15l0.16,-0.17c0.02,-0.02 0.02,-0.05 0.01,-0.08l-0.11,-0.17z" class="st23"/>
    <polygon id="svg_78" fill="#CA8631" points="5.515713691711426,29.504302978515625 5.485714912414551,29.504302978515625 5.3157148361206055,29.734298706054688 5.355713844299316,29.764305114746094 " class="st22"/>
    <polygon id="svg_79" fill="#CA8631" points="5.725714683532715,29.66429901123047 5.705714225769043,29.66429901123047 5.535714149475098,29.894302368164062 5.575715065002441,29.91429901123047 " class="st22"/>
    <polygon id="svg_80" fill="#CA8631" points="5.935713768005371,29.814300537109375 5.905714988708496,29.814300537109375 5.745715141296387,30.04430389404297 5.775713920593262,30.064300537109375 " class="st22"/>
    <polygon id="svg_81" fill="#CA8631" points="6.135714530944824,29.954299926757812 6.105713844299316,29.954299926757812 5.935713768005371,30.184303283691406 5.975714683532715,30.204299926757812 " class="st22"/>
    <polygon id="svg_82" fill="#CA8631" points="6.325715065002441,30.09429931640625 6.295714378356934,30.09429931640625 6.135714530944824,30.324302673339844 6.165715217590332,30.34429931640625 " class="st22"/>
    <polygon id="svg_83" fill="#CA8631" points="6.515713691711426,30.234298706054688 6.495715141296387,30.234298706054688 6.325715065002441,30.46430206298828 6.355713844299316,30.484298706054688 " class="st22"/>
    <polygon id="svg_84" fill="#CA8631" points="5.325715065002441,29.79430389404297 5.295714378356934,29.764305114746094 5.135714530944824,30.02429962158203 5.155714988708496,30.0343017578125 " class="st22"/>
    <polygon id="svg_85" fill="#CA8631" points="5.545714378356934,29.954299926757812 5.515713691711426,29.924301147460938 5.355713844299316,30.184303283691406 5.375714302062988,30.194305419921875 " class="st22"/>
    <polygon id="svg_86" fill="#CA8631" points="5.755715370178223,30.09429931640625 5.725714683532715,30.074302673339844 5.5657148361206055,30.324302673339844 5.575715065002441,30.34429931640625 " class="st22"/>
    <polygon id="svg_87" fill="#CA8631" points="5.955714225769043,30.244300842285156 5.915715217590332,30.21430206298828 5.755715370178223,30.47430419921875 5.775713920593262,30.484298706054688 " class="st22"/>
    <polygon id="svg_88" fill="#CA8631" points="6.14571475982666,30.374305725097656 6.105713844299316,30.35430145263672 5.955714225769043,30.60430145263672 5.965714454650879,30.624305725097656 " class="st22"/>
    <polygon id="svg_89" fill="#CA8631" points="6.335715293884277,30.514305114746094 6.3057146072387695,30.494300842285156 6.14571475982666,30.744300842285156 6.165715217590332,30.764305114746094 " class="st22"/>
   </g>
   <ellipse id="svg_90" enable-background="new" fill="#010202" opacity="0.13" ry="0.8" rx="11.95" cy="49.8343" cx="14.74571" class="st24"/>
  </g>
 </g>
</svg>