<?xml version="1.0" encoding="utf-8"?>
<!-- Generator: Adobe Illustrator 25.0.1, SVG Export Plug-In . SVG Version: 6.00 Build 0)  -->
<svg version="1.1" id="Capa_2_1_" xmlns="http://www.w3.org/2000/svg" xmlns:xlink="http://www.w3.org/1999/xlink" x="0px" y="0px"
	 viewBox="0 0 21.4 60.8" style="enable-background:new 0 0 21.4 60.8;" xml:space="preserve">
<style type="text/css">
	.st0{opacity:0.13;fill:#010202;enable-background:new    ;}
	.st1{fill:#B43F17;}
	.st2{fill:#C2977A;}
	.st3{fill:#DFBCA4;}
	.st4{fill:#896652;}
	.st5{fill:#49271A;}
	.st6{fill:#DDAB89;}
	.st7{fill:#4F3D2E;}
	.st8{fill:#181818;}
	.st9{fill:#A46B2C;}
	.st10{fill:#726567;}
	.st11{fill:#827578;}
	.st12{fill:#41373C;}
</style>
<ellipse class="st0" cx="10.7" cy="59.8" rx="10.7" ry="1"/>
<g>
	<g>
		<polygon class="st1" points="17,43.3 8.1,43.3 7.4,37.8 16.8,37.8 		"/>
		<path class="st2" d="M0.2,9.9l2,4.3l0,1.8l1.6,2.2L5,18.4l1.9,5.8c0,0,1.9,2.3,3,3.8c1.1,0.6,2.4,1.4,2.9,1.6
			c0.1-0.1,0.5-2.2,1.3-3.8c0.9-2,1.8-3.9,1.8-3.9l2.3-0.1l1-17.4L6.6,4.6L1.7,6.1L0.2,9.9z"/>
		<polygon class="st3" points="10.5,22.1 18.2,21.7 19,16.1 19.6,14.5 19.4,13.6 20.3,7.4 18.4,3.2 16.5,3 13.6,4.3 5.7,5.3 8.5,15 
			8.2,15.5 9,16.7 		"/>
		<polygon class="st4" points="8.6,22.3 14.3,25.3 15.9,21.8 		"/>
		<circle class="st5" cx="11.9" cy="13.2" r="0.4"/>
		<circle class="st5" cx="16.9" cy="12.9" r="0.4"/>
		
			<ellipse transform="matrix(1.083310e-02 -0.9999 0.9999 1.083310e-02 -3.7841 27.2009)" class="st6" cx="11.9" cy="15.5" rx="0.8" ry="1"/>
		
			<ellipse transform="matrix(1.083310e-02 -0.9999 0.9999 1.083310e-02 2.1992 32.5442)" class="st6" cx="17.5" cy="15.2" rx="0.8" ry="1"/>
		<polygon class="st7" points="5.9,15.8 6.2,13.4 5.8,8.6 8.2,5 11.1,4.8 13,5.8 13.8,4.5 16.5,3.4 19,4.5 17.7,2.1 14.7,1 11.1,0 
			3.3,2.1 0.7,5.6 0.2,9.9 2.2,14.2 3.7,13.5 4.7,14 		"/>
		<path class="st7" d="M18.4,3.1l1.5,1.5l0.3,2.8c0,0-0.6,3.9-0.6,4.6c0-0.2-0.6-5.8-0.9-7.8c-0.2-0.2-0.4-0.5-0.6-0.7
			C18.3,3.3,18.4,3.1,18.4,3.1z"/>
		<polygon class="st8" points="17.7,32.8 18.2,28.9 18.6,25.3 14.7,24.4 13.8,26.4 9,26.3 6.9,24.1 3.7,26.2 5.5,31.7 5.7,36.7 
			6.5,37.8 14.8,37.8 17,37.8 18,36 		"/>
		<path class="st9" d="M14.8,40.1"/>
		<polygon class="st7" points="11.4,4.5 10.3,5.2 10,6.2 10.4,7 9.3,6.3 9.2,5.3 10.5,3.7 		"/>
		<polygon class="st1" points="9.7,54.1 6.5,54.1 5.4,48.6 6.5,37.8 11.4,37.8 11.3,48.8 		"/>
		<polygon class="st1" points="15.3,54.1 12.7,54.1 12,48.9 12.7,37.8 17,37.8 17,48.3 		"/>
		<g>
			<g>
				<path class="st5" d="M12.9,12.1c-0.7-0.2-1.5-0.2-2.1,0.2c-0.1,0.1-0.2,0.2-0.1,0.4c0.1,0.1,0.2,0.2,0.4,0.1
					c0.5-0.3,1.1-0.3,1.7-0.1c0.1,0,0.3-0.1,0.3-0.2C13.1,12.3,13,12.2,12.9,12.1L12.9,12.1z"/>
			</g>
		</g>
		<g>
			<g>
				<path class="st5" d="M18,11.8c-0.7-0.3-1.5-0.3-2.2,0c-0.1,0.1-0.2,0.2-0.1,0.4c0.1,0.1,0.2,0.2,0.4,0.1c0.5-0.2,1.1-0.2,1.6,0
					c0.1,0.1,0.3,0,0.4-0.1C18.2,12.1,18.1,11.9,18,11.8L18,11.8z"/>
			</g>
		</g>
		<polygon class="st6" points="13.9,12.7 13.8,16.7 15.6,16.5 14.6,12.5 		"/>
		<g>
			<g>
				<path class="st5" d="M16.2,17.5c-0.4-0.1-0.8-0.1-1.3-0.1c-0.4,0-0.8,0.1-1.2,0.3c-0.1,0-0.2,0.1-0.1,0.3c0,0.1,0.2,0.2,0.3,0.1
					c0.4-0.1,0.7-0.2,1.1-0.3c0.4,0,0.8,0,1.2,0C16.3,18,16.4,17.6,16.2,17.5L16.2,17.5z"/>
			</g>
		</g>
		<polygon class="st10" points="5.8,14.9 6,13.5 5.4,8.6 1.1,8.6 0.7,8.3 0.5,9.8 2.4,13.6 3.6,13.1 5,13.7 		"/>
		<path class="st11" d="M2.1,12.4l0.4,0.9l1.1-0.5l1.5,0.4l0.7,1.2c0,0,0.1-0.9,0.1-1c0-0.1-0.4-1.8-0.4-1.8l-2.5,0.6L1.7,12
			L2.1,12.4z"/>
		<g>
			<path class="st12" d="M10,52.9c-1.1,0.1-2.7-0.1-3.8-0.1c0.1,0.7,0.2,4.5,0.3,5.4c-0.9,0.1-1.6,0.1-2.5,0.2
				c-0.4,0.6-0.8,1.3-1.3,1.9c2.2-0.3,3.6-0.5,5.3-0.7c0,0.1,0,0.1,0,0.2c0.5,0,0.8,0,1.2-0.1c0-0.1,0-0.3,0-0.4
				C9.2,59,10,53.1,10,52.9z"/>
		</g>
		<path class="st12" d="M15.8,52.6c-0.1,0.7-0.2,4.3-0.2,5.2c0.9,0.1,1.6,0.1,2.5,0.2c0.4,0.6,0.8,1.3,1.3,1.9
			c-2.2-0.3-3.6-0.5-5.3-0.7c0,0.1,0,0.1,0,0.2c-0.5,0-0.8,0-1.2-0.1c0-0.1,0-0.3,0-0.4c0-0.2-0.4-6.3-0.4-6.5"/>
		<path class="st3" d="M6.3,41.9c-0.1-0.1-0.1-0.3-0.2-0.4c0.1,0.1,0.1,0.1,0.2,0.2c0.4,0.6,1,0.1,0.3-0.7c-0.2-0.2-0.5-0.5-0.7-0.6
			c-0.1,0-0.1-0.1-0.2-0.1c-0.1-0.2-0.1-0.5-0.2-0.7l-0.5-4.2l-0.2-4.8c-1,0.2-1.7,0-2.6,0.2l0.3,5l0.9,4.8l0,0
			c0.1,0.4,0.2,0.7,0.3,1.1c0.3,0.9,0.4,1.1,0.7,1.1c0.1,0,0.1,0,0.2-0.1C4.6,42.9,4.7,43,4.9,43c0.2,0,0.2-0.2,0.2-0.5
			c0.2,0.5,0.3,0.7,0.5,0.6c0.2,0,0.2-0.2,0.2-0.5C6,43,6.2,43.1,6.3,43.1C6.6,43,6.6,42.7,6.3,41.9z"/>
		<path class="st8" d="M3.7,26.2l-1.6,2.2l-0.5,4.1l1,0.9l2.3,0.6l0.8-0.5c0,0,1.3-4.9,1.1-5C6.7,28.6,3.7,26.2,3.7,26.2z"/>
		<path class="st3" d="M16.2,41.9c0.1-0.1,0.1-0.2,0.2-0.4c-0.1,0.1-0.1,0.1-0.2,0.2c-0.4,0.5-1,0-0.3-0.7c0.2-0.2,0.5-0.4,0.8-0.6
			c0.1,0,0.1-0.1,0.2-0.1c0.1-0.2,0.2-0.5,0.2-0.7l1.4-4.5l-0.9-6c1,0.3,1.7,0.1,2.6,0.3l0.8,6.1l-1.8,5.1l0,0
			c-0.1,0.4-0.2,0.7-0.4,1.1c-0.3,0.9-0.5,1.1-0.7,1.1c-0.1,0-0.1-0.1-0.2-0.1c-0.2,0.3-0.3,0.4-0.5,0.4c-0.2,0-0.2-0.2-0.2-0.5
			c-0.2,0.5-0.4,0.6-0.6,0.6c-0.2,0-0.2-0.2-0.1-0.6c-0.2,0.4-0.4,0.4-0.5,0.4C15.8,43,15.9,42.6,16.2,41.9z"/>
		<path class="st8" d="M18.6,25.3l1.7,2.1l0.9,4.7l-1,0.9l-2.3,0.6l-0.8-0.5c0,0-1.3-4.9-1.1-5C16.1,28.1,18.6,25.3,18.6,25.3z"/>
	</g>
	<polygon class="st4" points="3.5,15.4 3.9,15.1 4.5,15.5 5,16.6 4.9,17.2 4.1,17.4 4.7,17 4.7,16.6 4.3,16.3 4.3,16 4.4,15.6 
		4,15.3 	"/>
</g>
</svg>
