<?xml version="1.0" encoding="utf-8"?>
<!-- Generator: Adobe Illustrator 25.0.1, SVG Export Plug-In . SVG Version: 6.00 Build 0)  -->
<svg version="1.1" id="Capa_1" xmlns="http://www.w3.org/2000/svg" xmlns:xlink="http://www.w3.org/1999/xlink" x="0px" y="0px"
	 viewBox="0 0 101.7 135.7" style="enable-background:new 0 0 101.7 135.7;" xml:space="preserve">
<style type="text/css">
	.st0{fill:#C2977B;}
	.st1{fill:#DFBCA5;}
	.st2{fill:#8B6651;}
	.st3{fill:#040202;}
	.st4{fill:#F7F6F6;}
	.st5{fill:#49271A;}
	.st6{fill:#B58D73;}
	.st7{fill:#DDAB89;}
	.st8{fill:#C2977A;}
	.st9{fill:#A1A09F;}
</style>
<g>
	<polygon class="st0" points="59,126.4 74.3,126.5 82.4,121.3 83.8,106.1 88.1,99.8 93.5,57.7 95.8,40.6 83.6,8.6 62.7,0 37.5,1.4 
		17,10 0,34.1 0.6,60.2 6.1,71 0,75.5 4.9,90.8 14.9,95 19.4,95.2 25.4,131 58.9,135.7 	"/>
	<polygon class="st1" points="45.6,120.3 52.5,126.3 74.3,126.5 82.4,121.3 83.8,106.1 88.1,99.8 93.5,57.7 95.8,40.6 85.6,14.8 
		51.5,14.2 27.2,25.1 22,56.3 38.9,74.8 40.6,97.1 46.5,107.1 	"/>
	<polygon class="st2" points="59,126.4 37.8,126.4 58.9,135.7 	"/>
	<path class="st3" d="M14.3,47.2"/>
	<polygon class="st0" points="23.1,49.8 29.8,52 69.5,47.2 65.4,43.9 62,44 30.7,47.2 19.4,45.7 21.3,49.5 	"/>
	<polygon class="st0" points="48,83.4 47.6,88 52.7,92.6 62,93.3 64.3,89.9 65.4,82.7 	"/>
	<polygon class="st0" points="74,86.5 74.6,90 76.7,92.8 83.1,93.3 88.1,90.2 88.1,84.6 	"/>
	<ellipse class="st3" cx="57.2" cy="80.6" rx="9.6" ry="10.2"/>
	<ellipse class="st4" cx="58.1" cy="80.8" rx="8.8" ry="9.8"/>
	<ellipse class="st3" cx="79.2" cy="80.6" rx="9.6" ry="10.2"/>
	<ellipse class="st4" cx="80" cy="80.8" rx="8.8" ry="9.8"/>
	<g>
		<g>
			<path class="st5" d="M73.8,76.3c0.1-0.2,0.3-0.4,0.4-0.6c0.2-0.2-0.2,0.3,0,0c0.1-0.1,0.2-0.2,0.2-0.3c0.3-0.3,0.6-0.7,0.9-1
				c0.2-0.2,0.3-0.3,0.5-0.5c0.1-0.1,0.2-0.2,0.3-0.2c0,0,0.1-0.1,0.1-0.1c0.1-0.1,0.1-0.1-0.1,0.1c0.2-0.1,0.4-0.3,0.5-0.4
				c0.2-0.1,0.4-0.2,0.6-0.4c0.4-0.2,0.8-0.4,1.2-0.6c0.1-0.1,0.2-0.1,0.3-0.2c0.1,0,0.1-0.1,0.2-0.1c-0.2,0.1-0.3,0.1-0.2,0.1
				c0.2-0.1,0.4-0.2,0.7-0.3c0.4-0.1,0.9-0.3,1.3-0.4c0.2-0.1,0.4-0.1,0.7-0.1c0.1,0,0.3,0,0.4-0.1c0.2,0,0.1,0-0.1,0
				c0.1,0,0.1,0,0.2,0c0.4,0,0.8-0.1,1.1-0.5c0.3-0.3,0.5-0.7,0.5-1.1c0-0.8-0.7-1.7-1.6-1.6c-2.2,0.2-4.3,0.9-6.2,2.1
				c-1.9,1.1-3.5,2.7-4.7,4.5c-0.4,0.7-0.2,1.8,0.6,2.1C72.4,77.2,73.3,77,73.8,76.3L73.8,76.3z"/>
		</g>
	</g>
	<g>
		<g>
			<path class="st5" d="M68.1,74.7c-1.2-1.8-2.8-3.4-4.7-4.5c-1.9-1.1-4-1.8-6.2-2c-0.8-0.1-1.6,0.8-1.6,1.6c0,0.9,0.7,1.5,1.6,1.6
				c0.1,0,0.5,0.1,0.1,0c0.1,0,0.3,0,0.4,0.1c0.2,0,0.4,0.1,0.7,0.1c0.4,0.1,0.9,0.2,1.3,0.4c0.2,0.1,0.4,0.1,0.6,0.2
				c0.1,0,0.1,0,0.2,0.1c-0.2-0.1-0.3-0.1-0.1,0c0.1,0.1,0.2,0.1,0.3,0.2c0.4,0.2,0.8,0.4,1.2,0.6c0.4,0.2,0.8,0.5,1.1,0.8
				c0.1,0.1,0.1,0.1-0.1-0.1c0.1,0,0.1,0.1,0.1,0.1c0.1,0.1,0.2,0.1,0.3,0.2c0.2,0.2,0.4,0.3,0.5,0.5c0.3,0.3,0.6,0.6,0.9,1
				c0.1,0.1,0.2,0.2,0.2,0.3c0.2,0.3-0.2-0.3,0,0c0.2,0.2,0.3,0.4,0.4,0.6c0.4,0.7,1.4,1,2.1,0.6C68.2,76.4,68.6,75.4,68.1,74.7
				L68.1,74.7z"/>
		</g>
	</g>
	<polygon class="st6" points="66.8,73.6 62.7,99.8 76.3,99.8 71.8,73.2 	"/>
	<polygon class="st1" points="6.1,71 17.1,76.9 19.4,95.2 14.9,95 4.9,90.8 0,75.5 	"/>
	<path class="st0" d="M15.4,86.5c-0.1-1,0-3.8,0-3.8l-2.3-3.6L5,77.6l-1.1,3l2.7-0.7l4.5,0.9l1.5,3.8L8,83.1l-2.6,2.2l3.5,0.1
		l6.5,2.6V86.5z"/>
	<ellipse transform="matrix(0.9821 -0.1886 0.1886 0.9821 -17.6037 12.1311)" class="st7" cx="54.9" cy="98.6" rx="5.7" ry="4.3"/>
	<path class="st7" d="M84.2,95.1c-2.9-1.3-6-0.7-7,1.5c-1,2.2,0.5,5,3.3,6.4c0.9,0.4,1.8,0.6,2.7,0.7l4.2-5.5
		C86.8,96.9,85.7,95.8,84.2,95.1z"/>
	<polygon class="st8" points="60.9,114 65.3,110 70.3,110 73.6,114 70.4,112 64.7,112 	"/>
	<path class="st5" d="M66,108.7c2.9,0.5,5.7-1.1,6.1-3.7l-10.5-2C61.1,105.6,63.1,108.2,66,108.7z"/>
	<polygon class="st3" points="0,34.1 29.2,37.4 91.7,30.3 95.8,40.6 30.7,47.2 0,42.4 	"/>
	<circle class="st9" cx="80" cy="30.3" r="21.7"/>
	<path class="st0" d="M80,52c-5,0-9.5-1.7-13.2-4.5c-1.3-1-2.6-2.2-3.6-3.5L62,44l-2,0.2c0.6,1.4,1.3,2.6,2.1,3.9
		c3.9,5.7,10.5,9.5,17.9,9.5c5.4,0,10.4-2,14.2-5.3l0.9-6.4C91.2,49.6,85.9,52,80,52z"/>
	<ellipse class="st4" cx="81.3" cy="30.3" rx="19.2" ry="20.3"/>
	<ellipse class="st3" cx="82.5" cy="30.3" rx="1.2" ry="1.2"/>
	<polygon class="st3" points="17.1,76.9 48.4,79.1 49.3,76.9 14.3,75.4 	"/>
</g>
</svg>
