<?xml version="1.0" encoding="utf-8"?>
<!-- Generator: Adobe Illustrator 25.0.1, SVG Export Plug-In . SVG Version: 6.00 Build 0)  -->
<svg version="1.1" id="Capa_1" xmlns="http://www.w3.org/2000/svg" xmlns:xlink="http://www.w3.org/1999/xlink" x="0px" y="0px"
	 viewBox="0 0 107.1 149.7" style="enable-background:new 0 0 107.1 149.7;" xml:space="preserve">
<style type="text/css">
	.st0{fill:#4D568E;}
	.st1{fill:#6169AD;}
	.st2{fill:#24378C;}
	.st3{fill:#040202;}
	.st4{fill:#62C2D2;}
	.st5{fill:url(#SVGID_1_);}
	.st6{fill:url(#SVGID_2_);}
	.st7{fill:url(#SVGID_3_);}
	.st8{fill:url(#SVGID_4_);}
	.st9{opacity:0.11;fill:#FFFFFF;enable-background:new    ;}
</style>
<g>
	<polygon class="st0" points="65.1,139.3 81.9,139.5 90.9,133.8 92.4,117 97.1,110.1 103.1,63.6 105.6,44.8 92.2,9.5 69.2,0 
		41.3,1.5 18.8,11 0,37.6 0,83.2 21.4,105 27.2,148.3 65,149.7 	"/>
	<polygon class="st1" points="50.3,132.6 59.3,139.3 67.9,139.4 69.4,140.7 71.7,141.7 74.2,141.8 76.8,140.5 77.2,139.5 
		81.9,139.5 90.9,133.8 92.4,117 97.1,110.1 103.7,81.9 107.1,64.4 105.6,44.8 94.4,16.4 56.8,15.7 30,27.7 24.3,62 42.9,82.5 
		44.7,107.1 51.3,118.1 	"/>
	<polygon class="st2" points="65.1,139.3 59.3,139.3 42.5,126.9 52.5,148 65,149.7 	"/>
	<path class="st3" d="M15.7,52"/>
	<polygon class="st2" points="52.5,90.1 53.5,96.3 57.9,101.1 68.3,101.7 70.1,98.8 70.3,102.9 69.7,107.5 68.6,110 70.6,108.1 
		72.1,102.9 73.7,97 73.7,88.2 	"/>
	<ellipse class="st3" cx="63.1" cy="88.9" rx="10.6" ry="11.2"/>
	<ellipse transform="matrix(0.9821 -0.1886 0.1886 0.9821 -19.413 13.3798)" class="st0" cx="60.6" cy="108.7" rx="6.3" ry="4.8"/>
	<path class="st0" d="M92.5,103.5c-3.1-1.5-6.6-0.7-7.7,1.7c-1.1,2.4,0.5,5.5,3.7,7c1,0.5,2,0.7,3,0.8l4.6-6.1
		C95.3,105.5,94.1,104.3,92.5,103.5z"/>
	<ellipse class="st4" cx="63.1" cy="89.6" rx="1.3" ry="1.4"/>
	<polygon class="st2" points="99.5,88.8 98.6,95.1 94.2,99.8 83.7,100.5 81.9,97.6 81.7,101.7 82.4,106.3 83.5,108.7 81.4,106.9 
		79.9,101.7 78.3,95.7 78.3,87 	"/>
	<ellipse class="st3" cx="88.9" cy="87.6" rx="10.6" ry="11.2"/>
	<ellipse class="st4" cx="88.9" cy="88.3" rx="1.3" ry="1.4"/>
	<polygon class="st2" points="44.7,107.1 43.9,96.1 44.6,89.4 46.3,107 48.8,114 52.5,119.8 52,131.1 50.7,127.1 51,120.4 47.2,115 
			"/>
	<polygon class="st2" points="98.2,105.4 96,110.6 91.1,116.1 90.6,127.4 92,124.3 92.6,117.3 92.6,116.9 92.6,116.9 94.1,115.1 
		96.9,111.8 	"/>
	<g>
		
			<radialGradient id="SVGID_1_" cx="62.1876" cy="78.0254" r="16.6864" fx="58.5723" fy="77.9659" gradientTransform="matrix(1 0 0 -1 0 150.8268)" gradientUnits="userSpaceOnUse">
			<stop  offset="4.164921e-02" style="stop-color:#62C2D2"/>
			<stop  offset="0.1095" style="stop-color:#66C4D3;stop-opacity:0.9927"/>
			<stop  offset="0.1839" style="stop-color:#74C9D7;stop-opacity:0.9846"/>
			<stop  offset="0.2615" style="stop-color:#8AD1DD;stop-opacity:0.9762"/>
			<stop  offset="0.3413" style="stop-color:#A8DDE6;stop-opacity:0.9676"/>
			<stop  offset="0.4224" style="stop-color:#D0EDF1;stop-opacity:0.9588"/>
			<stop  offset="0.5036" style="stop-color:#FFFFFF;stop-opacity:0.95"/>
			<stop  offset="0.537" style="stop-color:#F3F8FC;stop-opacity:0.8556"/>
			<stop  offset="0.5975" style="stop-color:#D3E5F3;stop-opacity:0.6849"/>
			<stop  offset="0.678" style="stop-color:#A0C7E5;stop-opacity:0.4575"/>
			<stop  offset="0.7744" style="stop-color:#599ED1;stop-opacity:0.1851"/>
			<stop  offset="0.84" style="stop-color:#2580C3;stop-opacity:0"/>
		</radialGradient>
		<path class="st5" d="M77.8,70.8c-1.1,0.5-2.2,0.9-3.5,1c-2.4,0.2-4.8,0.3-7.2,0.4c-2.5,0.1-5,0.2-7.4,0.3c0.3,0.1,0.6,0.2,0.9,0.2
			c4.3,0.2,8.6,0.4,12.9,0.5c1.5,0.1,3,0.5,4.3,1.2c-0.2-0.6-0.3-1.2-0.3-1.8C77.6,72,77.7,71.4,77.8,70.8z"/>
		
			<radialGradient id="SVGID_2_" cx="76.0463" cy="67.8319" r="10.9218" fx="65.134" fy="67.3755" gradientTransform="matrix(1 0 0 -1 0 150.8268)" gradientUnits="userSpaceOnUse">
			<stop  offset="0.3425" style="stop-color:#62C2D2"/>
			<stop  offset="0.6173" style="stop-color:#FFFFFF;stop-opacity:0.95"/>
			<stop  offset="1" style="stop-color:#2580C3;stop-opacity:0"/>
		</radialGradient>
		<path class="st6" d="M74.3,71.2c0.6,1.2,1,2.5,1.1,3.9c0.1,3.1,0.2,6.1,0.4,9.2c0.1,2.7,0.2,5.5,0.3,8.2c0.1-0.2,0.1-0.5,0.1-0.7
			c0.2-5.5,0.4-10.9,0.6-16.4c0.1-1.5,0.4-2.9,1.1-4.2c-0.6,0.2-1.1,0.3-1.7,0.3C75.5,71.4,74.9,71.3,74.3,71.2z"/>
		
			<radialGradient id="SVGID_3_" cx="76.084" cy="86.3768" r="10.8464" fx="76.1149" fy="75.5304" gradientTransform="matrix(1 0 0 -1 0 150.8268)" gradientUnits="userSpaceOnUse">
			<stop  offset="0" style="stop-color:#62C2D2"/>
			<stop  offset="8.523443e-02" style="stop-color:#67C4D3;stop-opacity:0.9931"/>
			<stop  offset="0.1859" style="stop-color:#75CAD8;stop-opacity:0.9849"/>
			<stop  offset="0.2945" style="stop-color:#8DD3DE;stop-opacity:0.9761"/>
			<stop  offset="0.4086" style="stop-color:#AEE0E8;stop-opacity:0.9669"/>
			<stop  offset="0.5258" style="stop-color:#D9F0F4;stop-opacity:0.9574"/>
			<stop  offset="0.6173" style="stop-color:#FFFFFF;stop-opacity:0.95"/>
			<stop  offset="0.8661" style="stop-color:#2580C3;stop-opacity:0"/>
		</radialGradient>
		<path class="st7" d="M77.8,75.1c-0.5-1-0.9-2.2-1-3.4c-0.3-2.9-0.3-5.8-0.4-8.7c-0.1-3.1-0.2-6.2-0.3-9.2C76,54,76,54.2,76,54.5
			c-0.2,5.5-0.4,11.1-0.6,16.6c-0.1,1.4-0.4,2.8-1.1,4c0.6-0.2,1.2-0.3,1.8-0.3C76.7,74.8,77.3,74.9,77.8,75.1z"/>
		
			<radialGradient id="SVGID_4_" cx="-422.5103" cy="429.7853" r="8.3441" fx="-430.8521" fy="429.5887" gradientTransform="matrix(-1 6.128076e-03 6.061039e-03 0.989 -340.7031 -349.9216)" gradientUnits="userSpaceOnUse">
			<stop  offset="0.1101" style="stop-color:#62C2D2"/>
			<stop  offset="0.4929" style="stop-color:#FFFFFF;stop-opacity:0.95"/>
			<stop  offset="0.5796" style="stop-color:#D2E5F3;stop-opacity:0.7876"/>
			<stop  offset="0.7303" style="stop-color:#88BADE;stop-opacity:0.5052"/>
			<stop  offset="0.8556" style="stop-color:#539BD0;stop-opacity:0.2704"/>
			<stop  offset="0.949" style="stop-color:#3187C6;stop-opacity:9.554619e-02"/>
			<stop  offset="1" style="stop-color:#2580C3;stop-opacity:0"/>
		</radialGradient>
		<path class="st8" d="M92.5,72.5c-4.6-0.2-9.1-0.4-13.7-0.6c-1.6-0.1-3.1-0.5-4.5-1.1c0.2,0.6,0.3,1.2,0.3,1.8
			c0,0.6-0.1,1.2-0.2,1.7c1.2-0.6,2.5-1,3.9-1.1c4.3-0.2,8.6-0.4,12.9-0.6C91.6,72.7,92,72.7,92.5,72.5
			C92.5,72.6,92.5,72.6,92.5,72.5z"/>
		<circle class="st9" cx="76.2" cy="72.6" r="1.9"/>
		<circle class="st9" cx="76.2" cy="72.6" r="0.9"/>
		<circle class="st9" cx="76.2" cy="72.6" r="0.3"/>
	</g>
	<path class="st2" d="M73.3,118.5v2.3c0,0,0.8,0.8,1,0.8s1.5,0,1.5,0l0.5-1.2v-1.5l-0.6,1.1l-1.1,0.2l-0.6-1.3l-0.3-2.3L73.3,118.5z
		"/>
	<polygon class="st3" points="69.4,122.3 72,121.3 77.5,121.3 80.2,122.4 77.7,123.5 71.4,123.5 	"/>
	<polygon class="st2" points="67.6,137.2 67.9,139.4 69.4,140.7 68.5,139.7 68.1,139.1 	"/>
	<polygon class="st2" points="77.7,138.5 76.8,140.5 75,141.4 76.1,140.7 76.6,140.2 	"/>
	<polygon class="st2" points="28.9,34.3 24.3,62 37.5,76.6 36,72.7 26.4,61.7 29.2,45.5 	"/>
	<polygon class="st2" points="21.4,105 22.8,115.5 36.8,122.4 30.3,111 28.3,99.1 7.9,77.6 7.9,37.5 20,14.1 41.3,1.5 18.8,11 
		0,37.6 0,83.2 	"/>
</g>
</svg>
