<?xml version="1.0" encoding="utf-8"?>
<!-- Generator: Adobe Illustrator 25.0.1, SVG Export Plug-In . SVG Version: 6.00 Build 0)  -->
<svg version="1.1" id="Capa_1" xmlns="http://www.w3.org/2000/svg" xmlns:xlink="http://www.w3.org/1999/xlink" x="0px" y="0px"
	 viewBox="0 0 135.7 180.4" style="enable-background:new 0 0 135.7 180.4;" xml:space="preserve">
<style type="text/css">
	.st0{fill:#C19A74;}
	.st1{fill:#D5B18F;}
	.st2{fill:#9C6941;}
	.st3{fill:#9C909C;}
	.st4{fill:#EF801A;}
	.st5{fill:#49271A;}
	.st6{fill:#F39519;}
	.st7{fill:#777077;}
	.st8{fill:#9C8F9E;}
	.st9{fill:#681415;}
	.st10{fill:#807175;}
	.st11{fill:#9C683E;}
</style>
<g>
	<polygon class="st0" points="22.7,71.8 7.8,77 7.8,85.6 11.1,88.1 11.6,101.8 9.6,105 12.5,112.1 15.2,112.1 16.7,158.3 114,160.7 
		114,146.5 124.7,136.7 124.7,96.7 128.2,92.7 128.2,80.3 123.8,75.6 124,61.8 120,40.7 97.8,36.3 51.1,36.3 46,42.3 49.6,49.8 
		55.8,53 45.8,53.4 39.3,46.3 32.2,56.3 40.7,88.1 29.1,92.5 	"/>
	<path class="st1" d="M48.3,44.9c0,0,0.7,2.8,1.2,5c1,0.5,6.2,3.1,6.2,3.1l-5.4,3L53,77.7l-4.7,5.4l0.8,9.6l9.9,6.4l3.7,36.8l62,0.9
		v-40l3.6-4V80.3l-4.4-4.7l-7.4-33l-27.6-5.2l-36.6,2.4L48.3,44.9z"/>
	<polygon class="st2" points="124.7,136.7 62.7,135.9 44.7,127.8 58.5,152.7 114,156.1 114.2,146.4 	"/>
	<path class="st3" d="M13,75.2l9.6-3.3l6.5,20.7l11.6-4.4l-8.4-31.8l7.1-10c0,0,5.6,6.2,6.4,7.1c0.2,0.2,10-0.4,10-0.4l-6.2-3.1
		L46,42.3l5.1-6h46.7l22.2,4.4l4,21.1l11.7-15.5l-1.5-17.8l-5.5-3.4h-7.6l-0.9-11.6L109,1.5L46.5,0L31,13.9l-10.1,0.3L0,35.9V57
		L13,75.2z"/>
	<polygon class="st4" points="91.4,72.4 89.6,83.5 98.7,83.5 95.3,72.4 	"/>
	<polygon class="st2" points="26.9,85.5 25.2,91.2 28,102.4 39,106.7 52.8,104.2 41.8,99 39.4,88.6 29.1,92.5 	"/>
	<path class="st2" d="M15.2,112.1c0.4,0,6.7,0,6.7,0l4.6-3.8l-5.7,15.3l2.1,32.7l-6.4-0.2L15.2,112.1z"/>
	<g>
		<g>
			<g>
				<path class="st5" d="M81.2,123.5c3.4-1.1,6.8-2.1,10.4-2.5c-0.2,0-0.3,0-0.5,0.1c3.3-0.4,6.7-0.4,10,0c-0.2,0-0.3,0-0.5-0.1
					c4.5,0.6,8.8,2,13.1,3.5c0.4,0.2,1.1,0,1.4-0.2c0.4-0.2,0.8-0.7,0.9-1.1c0.2-1.1-0.3-1.9-1.3-2.3c-4.5-1.6-9-3-13.7-3.6
					c-4.3-0.6-8.6-0.3-12.8,0.5c-2.7,0.5-5.3,1.3-7.9,2.1c-0.9,0.3-1.6,1.3-1.3,2.3C79.2,123.1,80.2,123.8,81.2,123.5L81.2,123.5z"
					/>
			</g>
		</g>
	</g>
	<ellipse transform="matrix(0.9137 -0.4064 0.4064 0.9137 -28.0216 39.0112)" class="st6" cx="77.8" cy="85.5" rx="5.9" ry="4.5"/>
	
		<ellipse transform="matrix(0.4064 -0.9137 0.9137 0.4064 -14.1721 150.3512)" class="st6" cx="108.6" cy="86.1" rx="4.5" ry="5.9"/>
	<polygon class="st7" points="55.7,173.2 87.4,175.5 104.9,173.2 101.3,160.2 62.3,157.6 	"/>
	<polygon class="st8" points="16.6,156.1 114,159 114.9,176 102.8,178.4 90.8,171.1 90.2,159.3 68.5,158.9 68.5,170.1 58,180.4 
		16.6,170.5 	"/>
	<path class="st9" d="M68.5,157.6l0,12.5c0,0,7.3,9.6,7.4,9.5c0.1-0.1,10.1,0,10.1,0l4.7-8.5l-0.3-12.7L68.5,157.6z"/>
	<polygon class="st10" points="24.5,14.1 30,16 31.2,29.3 40.8,41.8 36.4,27.8 36.7,16.3 46.6,6.5 62.3,6.5 68,17 50,18.2 
		44.2,26.8 52.4,21.6 67.5,21.1 68.5,28.4 54.7,28.6 48.3,34.4 47.4,40.6 51.1,36.3 97.8,36.3 120,40.7 119.2,32.7 121.2,35.1 
		124,61.8 133.9,47.2 132.2,29.9 128.2,27.1 119.8,27 118.9,14.8 106.5,1.5 46.4,0 31,13.9 	"/>
	<path class="st10" d="M28.4,90.1c0,0,7.3-2.1,9.3-3.1c-0.2-1.7-9.3-31.6-9.3-31.6l4.6-5.1l0.7-7.8l-3.6-6.3l6.3,5.2l0.4,4.8
		l2.7-3.2l6.7,8.7l9.3,1.2l-10,0.4l-6.4-7.1l-7.1,10l8.4,31.8l-11.6,4.4L28.4,90.1z"/>
	<polygon class="st11" points="13.2,87.9 13.9,83.9 16,82.8 21,90.6 21.2,93.7 17.9,94 16.7,98.1 18.3,95.7 21.6,96.1 21.7,99.2 
		17.9,104.1 13.7,103.7 17.9,106 23.3,100.3 23.3,90.3 16.2,79.8 12.4,83.4 	"/>
	<path class="st0" d="M71.5,68.8c1.2,1.2,4.8,4.7,4.8,4.7l-2.4,2.8l2.4,1.7l3.3-1.9h6.1l2.6,1.9l1.3-3.8l-1.3-0.8l2.4-4.2l-9.9-4.8
		L71.5,68.8z"/>
	<g>
		<g>
			<path class="st5" d="M72.2,69.4c1.7-0.7,3.6-1.2,5.4-1.5c-0.2,0-0.5,0.1-0.7,0.1c2-0.3,4.1-0.3,6.1,0c-0.2,0-0.5-0.1-0.7-0.1
				c2,0.3,3.9,0.8,5.7,1.5c-0.2-0.1-0.4-0.2-0.6-0.3c0.6,0.3,1.3,0.6,1.9,0.9c0.6,0.3,1.4,0.5,2.1,0.3c0.6-0.2,1.3-0.7,1.6-1.2
				c0.7-1.2,0.4-3-1-3.7c-5.2-2.8-11.2-3.6-17-2.5c-1.5,0.3-2.9,0.7-4.2,1.3c-0.7,0.3-1.2,0.6-1.6,1.2c-0.3,0.6-0.5,1.4-0.3,2.1
				c0.2,0.6,0.6,1.3,1.2,1.6C70.8,69.4,71.6,69.6,72.2,69.4L72.2,69.4z"/>
		</g>
	</g>
	<g>
		<g>
			<path class="st5" d="M79.2,74.1c0.1,0,0.2-0.1,0.2-0.1c0.2-0.1-0.1,0,0,0c0.1-0.1,0.3-0.1,0.4-0.2c0.3-0.1,0.6-0.2,0.9-0.3
				c0.2,0,0.3-0.1,0.5-0.1c0.1,0,0.2,0,0.3,0c-0.1,0-0.1,0,0,0c0.3,0,0.7-0.1,1-0.1c0.3,0,0.6,0,0.9,0c0,0,0.2,0,0.1,0
				c-0.1,0,0.1,0,0.2,0c0.2,0,0.3,0.1,0.5,0.1c0.3,0.1,0.6,0.1,0.9,0.2c0.2,0,0.3,0.1,0.4,0.2c0.1,0,0.1,0.1,0,0
				c0.1,0,0.2,0.1,0.3,0.1c0.5,0.2,1.2,0.2,1.5-0.4c0.3-0.5,0.2-1.2-0.4-1.5c-2.9-1.3-6.1-1.3-9,0c-0.5,0.2-0.7,1-0.4,1.5
				C78,74.2,78.6,74.3,79.2,74.1L79.2,74.1z"/>
		</g>
	</g>
	<g>
		<g>
			<path class="st5" d="M79,73.7c0.1,0,0.2-0.1,0.2-0.1c0.2-0.1-0.1,0,0,0c0.1-0.1,0.3-0.1,0.4-0.2c0.3-0.1,0.6-0.2,0.9-0.3
				c0.2,0,0.3-0.1,0.5-0.1c0.1,0,0.2,0,0.3,0c-0.1,0-0.1,0,0,0c0.3,0,0.7-0.1,1-0.1c0.3,0,0.6,0,0.9,0c0,0,0.2,0,0.1,0
				c-0.1,0,0.1,0,0.2,0c0.2,0,0.3,0.1,0.5,0.1c0.3,0.1,0.6,0.1,0.9,0.2c0.2,0,0.3,0.1,0.4,0.2c0.1,0,0.1,0.1,0,0
				c0.1,0,0.2,0.1,0.3,0.1c0.5,0.2,1.2,0.2,1.5-0.4c0.3-0.5,0.2-1.2-0.4-1.5c-2.9-1.3-6.1-1.3-9,0c-0.5,0.2-0.7,1-0.4,1.5
				C77.8,73.9,78.4,74,79,73.7L79,73.7z"/>
		</g>
	</g>
	<path class="st0" d="M115.5,69.5c-1.2,1.2-4.8,4.7-4.8,4.7l2.4,2.8l-2.4,1.7l-3.3-1.9h-6.1l-2.6,1.9l-1.3-3.8l1.3-0.8l-2.4-4.2
		l9.9-4.8L115.5,69.5z"/>
	<g>
		<g>
			<path class="st5" d="M109.2,72.6c-2.9-1.3-6.1-1.3-9,0c-0.5,0.2-0.7,1-0.4,1.5c0.3,0.5,0.9,0.7,1.5,0.4c0.1,0,0.2-0.1,0.2-0.1
				c0.2-0.1-0.1,0,0,0c0.1-0.1,0.3-0.1,0.4-0.2c0.3-0.1,0.6-0.2,0.9-0.3c0.2,0,0.3-0.1,0.5-0.1c0.1,0,0.2,0,0.3,0c-0.1,0-0.1,0,0,0
				c0.3,0,0.7-0.1,1-0.1c0.3,0,0.6,0,0.9,0c0,0,0.2,0,0.1,0c-0.1,0,0.1,0,0.2,0c0.2,0,0.3,0.1,0.5,0.1c0.3,0.1,0.6,0.2,0.9,0.2
				c0.2,0,0.3,0.1,0.4,0.2c0.1,0,0.1,0.1,0,0c0.1,0,0.2,0.1,0.3,0.1c0.5,0.2,1.2,0.2,1.5-0.4C109.8,73.6,109.7,72.9,109.2,72.6
				L109.2,72.6z"/>
		</g>
	</g>
	<g>
		<g>
			<path class="st5" d="M95.8,70c1.7-0.7,3.6-1.2,5.4-1.5c-0.2,0-0.5,0.1-0.7,0.1c2-0.3,4.1-0.3,6.1,0c-0.2,0-0.5-0.1-0.7-0.1
				c2,0.3,3.9,0.8,5.7,1.5c-0.2-0.1-0.4-0.2-0.6-0.3c0.6,0.3,1.3,0.6,1.9,0.9c0.6,0.3,1.4,0.5,2.1,0.3c0.6-0.2,1.3-0.7,1.6-1.2
				c0.7-1.2,0.4-3-1-3.7c-5.2-2.8-11.2-3.6-17-2.5c-1.5,0.3-2.9,0.7-4.2,1.3c-0.7,0.3-1.2,0.6-1.6,1.2c-0.3,0.6-0.5,1.4-0.3,2.1
				c0.2,0.6,0.6,1.3,1.2,1.6C94.3,70.1,95.2,70.3,95.8,70L95.8,70z"/>
		</g>
	</g>
	<polygon class="st0" points="68,59.4 74.1,55.6 108.6,57.5 103.4,56.4 73.7,54.3 66.2,58.9 	"/>
	<polygon class="st0" points="78.4,52.3 98.4,52.5 95.4,52 78.1,51.5 	"/>
</g>
</svg>
