<?xml version="1.0" encoding="utf-8"?>
<!-- Generator: Adobe Illustrator 25.0.1, SVG Export Plug-In . SVG Version: 6.00 Build 0)  -->
<svg version="1.1" id="Capa_1" xmlns="http://www.w3.org/2000/svg" xmlns:xlink="http://www.w3.org/1999/xlink" x="0px" y="0px"
	 viewBox="0 0 143.3 193.4" style="enable-background:new 0 0 143.3 193.4;" xml:space="preserve">
<style type="text/css">
	.st0{fill:#F08A75;}
	.st1{fill:#C2323C;}
	.st2{fill:#F6B5AC;}
	.st3{fill:#9C909C;}
	.st4{fill:#7D2080;}
	.st5{fill:#807175;}
	.st6{fill:#444242;}
	.st7{fill:#2C1C11;}
	.st8{fill:#FFFFFF;}
	.st9{fill:#672471;}
	.st10{fill:#431E4D;}
	.st11{fill:#95D1D6;}
	.st12{fill:#E5F3F6;}
</style>
<g>
	<polygon class="st0" points="37.2,119.6 20.9,125.7 20.6,133.7 23.6,136.1 23.9,139.2 22,142 24.5,148.6 27,148.7 27,191.3 
		112.2,192.9 115,182 124.5,173.2 132,160.2 130.8,144.3 127.5,129.2 128.7,105.7 125.6,86.1 105.3,81.4 62.3,80 51.2,88.8 
		44.3,97.8 46.2,128.1 40.4,131.1 	"/>
	<polygon class="st1" points="116.9,183.3 102.5,187.3 63.1,183.2 47.3,174.1 56.5,192.1 116.6,193.4 116.7,189.4 	"/>
	<polygon class="st1" points="27,148.7 32.9,163 37.2,166.3 31.7,169.8 34.2,191.7 27,191.3 	"/>
	<polygon class="st2" points="47.4,128.7 51.6,154.9 63.1,183.2 102.5,187.3 112.8,173.9 119.3,165.8 127.2,161.3 131.1,142.4 
		127.5,129.2 128.7,105.7 125.6,86.1 103.1,81.3 62.3,80 48.3,100.8 50.4,124.4 	"/>
	<path class="st3" d="M39.6,133.4l-7.4,15.5l-5.2-0.2l5.9,14.3l4.3,3.4l10.1,7.8l15.8,9l39.3,4.1l14.5-4l8.5-9.4l7.7-13.7l-0.4-18.2
		l-5.2-12.8l1.5,17.2l-3,8.6l-11.3-2.6l-6.6-7.7l-18.8-0.6l-6.5,10.8l-13.1-0.4c0,0-17.1-4.1-19.1-5.1c-0.6-3.7-3.1-17.5-3.1-17.5
		L39.6,133.4z"/>
	<polygon class="st3" points="24.7,124.3 34.8,121.5 40.4,131.1 46.2,129.1 44.3,97.8 51.2,88.8 62.3,80 105.3,81.4 125.6,86.1 
		128.7,105.7 135.4,83.4 139.1,75.4 134.1,72.1 127.2,71.8 126.7,61.2 116.7,49.7 59.2,46.4 44.4,58.8 35.2,58.8 15.3,78 14.6,97.5 
			"/>
	<g>
		<g>
			<g>
				<path class="st1" d="M96.5,157.3c0,0,0.1-0.1,0.1-0.1c-0.2,0.1-0.4,0.3-0.6,0.4c1-0.7,2-1.3,3.1-1.8c-0.2,0.1-0.4,0.2-0.7,0.3
					c1.3-0.6,2.7-0.9,4.2-1.1c-0.2,0-0.5,0.1-0.7,0.1c1.8-0.2,3.6-0.2,5.5,0c-0.2,0-0.5-0.1-0.7-0.1c2,0.3,3.9,0.8,5.7,1.5
					c-0.2-0.1-0.4-0.2-0.7-0.3c1,0.4,2,0.9,2.9,1.6c-0.2-0.1-0.4-0.3-0.6-0.4c0.1,0.1,0.2,0.1,0.3,0.2c0.6,0.5,1.2,0.8,2,0.8
					c0.7,0,1.5-0.3,2-0.8c0.5-0.5,0.8-1.2,0.8-2c0-0.7-0.3-1.5-0.8-2c-1-0.9-2.2-1.6-3.4-2.1c-1.5-0.7-3.1-1.2-4.7-1.6
					c-3.7-0.8-7.5-0.9-11.2,0.1c-1.1,0.3-2.3,0.8-3.3,1.3c-1.1,0.5-2.1,1.2-3.1,2c-0.5,0.4-0.8,1.3-0.8,2c0,0.7,0.3,1.5,0.8,2
					c0.5,0.5,1.2,0.8,2,0.8c0.2,0,0.5-0.1,0.7-0.1C95.7,157.8,96.1,157.6,96.5,157.3L96.5,157.3z"/>
			</g>
		</g>
	</g>
	<ellipse transform="matrix(0.9264 -0.3765 0.3765 0.9264 -50.977 34.4765)" class="st0" cx="62.7" cy="147.6" rx="5.4" ry="4.1"/>
	
		<ellipse transform="matrix(0.2756 -0.9613 0.9613 0.2756 -54.898 223.6137)" class="st0" cx="120.9" cy="148.2" rx="4.1" ry="5.4"/>
	<path class="st4" d="M21.8,116.4l17.7-20.5c0,0,23.6-15.8,25.4-15.8c1.8,0.1,40.4,1.3,40.4,1.3l20.3,4.8l3.1,19.6l14.6-33.5
		l-1.6-26.5l-18.3-32.3l-18-9.6L62.8,0L25.2,11.4L6.2,36L0,70.5l1.3,30.6l22.1,23.6l1.3-0.5L21.8,116.4z"/>
	<path class="st5" d="M39.6,133.4c1.7,0.1,3.5-0.7,3.5-0.7L34,151.3l1.2,8.8l30,18.6l12.3,1.3l-1.1-4.9l6.8,5.5l19.5,2l12.5-3.9
		l2.1-6.5l2,2.7l5.9-5.4l5.7-10.9l1.9-16.8l0.4,18.2l-6.1,14.4l-10.1,8.7l-14.5,4l-39.3-4.1l-15.8-9L32.9,163L27,148.7l5.2,0.2
		L39.6,133.4z"/>
	<polygon class="st0" points="56.1,125.2 58.5,133.2 72,143.6 85.3,143.5 96.7,132.9 110.4,142.9 123.2,143.7 128.3,138.3 
		127.5,129.2 127.1,121.5 120.9,125.4 	"/>
	<polygon class="st5" points="23.9,122 44.6,101.9 44.3,97.8 51.2,88.8 55.3,85.5 39.5,95.8 21.8,116.4 	"/>
	<polygon class="st0" points="53.2,93.5 64.7,84.8 105.1,86.1 121.2,93.8 120.4,116.6 127.2,120 126.6,126.7 127.5,129.2 
		128.7,105.7 125.6,86.1 105.3,81.4 64.9,80.1 53.4,86.7 	"/>
	<g>
		<g>
			<g>
				<path class="st6" d="M71.3,116.8c0.1,0,0.2-0.1,0.3-0.1c-0.3,0.1-0.5,0.2-0.8,0.3c2-0.9,4.1-1.6,6.3-1.9c-0.3,0-0.6,0.1-0.9,0.1
					c1.4-0.2,2.7-0.2,4.1,0c-0.3,0-0.6-0.1-0.9-0.1c2,0.3,4,0.9,5.9,1.7c0.7,0.3,1.8,0.1,2.5-0.3c0.7-0.4,1.3-1.2,1.5-1.9
					c0.2-0.8,0.1-1.8-0.3-2.5c-0.2-0.2-0.3-0.4-0.5-0.7c-0.4-0.4-0.9-0.7-1.4-0.8c-1.1-0.4-2.2-0.9-3.4-1.2
					c-1.3-0.3-2.6-0.6-3.9-0.7c-2.4-0.2-4.8,0.1-7.1,0.7c-1.6,0.5-3.2,1.1-4.8,1.8c-0.7,0.3-1.3,1.2-1.5,1.9
					c-0.2,0.8-0.1,1.8,0.3,2.5c0.4,0.7,1.1,1.3,1.9,1.5c0.3,0,0.6,0.1,0.9,0.1C70.2,117.2,70.8,117.1,71.3,116.8L71.3,116.8z"/>
			</g>
		</g>
	</g>
	<g>
		<g>
			<g>
				<path class="st6" d="M108,116.7c0.1,0,0.2-0.1,0.3-0.1c-0.3,0.1-0.5,0.2-0.8,0.3c2-0.9,4.1-1.6,6.3-1.9c-0.3,0-0.6,0.1-0.9,0.1
					c1.4-0.2,2.7-0.2,4.1,0c-0.3,0-0.6-0.1-0.9-0.1c2,0.3,4,0.9,5.9,1.7c0.7,0.3,1.8,0.1,2.5-0.3c0.7-0.4,1.3-1.2,1.5-1.9
					c0.2-0.8,0.1-1.8-0.3-2.5c-0.2-0.2-0.3-0.4-0.5-0.7c-0.4-0.4-0.9-0.7-1.4-0.8c-1.1-0.4-2.2-0.9-3.4-1.2
					c-1.3-0.3-2.6-0.6-3.9-0.7c-2.4-0.2-4.8,0.1-7.1,0.7c-1.6,0.5-3.2,1.1-4.8,1.8c-0.7,0.3-1.3,1.2-1.5,1.9
					c-0.2,0.8-0.1,1.8,0.3,2.5c0.4,0.7,1.1,1.3,1.9,1.5c0.3,0,0.6,0.1,0.9,0.1C107,117.2,107.5,117,108,116.7L108,116.7z"/>
			</g>
		</g>
	</g>
	<polygon class="st7" points="32.8,130.8 64,119.4 60.4,118.7 62,113.9 93.1,113.6 96.8,116.1 100.7,116.5 105.3,113.9 131,115.3 
		130.2,118.7 127.2,120 125.9,134.4 122.8,141 110.6,141 101.5,131.2 101.8,123.3 97.8,122.4 92.5,122.7 92.3,130.9 86.1,140.8 
		72.9,140.5 63.2,132.8 63.6,126.1 47.6,131.9 35.8,134.1 	"/>
	<polygon class="st8" points="65.4,119.4 63.6,126.1 63.2,132.8 73.2,140.9 86.1,140.8 92.3,130.9 91.5,118.7 	"/>
	<polygon class="st8" points="102.2,119.9 101.5,131.2 110.6,141 122.8,141 125.9,134.4 126.4,128.1 125.9,120.3 117.6,120.4 
		111.4,120.4 	"/>
	<polygon class="st1" points="93.8,121.4 86.4,144 110.4,144.8 101.8,121.6 	"/>
	<polygon class="st5" points="99.4,174.4 100.5,173.6 100.7,171.8 101.4,174.2 101,175.3 	"/>
	<polygon class="st9" points="23.4,19.1 49.8,48 81.8,59.8 80,62.1 81.4,62.6 84.3,60.7 84.8,59.5 53.2,45.4 27.7,13.3 	"/>
	<polygon class="st9" points="7.3,45 46,61.8 76.3,64.1 75.2,66.9 77.5,67.5 80.9,62.4 46.2,58.3 7.3,39.8 	"/>
	<polygon class="st10" points="5.5,40.2 46.5,59.5 80.8,63.2 82.2,62 46.9,57.4 6.2,36 	"/>
	<path class="st9" d="M1.6,67.4c1,0.3,40.1,8,40.1,8l35.1-4l8,7.4l2.2-2.4l-8.6-8.9l-37.9,3.4L2.3,62.4L1.6,67.4z"/>
	<polygon class="st10" points="2.3,64.8 41.6,71.9 78.7,68.3 76.3,66.6 41.4,69.5 2.3,59.5 	"/>
	<path class="st9" d="M20.9,84.8c-1-0.2-18.3,0-18.3,0v14.8l9.2,9.9l23.6-25.7C35.5,83.8,22,85,20.9,84.8z M7.6,96.9l-1.1-7.4
		l14.8,0.7l5.2-1.4l-14.1,13.5L7.6,96.9z"/>
	<polygon class="st10" points="55.8,81.4 21.8,83.9 2.3,81.9 2.9,86.3 21.8,86.9 55.3,83.3 	"/>
	<path class="st9" d="M57.6,3.7L78,27.9l7.4,27.4l-2.8,2.5l2.8,1.7c0,0,3.1-2.4,2.9-2.8c-0.3-0.4-5.6-31.1-5.6-31.1l-16-24.4
		L57.6,3.7z"/>
	<path class="st10" d="M25.2,11.4l27.6,35l32.1,13.1l0.6-0.9c0,0-30.3-13.9-30.7-14.3C54.4,44,29.4,10.1,29.4,10.1L25.2,11.4z"/>
	<path class="st9" d="M87,51c0,0,2.9-0.9,2.9-0.9l5.9-11.3l4.6-33.6l5.6,0.6L99,42.1l-9.8,15.3c0,0-1.3-0.1-1.3-0.3
		C87.8,56.8,87,51,87,51z"/>
	<polygon class="st10" points="68.1,0.5 84.3,25.5 88.5,56.3 87.3,57 81.7,26.3 62.8,0 	"/>
	<polygon class="st9" points="93,52.6 99.6,55.5 110.3,46.4 120.7,13.3 123.4,15.8 113.8,48 94.1,62 89.1,57.4 	"/>
	<polygon class="st10" points="105.4,3.7 97.7,40 88.3,56.7 89.8,57.4 100.6,42.3 109.6,6 	"/>
	<polygon class="st10" points="8.8,37.9 27.3,14.1 66.4,2 106.3,7 123.1,16.4 123.4,13.3 105.4,3.7 62.8,0 25.2,11.4 6.2,36 
		6.2,38.2 	"/>
	<polygon class="st9" points="93.8,62 100.3,57.9 101.9,63.4 123.4,60.2 138.3,42.4 140.9,48 135.2,57 124.8,65.7 98.6,67.4 	"/>
	<path class="st10" d="M93.8,61.5c0.2-0.4,18.7-14.2,18.7-14.2l10.8-33.9l2.1,3.6l-10.9,31.4l-19.5,14L93.8,61.5z"/>
	<polygon class="st9" points="102.2,67.5 100.3,73 129.5,70.6 141.5,62.8 141.2,67.9 132,73 112.1,77.4 89.3,78 89.3,75.9 
		98.6,67.4 	"/>
	<path class="st10" d="M98.6,68.3c0,0,25.6-1.2,27.3-1.4c3.3-3.9,13.5-11.7,13.5-11.7l-0.5-7.2L125,63.4l-26.3,3L98.6,68.3z"/>
	<path class="st10" d="M87.9,55.7c-0.7,0.6-10.7,10-11.6,10.9c1,1,11.9,12.4,11.9,12.4l12.1-12.4L87.9,55.7z"/>
	<g>
		<polygon class="st11" points="82.7,67.5 88.2,76.4 88.2,68.3 		"/>
		<g>
			<polygon class="st12" points="78.7,66.9 88.2,76.4 82.7,67.5 			"/>
			<polygon class="st11" points="93.8,67.5 88.2,76.4 97.7,66.9 			"/>
			<polygon class="st12" points="88.2,57.4 93.5,66.9 93.8,67.5 97.7,66.9 			"/>
			<polygon class="st11" points="78.7,66.9 82.7,67.5 83,66.9 88.2,57.4 			"/>
			<polygon class="st12" points="88.2,68.3 88.2,76.4 93.8,67.5 			"/>
			<polygon class="st11" points="93.5,66.9 88.2,57.4 88.2,66.9 88.2,68.3 93.8,67.5 			"/>
			<polygon class="st12" points="83,66.9 82.7,67.5 88.2,68.3 88.2,66.9 88.2,57.4 			"/>
		</g>
	</g>
	<path class="st9" d="M139.9,72.1l-8.3,3.7l-7.5,1.3l6.2,1.6l2,6.5l-1.9,2.6l-5.7-6.4c0,0-10.7-4.1-10.7-4.2
		c0.1-0.1,17.4-4.4,17.4-4.4l9.4-4.8l0.3,2.3L139.9,72.1z"/>
	<path class="st10" d="M104.8,77.8l26.4-5.4c0,0,8.3-5,9.8-6c0.4,1.8,0.7,3.3,0.5,3.1L132,74l-24.4,4.8L104.8,77.8z"/>
	<path class="st10" d="M6.2,36l2.5,1.8L2,70.6L5.6,99l6.2,7.3L30.6,86l32.1-10.2l50.8,0.3l15.2,4l2.3,6.2l9.5-15.9l-1.7-25
		l-15.6-29.1l0.3-3l18.3,32.3l1.6,26.5l-14.6,33.5c0.4-2-3.1-19.6-3.1-19.6l-20.3-4.8l-40.4-1.3L39.5,95.8l-17.7,20.5l3,7.9
		l-3.8,1.4L1.3,101.1L0,70.5L6.2,36z"/>
	<path class="st12" d="M100.5,65.3c-0.5,0.3-1,0.6-1.6,0.9c-0.5,0.3-0.8,0.9-0.6,1.5c0,0.1,0.1,0.2,0.1,0.3c0.2,0.4,0.3,0.8,0.5,1.1
		c0,0,0,0,0,0.1c-0.2-0.4-0.5-0.8-0.7-1.3c-0.4-0.7-1-0.9-1.7-0.5c-0.4,0.2-0.9,0.4-1.3,0.6c-0.1,0-0.2,0.1-0.3,0.1c0,0,0-0.1,0-0.1
		c0.5-0.3,1.1-0.5,1.6-0.8c0.6-0.3,0.8-1,0.6-1.6c-0.2-0.5-0.4-0.9-0.6-1.4c0.2,0.4,0.5,0.8,0.7,1.2c0.4,0.7,1,0.9,1.8,0.6
		c0.3-0.1,0.5-0.2,0.8-0.4C99.9,65.5,100.2,65.3,100.5,65.3C100.4,65.2,100.5,65.3,100.5,65.3z"/>
	<path class="st12" d="M78.7,64.3c0,0.5,0,0.9,0.1,1.4c0,0.5,0.3,0.8,0.8,0.9c0.1,0,0.2,0,0.3,0c0.3,0,0.6,0,1,0c0,0,0,0,0.1,0
		c-0.4,0-0.7,0-1.1,0.1c-0.6,0-0.9,0.4-1,1c0,0.4,0,0.7,0,1.1c0,0.1,0,0.2,0,0.2c0,0,0,0-0.1,0c0-0.5,0-0.9,0-1.4
		c0-0.5-0.4-0.9-0.9-1c-0.4,0-0.8,0-1.2-0.1c0.4,0,0.7,0,1.1,0c0.6,0,1-0.4,1-1c0-0.2,0-0.4,0-0.7C78.7,64.7,78.6,64.5,78.7,64.3
		C78.7,64.3,78.7,64.3,78.7,64.3z"/>
	<path class="st12" d="M84.8,60.7c-0.1,0.1-0.2,0.3-0.4,0.4c-0.2,0.2-0.2,0.5,0,0.8c0.2,0.2,0.4,0.3,0.5,0.5c0,0,0,0,0,0
		c-0.2-0.2-0.4-0.3-0.5-0.5c-0.3-0.2-0.6-0.2-0.8,0c-0.1,0.1-0.3,0.3-0.4,0.4c0.1-0.1,0.2-0.3,0.4-0.4c0.2-0.3,0.2-0.6,0-0.8
		c-0.2-0.2-0.3-0.3-0.5-0.5c0,0,0,0,0,0c0.2,0.2,0.3,0.3,0.5,0.5c0.3,0.2,0.6,0.2,0.9,0C84.5,60.9,84.6,60.8,84.8,60.7
		C84.8,60.6,84.8,60.7,84.8,60.7z"/>
	<path class="st12" d="M90.2,68.1C90.1,68,90,68,89.9,68c-0.2-0.1-0.4,0-0.4,0.2c-0.1,0.1-0.1,0.3-0.2,0.4c0,0,0,0,0,0
		c0-0.1,0.1-0.3,0.1-0.4c0.1-0.2,0-0.4-0.2-0.5c-0.1-0.1-0.2-0.1-0.3-0.2c0.1,0,0.2,0.1,0.3,0.1c0.2,0.1,0.4,0,0.5-0.2
		c0.1-0.1,0.1-0.3,0.2-0.4c0,0,0,0,0,0c-0.1,0.1-0.1,0.3-0.2,0.4c-0.1,0.2,0,0.4,0.2,0.5C90,68,90.1,68,90.2,68.1
		C90.2,68.1,90.2,68.1,90.2,68.1z"/>
</g>
</svg>
