<?xml version="1.0" encoding="utf-8"?>
<!-- Generator: Adobe Illustrator 25.0.1, SVG Export Plug-In . SVG Version: 6.00 Build 0)  -->
<svg version="1.1" id="Capa_1" xmlns="http://www.w3.org/2000/svg" xmlns:xlink="http://www.w3.org/1999/xlink" x="0px" y="0px"
	 viewBox="0 0 200.9 197.6" style="enable-background:new 0 0 200.9 197.6;" xml:space="preserve">
<style type="text/css">
	.st0{fill:#EFCE8D;}
	.st1{fill:#BD870E;}
	.st2{fill:#010101;}
	.st3{fill:#7C5412;}
</style>
<g>
	<g>
		<path class="st0" d="M196.6,101.5l-3.6-4.6l0,0l-0.6-0.7v0l-4-5.1l0,0l-0.7-0.9l0,0l-9.8-12.4v0l-3.6-4.6l0.8-21.6l-9-7.1l-1.1,1
			l-11,9.3l-1.8-1.7h0l-8.1-7.5c0,0-0.1-0.1-0.2-0.2c-0.1-0.1-0.2-0.2-0.4-0.3l-0.2-0.2l-0.6-0.6c0,0,0,0,0,0l-2.7-2.6l-0.7-0.6
			l-4.8-4.5L115.4,19l-1.2,0.8v0L70.1,48.9l-14-12.8l-9.7,5l-1.2,25.6l-3.3,2.9v0L12.9,94.7v0l31.6,31.1c-0.1,0.6,0.3,7.7,0.3,7.7
			l47.6,33.3l0,0.5l0-0.5l19.9,13.9l1.9-1.5v0l17.2-13.6l0,0.1l5.6-4.5l0,0l36.2-30.5l-0.1-4.7c0,0,0.1-0.1,0.2-0.2l0.1-0.1
			c0.1-0.1,0.2-0.2,0.4-0.4l19.7-20.8h0L196.6,101.5z M148,58.5l-7.7,7.7l-7.2,0l-1.5,0l0-1.5l-17.3-0.9v0L96.3,63l-0.1,2.1
			l-8.8-2.8l-4.3-1.6l-5.5-8.1v-1.9l36.6-25.1h0v0l12.4,11.5l0,0L148,56.9V58.5z"/>
		<path class="st0" d="M111,186.1v-2.2l-20.5-14.3l1.4-2h-0.1l-1.4,2l-48.9-34.2l-0.1-1.6c-0.2-3.3-0.3-5.3-0.3-6.5L9.6,96.2v-2.9
			l1.1-1l31.2-27.2L43.1,39l13.5-6.9l13.8,12.6l45.4-29.9l0,0l1.8-1.2v2.8l36.4,33.9l11.9-10.2l12.5,9.8l-0.8,22l23.4,29.6
			l-24.3,25.7l0.1,4.9l-37.5,31.6l-11,8.8v-0.1L111,186.1z M95.5,165l16.7,11.7l1.5-1.2l21-16.6v0l0.2-0.2l35-29.5l-0.1-4.5
			l22.3-23.5l-21.3-27l0.8-21.1l-5.6-4.4l-12.4,10.5l-2.4-2.2v2.9l-9.7,9.6l-13.3,0l-0.1-1.6l-28.8-1.4l-0.1,3.1l-13-4.1L81,63.5
			l-6.7-9.8v-3.6l-4.6,3l-14.3-13l-6,3.1l-1.2,25.1L17.7,94.9l30.4,29.9l-0.3,1.6c0,0.7,0.1,3.1,0.2,5.4L95.5,165z M47.7,126.5
			L47.7,126.5C47.7,126.6,47.7,126.5,47.7,126.5z M134.8,62.9l4.2,0l5.2-5.2l-30.2-28L81.3,52.2l4,5.8l3.3,1.2l4.5,1.4l0-1.1
			l41.6,2.1L134.8,62.9z"/>
	</g>
	<g>
		<g>
			<polygon class="st1" points="96.3,132.5 96.3,169.7 92.3,166.9 112.3,180.9 114.2,179.4 114.2,151 			"/>
			<path class="st1" d="M96.2,65.2l-8.8-2.8l-4.3-1.6L70.1,49L56,36.2l-9.7,5L45,66.8L12.8,94.8l28,18.3l3.6-35.5v48.3
				c-0.2,0.5,0.3,7.7,0.3,7.7l47.6,33.3l1.2-18.8L96.2,65.2z M86.4,113.5v3L51.7,84.9l34.7,2.4V113.5z"/>
			<polygon class="st1" points="72.2,47.6 76.1,49.5 114.2,25.7 114.2,25.7 114.2,21.4 77.6,44.1 114.2,19.9 114.2,19.9 70.1,49 			
				"/>
			<path class="st1" d="M96.3,65.2v45.1l17.9,0v-8.5c-0.8,0-1.6,0-2.4-0.1c-4.3-0.6-8-2.4-11.1-5.8c-1-1.1-0.3-2.5,0.7-2.7
				c0.6-0.1,1.1,0.1,1.5,0.6c2.1,2.5,4.8,4,7.8,4.6c1.1,0.2,2.3,0.4,3.4,0.3v-2.3c-0.7,0-1.5,0-2.3-0.1c-5.5-0.9-9.7-5.3-10.3-11
				c-0.4-4.3,1.3-7.7,4.3-10.2c2.4-2.1,5.3-3,8.2-2.9V64l-17.9-0.9V65.2z"/>
			<path class="st1" d="M113.1,90.8c-5.9-0.1-6.9-6.3-5-9.6c1.4-2.5,3.5-3.5,6.1-3.3v-2.6c-3.9-0.1-7.9,2.5-9.2,6.4
				c-0.5,1.3-0.4,2.7-0.1,4c1.1,4.7,4.3,7.3,8.7,7.4c0.2,0,0.4,0,0.6,0v-2.4C113.9,90.8,113.5,90.8,113.1,90.8z"/>
			<path class="st1" d="M111,82.4c-0.9,1-1,2.6-0.5,3.8c0.6,1.4,2.8,1.9,3.4,0.7c-1.2-0.8-1.5-1.6-0.8-2.5c0.3-0.4,0.6-0.6,1-0.7V81
				C113,80.9,111.9,81.4,111,82.4z"/>
			<polygon class="st1" points="96.3,132.5 114.2,114.2 114.2,111.8 96.3,111.9 			"/>
			<polygon class="st2" points="86.4,113.5 86.4,87.3 51.7,84.9 			"/>
			<polygon class="st2" points="114.2,151 114.2,114.2 96.3,132.5 			"/>
			<polyline class="st3" points="44.4,126 45,66.8 41.8,69.6 40.8,113.2 12.8,94.9 			"/>
			<polygon class="st3" points="96.3,63.1 96.2,65.2 96.3,65.2 			"/>
			<polygon class="st3" points="96.3,110.3 96.3,65.2 96.2,65.2 93.5,148.2 92.3,167.5 92.3,166.9 96.3,169.7 96.3,132.5 
				96.3,111.9 			"/>
			<polygon class="st3" points="96.3,111.9 101.6,111.9 114.2,111.8 114.2,110.3 96.3,110.3 			"/>
			<path class="st3" d="M108.1,81.2c-1.9,3.3-0.9,9.5,5,9.6c0.4,0,0.8-0.1,1.1-0.1v-7c-0.4,0.1-0.7,0.3-1,0.7
				c-0.7,1-0.4,1.7,0.8,2.5c-0.7,1.2-2.8,0.7-3.4-0.7c-0.5-1.2-0.4-2.8,0.5-3.8c0.8-1,2-1.5,3.2-1.4v-3.1
				C111.6,77.7,109.5,78.7,108.1,81.2z"/>
			<path class="st3" d="M101.7,85.2c0.6,5.7,4.8,10.1,10.3,11c0.8,0.1,1.5,0.2,2.3,0.1v-3.2c-0.2,0-0.4,0-0.6,0
				c-4.4-0.2-7.6-2.7-8.7-7.4c-0.3-1.4-0.4-2.7,0.1-4c1.3-3.9,5.3-6.5,9.2-6.4v-3.2c-2.9-0.1-5.8,0.8-8.2,2.9
				C102.9,77.5,101.2,80.9,101.7,85.2z"/>
			<path class="st3" d="M110.8,98.3c-3-0.6-5.7-2.1-7.8-4.6c-0.4-0.5-0.9-0.7-1.5-0.6c-1,0.2-1.8,1.6-0.7,2.7
				c3.1,3.4,6.8,5.3,11.1,5.8c0.8,0.1,1.6,0.2,2.4,0.1v-3.2C113.1,98.6,112,98.5,110.8,98.3z"/>
			<polygon class="st3" points="77.6,52.8 77.6,50.9 114.2,25.7 76.1,49.5 72.2,47.6 70.1,49 83.1,60.9 			"/>
			<polygon class="st3" points="86.4,116.5 86.4,113.5 51.7,84.9 			"/>
			<polygon class="st0" points="77.6,44.1 114.2,21.4 114.2,19.9 			"/>
		</g>
		<path class="st1" d="M114.2,64v8.1c3.7,0.1,7.4,2,10.1,5.4c5.5,6.9,4.2,17.4-3,22.2c-2.2,1.5-4.6,2.1-7.2,2.2v8.5l17.2-0.1v1.5
			l-17.2,0.1v2.4l0.1-0.1l17.1,18l-17.1,19l-0.1-0.1v28.4l17.2-13.6l0-101L114.2,64z"/>
		<path class="st1" d="M119.1,88.5c0.7-2.7-0.2-5.3-2.4-6.7c-0.8-0.5-1.7-0.8-2.5-0.8v2.7c0.2,0,0.4,0,0.7,0.1
			c1.4,0.4,2.3,1.8,2.1,3.5c-0.2,1.8-1.2,3.1-2.8,3.4v2.4C116.6,92.9,118.4,91.2,119.1,88.5z"/>
		<polygon class="st1" points="115.4,19.1 114.2,19.9 114.2,19.9 		"/>
		<path class="st1" d="M174.2,73.2l0.8-21.6l-9-7.1l-12,10.4l-13.7,11.3l-8.7,0l0-1.5L134,145l-1.2,8.8l1.4,5.1l38.8-30.4l0.2-6.2
			c-0.2-3.2-0.1-36.5-0.1-36.5s2,31.6,2.1,33.7c1.5-0.9,18.2-14.6,18.2-14.6l-20.3,21.5l23.4-24.7L174.2,73.2z M168.6,93.1
			l-28.4,22.2v-2.2c0,0,0-20.1,0-22.4l30-0.5L168.6,93.1z"/>
		<path class="st1" d="M143.3,45.2c0.1,0.1,0.3,0.2,0.4,0.3L143.3,45.2z"/>
		<path class="st1" d="M124.4,84.7c-1-4.7-3.7-7.9-8.3-9.1c-0.6-0.2-1.3-0.3-1.9-0.3v2.6c0.2,0,0.5,0,0.7,0.1
			c5.8,0.7,7.7,6,7.3,10.1c-0.5,4.7-3.8,7.9-8,8.2v2.3c2.5,0,4.9-0.8,6.9-2.7C124.4,93,125.4,89.1,124.4,84.7z"/>
		<path class="st1" d="M115.3,20.7l-1.1,0.7v4.3L148,57l-21.3-19.8l21.3,17l3.9-1l2,1.8l-10-9.4c0.1,0.1-3.1-2.3-3.1-2.3l0.4-0.2
			c0,0,1.2,1.1,2,1.9l-3.4-3.2l-0.9,0.1l-5.5-4.1l2,0l3.7,3.4l-4.8-4.5l-2.8-0.4L115.3,20.7z"/>
		<path class="st2" d="M140.2,113.1l30-22.9l-30,0.5C140.2,93,140.2,113.1,140.2,113.1z"/>
		<polygon class="st2" points="114.3,151.1 131.4,132.1 114.3,114.1 114.2,114.2 114.2,151 		"/>
		<path class="st3" d="M175.3,119.4c-0.4-3.5-2.1-33.7-2.1-33.7s-0.2,37.3,0,40.5l23.4-24.7C196.5,101.6,176.5,118.5,175.3,119.4z"
			/>
		<polygon class="st3" points="131.4,165.9 137.1,161.4 131.4,165.8 		"/>
		<polygon class="st3" points="134.1,153 133,66.3 131.5,66.3 131.5,64.8 131.4,165.8 137.1,161.4 137.1,161.4 173.3,130.9 
			173.1,119.2 		"/>
		<polygon class="st3" points="131.4,111.7 131.4,110.2 114.2,110.3 114.2,111.8 		"/>
		<path class="st3" d="M122.2,88.1c0.4-4.2-1.5-9.4-7.3-10.1c-0.2,0-0.5,0-0.7-0.1V81c0.8,0,1.7,0.3,2.5,0.8c2.2,1.4,3.1,4,2.4,6.7
			c-0.7,2.7-2.5,4.4-4.9,4.6v3.2C118.5,96,121.7,92.8,122.2,88.1z"/>
		<path class="st3" d="M117,87.2c0.2-1.7-0.7-3.1-2.1-3.5c-0.2-0.1-0.5-0.1-0.7-0.1v7C115.7,90.3,116.8,89.1,117,87.2z"/>
		<path class="st3" d="M116.1,75.5c4.6,1.2,7.3,4.4,8.3,9.1c1,4.4,0,8.3-3.3,11.3c-2.1,1.9-4.4,2.6-6.9,2.7v3.2c2.5,0,5-0.7,7.2-2.2
			c7.1-4.7,8.5-15.2,3-22.2c-2.7-3.4-6.4-5.3-10.1-5.4v3.2C114.8,75.3,115.5,75.4,116.1,75.5z"/>
		<polygon class="st3" points="148,54.2 126.6,37.3 148,57 148,58.6 140.2,66.3 153.9,55 151.9,53.2 		"/>
		<polygon class="st3" points="140.2,115.3 168.6,93.1 170.2,90.2 140.2,113.1 		"/>
		<polygon class="st0" points="134.3,36.7 115.4,19.1 134.3,36.7 		"/>
		<polygon class="st0" points="114.2,21.4 115.3,20.7 131.4,36.3 134.3,36.7 115.4,19.1 114.2,19.9 		"/>
		<polygon class="st0" points="139.7,41.8 139.1,41.2 139.7,41.8 		"/>
		<polygon class="st0" points="133.3,37.8 138.8,41.9 139.7,41.8 139.1,41.2 135.4,37.8 		"/>
		<path class="st0" d="M143.1,45l0.2,0.2C143.3,45.1,143.2,45.1,143.1,45z"/>
		<path class="st0" d="M143.9,45.7c0,0-0.1-0.1-0.2-0.2L143.9,45.7C143.9,45.7,143.9,45.7,143.9,45.7z"/>
		<path class="st0" d="M140.8,43.4c0,0,3.2,2.4,3.1,2.3l-0.2-0.2c-0.1-0.1-0.2-0.2-0.4-0.3l-0.2-0.2c-0.8-0.8-2-1.9-2-1.9
			L140.8,43.4z"/>
		<polygon class="st0" points="177.8,77.8 176.8,82.8 186.8,92.3 187.6,90.2 		"/>
		<polygon class="st0" points="188.3,91.1 187.6,93 191.8,97.3 192.3,96.2 		"/>
		<polygon class="st0" points="192.9,96.9 192.5,97.9 196.5,101.6 		"/>
		<polygon class="st0" points="164.8,45.6 174.1,52.4 173.3,73.9 174.2,73.2 175,51.7 165.9,44.6 		"/>
		<g>
			<circle class="st3" cx="113.9" cy="132.7" r="6.3"/>
			<circle class="st1" cx="114.6" cy="131.7" r="5.1"/>
			<circle class="st0" cx="110.4" cy="134.1" r="1.5"/>
			<circle class="st0" cx="112.4" cy="136.1" r="0.7"/>
		</g>
		<polygon class="st3" points="95.6,133.4 114.2,153 131.5,134.1 131.4,132.1 114.2,151 96.3,132.5 		"/>
		<polygon class="st3" points="164.8,45.6 165.4,46 140.3,68.9 131.6,69.4 131.5,66.3 140.2,66.3 		"/>
	</g>
	<path class="st0" d="M128.5,8c-0.2,0.1-0.4,0.2-0.6,0.3c-2,1.1-4.1,2.2-6.1,3.3c-2.4,1.3-3.3,4.3-2.2,6.9c1.2,2.8,2.5,5.6,3.7,8.4
		c0.1,0.1,0.1,0.2,0.1,0.4c-0.7-1.4-1.4-2.7-2.2-4.1c-0.8-1.5-1.6-3-2.4-4.5c-1.3-2.4-4.3-3.5-6.8-2.3c-2.1,0.9-4.3,1.9-6.4,2.8
		c-0.2,0.1-0.3,0.1-0.5,0.1c1.2-0.6,2.4-1.3,3.5-1.9c1.1-0.6,2.3-1.2,3.4-1.9c2.2-1.4,3-4.2,2-6.6c-1.3-2.8-2.5-5.7-3.8-8.5
		c0-0.1-0.1-0.2-0.1-0.4c0.8,1.5,1.6,3,2.4,4.6c0.8,1.4,1.5,2.9,2.3,4.3c1.4,2.3,4.3,3.2,6.8,2C123.9,9.9,126.2,8.9,128.5,8
		C128.4,7.9,128.5,7.9,128.5,8z"/>
	<path class="st0" d="M54.5,128.4c-0.2,0.1-0.4,0.2-0.6,0.3c-2,1.1-4.1,2.2-6.1,3.3c-2.4,1.3-3.3,4.3-2.2,6.9
		c1.2,2.8,2.5,5.6,3.7,8.4c0.1,0.1,0.1,0.2,0.1,0.4c-0.7-1.4-1.4-2.7-2.2-4.1c-0.8-1.5-1.6-3-2.4-4.5c-1.3-2.4-4.3-3.5-6.8-2.3
		c-2.1,0.9-4.3,1.9-6.4,2.8c-0.2,0.1-0.3,0.1-0.5,0.1c1.2-0.6,2.4-1.3,3.5-1.9c1.1-0.6,2.3-1.2,3.4-1.9c2.2-1.4,3-4.2,2-6.6
		c-1.3-2.8-2.5-5.7-3.8-8.5c0-0.1-0.1-0.2-0.1-0.4c0.8,1.5,1.6,3,2.4,4.6c0.8,1.4,1.5,2.9,2.3,4.3c1.4,2.3,4.3,3.2,6.8,2
		C50,130.3,52.2,129.4,54.5,128.4C54.5,128.4,54.5,128.4,54.5,128.4z"/>
	<path class="st0" d="M121.9,178.2c-0.2,0.1-0.4,0.2-0.6,0.3c-2,1.1-4.1,2.2-6.1,3.3c-2.4,1.3-3.3,4.3-2.2,6.9
		c1.2,2.8,2.5,5.6,3.7,8.4c0.1,0.1,0.1,0.2,0.1,0.4c-0.7-1.4-1.4-2.7-2.2-4.1c-0.8-1.5-1.6-3-2.4-4.5c-1.3-2.4-4.3-3.5-6.8-2.3
		c-2.1,0.9-4.3,1.9-6.4,2.8c-0.2,0.1-0.3,0.1-0.5,0.1c1.2-0.6,2.4-1.3,3.5-1.9c1.1-0.6,2.3-1.2,3.4-1.9c2.2-1.4,3-4.2,2-6.6
		c-1.3-2.8-2.5-5.7-3.8-8.5c0-0.1-0.1-0.2-0.1-0.4c0.8,1.5,1.6,3,2.4,4.6c0.8,1.4,1.5,2.9,2.3,4.3c1.4,2.3,4.3,3.2,6.8,2
		C117.3,180.1,119.6,179.1,121.9,178.2C121.8,178.2,121.9,178.2,121.9,178.2z"/>
	<path class="st0" d="M184.6,80.7c-0.1,0.1-0.3,0.2-0.4,0.2c-1.3,0.7-2.7,1.5-4,2.2c-1.6,0.9-2.2,2.8-1.4,4.6
		c0.8,1.8,1.6,3.7,2.5,5.5c0,0.1,0.1,0.2,0.1,0.3c-0.5-0.9-0.9-1.8-1.4-2.7c-0.5-1-1.1-2-1.6-3c-0.9-1.6-2.8-2.3-4.5-1.5
		c-1.4,0.6-2.8,1.2-4.2,1.8c-0.1,0-0.2,0.1-0.3,0.1c0.8-0.4,1.6-0.8,2.3-1.3c0.7-0.4,1.5-0.8,2.2-1.2c1.5-0.9,2-2.8,1.3-4.4
		c-0.8-1.9-1.7-3.7-2.5-5.6c0-0.1-0.1-0.1-0.1-0.2c0.5,1,1.1,2,1.6,3c0.5,0.9,1,1.9,1.5,2.8c0.9,1.5,2.8,2.1,4.5,1.3
		C181.6,82,183.1,81.3,184.6,80.7C184.6,80.7,184.6,80.7,184.6,80.7z"/>
	<path class="st0" d="M104.7,6c0,1,0.1,1.9,0.1,2.9c0,1,0.7,1.7,1.7,1.9c0.2,0,0.4,0,0.6,0c0.7,0,1.3,0.1,2,0.1c0,0,0.1,0,0.1,0.1
		c-0.8,0-1.6,0.1-2.3,0.1c-1.2,0.1-2,0.8-2,2.1c0,0.8,0,1.5-0.1,2.3c0,0.2,0,0.3-0.1,0.5c0,0-0.1,0-0.1,0c0-1,0-1.9,0-2.9
		c0-1.1-0.8-1.9-1.9-2c-0.8-0.1-1.6-0.1-2.5-0.2c0.7,0,1.5-0.1,2.2-0.1c1.3,0,2.1-0.8,2.1-2.1c0-0.5,0-0.9,0.1-1.4
		c0-0.5,0-0.9,0-1.4C104.6,6,104.6,6,104.7,6z"/>
	<path class="st0" d="M136.6,57.2c-0.5,0.8-1,1.6-1.5,2.5c-0.5,0.9-0.4,1.8,0.4,2.5c0.1,0.1,0.3,0.2,0.5,0.4
		c0.5,0.4,1.1,0.8,1.6,1.1c0,0,0.1,0,0.1,0.1c-0.7-0.4-1.3-0.8-2-1.2c-1.1-0.6-2.1-0.4-2.8,0.7c-0.4,0.6-0.9,1.3-1.3,1.9
		c-0.1,0.1-0.2,0.3-0.3,0.4c0,0-0.1-0.1-0.1-0.1c0.5-0.8,1-1.6,1.5-2.4c0.6-0.9,0.4-2-0.5-2.7c-0.7-0.5-1.3-1-2-1.5
		c0.6,0.4,1.3,0.7,1.9,1.1c1.1,0.7,2.2,0.4,2.9-0.6c0.3-0.4,0.5-0.7,0.8-1.1C136,57.9,136.2,57.5,136.6,57.2
		C136.5,57.1,136.5,57.1,136.6,57.2z"/>
	<path class="st0" d="M177,127.1c0,1,0.1,1.9,0.1,2.9c0,1,0.7,1.7,1.7,1.9c0.2,0,0.4,0,0.6,0c0.7,0,1.3,0.1,2,0.1c0,0,0.1,0,0.1,0.1
		c-0.8,0-1.6,0.1-2.3,0.1c-1.2,0.1-2,0.8-2,2.1c0,0.8,0,1.5-0.1,2.3c0,0.2,0,0.3-0.1,0.5c0,0-0.1,0-0.1,0c0-1,0-1.9,0-2.9
		c0-1.1-0.8-1.9-1.9-2c-0.8-0.1-1.6-0.1-2.5-0.2c0.7,0,1.5-0.1,2.2-0.1c1.3,0,2.1-0.8,2.1-2.1c0-0.5,0-0.9,0.1-1.4
		c0-0.5,0-0.9,0-1.4C176.9,127.1,176.9,127.1,177,127.1z"/>
	<path class="st0" d="M14.6,96.6c0,1,0.1,1.9,0.1,2.9c0,1,0.7,1.7,1.7,1.9c0.2,0,0.4,0,0.6,0c0.7,0,1.3,0.1,2,0.1c0,0,0.1,0,0.1,0.1
		c-0.8,0-1.6,0.1-2.3,0.1c-1.2,0.1-2,0.8-2,2.1c0,0.8,0,1.5-0.1,2.3c0,0.2,0,0.3-0.1,0.5c0,0-0.1,0-0.1,0c0-1,0-1.9,0-2.9
		c0-1.1-0.8-1.9-1.9-2c-0.8-0.1-1.6-0.1-2.5-0.2c0.7,0,1.5-0.1,2.2-0.1c1.3,0,2.1-0.8,2.1-2.1c0-0.5,0-0.9,0.1-1.4
		c0-0.5,0-0.9,0-1.4C14.5,96.6,14.5,96.6,14.6,96.6z"/>
	<path class="st0" d="M15.2,85.6c-1.2,1.9-2.4,3.8-3.5,5.7c-1.2,2-0.9,4.3,0.7,5.9c0.3,0.3,0.7,0.6,1.1,0.9c1.2,0.9,2.5,1.8,3.8,2.8
		c0.1,0.1,0.1,0.1,0.1,0.2c-1.6-0.9-3.1-1.9-4.7-2.8c-2.5-1.5-4.9-0.9-6.6,1.4c-1,1.4-2.1,2.9-3.1,4.3c-0.2,0.3-0.5,0.6-0.7,0.9
		c-0.1-0.1-0.2-0.1-0.3-0.2c1.2-1.9,2.5-3.7,3.7-5.6c1.4-2.2,1-4.7-1.1-6.3C3,91.7,1.5,90.5,0,89.3c1.5,0.9,3,1.8,4.5,2.7
		c2.6,1.6,5.1,1.1,6.9-1.3c0.6-0.9,1.3-1.7,1.9-2.6c0.6-0.9,1.2-1.8,1.8-2.6C15.1,85.5,15.1,85.5,15.2,85.6z"/>
	<path class="st0" d="M129.2,15.9c-0.4,0-0.8,0-1.2,0.1c-0.7,0.1-1.1,0.5-1.2,1.2c0,0.5,0,1.1,0,1.6c0,0-0.1,0-0.1,0
		c0-0.5-0.1-1-0.1-1.5c0-0.8-0.5-1.2-1.2-1.3c-0.4,0-0.8-0.1-1.2-0.1c0.4,0,0.8,0,1.3-0.1c0.7,0,1.2-0.5,1.2-1.3c0-0.5,0-1,0.1-1.5
		c0,0,0.1,0,0.1,0c0,0.5,0,1,0,1.5c0,0.8,0.5,1.3,1.3,1.3C128.4,15.8,128.8,15.9,129.2,15.9C129.2,15.9,129.2,15.9,129.2,15.9z"/>
	<path class="st0" d="M139.1,66.8c-0.4,0-0.8,0-1.2,0.1c-0.7,0.1-1.1,0.5-1.2,1.2c0,0.5,0,1.1,0,1.6c0,0-0.1,0-0.1,0
		c0-0.5-0.1-1-0.1-1.5c0-0.8-0.5-1.2-1.2-1.3c-0.4,0-0.8-0.1-1.2-0.1c0.4,0,0.8,0,1.3-0.1c0.7,0,1.2-0.5,1.2-1.3c0-0.5,0-1,0.1-1.5
		c0,0,0.1,0,0.1,0c0,0.5,0,1,0,1.5c0,0.8,0.5,1.3,1.3,1.3C138.3,66.7,138.7,66.7,139.1,66.8C139.1,66.8,139.1,66.8,139.1,66.8z"/>
	<path class="st0" d="M111.5,134.2c-0.4,0-0.8,0-1.2,0.1c-0.7,0.1-1.1,0.5-1.2,1.2c0,0.5,0,1.1,0,1.6c0,0-0.1,0-0.1,0
		c0-0.5-0.1-1-0.1-1.5c0-0.8-0.5-1.2-1.2-1.3c-0.4,0-0.8-0.1-1.2-0.1c0.4,0,0.8,0,1.3-0.1c0.7,0,1.2-0.5,1.2-1.3c0-0.5,0-1,0.1-1.5
		c0,0,0.1,0,0.1,0c0,0.5,0,1,0,1.5c0,0.8,0.5,1.3,1.3,1.3C110.8,134.1,111.2,134.1,111.5,134.2C111.5,134.1,111.5,134.1,111.5,134.2
		z"/>
	<path class="st0" d="M116.3,174.2c-0.4,0-0.8,0-1.2,0.1c-0.7,0.1-1.1,0.5-1.2,1.2c0,0.5,0,1.1,0,1.6c0,0-0.1,0-0.1,0
		c0-0.5-0.1-1-0.1-1.5c0-0.8-0.5-1.2-1.2-1.3c-0.4,0-0.8-0.1-1.2-0.1c0.4,0,0.8,0,1.3-0.1c0.7,0,1.2-0.5,1.2-1.3c0-0.5,0-1,0.1-1.5
		c0,0,0.1,0,0.1,0c0,0.5,0,1,0,1.5c0,0.8,0.5,1.3,1.3,1.3C115.6,174.1,116,174.1,116.3,174.2C116.4,174.1,116.3,174.1,116.3,174.2z"
		/>
	<path class="st0" d="M120.7,6.4c-0.2,0-0.4,0-0.6,0c-0.3,0-0.6,0.2-0.6,0.6c0,0.3,0,0.5,0,0.8c0,0,0,0,0,0c0-0.3,0-0.5,0-0.8
		c0-0.4-0.2-0.6-0.6-0.6c-0.2,0-0.4,0-0.6-0.1c0.2,0,0.4,0,0.6,0c0.4,0,0.6-0.3,0.6-0.6c0-0.3,0-0.5,0-0.8c0,0,0,0,0,0
		c0,0.2,0,0.5,0,0.7c0,0.4,0.2,0.6,0.7,0.7C120.4,6.4,120.6,6.4,120.7,6.4C120.7,6.4,120.7,6.4,120.7,6.4z"/>
	<path class="st0" d="M174.5,139c-0.2,0-0.4,0-0.6,0c-0.3,0-0.6,0.2-0.6,0.6c0,0.3,0,0.5,0,0.8c0,0,0,0,0,0c0-0.3,0-0.5,0-0.8
		c0-0.4-0.2-0.6-0.6-0.6c-0.2,0-0.4,0-0.6-0.1c0.2,0,0.4,0,0.6,0c0.4,0,0.6-0.3,0.6-0.6c0-0.3,0-0.5,0-0.8c0,0,0,0,0,0
		c0,0.2,0,0.5,0,0.7c0,0.4,0.2,0.6,0.7,0.7C174.2,139,174.4,139,174.5,139C174.6,139,174.5,139,174.5,139z"/>
	<path class="st0" d="M7.2,86.7c-0.2,0-0.4,0-0.6,0C6.2,86.8,6,87,6,87.3c0,0.3,0,0.5,0,0.8c0,0,0,0,0,0c0-0.3,0-0.5,0-0.8
		c0-0.4-0.2-0.6-0.6-0.6c-0.2,0-0.4,0-0.6-0.1c0.2,0,0.4,0,0.6,0c0.4,0,0.6-0.3,0.6-0.6c0-0.3,0-0.5,0-0.8c0,0,0,0,0,0
		c0,0.2,0,0.5,0,0.7c0,0.4,0.2,0.6,0.7,0.7C6.8,86.7,7,86.7,7.2,86.7C7.2,86.7,7.2,86.7,7.2,86.7z"/>
	<path class="st0" d="M185.9,73.9c-0.2,0-0.4,0-0.6,0c-0.3,0-0.6,0.2-0.6,0.6c0,0.3,0,0.5,0,0.8c0,0,0,0,0,0c0-0.3,0-0.5,0-0.8
		c0-0.4-0.2-0.6-0.6-0.6c-0.2,0-0.4,0-0.6-0.1c0.2,0,0.4,0,0.6,0c0.4,0,0.6-0.3,0.6-0.6c0-0.3,0-0.5,0-0.8c0,0,0,0,0,0
		c0,0.2,0,0.5,0,0.7c0,0.4,0.2,0.6,0.7,0.7C185.5,73.9,185.7,73.9,185.9,73.9C185.9,73.9,185.9,73.9,185.9,73.9z"/>
</g>
</svg>
