<?xml version="1.0" encoding="utf-8"?>
<!-- Generator: Adobe Illustrator 25.0.1, SVG Export Plug-In . SVG Version: 6.00 Build 0)  -->
<svg version="1.1" id="Capa_1" xmlns="http://www.w3.org/2000/svg" xmlns:xlink="http://www.w3.org/1999/xlink" x="0px" y="0px"
	 viewBox="0 0 128 230.6" style="enable-background:new 0 0 128 230.6;" xml:space="preserve">
<style type="text/css">
	.st0{fill:#247B34;}
	.st1{fill:#196E31;}
	.st2{fill:#B0AF1A;}
	.st3{fill:#888520;}
	.st4{fill:#68651F;}
</style>
<g>
	<path class="st0" d="M60.6,57.2l-7.2-8l-14.7-2.5L27.5,49l-4.9,5.3l-2.7,8.3L30,62.8l6.8-5.3c0,0,14.1-0.4,14.8-0.6
		c0.7-0.2,7.1,2.8,7.1,2.8l0.8,3.8L60.6,57.2z"/>
	<path class="st1" d="M57.1,56.6c0-0.1-7.1-8-7.1-8l-4.1-0.7l5.6,7.5l-15.2-0.6l-8.5,6.1l-7.8,1.8L30,62.8l6.8-5.3l14.8-0.6l4.9,1.8
		L57.1,56.6z"/>
	<polygon class="st1" points="20.4,61.1 30.1,52.3 34.2,50.7 39.7,51.2 34.4,51.7 30.7,53.7 22.4,62.1 19.9,62.7 	"/>
	<path class="st0" d="M97.6,50.2l-20.5,2l-9.6,4.9l-2.2-4.4L73.1,36c0,0,4.6-2.1,14.6-6.5c7.3,2.1,11.3,3.9,16.8,5.5
		c2.2,4.7,9.2,20.4,9.2,20.4L97.6,50.2z"/>
	<polygon class="st1" points="97.6,50.2 77.6,49.1 73.8,50.4 71.3,46.2 74.8,38.2 87.3,31.9 104.5,35 87.6,29.5 73.1,36 65.3,52.7 
		68,57.1 77.1,52.2 	"/>
	<polygon class="st1" points="97.4,44.3 90.1,39.6 77.2,42.1 69.1,49.6 70.4,51.2 78.1,44.5 89.7,41.2 	"/>
	<path class="st0" d="M65.3,52.7l5.9-17.5L64.9,8.7L51.2,0L41,13.8l-0.8,24.8c0,0,9.4,11.7,10,12.9c1.3,1,11.6,9.1,11.6,9.1
		L65.3,52.7z"/>
	<polygon class="st1" points="52.5,53.3 57.4,48.1 58.2,34.8 54.1,16.9 60.2,34.8 60.3,48 66.3,49.6 65.3,52.7 56.9,56.8 	"/>
	<polygon class="st2" points="9.1,97.6 0,150.7 13,194.4 32.6,209.8 73.2,221.6 81.8,230.6 86.8,228.4 87.5,221.6 112.2,203.4 
		128,165.8 127.2,113.6 120.3,94.2 99.9,76.4 80.6,64.1 72.2,60.7 66.7,52.1 59.8,50.9 55.2,60.3 43.9,64.2 18.7,83.6 	"/>
	
		<ellipse transform="matrix(0.9984 -5.652380e-02 5.652380e-02 0.9984 -7.8431 3.7632)" class="st3" cx="62.6" cy="140.5" rx="13" ry="17.6"/>
	<ellipse transform="matrix(0.9984 -5.652380e-02 5.652380e-02 0.9984 -7.8517 3.6625)" cx="60.8" cy="140.6" rx="11.2" ry="17.6"/>
	
		<ellipse transform="matrix(0.9984 -5.652380e-02 5.652380e-02 0.9984 -7.6885 5.9293)" class="st3" cx="101" cy="138.9" rx="13" ry="17.6"/>
	<ellipse transform="matrix(0.9984 -5.652380e-02 5.652380e-02 0.9984 -7.697 5.8286)" cx="99.2" cy="139" rx="11.2" ry="17.6"/>
	<polygon class="st3" points="55.2,60.3 37.3,78.4 28.5,94 21.1,137.2 23.6,178.8 34.1,200.7 73.2,221.6 32.6,209.8 13,194.4 
		0,150.7 9.1,97.6 18.7,83.6 43.9,64.2 	"/>
	<polygon class="st4" points="44.5,209 45.7,208 45.4,206.1 44.9,207.7 44.2,208.3 42.1,207.9 43.2,208.8 	"/>
	<polygon class="st4" points="47.7,208.2 47.7,207.5 46.9,206.9 47.3,207.7 47.3,208.1 46.5,208.7 47.2,208.6 	"/>
	<polygon class="st4" points="43.8,205 43.2,205.5 43.4,206.4 43.6,205.7 44,205.4 45,205.6 44.4,205.1 	"/>
	<polygon class="st4" points="41.6,206.9 41.5,206.2 40.6,205.9 41.1,206.5 41.2,206.9 40.6,207.7 41.2,207.4 	"/>
	<polygon class="st4" points="36.6,198.5 35,198.7 34.3,200.6 35.6,199.5 36.5,199.3 38.1,200.7 37.6,199.4 	"/>
	<polygon class="st4" points="33.5,197.6 33,198.2 33.4,199.1 33.5,198.2 33.7,197.9 34.7,197.8 34.1,197.5 	"/>
	<polygon class="st4" points="35.1,202.3 35.9,202.2 36.2,201.3 35.6,201.9 35.2,201.9 34.4,201.3 34.6,201.9 	"/>
	<polygon class="st4" points="38,201.8 37.7,202.5 38.3,203.3 38.2,202.5 38.3,202 39.2,201.7 38.6,201.6 	"/>
	<polygon class="st3" points="72.2,60.7 68.6,62.6 59.8,62.4 68.2,65 72.1,64.5 75.1,61.9 	"/>
	
		<ellipse transform="matrix(0.9998 -2.002200e-02 2.002200e-02 0.9998 -3.2417 2.2759)" class="st3" cx="112" cy="163" rx="7.1" ry="5.4"/>
	
		<ellipse transform="matrix(0.9998 -2.002200e-02 2.002200e-02 0.9998 -3.3127 1.1073)" class="st3" cx="53.6" cy="166" rx="7.1" ry="5.4"/>
	<polygon class="st4" points="48.7,66.3 50,67.2 49.7,69.2 49.1,67.6 48.4,67 46.3,67.4 47.4,66.5 	"/>
	<polygon class="st4" points="51.9,67 52,67.7 51.2,68.3 51.6,67.6 51.5,67.1 50.7,66.5 51.4,66.6 	"/>
	<polygon class="st4" points="48.1,70.2 47.5,69.8 47.6,68.8 47.9,69.6 48.3,69.9 49.3,69.7 48.7,70.1 	"/>
	<polygon class="st4" points="45.9,68.4 45.7,69.1 44.8,69.4 45.4,68.9 45.5,68.4 44.8,67.6 45.5,67.9 	"/>
	<polygon class="st4" points="41,76.8 39.4,76.7 38.6,74.8 39.9,75.9 40.8,76 42.4,74.6 42,76 	"/>
	<polygon class="st4" points="37.9,77.8 37.4,77.2 37.8,76.4 37.9,77.2 38.1,77.5 39.1,77.6 38.5,77.9 	"/>
	<polygon class="st4" points="39.5,73.1 40.2,73.2 40.6,74.1 39.9,73.5 39.5,73.5 38.8,74.2 39,73.5 	"/>
	<polygon class="st4" points="42.3,73.5 42,72.8 42.7,72.1 42.5,72.9 42.6,73.3 43.6,73.7 42.9,73.8 	"/>
	<polygon class="st4" points="96.6,79.4 97.4,78.7 97.1,77.5 96.8,78.5 96.4,78.9 95,78.8 95.8,79.3 	"/>
	<polygon class="st4" points="98.6,78.8 98.7,78.3 98.1,78 98.4,78.4 98.4,78.7 97.9,79.1 98.3,79 	"/>
	<polygon class="st4" points="96,76.8 95.7,77.2 95.8,77.8 95.9,77.3 96.1,77.1 96.8,77.1 96.4,76.9 	"/>
	<polygon class="st4" points="94.7,78.2 94.6,77.7 94,77.5 94.3,77.9 94.4,78.1 94.1,78.7 94.4,78.5 	"/>
	<polygon class="st4" points="91.1,72.9 90.1,73.1 89.7,74.4 90.5,73.6 91.1,73.5 92.2,74.3 91.8,73.5 	"/>
	<polygon class="st4" points="89.1,72.4 88.8,72.8 89.1,73.4 89.1,72.9 89.2,72.6 89.9,72.5 89.5,72.4 	"/>
	<polygon class="st4" points="90.3,75.4 90.8,75.3 91,74.7 90.6,75.1 90.3,75.2 89.8,74.8 90,75.2 	"/>
	<polygon class="st4" points="92.1,75 92,75.5 92.4,75.9 92.3,75.4 92.4,75.1 93,74.9 92.5,74.8 	"/>
</g>
</svg>
