<?xml version="1.0" encoding="utf-8"?>
<!-- Generator: Adobe Illustrator 25.0.1, SVG Export Plug-In . SVG Version: 6.00 Build 0)  -->
<svg version="1.1" id="Capa_1" xmlns="http://www.w3.org/2000/svg" xmlns:xlink="http://www.w3.org/1999/xlink" x="0px" y="0px"
	 viewBox="0 0 110.6 142" style="enable-background:new 0 0 110.6 142;" xml:space="preserve">
<style type="text/css">
	.st0{fill:#C2977A;}
	.st1{fill:#DFBCA4;}
	.st2{fill:#EF801D;}
	.st3{fill:#FFFFFF;}
	.st4{fill:#E4E4E4;}
	.st5{fill:#CBC6C2;}
	.st6{opacity:0.68;fill:#A7A5A6;}
	.st7{fill:#908B89;}
	.st8{fill:#2C1C11;}
</style>
<g>
	<polygon class="st0" points="11.2,136.9 66.7,142 68.4,131.7 108.7,121.5 108.7,51.7 100.1,8.8 71.1,0 22.1,9.8 1.1,44.6 2.9,69 
		0,72.6 2.2,93.3 8.8,98.7 	"/>
	<polygon class="st1" points="108.7,121.5 40.6,121.5 31.3,75.6 36.2,22 76.7,7.4 102.1,22 105.6,36 108.7,51.7 	"/>
	<path class="st2" d="M65.9,6.3"/>
	<polygon class="st3" points="9.3,106.9 29.5,121.5 108.7,121.5 108.7,108.2 33.9,108.7 8.8,98.7 	"/>
	<polygon class="st4" points="1.3,85.4 23.4,95.8 36,98.7 108.7,98.7 108.7,108.2 33.9,108.7 8.8,98.7 2.2,93.3 	"/>
	<polygon class="st3" points="1.3,85.4 0.8,80.2 33.7,87.4 108.7,87.4 108.7,98.7 36,98.7 23.4,95.8 	"/>
	<polygon class="st4" points="0.8,80.2 0,72.6 31.3,75.6 108.7,74.2 108.7,87.4 90.7,87.4 86.7,89.7 80.8,89.7 77.7,87.4 33.7,87.4 
			"/>
	<polygon class="st3" points="0,72.6 2.9,69 2.5,63.3 32.2,66.6 108.7,62.2 108.7,74.2 31.3,75.6 	"/>
	<path class="st4" d="M2.5,63.3L36.2,22L76.7,7.4c0,0,7.6-1.4,12.1-2c2.6,0.8,11.3,3.4,11.3,3.4l1.4,7.1L35.5,33.3l-26,30.8
		L2.5,63.3z"/>
	<polygon class="st3" points="9.5,64.1 21,65.4 32.6,62.2 47.6,41.6 103.8,27.2 101.5,15.9 35.5,33.3 	"/>
	<path class="st4" d="M23.6,47.4c1.3,2,9,14.8,9,14.8L44,65.9l-11.9,0.7L21,65.4l-4.8-9.2L23.6,47.4z"/>
	<polygon class="st4" points="32.6,62.2 47.6,41.6 103.8,27.2 106,38.5 53.2,51.3 40.6,64.8 	"/>
	<polygon class="st3" points="46.6,58.4 108.7,51.7 106,38.5 53.2,51.3 	"/>
	<polygon class="st4" points="46.6,58.4 40.6,64.8 44,65.9 108.7,62.2 108.7,51.7 	"/>
	<polygon class="st3" points="1.1,44.6 28.5,8.5 71.1,0 88.8,5.4 76.7,7.4 36.2,22 2.5,63.3 	"/>
	<polygon class="st4" points="28.5,8.5 22.1,9.8 1.1,44.6 	"/>
	<path class="st5" d="M9.9,115.7c0,0,11.8,0.1,11.6,0c-0.2-0.1-12.1-8.8-12.1-8.8L9.9,115.7z"/>
	<polygon class="st3" points="10.4,124.7 93.5,125.4 108.7,121.5 29.5,121.5 21.4,115.7 9.9,115.7 	"/>
	<polygon class="st5" points="10.8,130.3 68.4,131.7 93.5,125.4 10.4,124.7 	"/>
	<polygon class="st3" points="11.1,135 10.8,130.3 68.4,131.7 67.3,139 	"/>
	<polygon class="st5" points="11.2,136.9 66.7,142 67.3,139 11.1,135 	"/>
	<polygon class="st6" points="66.8,141.4 29.5,121.5 108.7,121.5 68.4,131.7 67.3,139 	"/>
	<polygon class="st5" points="2.7,65.3 16.2,63.7 45.9,60 42.4,57.8 43.4,53.8 42.2,54 40.8,58 42,59.4 15.8,62.2 15.4,47.1 
		33,16.2 76.8,6.3 100.1,8.8 93.1,6.7 71.1,0 22.1,9.8 1.1,44.6 	"/>
	<polygon class="st5" points="107.3,53.5 107.2,67.6 104.8,74.3 92.9,75.3 83.3,66.6 82.9,58.9 79,58.3 73.9,59.1 74.4,67.1 
		69.2,77.1 56.4,78 46.3,71.3 45.7,65.1 14,68.7 9.3,68.8 2.9,69 0,72.6 2.2,93.3 8.8,98.7 11.2,136.9 23.4,138 17.1,131.7 
		16.2,101.8 23.4,95.8 9.3,89.1 7.5,73.4 8.3,71.4 40.6,68.8 41.8,73.5 54.7,81.3 70.6,81.3 77.6,73.5 77.6,62.2 79.9,62.2 
		81.4,70.1 90.4,80 105.5,76.9 108.7,72.6 108.7,52.8 	"/>
	<polygon class="st7" points="9.3,106.9 29.5,121.5 108.7,121.5 108.7,120.5 29.5,120.5 	"/>
	<polygon class="st7" points="8.8,98.7 33.9,108.7 108.7,108.2 108.7,108.7 33.9,109.3 	"/>
	<polygon class="st7" points="1.3,85.4 22.6,96.3 35.9,99.4 108.7,99.2 108.7,98.7 36,98.7 23.4,95.8 	"/>
	<polygon class="st7" points="0.8,80.2 33.7,87.4 77.7,87.4 80.8,89.4 86.7,89.7 90.7,87.4 108.7,87.4 108.7,87.8 90.9,87.8 
		86.7,90.4 80.9,90.3 77.5,88 33.8,87.8 	"/>
	<polygon class="st7" points="0,72.6 30.1,75.6 108.7,74.2 108.7,74 30.1,75.5 	"/>
	<polygon class="st8" points="1.9,65.4 45.9,60 42.4,57.8 43.6,53.1 73.3,50.2 75.5,52.8 75.7,54.5 82.4,53.9 82.5,52.3 85.6,49.5 
		110.6,48.7 110.1,52.1 107.3,53.5 107.2,67.6 104.8,74.3 92.9,75.3 83.3,66.6 82.9,58.9 79,58.3 73.9,59.1 74.4,67 69.2,77.1 
		56.4,78 46.3,71.3 45.7,65.1 14,68.7 2.9,69 0.7,71.8 0.2,67.2 	"/>
	<polygon class="st3" points="49.6,57.3 50.6,69.6 57.7,73.5 66.6,73.2 70.6,68.4 70.6,55.5 	"/>
	<polygon class="st3" points="87,55.2 87.1,65.9 93.7,71.4 103,71.3 104.9,67 104.1,54 95.2,54.4 	"/>
	<polygon class="st7" points="74.2,64.2 83.2,63.7 83.2,63.3 74.2,64 	"/>
	<polygon class="st7" points="52.2,52.3 53.2,51.3 106,38.5 106,38.3 53.2,51.1 52.1,52.3 	"/>
	<polygon class="st7" points="9.9,115.7 21.4,115.7 21.7,115.8 9.9,115.8 	"/>
	<polygon class="st7" points="10.4,124.7 93.5,125.4 93.8,125.3 10.4,124.6 	"/>
	<polygon class="st7" points="10.8,130.3 68.4,131.7 68.4,132 	"/>
	<polygon class="st7" points="11.1,135 67.3,139 67.4,138.5 	"/>
	<polygon class="st7" points="33,61.6 47.6,41.6 103.8,27.2 103.9,27.7 47.8,42 33.3,61.6 	"/>
	<polygon class="st7" points="2.5,63.3 10.9,64.3 10.3,64.3 2.5,63.4 	"/>
	<polygon class="st7" points="9.5,64.1 35.5,33.3 101.5,15.9 101.4,15.2 35.4,32.9 9.3,64.1 	"/>
	<polygon class="st7" points="23.6,47.4 32.2,61.7 31.8,61.7 23.5,47.4 	"/>
	<polygon class="st7" points="16.2,56.1 19.8,63.2 20.1,63.1 16.3,56 	"/>
	<polygon class="st7" points="2.5,63.3 36.2,22 76.7,7.4 88.8,5.4 86.5,4.7 76.8,6.3 36,21.2 2.5,63.2 	"/>
	<path class="st7" d="M1.1,44.6L28.5,8.5c0,0-0.3,0,0.8-0.2C28.9,8.7,1.1,44.6,1.1,44.6z"/>
</g>
<polygon class="st5" points="73.8,50.8 75.2,50.8 76.8,52.8 76.8,53.5 81.4,53 81.4,52.3 84.3,49.6 85.1,49.9 82.5,52.3 82.4,53.9 
	75.7,54.5 75.5,52.8 "/>
<path class="st5" d="M76.7,85.3C77,87,77.5,88,77.5,88l3.5,2.3l5.8,0.1l4.1-2.6l-2-7.1l4,7.1l-4.7,4.8l-7.4,0.1L76.3,89L76.7,85.3z"
	/>
</svg>
