<?xml version="1.0" encoding="utf-8"?>
<!-- Generator: Adobe Illustrator 25.0.1, SVG Export Plug-In . SVG Version: 6.00 Build 0)  -->
<svg version="1.1" id="Capa_1" xmlns="http://www.w3.org/2000/svg" xmlns:xlink="http://www.w3.org/1999/xlink" x="0px" y="0px"
	 viewBox="0 0 483.28 418.86" style="enable-background:new 0 0 483.28 418.86;" xml:space="preserve">
<style type="text/css">
	.st0{fill:#C3987A;}
	.st1{fill:#E0BDA5;}
	.st2{fill:#8A6752;}
	.st3{fill:#F0811E;}
	.st4{fill:#B5C4E3;}
	.st5{fill:#8690A3;}
	.st6{fill:#2F0D1A;}
	.st7{fill:#49271A;}
	.st8{fill:#FEF9FC;}
	.st9{fill:#F0811F;}
	.st10{fill:#8798B6;}
	.st11{fill:#FFFCE8;}
	.st12{fill:#2E0F1B;}
</style>
<polygon class="st0" points="138.34,405.52 283.71,418.86 288.18,392.05 393.54,365.33 393.54,182.61 371.19,70.24 295.21,47.25 
	166.86,72.79 111.95,164.1 111.95,226.03 99.82,239.44 108.76,294.35 132.17,305.66 "/>
<polygon class="st1" points="393.54,365.33 215.39,365.33 191.13,245.19 203.9,104.82 309.89,66.51 376.3,104.82 385.4,141.51 
	393.54,182.61 "/>
<polygon class="st1" points="111.95,226.03 141.32,215.92 151.54,291.59 132.17,305.66 108.76,294.35 99.82,239.44 "/>
<polygon class="st2" points="284.24,417.27 186.34,365.33 393.54,365.33 288.18,392.05 "/>
<ellipse transform="matrix(0.9137 -0.4064 0.4064 0.9137 -80.2042 131.8076)" class="st3" cx="270.26" cy="254.76" rx="21.67" ry="16.49"/>
<ellipse transform="matrix(0.4643 -0.8857 0.8857 0.4643 -27.7166 463.6891)" class="st3" cx="369.44" cy="254.76" rx="16.49" ry="21.67"/>
<polygon class="st4" points="142.94,227.9 151.54,199.22 125.68,193.47 111.95,193.47 104.93,210.69 89.6,210.69 99.82,197.3 
	81.3,204.32 81.3,227.9 105.6,233.06 111.95,226.03 141.32,215.92 "/>
<polygon class="st5" points="314.57,291.65 311.45,299.1 300.76,307.79 296.19,314.9 282.92,315.72 294.3,310.66 292.32,306.21 
	296.59,304.31 305.17,299.1 "/>
<polygon class="st5" points="344.82,290.82 348.45,298.03 359.72,305.97 364.77,312.75 378.06,312.65 366.36,308.39 368.02,303.81 
	363.63,302.21 354.72,297.6 "/>
<path class="st4" d="M202.23,300.18l13.66,45.84l6.52,10.27l20.75,4.15l53.95,2.23l38.52-8.73l46.12,7.15l9.32-15.2l2.45-43.47
	l5.32,21.09l11.07-0.85l-6.81,8.94l-5.11,2.55l1.28,6.81h5.11l-0.85,10.64l-3.41-2.98l-2.98,8.94l7.24,3.41l-1.7,9.36l-5.53,8.09
	l-11.07-2.98l7.45-4.68l-8.88-3.18l-13.84,7.01l-12.45-3.41l7.3-1.7l-7.3-1.28l-28.22,5.53l-6.62,4.68l-12.45-4.26l12.45-3.83
	l-5.1-1.7l-15.08,1.7l-11,8.09h-7.07c0,0-2.49-5.53,0-5.11c2.49,0.43,7.07-3.41,7.07-3.41h-12.61l-6.91,8.51l-15.28-4.68l6.39-1.7
	l-0.43-3.41l-9.36,1.7l-11.92,4.26l-6.39,3.83l-12.34-5.96l8.94-2.98l-13.2-0.43l-8.94,4.26l-7.66-7.98l5.11-3.93l-4.68-8.94
	l-6.3-5.53v-8.09l3.32,5.11l6.81,0.43l-2.55-9.36l-7.58-5.96v-8.51l5.87,5.18v-6.89l-5.87-5.53v-6.23l3.75,3.68L202.23,300.18z"/>
<path class="st4" d="M391.67,173.21l8.46,4.17l4.26-4.29l-6.48-7.5l12.02,5.9v15.65l-5.96,6.33l2.13,8.3l-5.42,4.15
	c0,0-5.24,5.39-7.14,7.34c0-0.85,0-30.65,0-30.65L391.67,173.21z"/>
<polygon class="st6" points="111.95,164.1 203.9,104.82 278.51,90.51 313.88,89.78 376.3,104.82 385.18,140.37 439.3,125.25 
	477.26,63.14 392.21,51.48 305,17.11 258.43,15.93 164.29,39.84 125.68,68 69.44,110.34 12.21,133.11 11.89,142.22 48.1,177.38 
	111.95,193.47 "/>
<polygon class="st0" points="200.34,127.2 281.8,104.37 315.31,103.02 380.1,122 376.3,104.82 313.88,89.78 278.51,90.51 
	203.9,104.82 "/>
<polygon class="st0" points="295.91,210.16 288.99,219.38 276.01,222.38 269.06,219.72 276.43,225.36 294.9,224.54 301.17,213.86 
	303.41,197.07 297.73,194.97 "/>
<polygon class="st0" points="354.18,208.24 363.44,218.9 375.56,221.17 378.28,220.71 375.64,224.18 357.3,226.48 349.32,217.02 
	344.6,193.66 "/>
<polygon class="st3" points="314.22,186.27 311.07,290 349.19,289.43 332.25,189.55 "/>
<polygon class="st0" points="267.09,197.3 262.84,205.81 272.01,210.07 298.38,201.45 303.41,195.4 "/>
<path class="st7" d="M295.86,202.24c-0.04-0.64-0.16-1.21-0.29-1.78L277.36,205C279.38,216.16,296.98,214.37,295.86,202.24z"/>
<g>
	<g>
		<path class="st7" d="M272.11,201.4c0.57-0.28,1.15-0.54,1.73-0.79c-0.38,0.16-0.75,0.32-1.13,0.47c3.18-1.34,6.54-2.25,9.96-2.72
			c-0.42,0.06-0.83,0.11-1.25,0.17c3.6-0.48,7.26-0.48,10.86,0c-0.42-0.06-0.83-0.11-1.25-0.17c3.39,0.46,6.71,1.36,9.86,2.68
			c-0.38-0.16-0.75-0.32-1.13-0.47c0.42,0.18,0.84,0.36,1.26,0.56c0.54,0.34,1.12,0.53,1.75,0.56c0.63,0.14,1.25,0.11,1.88-0.08
			c0.61-0.15,1.15-0.43,1.6-0.84c0.51-0.33,0.92-0.77,1.21-1.32c0.58-1.09,0.87-2.42,0.47-3.63c-0.36-1.1-1.07-2.31-2.16-2.81
			c-2.41-1.12-4.9-2.09-7.48-2.76c-2.58-0.68-5.25-1.09-7.91-1.32c-2.28-0.2-4.58-0.21-6.87-0.02c-2.66,0.22-5.33,0.62-7.92,1.29
			c-2.85,0.73-5.61,1.81-8.26,3.08c-0.55,0.3-0.99,0.7-1.32,1.21c-0.42,0.45-0.7,0.99-0.84,1.6c-0.2,0.63-0.22,1.25-0.08,1.88
			c0.03,0.63,0.21,1.21,0.56,1.75c0.65,1.01,1.61,1.89,2.81,2.16c0.42,0.06,0.83,0.11,1.25,0.17
			C270.58,202.04,271.37,201.83,272.11,201.4L272.11,201.4z"/>
	</g>
</g>
<polygon class="st8" points="11.89,142.22 71.09,122.59 136.22,73.43 170.7,42.14 262.48,21.92 305,21.39 385.87,55.55 
	477.26,63.14 483.28,53.28 393.54,47.25 305,12.79 260.34,10.72 160.48,33.2 69.44,110.34 0,130.68 "/>
<path class="st6" d="M105.63,79.68c2.52-2.13,20.05-42.18,20.05-42.18l39.06-28.98L224.76,0l35.58,10.72L160.48,33.2L105.63,79.68z"
	/>
<polygon class="st0" points="377.47,194.93 381.72,203.44 372.55,207.7 346.18,199.08 341.16,193.03 "/>
<path class="st7" d="M348.7,199.87c0.04-0.64,0.16-1.21,0.29-1.78l18.21,4.54C365.18,213.8,347.58,212,348.7,199.87z"/>
<g>
	<g>
		<path class="st7" d="M377.21,190.9c-2.39-1.16-4.88-2.15-7.44-2.86c-2.58-0.72-5.23-1.15-7.89-1.43
			c-2.28-0.24-4.58-0.28-6.86-0.13c-2.66,0.18-5.34,0.56-7.93,1.18c-2.87,0.69-5.63,1.73-8.3,2.97c-0.55,0.3-0.99,0.7-1.32,1.21
			c-0.42,0.45-0.7,0.99-0.84,1.6c-0.2,0.63-0.22,1.25-0.08,1.88c0.03,0.63,0.21,1.21,0.56,1.75c0.65,1.01,1.61,1.89,2.81,2.16
			c0.42,0.06,0.83,0.11,1.25,0.17c0.85,0,1.64-0.22,2.38-0.64c0.42-0.19,0.83-0.38,1.26-0.56c-0.38,0.16-0.75,0.32-1.13,0.47
			c3.15-1.32,6.48-2.21,9.86-2.68c-0.42,0.06-0.83,0.11-1.25,0.17c3.6-0.48,7.26-0.48,10.86,0c-0.42-0.06-0.83-0.11-1.25-0.17
			c3.42,0.47,6.78,1.37,9.96,2.72c-0.38-0.16-0.75-0.32-1.13-0.47c0.58,0.25,1.16,0.51,1.73,0.79c0.54,0.34,1.12,0.53,1.75,0.56
			c0.63,0.14,1.25,0.11,1.88-0.08c0.61-0.15,1.15-0.43,1.6-0.84c0.51-0.33,0.92-0.77,1.21-1.32c0.58-1.09,0.87-2.42,0.47-3.63
			C379.01,192.6,378.3,191.43,377.21,190.9L377.21,190.9z"/>
	</g>
</g>
<path class="st3" d="M281.49,63.83"/>
<g>
	<path class="st9" d="M302.64,71.37"/>
	<path class="st9" d="M320.68,70.04c-0.01-0.04-0.03-0.08-0.04-0.11c-0.11-0.2-0.33-0.31-0.56-0.34c-0.87-0.1-1.65,0.55-2.45,0.77
		c-1.42,0.4-2.89,0.51-4.32,0.12c-0.3-0.08-0.65-0.1-0.92,0.06c-0.2,0.12-0.33,0.35-0.35,0.58c-0.05,0.88,1.09,0.9,1.6,1.29
		c1.49,1.15-0.48,3.38-1.46,4.1c-0.21,0.15-0.43,0.29-0.67,0.34c-0.64,0.14-1.01-0.37-1.04-0.95c-0.05-1.1,0.07-2.19,0.34-3.25
		c0.27-1.05,0.79-2.01,1.58-2.76c1.41-1.34,2.67-2.82,3.95-4.28c1.19-1.37,2.29-2.9,2.69-4.7c0.19-0.84,0.14-1.83-0.61-2.38
		c-0.96-0.69-1.86-0.07-2.65,0.54c-2.52,1.95-3.6,5.59-4.8,8.4c-0.57,1.32-1.19,2.62-2.47,3.38c-0.76,0.45-1.65,0.69-2.54,0.66
		c-0.91-0.03-1.81-0.44-2.73-0.29c-0.37,0.06-0.83,0.38-0.75,0.82c0.06,0.38,0.52,0.53,0.83,0.66c0.43,0.18,0.8,0.41,1.02,0.84
		c0.8,1.52-0.9,3.27-2.15,3.89c-0.19,0.09-0.4,0.18-0.6,0.13c-0.76-0.16-0.81-1.47-0.79-2.06c0.03-0.85,0.27-1.7,0.6-2.48
		c0.5-1.15,1.25-2.18,2.07-3.14c1.94-2.29,4.28-4.33,5.58-7.03c0.35-0.72,0.62-1.52,0.51-2.31c-0.15-1.1-1.13-1.91-2.24-1.55
		c-2.11,0.68-3.25,3.17-4.17,4.99c-0.82,1.62-1.38,3.33-2.04,5.02c-0.5,1.27-1.37,2.21-2.73,2.56c-0.68,0.18-1.51,0.2-2.11-0.23
		c-0.59-0.43-0.74-1.2-1.19-1.75c-0.33-0.41-0.84-0.67-1.36-0.72c-1.49-0.13-2.02,1.19-2.48,2.34c-0.93,2.34-2.6,4.35-4.51,5.96
		c-2.04,1.72-4.51,3.4-7.3,3.19c-0.75-0.06-1.52-0.26-2.12-0.72c-2.01-1.54-1.85-5.08-1.46-7.29c0.45-2.59,1.59-5.08,3.24-7.13
		c1.31-1.62,3.38-3.27,5.53-3.48c1.99-0.19,3.29,1.2,2.99,3.17c-0.17,1.09-0.73,1.97-1.36,2.83c-0.42,0.57-0.28,1.02,0.29,1.4
		c0.63,0.42,0.94-0.03,1.2-0.44c0.88-1.38,1.55-2.85,1.5-4.54c-0.06-2.26-1.52-4.05-3.86-4.16c-2.77-0.13-5.62,2.01-7.27,4.04
		c-2.02,2.47-3.32,5.78-3.85,8.91c-0.4,2.33-0.33,5.47,1.37,7.29c2.36,2.53,5.92,1.96,8.71,0.52c1.41-0.73,2.73-1.68,3.88-2.78
		c0.67-0.64,1.98-2.89,3-2.61c0.92,0.25,1.57,1.05,2.64,0.73c0.95-0.28,1.45-1.32,1.88-2.12c0.16-0.31,0.34-0.64,0.68-0.78
		c0.52-0.2,1.08-0.16,1.62-0.23c0.17-0.02,1.85-0.21,1.86-0.29c-0.15,1.07-0.39,2.14-0.4,3.23c-0.01,0.86,0.09,1.94,0.72,2.59
		c0.78,0.81,1.95,0.47,2.82-0.01c0.96-0.54,1.82-1.32,2.31-2.32c0.41-0.84,0.25-1.82,0.67-2.63c0.32-0.63,2.97-1.92,3.32-0.96
		c0.18,0.49-0.15,1.31-0.19,1.82c-0.07,1.02-0.04,2.49,0.64,3.32c0.58,0.71,1.62,0.72,2.41,0.38c2.02-0.87,2.81-3.2,4.17-4.75
		c0.54-0.61,1.16-1.16,1.87-1.55c0.71-0.39,1.63-0.52,2.24-1.07C320.63,70.58,320.75,70.29,320.68,70.04z M315.98,60.67
		c0.15-0.15,0.31-0.3,0.47-0.44c0.11-0.1,0.24-0.19,0.38-0.22c0.33-0.06,0.64,0.26,0.68,0.6c0.17,1.27-1.16,2.69-1.86,3.61
		c-0.84,1.1-1.82,2.09-2.87,3c0.38-0.33,0.4-1.1,0.54-1.55c0.21-0.68,0.48-1.35,0.76-1.99C314.57,62.59,315.16,61.53,315.98,60.67z
		 M306.27,61.59c0.32-0.42,0.78-1.07,1.34-0.73c0.54,0.33,0.21,1.01-0.02,1.52c-0.99,2.24-2.69,3.94-4.42,5.63
		C303.82,65.67,304.79,63.51,306.27,61.59z M294.35,73.46c-0.08,0.68-0.64,1.16-1.24,1.43c-0.8-0.09-0.95-0.62-0.91-1.2
		c0.04-0.59,0.01-1.39,0.89-1.28C293.62,72.47,294.45,72.65,294.35,73.46z"/>
</g>
<g>
	<g>
		<g>
			<g>
				<path class="st8" d="M300.42,40.48l-3.27-3.2l-4.41-0.77l-1.26,1.47l-1.99,4.39l0.91,1.99l3,0.06l1.01,0.57l1.41,2.82l0.36,0.01
					l-0.21-3.02l0.52,0.24l0.51,2.8l0.33,0.01l-0.33-2.83l0.66-0.08l0.17,2.92l0.29,0.01l-0.12-2.92l0.52,0.01l0.15,2.92l0.17,0
					l-0.09-2.92l0.31,0.01l0.39,2.93l0.22,0l-0.31-3.75l1.02-1.1L300.42,40.48z M295.72,43.51c-0.66,0.29-1.35,0.18-1.53-0.25
					c-0.18-0.42,0.21-1,0.87-1.28c0.66-0.29,1.35-0.18,1.53,0.25C296.78,42.65,296.39,43.22,295.72,43.51z M297.36,44.42l-0.07-1.64
					l1.15,1.32L297.36,44.42z M300,43.38c-0.26,0.38-0.96,0.36-1.55-0.05c-0.6-0.41-0.87-1.05-0.61-1.43
					c0.26-0.38,0.96-0.36,1.55,0.05C299.99,42.36,300.26,43,300,43.38z"/>
			</g>
		</g>
		<path class="st8" d="M301.46,40.57l4.81-3.21c0.33,0.29,0.9,0.4,1.49,0.25c0.83-0.21,1.38-0.86,1.23-1.45
			c-0.12-0.48-0.67-0.77-1.32-0.74c0-0.35-0.21-0.67-0.56-0.79c-0.44-0.15-0.92,0.08-1.08,0.52c-0.09,0.26-0.03,0.53,0.11,0.74
			l-5.16,3.15l0.49,0.48L301.46,40.57z"/>
		<path class="st8" d="M292.72,45.25l-1.03-0.02l-7.35,4.5c-0.21-0.19-0.47-0.35-0.77-0.46c-0.94-0.33-1.9-0.03-2.14,0.66
			c-0.24,0.69,0.32,1.52,1.26,1.85c0,0,0,0,0,0c-0.22,0.67-0.04,1.34,0.43,1.5c0.46,0.16,1.02-0.24,1.27-0.9l9.37-6.25l-0.2-0.41
			L292.72,45.25z"/>
		<path class="st8" d="M310.22,46.82c-0.34-0.65-1.33-0.8-2.21-0.34c-0.29,0.15-0.52,0.35-0.7,0.57l-6.53-2.77l-0.1,0.11l0.17,2.08
			l6.8,3.2c0.34,0.62,0.95,0.93,1.39,0.71c0.43-0.23,0.52-0.92,0.2-1.54c0,0,0,0,0,0C310.13,48.38,310.57,47.47,310.22,46.82z"/>
		<path class="st8" d="M284.39,35.97c0.11-0.23,0.13-0.51,0-0.75c-0.22-0.41-0.73-0.57-1.14-0.35c-0.33,0.17-0.48,0.52-0.43,0.87
			c-0.64,0.07-1.14,0.44-1.19,0.93c-0.06,0.6,0.58,1.16,1.43,1.25c0.6,0.06,1.15-0.14,1.44-0.47l5.22,2.46l0.64-1.4L284.39,35.97z"
			/>
	</g>
</g>
<polygon class="st0" points="139.41,259.28 127.8,243.36 113.9,240.73 108.46,253.4 117.32,248.95 125.82,253.82 131.47,262.26 
	122.57,270.97 130.41,272.45 128.38,278.57 138.97,277.54 "/>
<polygon class="st0" points="311.02,333.73 324.13,321.6 339.19,321.6 349.23,333.73 339.68,327.67 322.48,327.67 "/>
<path class="st10" d="M398.26,176.46l-2.81,6.47c0,0-0.18,22.03-0.18,25.17c0.83-0.7,4.97-4.02,4.97-4.02l3.41-1.83l0.32-8.78
	l2.13,8.3l-5.42,4.15l-7.14,7.34v-30.65l-1.86-9.4L398.26,176.46z"/>
<polygon class="st10" points="81.3,204.32 85.61,224.28 105.09,224.28 132.7,213.26 125.68,193.47 151.54,199.22 142.94,227.9 
	141.32,215.92 111.95,226.03 105.6,233.06 81.3,227.9 "/>
<polygon class="st11" points="322.91,302.48 324.57,309.7 329.39,309.7 331.21,301.08 "/>
<polygon class="st11" points="331.93,309.31 332.99,301.98 337.79,301.58 340.32,310.02 "/>
<g>
	<g>
		<path class="st7" d="M350.56,303.92c-2.44-1.34-5.05-2.43-7.72-3.23c-2.71-0.82-5.5-1.31-8.31-1.6c-2.53-0.26-5.09-0.28-7.63-0.07
			c-2.82,0.24-5.64,0.7-8.38,1.45c-3.04,0.84-6.02,2.04-8.8,3.53c-0.77,0.41-1.4,1.29-1.63,2.12c-0.23,0.85-0.13,1.98,0.36,2.73
			c0.49,0.76,1.21,1.42,2.12,1.63c0.95,0.22,1.86,0.11,2.73-0.36c1.02-0.55,2.07-1.05,3.13-1.5c-0.28,0.12-0.56,0.24-0.85,0.36
			c3.27-1.38,6.71-2.3,10.23-2.78c-0.31,0.04-0.63,0.08-0.94,0.13c3.6-0.48,7.26-0.49,10.87-0.01c-0.31-0.04-0.63-0.08-0.94-0.13
			c3.36,0.45,6.66,1.33,9.8,2.64c-0.28-0.12-0.56-0.24-0.85-0.36c1.1,0.47,2.19,0.99,3.24,1.57c0.82,0.45,1.82,0.61,2.73,0.36
			c0.82-0.23,1.71-0.86,2.12-1.63c0.43-0.82,0.65-1.82,0.36-2.73C351.9,305.18,351.37,304.37,350.56,303.92L350.56,303.92z"/>
	</g>
</g>
<polygon class="st2" points="151.54,291.59 144.23,315.72 151.27,393.72 170.38,408.46 138.34,405.52 132.17,305.66 "/>
<polygon class="st2" points="111.95,175.98 204.11,111.49 258.43,94.36 203.9,104.82 111.95,164.1 "/>
<g>
	<path class="st12" d="M204.11,306.68l-1.98-6.92c-0.61-2.32-1.11-4.66-1.67-7c-1.08-4.67-2.21-9.33-3.26-14.01l-3.15-14.04
		l-3.08-14.06l0.05,0.18c-2.87-7.55-5.77-15.08-8.59-22.64c-2.83-7.56-5.69-15.11-8.46-22.69c-2.8-7.57-5.6-15.14-8.34-22.74
		c-2.77-7.58-5.49-15.18-8.19-22.79l-0.05-0.13l-0.01-0.12c-1.04-10.65-2.06-21.3-3.03-31.96c-0.95-10.66-1.96-21.31-2.82-31.98
		c1.43,10.61,2.71,21.23,4.05,31.85c1.33,10.62,2.6,21.24,3.85,31.87l-0.06-0.25c2.92,7.53,5.83,15.06,8.69,22.61
		c2.89,7.54,5.72,15.1,8.55,22.66c2.85,7.55,5.63,15.13,8.42,22.71c2.81,7.57,5.53,15.17,8.3,22.75l0.04,0.1l0.02,0.08l2.7,14.12
		l2.62,14.14c0.88,4.71,1.67,9.45,2.52,14.17c0.43,2.36,0.8,4.73,1.27,7.08L204.11,306.68z"/>
</g>
</svg>
