<?xml version="1.0" encoding="utf-8"?>
<!-- Generator: Adobe Illustrator 25.0.1, SVG Export Plug-In . SVG Version: 6.00 Build 0)  -->
<svg version="1.1" id="Capa_2_1_" xmlns="http://www.w3.org/2000/svg" xmlns:xlink="http://www.w3.org/1999/xlink" x="0px" y="0px"
	 viewBox="0 0 483.04 419.29" style="enable-background:new 0 0 483.04 419.29;" xml:space="preserve">
<style type="text/css">
	.st0{fill:#C3987A;}
	.st1{fill:#E0BDA5;}
	.st2{fill:#8A6752;}
	.st3{fill:#F0811E;}
	.st4{fill:#B5C4E3;}
	.st5{fill:#8690A3;}
	.st6{fill:#2F0D1A;}
	.st7{fill:#49271A;}
	.st8{fill:#FEF9FC;}
	.st9{fill:#F0811F;}
	.st10{fill:#8798B6;}
	.st11{fill:#2E0F1B;}
	.st12{fill:#FFFCE8;}
</style>
<g>
	<polygon class="st0" points="138.34,405.52 283.71,418.86 288.18,392.04 393.53,365.33 393.53,182.61 371.19,70.23 295.2,47.25 
		166.86,72.79 111.95,164.1 111.95,226.03 99.82,239.44 108.76,294.35 132.17,305.65 	"/>
	<polygon class="st1" points="393.53,365.33 215.39,365.33 191.12,245.19 203.89,104.82 309.89,66.51 376.29,104.82 385.39,141.51 
		393.53,182.61 	"/>
	<polygon class="st1" points="111.95,226.03 141.32,215.92 151.54,291.58 132.17,305.65 108.76,294.35 99.82,239.44 	"/>
	<polygon class="st2" points="284.24,417.26 186.34,365.33 393.53,365.33 288.18,392.04 	"/>
	
		<ellipse transform="matrix(0.9137 -0.4064 0.4064 0.9137 -80.2004 131.8162)" class="st3" cx="270.26" cy="254.74" rx="21.67" ry="16.49"/>
	
		<ellipse transform="matrix(0.4643 -0.8857 0.8857 0.4643 -27.7126 463.6903)" class="st3" cx="369.45" cy="254.75" rx="16.49" ry="21.67"/>
	<polygon class="st4" points="142.94,227.9 151.54,199.21 125.68,193.47 111.95,193.47 104.93,210.68 89.6,210.68 99.82,197.3 
		81.3,204.32 81.3,227.9 105.59,233.05 111.95,226.03 141.32,215.92 	"/>
	<polygon class="st5" points="317.09,290.6 310.66,295.48 297.05,297.64 289.53,301.51 277.64,295.57 290.02,296.89 290.54,292.04 
		295.19,292.54 305.22,292.33 	"/>
	<polygon class="st5" points="341.75,290.43 348.11,295.39 361.69,297.72 369.17,301.68 381.13,295.88 368.73,297.05 368.27,292.2 
		363.62,292.64 353.59,292.3 	"/>
	<path class="st4" d="M202.23,300.17l13.66,45.84l6.52,10.27l20.75,4.15l53.95,2.23l38.52-8.73l46.12,7.15l9.32-15.2l2.45-43.47
		l5.32,21.09l11.07-0.85l-6.81,8.94l-5.11,2.55l1.28,6.81h5.11l-0.85,10.64l-3.41-2.98l-2.98,8.94l7.24,3.41l-1.7,9.36l-5.53,8.09
		l-11.07-2.98l7.45-4.68l-8.88-3.18l-13.84,7.01l-12.45-3.41l7.3-1.7l-7.3-1.28l-28.22,5.53l-6.62,4.68l-12.45-4.26l12.45-3.83
		l-5.1-1.7l-15.08,1.7l-11,8.09h-7.07c0,0-2.49-5.53,0-5.11c2.49,0.43,7.07-3.41,7.07-3.41h-12.61l-6.91,8.51l-15.28-4.68l6.39-1.7
		l-0.43-3.41l-9.36,1.7l-11.92,4.26l-6.39,3.83l-12.34-5.96l8.94-2.98l-13.2-0.43l-8.94,4.26l-7.66-7.98l5.11-3.94l-4.68-8.94
		l-6.3-5.53v-8.09l3.32,5.11l6.81,0.43l-2.55-9.36l-7.58-5.96v-8.51l5.88,5.18v-6.89l-5.88-5.53v-6.23l3.75,3.68L202.23,300.17z"/>
	<path class="st4" d="M391.67,173.21l8.46,4.17l4.26-4.29l-6.48-7.5l12.02,5.9v15.65l-5.96,6.33l2.13,8.3l-5.42,4.15
		c0,0-5.24,5.39-7.14,7.34c0-0.85,0-30.65,0-30.65L391.67,173.21z"/>
	<polygon class="st6" points="111.95,164.1 203.89,104.82 278.51,90.51 313.88,89.78 376.29,104.82 385.18,140.36 439.29,125.25 
		477.26,63.14 390.32,50.45 303.17,15.5 260.34,16.68 162.61,37.34 125.68,70.09 71.06,113.57 11.88,142.22 48.1,177.38 
		111.95,193.47 	"/>
	<polygon class="st0" points="200.34,127.19 281.8,104.37 315.31,103.01 380.1,122 376.29,104.82 313.88,89.78 278.51,90.51 
		203.89,104.82 	"/>
	<polygon class="st3" points="314.22,186.26 311.06,290 349.18,289.43 332.24,189.55 	"/>
	<polygon class="st0" points="290.98,186.26 267.09,197.3 262.83,205.81 272,210.07 296.89,201.93 295.91,210.16 288.99,219.38 
		276.01,222.38 269.06,219.72 276.43,225.36 294.9,224.54 301.16,213.86 302.69,193.66 300.24,183.22 	"/>
	<path class="st7" d="M295.86,202.24c-0.04-0.64-0.16-1.21-0.29-1.78L277.36,205C279.38,216.16,296.98,214.37,295.86,202.24z"/>
	<g>
		<g>
			<path class="st7" d="M272.83,200.93c0.54-0.83,1.12-1.64,1.72-2.42c-0.25,0.32-0.49,0.64-0.74,0.95c2.05-2.65,4.45-5.03,7.1-7.08
				c-0.32,0.25-0.64,0.49-0.95,0.74c2.76-2.13,5.79-3.89,9-5.25c-0.38,0.16-0.75,0.32-1.13,0.47c3.15-1.32,6.46-2.25,9.85-2.71
				c-0.42,0.06-0.83,0.11-1.25,0.17c0.35-0.05,0.7-0.09,1.05-0.13c0.65,0.02,1.25-0.11,1.81-0.41c0.58-0.19,1.09-0.51,1.52-0.97
				c0.46-0.43,0.78-0.93,0.97-1.52c0.29-0.56,0.43-1.17,0.41-1.81c-0.05-1.22-0.45-2.48-1.38-3.33c-0.32-0.25-0.64-0.49-0.95-0.74
				c-0.73-0.43-1.53-0.64-2.38-0.64c-2.68,0.29-5.33,0.74-7.91,1.49c-2.53,0.74-5,1.74-7.37,2.9c-2.07,1.01-4.05,2.19-5.91,3.54
				c-2.15,1.55-4.21,3.23-6.08,5.13c-2.06,2.09-3.9,4.42-5.51,6.87c-0.34,0.54-0.53,1.12-0.56,1.75c-0.14,0.63-0.11,1.25,0.08,1.88
				c0.15,0.61,0.43,1.15,0.84,1.6c0.33,0.51,0.77,0.92,1.32,1.21c1.09,0.58,2.42,0.87,3.63,0.47c0.38-0.16,0.75-0.32,1.13-0.47
				C271.85,202.2,272.41,201.64,272.83,200.93L272.83,200.93z"/>
		</g>
	</g>
	<polygon class="st8" points="11.88,142.22 71.08,122.59 136.21,73.43 170.69,42.14 262.47,21.92 304.99,21.39 385.87,55.55 
		477.26,63.14 483.28,53.28 393.53,47.25 304.99,12.79 260.34,10.72 160.48,33.2 69.44,110.33 0,130.68 	"/>
	<path class="st6" d="M105.63,79.67c2.52-2.13,20.05-42.18,20.05-42.18l39.06-28.98L224.76,0l35.58,10.72L160.48,33.2L105.63,79.67z
		"/>
	<polygon class="st0" points="363.44,218.9 354.18,208.24 348.7,199.9 372.55,207.7 381.72,203.44 377.46,194.93 360.53,183.22 
		344.4,179.97 341.15,193.03 345.53,198.3 349.32,217.02 357.3,226.48 375.64,224.18 378.28,220.71 375.55,221.17 	"/>
	<path class="st7" d="M348.7,199.87c0.04-0.64,0.16-1.21,0.29-1.78l18.21,4.54C365.18,213.79,347.57,212,348.7,199.87z"/>
	<g>
		<g>
			<path class="st7" d="M379.9,192.62c-1.46-2.21-3.12-4.32-4.95-6.24c-1.84-1.93-3.88-3.63-6.02-5.22
				c-1.82-1.36-3.76-2.56-5.79-3.6c-2.37-1.21-4.85-2.24-7.39-3.03c-2.84-0.88-5.76-1.4-8.72-1.7c-0.65-0.02-1.25,0.11-1.81,0.41
				c-0.58,0.19-1.09,0.51-1.52,0.97c-0.46,0.43-0.78,0.93-0.97,1.52c-0.29,0.56-0.43,1.17-0.41,1.81c0.05,1.22,0.45,2.48,1.38,3.33
				c0.32,0.25,0.64,0.49,0.95,0.74c0.73,0.43,1.53,0.64,2.38,0.64c0.38,0.04,0.76,0.08,1.15,0.13c-0.42-0.06-0.83-0.11-1.25-0.17
				c3.43,0.46,6.78,1.39,9.97,2.74c-0.38-0.16-0.75-0.32-1.13-0.47c3.19,1.35,6.19,3.11,8.94,5.22c-0.32-0.25-0.64-0.49-0.95-0.74
				c2.66,2.06,5.06,4.44,7.12,7.1c-0.25-0.32-0.49-0.64-0.74-0.95c0.57,0.74,1.11,1.49,1.62,2.27c0.68,1.02,1.61,1.83,2.81,2.16
				c0.63,0.2,1.25,0.22,1.88,0.08c0.63-0.03,1.21-0.21,1.75-0.56c1.01-0.65,1.89-1.61,2.16-2.81
				C380.65,195.05,380.6,193.68,379.9,192.62L379.9,192.62z"/>
		</g>
	</g>
	<path class="st3" d="M281.49,63.83"/>
	<g>
		<path class="st9" d="M302.63,71.37"/>
		<path class="st9" d="M320.68,70.03c-0.01-0.04-0.03-0.08-0.04-0.11c-0.11-0.2-0.33-0.31-0.56-0.34c-0.87-0.1-1.65,0.55-2.45,0.77
			c-1.42,0.4-2.89,0.51-4.32,0.12c-0.3-0.08-0.65-0.1-0.92,0.06c-0.2,0.12-0.33,0.35-0.35,0.58c-0.05,0.88,1.09,0.9,1.6,1.29
			c1.49,1.15-0.48,3.38-1.46,4.1c-0.21,0.15-0.43,0.29-0.67,0.34c-0.64,0.14-1.01-0.37-1.04-0.95c-0.05-1.1,0.07-2.19,0.34-3.25
			c0.27-1.05,0.79-2.01,1.58-2.76c1.41-1.34,2.67-2.82,3.95-4.28c1.19-1.37,2.29-2.9,2.69-4.7c0.19-0.84,0.14-1.83-0.61-2.38
			c-0.96-0.69-1.86-0.07-2.65,0.54c-2.52,1.95-3.6,5.59-4.8,8.4c-0.57,1.32-1.19,2.62-2.47,3.38c-0.76,0.45-1.65,0.69-2.54,0.66
			c-0.91-0.03-1.81-0.44-2.73-0.29c-0.37,0.06-0.83,0.38-0.75,0.82c0.06,0.38,0.52,0.53,0.83,0.66c0.43,0.18,0.8,0.41,1.02,0.84
			c0.8,1.52-0.9,3.27-2.15,3.89c-0.19,0.09-0.4,0.18-0.6,0.13c-0.76-0.16-0.81-1.47-0.79-2.06c0.03-0.85,0.27-1.7,0.6-2.48
			c0.5-1.15,1.25-2.18,2.07-3.14c1.94-2.29,4.28-4.33,5.58-7.03c0.35-0.72,0.62-1.52,0.51-2.31c-0.15-1.1-1.13-1.91-2.24-1.55
			c-2.11,0.68-3.25,3.17-4.17,4.99c-0.82,1.62-1.38,3.33-2.04,5.02c-0.5,1.27-1.37,2.21-2.73,2.56c-0.68,0.18-1.51,0.2-2.11-0.23
			c-0.59-0.43-0.74-1.2-1.19-1.75c-0.33-0.41-0.84-0.67-1.36-0.72c-1.49-0.13-2.02,1.19-2.48,2.34c-0.93,2.34-2.6,4.35-4.51,5.96
			c-2.04,1.72-4.51,3.4-7.3,3.19c-0.75-0.06-1.52-0.26-2.12-0.72c-2.01-1.54-1.85-5.08-1.46-7.29c0.45-2.59,1.59-5.08,3.24-7.13
			c1.31-1.62,3.38-3.27,5.53-3.48c1.99-0.19,3.29,1.2,2.99,3.17c-0.17,1.09-0.73,1.97-1.36,2.83c-0.42,0.57-0.28,1.02,0.29,1.4
			c0.63,0.42,0.94-0.03,1.2-0.44c0.88-1.38,1.55-2.85,1.5-4.54c-0.06-2.26-1.52-4.05-3.86-4.16c-2.77-0.13-5.62,2.01-7.27,4.04
			c-2.02,2.47-3.32,5.78-3.85,8.91c-0.4,2.33-0.33,5.47,1.37,7.29c2.36,2.53,5.92,1.96,8.71,0.52c1.41-0.73,2.73-1.68,3.88-2.78
			c0.67-0.64,1.98-2.89,3-2.61c0.92,0.25,1.57,1.05,2.64,0.73c0.95-0.28,1.45-1.32,1.88-2.12c0.16-0.31,0.34-0.64,0.68-0.78
			c0.52-0.2,1.08-0.16,1.62-0.23c0.17-0.02,1.85-0.21,1.86-0.29c-0.15,1.07-0.39,2.14-0.4,3.23c-0.01,0.86,0.09,1.94,0.72,2.59
			c0.78,0.81,1.95,0.47,2.82-0.01c0.96-0.54,1.82-1.32,2.31-2.32c0.41-0.84,0.25-1.82,0.67-2.63c0.32-0.63,2.97-1.92,3.32-0.96
			c0.18,0.49-0.15,1.31-0.19,1.82c-0.07,1.02-0.04,2.49,0.64,3.32c0.58,0.71,1.62,0.72,2.41,0.38c2.02-0.87,2.81-3.2,4.17-4.75
			c0.54-0.61,1.16-1.16,1.87-1.55c0.71-0.39,1.63-0.52,2.24-1.07C320.63,70.58,320.75,70.29,320.68,70.03z M315.98,60.67
			c0.15-0.15,0.31-0.3,0.47-0.44c0.11-0.1,0.24-0.19,0.38-0.22c0.33-0.06,0.64,0.26,0.68,0.6c0.17,1.27-1.16,2.69-1.86,3.61
			c-0.84,1.1-1.82,2.09-2.87,3c0.38-0.33,0.4-1.1,0.54-1.55c0.21-0.68,0.48-1.35,0.76-1.99C314.57,62.59,315.15,61.52,315.98,60.67z
			 M306.27,61.59c0.32-0.42,0.78-1.07,1.34-0.73c0.54,0.33,0.21,1.01-0.02,1.52c-0.99,2.24-2.69,3.94-4.42,5.63
			C303.82,65.67,304.79,63.5,306.27,61.59z M294.35,73.46c-0.08,0.68-0.64,1.16-1.24,1.43c-0.8-0.09-0.95-0.62-0.91-1.2
			c0.04-0.59,0.01-1.39,0.89-1.28C293.61,72.47,294.45,72.65,294.35,73.46z"/>
	</g>
	<g>
		<g>
			<g>
				<g>
					<path class="st8" d="M300.41,40.47l-3.27-3.2l-4.41-0.77l-1.26,1.47l-1.99,4.39l0.91,1.99l3,0.06l1.01,0.57l1.41,2.82
						l0.36,0.01l-0.21-3.02l0.52,0.24l0.51,2.8l0.33,0.01l-0.33-2.83l0.66-0.08l0.17,2.92l0.29,0.01l-0.12-2.92l0.52,0.01l0.15,2.92
						h0.17l-0.09-2.92l0.31,0.01l0.39,2.93h0.22l-0.31-3.75l1.02-1.1L300.41,40.47z M295.72,43.5c-0.66,0.29-1.35,0.18-1.53-0.25
						c-0.18-0.42,0.21-1,0.87-1.28c0.66-0.29,1.35-0.18,1.53,0.25C296.78,42.64,296.39,43.22,295.72,43.5z M297.36,44.42l-0.07-1.64
						l1.15,1.32L297.36,44.42z M300,43.37c-0.26,0.38-0.96,0.36-1.55-0.05c-0.6-0.41-0.87-1.05-0.61-1.43s0.96-0.36,1.55,0.05
						C299.99,42.35,300.26,42.99,300,43.37z"/>
				</g>
			</g>
			<path class="st8" d="M301.45,40.57l4.81-3.21c0.33,0.29,0.9,0.4,1.49,0.25c0.83-0.21,1.38-0.86,1.23-1.45
				c-0.12-0.48-0.67-0.77-1.32-0.74c0-0.35-0.21-0.67-0.56-0.79c-0.44-0.15-0.92,0.08-1.08,0.52c-0.09,0.26-0.03,0.53,0.11,0.74
				l-5.16,3.15l0.49,0.48L301.45,40.57z"/>
			<path class="st8" d="M292.72,45.25l-1.03-0.02l-7.35,4.5c-0.21-0.19-0.47-0.35-0.77-0.46c-0.94-0.33-1.9-0.03-2.14,0.66
				s0.32,1.52,1.26,1.85l0,0c-0.22,0.67-0.04,1.34,0.43,1.5c0.46,0.16,1.02-0.24,1.27-0.9l9.37-6.25l-0.2-0.41L292.72,45.25z"/>
			<path class="st8" d="M310.22,46.82c-0.34-0.65-1.33-0.8-2.21-0.34c-0.29,0.15-0.52,0.35-0.7,0.57l-6.53-2.77l-0.1,0.11l0.17,2.08
				l6.8,3.2c0.34,0.62,0.95,0.93,1.39,0.71c0.43-0.23,0.52-0.92,0.2-1.54l0,0C310.13,48.37,310.56,47.47,310.22,46.82z"/>
			<path class="st8" d="M284.39,35.97c0.11-0.23,0.13-0.51,0-0.75c-0.22-0.41-0.73-0.57-1.14-0.35c-0.33,0.17-0.48,0.52-0.43,0.87
				c-0.64,0.07-1.14,0.44-1.19,0.93c-0.06,0.6,0.58,1.16,1.43,1.25c0.6,0.06,1.15-0.14,1.44-0.47l5.22,2.46l0.64-1.4L284.39,35.97z"
				/>
		</g>
	</g>
	<polygon class="st0" points="139.4,259.27 127.8,243.36 113.89,240.72 108.45,253.4 117.32,248.94 125.82,253.82 131.47,262.26 
		122.56,270.96 130.4,272.45 128.38,278.57 138.97,277.54 	"/>
	<polygon class="st0" points="311.02,333.73 324.13,321.6 339.19,321.6 349.23,333.73 339.67,327.66 322.48,327.66 	"/>
	<path class="st10" d="M398.26,176.46l-2.81,6.47c0,0-0.18,22.03-0.18,25.17c0.83-0.7,4.97-4.02,4.97-4.02l3.41-1.83l0.32-8.78
		l2.13,8.3l-5.42,4.15l-7.14,7.34v-30.65l-1.86-9.4L398.26,176.46z"/>
	<polygon class="st10" points="81.3,204.32 85.61,224.27 105.08,224.27 132.7,213.26 125.68,193.47 151.54,199.21 142.94,227.9 
		141.32,215.92 111.95,226.03 105.59,233.05 81.3,227.9 	"/>
	<polygon class="st2" points="151.54,291.58 144.23,315.72 151.27,393.71 170.37,408.46 138.34,405.52 132.17,305.65 	"/>
	<polygon class="st2" points="111.95,175.98 204.11,111.49 258.42,94.36 203.89,104.82 111.95,164.1 	"/>
	<g>
		<path class="st11" d="M204.11,306.68l-1.98-6.92c-0.61-2.32-1.11-4.66-1.67-7c-1.08-4.67-2.21-9.33-3.26-14.01l-3.15-14.04
			l-3.08-14.06l0.05,0.18c-2.87-7.55-5.77-15.08-8.59-22.64c-2.83-7.56-5.69-15.11-8.46-22.69c-2.8-7.57-5.6-15.14-8.34-22.74
			c-2.77-7.58-5.49-15.19-8.19-22.79l-0.05-0.13l-0.01-0.12c-1.04-10.65-2.06-21.3-3.03-31.96c-0.95-10.66-1.96-21.31-2.82-31.98
			c1.43,10.61,2.71,21.23,4.05,31.85c1.33,10.62,2.6,21.24,3.85,31.87l-0.06-0.25c2.92,7.53,5.83,15.06,8.69,22.61
			c2.89,7.54,5.72,15.1,8.55,22.66c2.85,7.55,5.63,15.13,8.42,22.71c2.81,7.57,5.53,15.17,8.3,22.75l0.04,0.1l0.02,0.08l2.7,14.12
			l2.62,14.14c0.88,4.71,1.67,9.45,2.52,14.17c0.43,2.36,0.8,4.73,1.27,7.08L204.11,306.68z"/>
	</g>
	<path class="st7" d="M330.12,316.31c11.78,0,21.32-8.52,21.32-19.03H308.8C308.8,307.79,318.35,316.31,330.12,316.31z"/>
	<polygon class="st12" points="323.74,297.27 325.4,304.48 330.22,304.48 332.04,295.86 	"/>
	<polygon class="st12" points="332.76,303.93 333.82,296.6 338.62,296.2 341.15,304.64 	"/>
</g>
</svg>
