<?xml version="1.0" encoding="utf-8"?>
<!-- Generator: Adobe Illustrator 25.0.1, SVG Export Plug-In . SVG Version: 6.00 Build 0)  -->
<svg version="1.1" id="Capa_2" xmlns="http://www.w3.org/2000/svg" xmlns:xlink="http://www.w3.org/1999/xlink" x="0px" y="0px"
	 viewBox="0 0 81.72 89.5" style="enable-background:new 0 0 81.72 89.5;" xml:space="preserve">
<style type="text/css">
	.st0{opacity:0.13;fill:#010202;enable-background:new    ;}
	.st1{fill:#2B2B25;}
	.st2{fill:#2C1C11;}
	.st3{fill:#E0B608;}
	.st4{fill:#BA980A;}
	.st5{fill:#05A098;}
	.st6{fill:#841C1A;}
	.st7{fill:#A8AE61;}
	.st8{fill:#696969;}
	.st9{fill:#573C35;}
	.st10{fill:#352E29;}
	.st11{fill:#817837;}
	.st12{fill:#242518;}
	.st13{fill:#FFFFFF;}
	.st14{fill:#7B633B;}
	.st15{fill:#FDE4D9;}
	.st16{fill:#6A1414;}
	.st17{fill:#5E130F;}
	.st18{fill:#FFD402;}
	.st19{fill:#FCE1DC;}
	.st20{fill:#51231A;}
	.st21{fill:#272455;}
	.st22{fill:#C2C1C1;}
	.st23{fill:#563618;}
	.st24{fill:#F2C8B0;}
	.st25{fill:#C69181;}
	.st26{fill:#F49619;}
	.st27{fill:#49271A;}
	.st28{fill:#1C1C3A;}
	.st29{fill:#3A372B;}
	.st30{opacity:0.57;fill:#BCE1E9;enable-background:new    ;}
	.st31{opacity:0.88;fill:#BCE1E9;enable-background:new    ;}
	.st32{fill:#671412;}
	.st33{fill:#734428;}
	.st34{fill:#909091;}
	.st35{fill:#35130F;}
</style>
<g id="Capa_1_1_">
	<ellipse class="st0" cx="37.14" cy="86.53" rx="24.9" ry="1.68"/>
	<polyline class="st1" points="32.94,9.37 33.21,11.25 32.97,12 31.23,8.79 	"/>
	<polyline class="st1" points="39,34.67 39.34,35.76 39.28,36.22 37.93,34.5 	"/>
	<g>
		<polygon class="st2" points="51.26,75.37 29.63,75.82 29.63,60.53 56.28,60.2 		"/>
		<polygon class="st2" points="56.62,68.03 46.69,68.38 48.95,83.06 51.32,83.57 54.38,76.75 		"/>
		<polygon class="st2" points="39.45,72.03 28.97,72.49 32.41,78.84 35.33,84.3 36.99,83.17 		"/>
		<polygon class="st1" points="16.79,37.95 5.82,29.71 5.84,28.66 18.68,36.3 		"/>
		<polygon class="st1" points="5.82,29.71 1.29,30.68 0.45,29.95 5.84,28.66 		"/>
		<polygon class="st1" points="18.65,40.4 8.83,38.4 8.52,37.7 19.38,38.71 		"/>
		<polygon class="st1" points="8.83,38.4 6.16,40.45 5.37,40.23 8.52,37.7 		"/>
		<polyline class="st1" points="6.44,40.11 7.07,41.05 7.14,41.52 5.37,40.23 		"/>
		<polygon class="st1" points="15.18,39.64 6.29,35.03 6.17,34.27 16.34,38.22 		"/>
		<polygon class="st1" points="6.29,35.03 3.15,36.27 2.45,35.85 6.17,34.27 		"/>
		<polygon class="st1" points="15.25,38.35 6.96,32.73 6.93,31.97 16.57,37.08 		"/>
		<polygon class="st1" points="6.96,32.73 3.7,33.61 3.05,33.1 6.93,31.97 		"/>
		<polyline class="st1" points="4.09,33.4 4.31,34.51 4.19,34.97 3.05,33.1 		"/>
		<polygon class="st1" points="10.55,28.08 7.04,27.57 6.63,26.82 10.84,27.33 		"/>
		<polyline class="st1" points="7.51,27.53 7.26,28.7 6.95,29.09 6.63,26.82 		"/>
		<polygon class="st1" points="16.22,36.94 10.55,28.08 10.84,27.33 18.03,36.26 		"/>
		<g>
			<polygon class="st3" points="18.18,36.08 17.38,36.17 17.74,33.36 18.05,33.33 			"/>
			<polygon class="st3" points="18.09,33.72 16.94,33.48 17.03,33.32 18.05,33.33 			"/>
			<polygon class="st3" points="17.11,33.51 16.24,33.92 15.98,33.26 17.1,33.33 			"/>
			<polygon class="st3" points="15.67,33.71 15.6,33.77 15.62,33.56 15.98,33.25 16.12,33.49 15.68,33.61 			"/>
			<polygon class="st3" points="15.87,33.8 15.8,33.86 15.82,33.65 16.18,33.34 16.26,33.55 15.88,33.7 			"/>
			<polygon class="st3" points="15.79,33.91 15.69,33.92 15.83,33.75 16.3,33.7 16.25,33.91 15.85,33.83 			"/>
		</g>
		<path class="st1" d="M21.56,29.96l-3.09,4.26l-4.8,2.32l0.26,1.63l2.99,1.66l1.95-0.51l2.84-1.22c0,0,0.96-3.73,1.27-3.81
			s0.14-3.33,0.14-3.33L21.56,29.96z"/>
		<polygon class="st3" points="23.36,28.49 23.36,29.82 19.55,29.23 18.7,29.58 19.25,28.98 19.85,28.83 		"/>
		<polygon class="st4" points="23.52,29.68 23.09,30.93 19.55,29.23 20.55,29.27 		"/>
		<polygon class="st5" points="76.31,46.99 72.77,46 72.26,43.37 72.24,41.35 74.63,40.61 75.59,39.04 74.22,35.96 76.45,33.25 
			76.23,35.95 78.14,37.98 79.06,41.3 78.72,43.41 78.2,46.09 		"/>
		<polygon class="st6" points="46.69,75.82 53.69,77.21 58.31,74.81 56.74,67.7 49.18,68.29 		"/>
		<polygon class="st6" points="26.68,75.47 34.15,79.18 41.28,76.36 41.01,67.51 28.78,67.51 		"/>
		<polygon class="st7" points="43.59,38.14 43.58,39.95 42.69,41.32 41.3,40.76 42.12,39.43 42.49,37.85 42.45,36.41 42.95,36.37 		
			"/>
		<polygon class="st7" points="76.19,53.87 73.75,53.66 74.29,49.3 76.87,49.3 		"/>
		<polygon class="st7" points="78.67,49.83 75.65,50.6 72.76,48.34 72.63,47.27 75.43,48.5 78.67,47.27 		"/>
		<polygon class="st7" points="74.06,49.46 72.76,48.34 72.65,47.22 74.32,45.98 74.84,46.48 73.75,47.27 73.75,47.96 74.84,48.24 
					"/>
		<polygon class="st7" points="79.48,45.81 79.38,47.62 78.43,48.94 77.07,48.32 77.95,47.02 78.38,45.46 78.42,44.03 78.92,44.01 
					"/>
		<polygon class="st7" points="80.32,46.16 80.22,47.97 79.28,49.29 77.92,48.67 78.79,47.37 79.23,45.81 79.27,44.38 79.77,44.36 
					"/>
		<polygon class="st7" points="80.81,47.64 79.92,49.22 78.48,49.99 77.54,48.82 78.9,48.05 79.98,46.85 80.65,45.58 81.11,45.78 		
			"/>
		<polygon class="st6" points="76.55,61.4 65.4,38.92 56.62,49.11 71.26,64.56 		"/>
		<polygon class="st6" points="24.37,60.09 9.32,60.63 8.81,56.81 24.14,41.07 		"/>
		<polygon class="st6" points="29.2,69.03 56.62,68.03 65.4,38.92 53.65,36.39 18.98,40.37 		"/>
		<polygon class="st8" points="48.75,46.14 41.01,46.41 41.04,68.6 49.18,68.29 49.92,66.21 51.06,62.49 		"/>
		<polygon class="st9" points="10.16,41.28 18.47,43.18 29.46,42.04 58.12,31.65 65.99,23.77 59.49,19.27 55.2,8.34 46.25,1.36 
			37.37,0.73 24.8,7.33 21.69,20.34 23.44,28.65 20.43,37.45 16.67,39.78 11.37,40.09 		"/>
		<g>
			<path class="st10" d="M59.5,19.27L55.2,8.34l-8.95-6.98l-8.88-0.63L24.8,7.33l-3.11,13.01l1.75,8.31l-3.01,8.8l-3.75,2.33
				l-5.31,0.32l-1.21,1.18l8.31,1.9l10.99-1.14l28.66-10.39l7.87-7.88L59.5,19.27z M57.49,30.18c0,0-28.16,10.34-28.51,10.41
				c-0.36,0.07-11.05,1.35-11.05,1.35l-5.35-0.96l4.88-0.57l4.76-2.53l2.67-9.3l-2.07-8.49l3.39-11.9l11.64-6.18l7.89,0.43
				l8.32,6.58l4.63,11.9l4.42,3.28L57.49,30.18z"/>
		</g>
		<path class="st7" d="M35.21,18.95l1.02,2.58l2.61,10.89h-1.3l-0.51,1c0,0,2.29,3.35,2.39,3.56c0.11,0.21,1.59,7.2,1.59,7.2
			l14.02-3.38l-1.78-9.24l0.43-2.28l-1.3-1.93l-1.05-7.27l-4.82-3.07l-4.26,2.07L35.21,18.95z"/>
		<polygon class="st11" points="32.79,41.62 41.01,44.19 39.42,36.99 37.02,33.42 37.53,32.43 38.84,32.43 36.23,21.54 35.21,18.95 
			34.5,18.58 31.93,23.55 32.47,31.39 31.02,31.39 29.1,32.11 29.58,34.67 30.65,36.01 31.88,36.23 		"/>
		<polygon class="st12" points="51.26,26.24 44.52,27.07 42.41,25.97 39.92,28.18 39.63,26.46 42,23.78 44.98,25.97 50.97,24.53 		
			"/>
		<polygon class="st12" points="46.42,28.18 47.99,31.22 45.94,32.23 		"/>
		<path class="st11" d="M39.48,36.71l3.88-2.5l8.76-1.56l1.73,0.33l1.13,1.8l-0.73,1.14l-3.41-0.3l-10.03,2.43
			c0,0-1.61,2.33-1.49,2.04c0.13-0.3-0.78-1.57-0.74-1.71C38.63,38.24,39.48,36.71,39.48,36.71z"/>
		<path class="st12" d="M31.02,31.39h1.04c0,0,1.79,2.33,1.74,2.25c-0.05-0.08,0.51-4.46,0.51-4.46l-0.45-5.43l0.91-4.68l1.76-0.08
			l5.72,0.12l4.26-2.07l-10.65,0.81l-2.73,0.4l-2.11,3.15l-1.92,5.69l0.18,4.97L31.02,31.39z"/>
		<polygon class="st12" points="51.92,24.23 53.65,28.18 56,28.65 56.75,27.94 56.22,30.54 54.98,30.54 54.34,31.39 55.84,31.39 
			57.02,30.61 57.02,29.83 58.03,31.06 56.81,33.63 54.51,34.03 53.85,32.99 53.51,32.92 53.25,31.57 53.68,29.29 52.38,27.36 		"/>
		<path class="st12" d="M33.93,32.3c-0.01,0.08,2.53,2.69,2.83,2.8s1.39,0,1.39,0l0.75,0.05c0,0,4.06-2.29,4.2-2.32
			c0.13-0.03,2.03,0.13,2.03,0.13l-2.03,0.76l-2.49,1.78l-1.13,1.22l-0.9,1.67l0.74,1.71l0.61-0.78l0.61,2.77l4.33,0.58
			c0,0,2.63-1.31,2.67-1.39c0.04-0.08,2.58-0.78,2.5-0.8c-0.08-0.03,4.94,0.09,4.94,0.09l0.65,1.56l1.62,3.76l-2.22,3.85l-3.62,2.42
			l-5.82,0.71c0,0-14.29-5.42-14.36-5.77c-0.07-0.36-2.13-6.97-2.13-6.97l2.78-3.9l1.92-2.59l-0.36-0.46"/>
		<polygon class="st12" points="53.51,32.92 52.02,32.24 50.39,31.91 52.09,31.43 53.25,31.57 54.98,32.92 56.64,37.42 58.84,38.27 
			59.21,42.58 57.71,45.49 56.94,46.41 54.24,40.54 54.98,40.56 54.09,35.92 54.25,35.93 54.98,34.79 53.85,32.99 		"/>
		<polygon class="st12" points="29.3,33.17 28.42,33.63 27.09,33.4 26.39,31 27.85,31.57 29.76,30.54 29.76,31.57 29.76,31.86 
			29.1,32.11 		"/>
		<polygon class="st12" points="29.76,30.78 27.88,29.05 27.01,27.95 28.38,25.97 28.64,27.33 30.19,27.52 		"/>
		<polygon class="st12" points="46.51,17.03 51.65,19.4 51.33,20.09 		"/>
		<path class="st13" d="M41.39,27.82c0,0.84,0.68,1.53,1.53,1.53c0.84,0,1.53-0.68,1.53-1.53c0-0.17-0.03-0.33-0.08-0.48l-1.88-0.99
			C41.86,26.54,41.39,27.13,41.39,27.82z"/>
		<path class="st13" d="M47.15,27.05c-0.04,0.12-0.07,0.25-0.07,0.38c0,0.61,0.49,1.1,1.1,1.1s1.1-0.49,1.1-1.1
			c0-0.23-0.07-0.45-0.19-0.62L47.15,27.05z"/>
		<g>
			<path class="st14" d="M41.11,9.47l-1.34-1L38.14,8.4l-0.38,0.59l-0.51,1.68l0.43,0.68l1.09-0.12l0.39,0.16l0.64,0.95l0.13-0.01
				l-0.23-1.09l0.2,0.06l0.32,0.99l0.12-0.01l-0.26-1.01l0.24-0.06l0.2,1.05l0.11-0.01l-0.18-1.05l0.19-0.02l0.19,1.05l0.06-0.01
				l-0.17-1.05l0.11-0.01l0.28,1.04l0.08-0.01l-0.29-1.34l0.32-0.45L41.11,9.47z M39.55,10.79c-0.23,0.14-0.48,0.13-0.57-0.02
				c-0.09-0.14,0.03-0.37,0.26-0.51s0.48-0.13,0.57,0.02C39.89,10.43,39.78,10.65,39.55,10.79z M40.19,11.04l-0.1-0.59l0.48,0.42
				L40.19,11.04z M41.1,10.54c-0.08,0.15-0.33,0.17-0.56,0.06c-0.24-0.12-0.37-0.34-0.29-0.49s0.33-0.17,0.56-0.06
				C41.04,10.17,41.17,10.39,41.1,10.54z"/>
			<path class="st14" d="M41.49,9.45l1.59-1.39c0.13,0.09,0.35,0.1,0.55,0.02c0.29-0.12,0.46-0.38,0.38-0.58
				c-0.07-0.17-0.28-0.25-0.51-0.21c-0.02-0.13-0.11-0.23-0.24-0.26C43.09,7,42.93,7.1,42.9,7.27c-0.02,0.1,0.01,0.19,0.08,0.26
				l-1.72,1.39l0.2,0.15L41.49,9.45z"/>
			<path class="st14" d="M38.55,11.56l-0.37,0.04l-2.45,1.98c-0.09-0.06-0.19-0.11-0.3-0.13c-0.36-0.07-0.69,0.08-0.74,0.34
				s0.19,0.54,0.54,0.61l0,0c-0.05,0.25,0.05,0.49,0.23,0.52c0.18,0.04,0.36-0.14,0.42-0.39l3.1-2.71l-0.09-0.14L38.55,11.56z"/>
			<path class="st14" d="M44.96,11.3c-0.15-0.22-0.52-0.23-0.82-0.02c-0.1,0.07-0.17,0.15-0.23,0.24l-2.5-0.69l-0.03,0.04l0.16,0.75
				l2.61,0.84c0.15,0.21,0.39,0.29,0.54,0.19s0.15-0.36,0-0.57l0,0C45,11.87,45.12,11.52,44.96,11.3z"/>
			<path class="st14" d="M35.09,8.6c0.03-0.09,0.02-0.19-0.04-0.27c-0.1-0.14-0.29-0.17-0.43-0.07c-0.11,0.08-0.15,0.21-0.12,0.33
				c-0.23,0.06-0.39,0.21-0.39,0.39c0.01,0.22,0.26,0.39,0.58,0.39c0.22-0.01,0.41-0.1,0.5-0.24l2.01,0.64l0.17-0.54L35.09,8.6z"/>
		</g>
		<path class="st15" d="M46.19,53.02l0.25,2.1c-0.15,0.06-0.28,0.23-0.33,0.44c-0.07,0.3,0.05,0.59,0.27,0.64
			c0.18,0.04,0.36-0.09,0.46-0.31c0.11,0.06,0.25,0.04,0.35-0.05c0.12-0.12,0.13-0.31,0.01-0.44c-0.07-0.07-0.17-0.1-0.26-0.09
			l-0.18-2.2l-0.24,0.08L46.19,53.02z"/>
		<path class="st15" d="M42.2,52.23L42,52.45l-0.41,2.46c-0.08,0.01-0.17,0.04-0.25,0.08c-0.25,0.14-0.37,0.41-0.26,0.59
			s0.39,0.22,0.64,0.07l0,0c0.1,0.18,0.29,0.26,0.41,0.19s0.14-0.27,0.04-0.45l0.41-3.23l-0.13-0.03L42.2,52.23z"/>
		<path class="st15" d="M44.27,56.63c-0.17-0.21-0.07-0.56,0.21-0.79c0.09-0.07,0.19-0.12,0.29-0.15l0.02-2.59l0.05-0.02l0.67,0.36
			l0.09,2.74c0.16,0.2,0.17,0.45,0.04,0.57c-0.14,0.11-0.38,0.04-0.55-0.16l0,0C44.8,56.83,44.44,56.84,44.27,56.63z"/>
		<path class="st15" d="M43.26,55.03c-0.09,0-0.19,0.04-0.25,0.12c-0.1,0.14-0.08,0.33,0.06,0.43c0.11,0.08,0.25,0.08,0.35,0.01
			c0.12,0.2,0.32,0.31,0.49,0.25c0.21-0.07,0.3-0.37,0.19-0.67c-0.07-0.21-0.22-0.36-0.38-0.4v-2.11l-0.56,0.01L43.26,55.03z"/>
		<path class="st15" d="M47.59,55.77c-0.09,0-0.19,0.04-0.25,0.12c-0.1,0.14-0.08,0.33,0.06,0.43c0.11,0.08,0.25,0.08,0.35,0.01
			c0.12,0.2,0.32,0.31,0.49,0.25c0.21-0.07,0.3-0.37,0.19-0.67c-0.07-0.21-0.22-0.36-0.38-0.4V53.4l-0.56,0.01L47.59,55.77z"/>
		<polygon class="st6" points="76.55,61.4 71.26,64.56 69.21,62.39 73.66,51.22 76.55,51.72 		"/>
		<polygon class="st16" points="71.88,55.67 72.6,53.87 70.1,57.33 68.69,57.2 66.59,55.15 68.3,59.01 69.85,59.35 69.65,61.28 
			70.29,59.67 		"/>
		<g>
			<polygon class="st17" points="77.43,50.97 78.3,54.03 72.23,52.41 73.5,49.84 			"/>
			<polygon class="st18" points="78.67,55.34 71.76,53.36 72.23,52.41 78.3,54.03 			"/>
		</g>
		<path class="st19" d="M38.85,81.49C38.85,81.49,38.86,81.44,38.85,81.49L38.85,81.49z"/>
		<polygon class="st20" points="47.86,83.37 48.6,81.38 48.6,80.91 52.31,81.36 52,82.05 52.61,83.57 51.32,83.57 51.01,84.36 
			52.52,84.59 53.37,85.5 49.57,85.12 49.57,85.27 48.68,85.27 48.68,84.97 48.68,84.32 48.68,83.82 48.68,83.39 48.6,83.48 		"/>
		<path class="st19" d="M38.36,83.59C38.36,83.59,38.37,83.54,38.36,83.59L38.36,83.59z"/>
		<circle class="st18" cx="39.64" cy="55.76" r="0.8"/>
		<circle class="st18" cx="39.97" cy="59.4" r="0.8"/>
		<circle class="st18" cx="39.97" cy="63.2" r="0.8"/>
		<g>
			<polyline class="st21" points="31.73,59.95 36.4,62.84 35.64,65.19 31.34,63.51 			"/>
			<polyline class="st21" points="33.62,69.61 37.14,63.17 35.16,62.11 32.56,68.79 			"/>
			<g>
				<polygon class="st17" points="31.77,69.11 32.41,67.63 34.44,70.14 33.07,70.77 				"/>
				<polygon class="st18" points="32.68,67 34.96,69.91 34.44,70.14 32.41,67.63 				"/>
			</g>
			<g>
				<path class="st2" d="M27.39,70.61c-0.95,2.22-1.61,4.57-2.7,6.73c-0.27,1.39-0.74,2.72-1.09,4.09
					c-0.71-0.17-1.39-0.39-2.12-0.54c0.36-1.86,0.27-2.88,0.55-4.96s0.95-5.21,1.24-7.5C24.69,69.08,26.04,69.83,27.39,70.61z"/>
			</g>
			<polygon class="st2" points="28.29,71.15 30.57,77.15 30.57,81.33 32.74,81.33 33.46,76.24 32.48,69.18 			"/>
			<rect x="24.14" y="68.07" class="st2" width="7.9" height="4.84"/>
			<polygon class="st13" points="24.14,59.83 29.46,59.09 30.41,59.24 31.16,65.46 31.33,68.42 24.14,68.24 			"/>
			<rect x="25.9" y="67.5" class="st17" width="5.06" height="1.46"/>
			<path class="st18" d="M27.72,67.32v1.84h2.03v-1.84H27.72z M29.46,68.86h-1.45v-0.49h0.38V68.1h-0.38v-0.49h1.45V68.86z"/>
			<rect x="29.93" y="67.43" class="st18" width="0.33" height="1.62"/>
			<path class="st19" d="M38.96,81.83C38.96,81.83,38.97,81.79,38.96,81.83L38.96,81.83z"/>
			<polygon class="st17" points="29.8,81.82 30.51,79.91 30.51,79.45 33.2,79.62 33.14,80.2 33.69,82.39 32.92,82.28 32.72,84.19 
				34.2,84.65 35.02,85.89 31.37,85.3 31.37,85.44 30.51,85.44 30.51,85.16 30.51,84.53 30.51,83.91 30.51,83.5 30.51,81.93 			"/>
			<path class="st19" d="M38.48,83.69C38.48,83.69,38.49,83.64,38.48,83.69L38.48,83.69z"/>
			<polygon class="st21" points="29.6,59.09 30.56,63.2 30.33,77.98 33.72,78.67 32.09,60.12 31.09,59.37 			"/>
			<polygon class="st13" points="29.6,59.09 30.63,59.5 31.17,60.68 30.22,60.22 29.87,60.24 29.48,61.66 			"/>
			<polygon class="st17" points="29.87,60.24 30.08,60.23 30.96,63.05 31.02,78.12 30.33,77.98 30.56,63.2 			"/>
			<circle class="st18" cx="30.89" cy="63.03" r="0.32"/>
			<circle class="st18" cx="31.02" cy="64.46" r="0.32"/>
			<circle class="st18" cx="31.02" cy="65.96" r="0.32"/>
			<circle class="st18" cx="31.02" cy="67.54" r="0.32"/>
			<circle class="st18" cx="31.02" cy="69.12" r="0.32"/>
			<g>
				<path class="st17" d="M24.25,82.81c-0.12-0.62-0.25-1.24-0.33-1.87c0.03-0.15,0.07-0.3,0.1-0.46c-0.87-0.13-1.72-0.41-2.6-0.53
					c-0.02,0.19-0.05,0.38-0.07,0.56c-0.32,0.74-0.56,1.51-0.86,2.25c0.27,0.01,0.54,0.01,0.81,0.02c-0.02,0.7-0.23,1.38-0.22,2.09
					c-0.55,0.05-1.09,0.21-1.61,0.39c-0.29,0.42-0.57,0.85-0.87,1.27c1.2-0.16,2.42-0.38,3.57-0.79c0,0.05,0,0.1,0,0.14
					c0.28-0.04,0.56-0.07,0.84-0.04c0-0.12,0-0.14,0-0.28c-0.01-0.14,0.01-0.36,0.05-0.53c0.04-0.17,0.08-0.34,0.12-0.52
					s0.03-0.11,0.09-0.39s0.21-0.98,0.27-1.34C23.78,82.78,24.01,82.8,24.25,82.81z"/>
			</g>
			<polygon class="st22" points="26.36,60.91 26.93,61.45 26.44,61.56 			"/>
			<polygon class="st22" points="26.7,67.23 29.11,66.06 29.17,66.2 29.87,65.37 29.87,65.24 30.16,64.97 30.55,64.09 30.55,63.93 
				29.75,65.09 26.7,67 			"/>
			<polygon class="st23" points="26.22,66.35 28.85,65.36 29.8,64.35 30.56,63.2 30.59,63.9 30.1,64.89 29.19,65.94 26.22,67.29 			
				"/>
			<path class="st18" d="M29.27,64.7l-0.53,0.63l0.45,0.73l0.61-0.73L29.27,64.7z M29.14,65.64l0.13-0.13l-0.11-0.13l-0.13,0.15
				l-0.14-0.15l0.38-0.47l0.39,0.47l-0.39,0.44L29.14,65.64z"/>
			<polygon class="st21" points="26,58.33 26.7,63.45 26.7,77.5 21.66,79.12 21.66,60.05 24.63,58 			"/>
			<polygon class="st17" points="25.53,58.21 26.06,63.36 26.24,77.64 26.7,77.5 26.7,63.45 26,58.33 			"/>
			<polygon class="st13" points="27.39,61.66 24.14,58.33 22.93,58.79 23.5,61.09 24.25,60.13 25.77,60.48 			"/>
			<circle class="st18" cx="25.94" cy="62.72" r="0.32"/>
			<circle class="st18" cx="26.07" cy="64.15" r="0.32"/>
			<circle class="st18" cx="26.07" cy="65.65" r="0.32"/>
			<circle class="st18" cx="26.07" cy="67.23" r="0.32"/>
			<circle class="st18" cx="26.07" cy="68.81" r="0.32"/>
			<polygon class="st21" points="18.32,66.06 22.63,63.7 21.73,59.99 17.2,63.7 			"/>
			<polygon class="st21" points="22.07,69.44 21.06,70.45 16.46,64.15 18.41,62.75 			"/>
			<polygon class="st15" points="23.96,47.34 26.15,57.19 33.36,56.33 31.97,46 31.04,45.86 29.54,46.91 24.07,46.74 			"/>
			<polygon class="st24" points="24.07,46.74 26.36,57.03 33.46,56.05 29.6,57.77 29.6,59.52 29.37,63.7 24.14,58.33 22.74,54.4 
				22.27,54.4 21.06,52.74 21.29,51.84 22.12,51.52 23.86,52.6 24.14,52.27 22.39,48.8 			"/>
			<polygon class="st25" points="25.49,56.89 27.6,56.89 33.72,55.86 29.86,57.69 29.6,59.09 25.73,57.48 			"/>
			
				<ellipse transform="matrix(0.9137 -0.4064 0.4064 0.9137 -18.956 15.9217)" class="st26" cx="28.01" cy="52.59" rx="0.79" ry="0.6"/>
			
				<ellipse transform="matrix(0.2743 -0.9616 0.9616 0.2743 -26.8654 68.3535)" class="st26" cx="31.86" cy="51.98" rx="0.6" ry="0.79"/>
			<circle class="st27" cx="28.13" cy="50.43" r="0.29"/>
			<g>
				<g>
					<path class="st27" d="M27.71,50.05c0.01-0.01,0.02-0.02,0.03-0.03s0.01-0.01,0.02-0.02c0,0,0.01,0,0.01-0.01l0.01-0.01
						c0,0,0,0,0.01,0l0.01-0.01c0.01,0,0.01-0.01,0.02-0.01c0.01-0.01,0.03-0.02,0.04-0.02h0.01c0,0,0.01,0,0,0
						c0.01,0,0.01-0.01,0.02-0.01s0.03-0.01,0.04-0.01s0.02,0,0.02,0h0.01c0.01,0,0,0,0,0c0.02,0,0.03,0,0.05,0
						c0.03,0,0.05-0.02,0.05-0.05s-0.02-0.05-0.05-0.05c-0.14,0-0.28,0.06-0.37,0.17c-0.02,0.02-0.02,0.05,0,0.07
						C27.66,50.07,27.7,50.07,27.71,50.05L27.71,50.05z"/>
				</g>
			</g>
			<circle class="st27" cx="31.17" cy="50.06" r="0.29"/>
			<g>
				<g>
					<path class="st27" d="M31.25,49.43c0.01,0,0.03,0,0.04,0h0.01c0.01,0-0.01,0,0,0s0.01,0,0.02,0s0.03,0.01,0.04,0.01
						s0.01,0.01,0.02,0.01l0,0c0,0,0.01,0,0.01,0.01c0.01,0.01,0.02,0.01,0.04,0.02c0.01,0,0.01,0.01,0.02,0.01l0,0
						c0,0,0.01,0,0.01,0.01c0.01,0.01,0.02,0.02,0.03,0.03c0,0.01,0.01,0.01,0.01,0.02l0,0l0.01,0.01c0.02,0.02,0.05,0.03,0.07,0.02
						s0.03-0.05,0.02-0.07c-0.08-0.11-0.21-0.19-0.35-0.18c-0.03,0-0.05,0.02-0.05,0.05C31.2,49.4,31.22,49.43,31.25,49.43
						L31.25,49.43z"/>
				</g>
			</g>
			<g>
				<g>
					<path class="st27" d="M31.11,54.46c-0.28,0.21-0.66,0.26-0.99,0.14c-0.05-0.02-0.11,0.02-0.13,0.07
						c-0.02,0.06,0.02,0.11,0.07,0.13c0.38,0.13,0.82,0.08,1.14-0.16c0.04-0.03,0.07-0.09,0.04-0.14
						C31.22,54.45,31.15,54.43,31.11,54.46L31.11,54.46z"/>
				</g>
			</g>
			<polygon class="st18" points="30.46,53.91 28.71,54.06 28.42,54.77 26.69,54.96 24.14,52.27 24.86,55.86 25.47,56.89 
				27.67,57.74 31.17,57.74 33.2,56.77 33.7,55.86 33.01,53.68 32.69,54.28 31.75,53.64 30.74,53.86 31.78,53.87 32.03,54.42 
				32.62,55.86 31.6,56.21 30.88,55.86 30.63,56.11 29.88,56.46 28.71,56.42 28.71,55.86 29.22,54.32 			"/>
			<polygon class="st26" points="28.96,49.27 29.7,54.18 31.49,53.82 29.83,49.27 			"/>
			<polygon class="st18" points="24.28,52.55 24.37,53.4 23.08,52.17 22.06,51.61 21.29,51.84 21.06,52.74 22.27,54.4 22.74,54.4 
				23.16,55.57 23.13,56.54 20.16,53.88 18.52,49.75 18.78,47.52 19.45,45.38 21.06,43.5 23.65,42.32 26.17,42.38 27.99,41.76 
				29.61,41.74 31.01,42.46 32.12,43.76 32.59,45.22 32.62,47.49 32.39,49.14 31.88,46.19 31.04,45.86 29.54,46.91 25.43,46.78 
				23.57,48.36 22.92,49.77 			"/>
			<polygon class="st3" points="27.87,46.59 26.4,50.38 24.51,51.72 22.63,51.31 24.26,50.67 25.62,49.3 26.19,46.92 27.22,45.29 
				28.92,44.95 29.7,45.96 29.54,46.91 28.78,46.2 			"/>
			<polygon class="st18" points="21.35,54.42 21.06,55.86 19.95,56.94 18,57.19 20,57.74 20.71,57.63 21.36,56.82 21.21,57.74 
				19.95,58.26 21.5,58.33 22.4,57.19 22.4,58.13 23.51,56.55 22.97,55.04 			"/>
			<polygon class="st22" points="29.87,60.24 29.71,60.85 29.98,60.72 			"/>
			<path class="st28" d="M32.43,63.93c-0.01-0.15-0.1-1.09-0.1-1.09l2.72,1.47l-1.37,3.29l0.59,0.81l-0.2,0.36l-1.01-1.29l1.12-2.87
				L32.43,63.93z"/>
			<path class="st19" d="M24.23,70.24c-0.09-0.04-0.18-0.08-0.27-0.12c0.06,0.01,0.12,0.01,0.18,0.03c0.48,0.11,0.57-0.43-0.18-0.51
				c-0.24-0.02-0.47-0.01-0.69,0.02c-0.05,0.01-0.1,0.02-0.15,0.03c-0.23-0.13-0.45-0.26-0.65-0.4l-1.1,1.24
				c0.06,0.04,0.12,0.09,0.18,0.13c0.14,0.09,0.28,0.19,0.42,0.28c0.23,0.15,0.47,0.3,0.71,0.44c0.6,0.34,0.79,0.37,0.91,0.24
				c0.04-0.04,0.04-0.09,0.02-0.15c0.26,0.11,0.37,0.1,0.46,0.01c0.08-0.08,0.03-0.21-0.15-0.36c0.36,0.18,0.5,0.18,0.6,0.08
				c0.08-0.08,0.03-0.21-0.17-0.38c0.29,0.1,0.41,0.07,0.49-0.02C24.94,70.67,24.76,70.47,24.23,70.24z"/>
			<g>
				<polygon class="st17" points="23.12,69.67 22.49,68.19 20.45,70.7 21.83,71.33 				"/>
				<polygon class="st18" points="22.22,67.56 19.94,70.47 20.45,70.7 22.49,68.19 				"/>
			</g>
		</g>
		<g>
			<g>
				<polygon class="st7" points="19.78,59.34 19.34,61.61 15.04,60.75 15.3,58.19 				"/>
				<polygon class="st7" points="20.76,59.08 17.7,59.69 18.4,61.68 21.86,61.39 				"/>
				<polygon class="st7" points="23.21,62.36 22.35,60.77 20.92,59.98 19.96,61.14 21.31,61.92 22.38,63.15 23.03,64.43 
					23.48,64.23 				"/>
				<polygon class="st7" points="23.83,61.68 22.96,60.09 21.53,59.3 20.57,60.46 21.92,61.25 22.99,62.47 23.64,63.75 24.1,63.55 
									"/>
				<polygon class="st7" points="23.63,60.14 22.14,59.1 20.76,59.08 20.17,60.48 21.73,60.59 23.23,61.21 24.38,62.07 24.7,61.68 
									"/>
			</g>
			<polygon class="st7" points="19.71,59.28 21.23,58.48 22.31,58.8 22.84,60.81 22.19,61.1 21.86,59.8 21.22,59.54 20.56,60.45 			
				"/>
		</g>
		<polygon class="st6" points="18.89,62.41 9.35,60.89 8.62,56.91 19.17,58.76 		"/>
		<g>
			<polygon class="st17" points="19.22,58.69 16.95,57.02 16.42,62.57 18.94,62.31 			"/>
			<polygon class="st18" points="15.97,56.3 15.47,62.67 16.42,62.57 16.95,57.02 			"/>
		</g>
		<circle class="st18" cx="51.02" cy="54.93" r="0.8"/>
		<circle class="st18" cx="51.81" cy="58.5" r="0.8"/>
		<circle class="st18" cx="52.29" cy="62.27" r="0.8"/>
		<path class="st29" d="M47.54,38.46c-0.29,0.06,0.38,3.49,0.38,3.49s-0.36,2.94-0.45,3.19s2.28,1.28,2.28,1.28l0.47,1.37l-2.6,1.11
			l0.55,1.83l1.35,0.87l-0.18-1.27l0.42-1.04l2.05-0.6l0.12-2.26l-0.9-1.39l-1.94-0.8l1.14-2.27l-1.57-3.1L47.54,38.46z"/>
		<path class="st30" d="M76.29,45.99c0,0-2.45-0.36-2.42-0.41S73.02,43,73.02,43l0.3-0.9l1.62-0.61l0.65-1.07l-0.9-0.8l1.03-1.91
			l-0.53-1.22l0.46-1.47l1.11,2.52l-0.45,1.72l1.32,1.32l-0.09,2.41l0.27,1.62L76.29,45.99z"/>
		<polygon class="st31" points="76.92,44.63 76.28,45.16 74.67,44.61 74.31,43.54 74.06,42.52 75.47,41.83 75.74,40.56 76.45,42.11 
			77.11,43.17 77.12,44.29 		"/>
		<g>
			<polygon class="st3" points="17.94,36.51 17.57,37.23 15.42,35.38 15.57,35.1 			"/>
			<polygon class="st3" points="15.91,35.29 15.08,36.11 15,35.96 15.57,35.1 			"/>
			<polygon class="st3" points="15.2,36 15.07,36.94 14.37,36.79 15.05,35.9 			"/>
			<polygon class="st3" points="14.58,37.3 14.59,37.4 14.42,37.26 14.37,36.79 14.64,36.81 14.5,37.24 			"/>
			<polygon class="st3" points="14.76,37.18 14.77,37.28 14.61,37.14 14.55,36.67 14.76,36.72 14.68,37.12 			"/>
			<polygon class="st3" points="14.81,37.32 14.76,37.4 14.7,37.19 14.91,36.77 15.07,36.93 14.77,37.22 			"/>
		</g>
		<path class="st15" d="M49.07,55.46c-0.09,0.02-0.18,0.07-0.22,0.16c-0.08,0.15-0.01,0.34,0.14,0.41c0.12,0.06,0.26,0.03,0.35-0.06
			c0.16,0.17,0.37,0.24,0.53,0.15c0.19-0.11,0.22-0.42,0.07-0.69c-0.11-0.19-0.29-0.31-0.45-0.32l-0.39-2.07l-0.55,0.11L49.07,55.46
			z"/>
		<path class="st32" d="M41.04,64.47c0,0,9.62-0.78,9.62-0.76c-0.01,0.02-1.94,5.88-1.94,5.88l-7.63,0.47L41.04,64.47z"/>
		<polygon class="st33" points="41.02,65.7 50.44,64.79 49.12,68.72 41.06,69.27 		"/>
		<path class="st34" d="M42.74,65.02v4.46l4.3-0.35l0.82-4.42L42.74,65.02z M46.66,68.66l-3.36,0.27v-1.27l1.24-0.44l0.12-0.48
			l-1.36,0.15v-1.45l4-0.24L46.66,68.66z"/>
		<polygon class="st20" points="34.16,83.55 34.44,82.63 34.04,81.87 37.3,81.74 37.03,83.02 37.53,83.58 36.88,83.76 36.83,84.34 
			37.67,84.39 38.7,85.21 36,85.13 36.01,85.27 35.11,85.32 35.1,85.03 35.06,84.38 35.01,83.95 34.95,83.59 34.73,83.56 		"/>
		<path class="st35" d="M48.68,83.39c0,0,0,0.12,0,0.18c0.16,0.02,2.51,0.32,2.51,0.32l0.12-0.32L48.68,83.39z"/>
		<polygon class="st35" points="36.88,83.76 36.87,83.89 34.99,83.82 34.95,83.59 		"/>
	</g>
	<polygon class="st16" points="60.94,53.73 57.92,52.87 58.31,55.55 55.03,67.23 55.85,74.32 53.37,75.9 46.69,75.82 53.69,77.21 
		58.31,74.81 56.74,67.7 	"/>
</g>
<g id="Capa_2_1_">
</g>
</svg>
