<?xml version="1.0" encoding="UTF-8" standalone="no" ?>
<!DOCTYPE svg PUBLIC "-//W3C//DTD SVG 1.1//EN" "http://www.w3.org/Graphics/SVG/1.1/DTD/svg11.dtd">
<svg xmlns="http://www.w3.org/2000/svg" xmlns:xlink="http://www.w3.org/1999/xlink" version="1.1" width="48" height="83" viewBox="0 0 48 83" xml:space="preserve">
<desc>Created with Fabric.js 3.6.3</desc>
<defs>
</defs>
<g transform="matrix(1 0 0 1 24.1 41.81)" id="Capa_1"  >
<path style="stroke: none; stroke-width: 1; stroke-dasharray: none; stroke-linecap: butt; stroke-dashoffset: 0; stroke-linejoin: miter; stroke-miterlimit: 4; fill: rgb(255,255,255); fill-rule: nonzero; opacity: 1;"  transform=" translate(-39.55, 78.96)" d="M 15.95 -73.06 v -11.8 h 11.8 v 11.8 H 15.95 z M 27.76 -84.86 v -11.8 h 11.8 v 11.8 H 27.76 z M 27.76 -61.26 v -11.8 h 11.8 v 11.8 H 27.76 z M 39.56 -96.67 v -11.8 h 11.8 v 11.8 H 39.56 z M 39.56 -49.46 v -11.8 h 11.8 v 11.8 H 39.56 z M 51.36 -108.47 v -11.8 h 11.8 v 11.8 H 51.36 z M 51.36 -37.65 v -11.8 h 11.8 v 11.8 H 51.36 z" stroke-linecap="round" />
</g>
<g transform="matrix(1 0 0 1 24.1 41.81)" id="Capa_1"  >
<path style="stroke: none; stroke-width: 1; stroke-dasharray: none; stroke-linecap: butt; stroke-dashoffset: 0; stroke-linejoin: miter; stroke-miterlimit: 4; fill: rgb(255,255,255); fill-rule: nonzero; opacity: 1;"  transform=" translate(-39.55, 78.96)" d="M 15.95 -73.06 v -11.8 h 11.8 v 11.8 H 15.95 z M 27.76 -84.86 v -11.8 h 11.8 v 11.8 H 27.76 z M 27.76 -61.26 v -11.8 h 11.8 v 11.8 H 27.76 z M 39.56 -96.67 v -11.8 h 11.8 v 11.8 H 39.56 z M 39.56 -49.46 v -11.8 h 11.8 v 11.8 H 39.56 z M 51.36 -108.47 v -11.8 h 11.8 v 11.8 H 51.36 z M 51.36 -37.65 v -11.8 h 11.8 v 11.8 H 51.36 z" stroke-linecap="round" />
</g>
</svg>