<?xml version="1.0" encoding="utf-8"?>
<!-- Generator: Adobe Illustrator 25.0.1, SVG Export Plug-In . SVG Version: 6.00 Build 0)  -->
<svg version="1.1" id="Capa_3" xmlns="http://www.w3.org/2000/svg" xmlns:xlink="http://www.w3.org/1999/xlink" x="0px" y="0px"
	 viewBox="0 0 27 67.5" style="enable-background:new 0 0 27 67.5;" xml:space="preserve">
<style type="text/css">
	.st0{opacity:0.13;fill:#010202;enable-background:new    ;}
	.st1{fill:#938677;}
	.st2{fill:none;}
	.st3{fill:#7C7C7C;}
	.st4{fill:#5B585A;}
	.st5{fill:#997957;}
	.st6{fill:#DFBCA4;}
	.st7{opacity:0.58;fill:#867568;enable-background:new    ;}
	.st8{fill:#41373C;}
	.st9{fill:#ECE2D5;}
	.st10{fill:#B5A68F;}
	.st11{fill:#EF801A;}
	.st12{fill:#F39519;}
	.st13{fill:#3F343C;}
	.st14{opacity:0.48;fill:#616160;enable-background:new    ;}
	.st15{fill:#49271A;}
	.st16{fill:#867568;}
	.st17{fill:#2D2D2E;}
	.st18{fill:#D9BA8A;}
	.st19{fill:#54464E;}
	.st20{fill:#7B4D25;}
	.st21{fill:none;stroke:#663C1E;stroke-width:5.226417e-02;stroke-miterlimit:10;}
	.st22{fill:#221F25;}
	.st23{fill:#B2936C;}
	.st24{fill:#FFD400;}
	.st25{fill:#050404;}
	.st26{fill:#716A73;}
	.st27{fill:#9F9E9F;}
	.st28{fill:#3B3C3E;}
	.st29{fill:#726567;}
	.st30{fill:#F1C7AF;}
	.st31{fill:#262125;}
	.st32{fill:#5F3A1E;}
	.st33{fill:#E8510E;}
	.st34{fill:#4D474B;}
</style>
<ellipse class="st0" cx="13.5" cy="66.3" rx="13.5" ry="1.1"/>
<g>
	<g>
		<polygon class="st1" points="22.8,66 22.7,66.3 22.7,66.5 22.9,66.5 23,66 		"/>
		<polygon class="st1" points="21.5,66.2 21.4,66.3 21.5,66.4 21.6,66.4 21.6,66.2 21.6,66.1 		"/>
		<g>
			<path class="st2" d="M21.6,51.4L21.6,51.4c0-0.1-0.1-0.1-0.2-0.1s-0.1,0-0.2,0v0.1c0.1,0,0.1,0,0.2,0
				C21.5,51.3,21.5,51.3,21.6,51.4z"/>
			<path class="st2" d="M21.5,50.9h-0.1h-0.1h0.1C21.5,51,21.5,50.9,21.5,50.9z"/>
			<path class="st2" d="M21.5,51.7c0,0-0.1,0-0.1-0.1h-0.1c0,0,0.1,0,0.1,0.1H21.5z"/>
			<path class="st2" d="M21.6,50.6L21.6,50.6c-0.1-0.1-0.1-0.1-0.2-0.1s-0.1,0-0.2,0v0.1c0.1,0,0.1,0,0.2,0
				C21.5,50.5,21.5,50.6,21.6,50.6z"/>
			<path class="st2" d="M21.5,52.5C21.4,52.5,21.4,52.5,21.5,52.5c-0.1,0-0.1,0-0.2,0C21.3,52.5,21.3,52.5,21.5,52.5
				C21.4,52.5,21.4,52.5,21.5,52.5z"/>
			<path class="st2" d="M21.6,52.2L21.6,52.2c-0.1-0.1-0.1-0.1-0.2-0.1s-0.1,0-0.2,0v0.1c0.1,0,0.1,0,0.2,0
				C21.4,52.1,21.5,52.1,21.6,52.2z"/>
			<path class="st2" d="M21.6,49.8L21.6,49.8c-0.1-0.1-0.1-0.1-0.2-0.1s-0.1,0-0.2,0v0.1c0.1,0,0.1,0,0.2,0S21.6,49.8,21.6,49.8z"/>
			<path class="st2" d="M21.6,49.3c0,0-0.1,0-0.1-0.1h-0.1c0,0,0.1,0,0.1,0.1C21.5,49.4,21.5,49.4,21.6,49.3z"/>
			<path class="st2" d="M21.5,50.1L21.5,50.1c-0.1,0-0.1,0-0.2,0C21.4,50.1,21.4,50.1,21.5,50.1L21.5,50.1z"/>
			<path class="st3" d="M21.6,51.3L21.6,51.3c0.1,0.2,0.3,0.3,0.3,0.4v-0.1v-0.5V51C21.8,51.1,21.7,51.2,21.6,51.3z"/>
			<path class="st3" d="M21.2,51.3L21.2,51.3c-0.1-0.2-0.3-0.3-0.3-0.4V51v0.5v0.1C21,51.5,21.1,51.4,21.2,51.3z"/>
			<path class="st3" d="M21.6,52v-0.2v-0.1h-0.1c0,0-0.1,0-0.1-0.1l-0.1,0.1v0.2c0.1,0,0.1,0,0.2,0C21.4,52.1,21.5,52.1,21.6,52z"/>
			<path class="st3" d="M21.5,50.9l0.1-0.1v-0.2c-0.1,0-0.1,0-0.2,0s-0.1,0-0.2,0v0.2c0,0,0,0.1,0.1,0.1h0.1
				C21.5,50.9,21.5,50.9,21.5,50.9z"/>
			<path class="st4" d="M21.6,52L21.6,52c0.1,0.2,0.3,0.3,0.3,0.4v-0.1v-0.5v-0.1C21.8,51.9,21.7,52,21.6,52z"/>
			<path class="st4" d="M21.5,51.7l0.1-0.1v-0.2c-0.1,0-0.1,0-0.2,0s-0.1,0-0.2,0v0.2v0.1h0.1C21.4,51.6,21.5,51.7,21.5,51.7z"/>
			<path class="st4" d="M21.5,52.5C21.4,52.5,21.4,52.5,21.5,52.5c-0.1,0-0.1,0-0.2,0s-0.1,0.1-0.1,0.1v0.2c0.1,0,0.1,0,0.2,0
				s0.1,0,0.2,0v-0.2C21.5,52.6,21.5,52.5,21.5,52.5z"/>
			<path class="st4" d="M21.2,52.2L21.2,52.2c-0.2-0.2-0.3-0.3-0.3-0.5v0.1v0.5v0.1C21,52.3,21.1,52.2,21.2,52.2z"/>
			<path class="st3" d="M21.6,51.4v0.2c0,0,0,0.1-0.1,0.1v0.1V52c0.2-0.1,0.3-0.2,0.3-0.3C21.8,51.5,21.7,51.4,21.6,51.4z"/>
			<path class="st4" d="M21.2,52v-0.2c0,0,0-0.1,0.1-0.1v-0.1v-0.2c-0.2,0.1-0.3,0.2-0.3,0.3C21,51.8,21.1,52,21.2,52z"/>
			<path class="st4" d="M21.2,52.8v-0.2c0-0.1,0-0.1,0.1-0.1l-0.1-0.1v-0.2c-0.1,0-0.3,0.2-0.3,0.3C21,52.6,21.1,52.7,21.2,52.8z"/>
			<path class="st4" d="M21.6,52.2v0.2c0,0.1,0,0.1-0.1,0.1l0.1,0.1v0.2c0.1,0,0.3-0.2,0.3-0.3C21.8,52.3,21.7,52.2,21.6,52.2z"/>
			<path class="st3" d="M21.6,49.7L21.6,49.7c0.1,0.2,0.3,0.3,0.3,0.4V50v-0.5v-0.1C21.9,49.5,21.8,49.6,21.6,49.7z"/>
			<path class="st3" d="M21.6,50.4v-0.2c0-0.1,0-0.1-0.1-0.1h-0.1h-0.1c-0.1,0-0.1,0.1-0.1,0.1v0.2c0.1,0,0.1,0,0.2,0
				C21.5,50.5,21.5,50.5,21.6,50.4z"/>
			<path class="st3" d="M21.6,49.3l0.1-0.1V49c-0.1,0-0.1,0-0.2,0s-0.1,0-0.2,0v0.2v0.1h0.1C21.5,49.3,21.5,49.3,21.6,49.3z"/>
			<path class="st3" d="M21.3,49.8L21.3,49.8c-0.2-0.2-0.3-0.3-0.3-0.5v0.1v0.5V50C21,50,21.1,49.8,21.3,49.8z"/>
			<path class="st3" d="M21.6,49v0.2c0,0,0,0.1-0.1,0.1v0.1v0.2c0.2-0.1,0.3-0.2,0.3-0.3C21.9,49.2,21.8,49,21.6,49z"/>
			<path class="st4" d="M21.5,50.1c0.1,0,0.1-0.1,0.1-0.1v-0.2c-0.1,0-0.1,0-0.2,0s-0.1,0-0.2,0V50c0,0.1,0,0.1,0.1,0.1
				S21.4,50.1,21.5,50.1L21.5,50.1z"/>
			<path class="st4" d="M21.6,50.4L21.6,50.4c0.2,0.2,0.3,0.3,0.3,0.4v-0.1v-0.5v-0.1C21.9,50.3,21.7,50.4,21.6,50.4z"/>
			<path class="st4" d="M21.3,50.6L21.3,50.6c-0.1-0.2-0.3-0.3-0.3-0.4v0.1v0.5v0.1C21,50.7,21.1,50.6,21.3,50.6z"/>
			<path class="st4" d="M21.6,51.3v-0.2c0,0,0-0.1-0.1-0.1h-0.1h-0.1l-0.1,0.1v0.2c0.1,0,0.1,0,0.2,0S21.5,51.3,21.6,51.3z"/>
			<path class="st4" d="M21.2,51.2V51c0,0,0-0.1,0.1-0.1l-0.1-0.1v-0.2c-0.2,0.1-0.3,0.2-0.3,0.3C21,51.1,21.1,51.2,21.2,51.2z"/>
			<path class="st3" d="M21.6,50.6v0.2c0,0,0,0.1-0.1,0.1l0.1,0.1v0.2c0.2-0.1,0.3-0.2,0.3-0.3S21.7,50.6,21.6,50.6z"/>
			<path class="st3" d="M21.6,49.8V50c0,0.1,0,0.1-0.1,0.1l0.1,0.1v0.2c0.1,0,0.3-0.2,0.3-0.3S21.8,49.9,21.6,49.8z"/>
			<path class="st4" d="M21.3,50.4v-0.2c0-0.1,0-0.1,0.1-0.1L21.3,50v-0.2c-0.1,0-0.3,0.2-0.3,0.3C21,50.3,21.1,50.4,21.3,50.4z"/>
			<path class="st2" d="M21.5,54.5L21.5,54.5c0-0.1-0.1-0.1-0.2-0.1s-0.1,0-0.2,0v0.1c0.1,0,0.1,0,0.2,0S21.4,54.5,21.5,54.5z"/>
			<path class="st2" d="M21.4,54.1h-0.1h-0.1h0.1C21.4,54.1,21.4,54.1,21.4,54.1z"/>
			<path class="st2" d="M21.4,54.8c0,0-0.1,0-0.1-0.1h-0.1c0,0,0.1,0,0.1,0.1C21.4,54.9,21.4,54.9,21.4,54.8z"/>
			<path class="st2" d="M21.5,53.7L21.5,53.7c-0.1-0.1-0.1-0.1-0.2-0.1s-0.1,0-0.2,0v0.1c0.1,0,0.1,0,0.2,0S21.5,53.7,21.5,53.7z"/>
			<path class="st2" d="M21.5,52.9L21.5,52.9c-0.1-0.1-0.1-0.1-0.2-0.1s-0.1,0-0.2,0v0.1c0.1,0,0.1,0,0.2,0S21.5,52.9,21.5,52.9z"/>
			<path class="st2" d="M21.5,52.5c0,0-0.1,0-0.1-0.1h-0.1c0,0,0.1,0,0.1,0.1H21.5z"/>
			<path class="st2" d="M21.4,53.3C21.4,53.2,21.4,53.2,21.4,53.3c-0.1,0-0.1,0-0.2,0C21.3,53.3,21.3,53.3,21.4,53.3L21.4,53.3z"/>
			<path class="st3" d="M21.5,54.4L21.5,54.4c0.1,0.2,0.3,0.3,0.3,0.4v-0.1v-0.5v-0.1C21.8,54.2,21.6,54.3,21.5,54.4z"/>
			<path class="st3" d="M21.2,54.5L21.2,54.5c-0.1-0.2-0.3-0.3-0.3-0.4v0.1v0.5v0.1C20.9,54.7,21,54.5,21.2,54.5z"/>
			<path class="st3" d="M21.5,55.2V55v-0.1h-0.1c0,0-0.1,0-0.1-0.1l-0.1,0.1v0.2c0.1,0,0.1,0,0.2,0C21.4,55.2,21.4,55.2,21.5,55.2z"
				/>
			<path class="st3" d="M21.4,54.1l0.1-0.1v-0.2c-0.1,0-0.1,0-0.2,0s-0.1,0-0.2,0V54c0,0,0,0.1,0.1,0.1h0.1
				C21.4,54,21.4,54,21.4,54.1z"/>
			<path class="st4" d="M21.5,55.2L21.5,55.2c0.1,0.2,0.3,0.3,0.3,0.4v-0.1V55v-0.1C21.7,55,21.6,55.1,21.5,55.2z"/>
			<path class="st4" d="M21.4,54.8l0.1-0.1v-0.2c-0.1,0-0.1,0-0.2,0s-0.1,0-0.2,0v0.2v0.1h0.1C21.4,54.8,21.4,54.8,21.4,54.8z"/>
			<path class="st4" d="M21.4,55.6C21.4,55.6,21.3,55.6,21.4,55.6c-0.1,0-0.1,0-0.2,0s-0.1,0.1-0.1,0.1v0.2c0.1,0,0.1,0,0.2,0
				s0.1,0,0.2,0v-0.2C21.5,55.7,21.4,55.7,21.4,55.6z"/>
			<path class="st4" d="M21.1,55.3L21.1,55.3c-0.2-0.2-0.3-0.3-0.3-0.5v0.1v0.5v0.1C20.9,55.5,21,55.3,21.1,55.3z"/>
			<path class="st3" d="M21.5,54.5v0.2c0,0,0,0.1-0.1,0.1v0.1v0.2c0.2-0.1,0.3-0.2,0.3-0.3C21.8,54.7,21.6,54.5,21.5,54.5z"/>
			<path class="st4" d="M21.1,55.2V55c0,0,0-0.1,0.1-0.1v-0.1v-0.2c-0.2,0.1-0.3,0.2-0.3,0.3C20.9,55,21,55.1,21.1,55.2z"/>
			<path class="st4" d="M21.1,55.9v-0.2c0-0.1,0-0.1,0.1-0.1l-0.1-0.1v-0.2c-0.1,0-0.3,0.2-0.3,0.3C20.9,55.8,21,55.9,21.1,55.9z"/>
			<path class="st4" d="M21.5,55.3v0.2c0,0.1,0,0.1-0.1,0.1l0.1,0.1v0.2c0.1,0,0.3-0.2,0.3-0.3C21.7,55.5,21.6,55.4,21.5,55.3z"/>
			<path class="st3" d="M21.5,52.8L21.5,52.8c0.1,0.2,0.3,0.3,0.3,0.4v-0.1v-0.5v-0.1C21.8,52.6,21.7,52.8,21.5,52.8z"/>
			<path class="st3" d="M21.5,53.6v-0.2c0-0.1,0-0.1-0.1-0.1h-0.1h-0.1c-0.1,0-0.1,0.1-0.1,0.1v0.2c0.1,0,0.1,0,0.2,0
				S21.5,53.6,21.5,53.6z"/>
			<path class="st3" d="M21.5,52.5l0.1-0.1v-0.2c-0.1,0-0.1,0-0.2,0s-0.1,0-0.2,0v0.2v0.1h0.1C21.4,52.4,21.5,52.4,21.5,52.5z"/>
			<path class="st3" d="M21.2,52.9L21.2,52.9c-0.2-0.2-0.3-0.3-0.3-0.5v0.1V53v0.1C20.9,53.1,21.1,53,21.2,52.9z"/>
			<path class="st3" d="M21.6,52.1v0.2c0,0,0,0.1-0.1,0.1v0.1v0.2c0.2-0.1,0.3-0.2,0.3-0.3S21.7,52.2,21.6,52.1z"/>
			<path class="st4" d="M21.4,53.3c0.1,0,0.1-0.1,0.1-0.1V53c-0.1,0-0.1,0-0.2,0s-0.1,0-0.2,0v0.2c0,0.1,0,0.1,0.1,0.1
				C21.3,53.2,21.3,53.2,21.4,53.3C21.4,53.2,21.4,53.2,21.4,53.3z"/>
			<path class="st4" d="M21.5,53.6L21.5,53.6c0.2,0.2,0.3,0.3,0.3,0.4v-0.1v-0.5v-0.1C21.8,53.4,21.7,53.5,21.5,53.6z"/>
			<path class="st4" d="M21.2,53.7L21.2,53.7c-0.1-0.2-0.3-0.3-0.3-0.4v0.1v0.5V54C20.9,53.9,21,53.8,21.2,53.7z"/>
			<path class="st4" d="M21.5,54.4v-0.2c0,0,0-0.1-0.1-0.1h-0.1h-0.1l-0.1,0.1v0.2c0.1,0,0.1,0,0.2,0S21.4,54.4,21.5,54.4z"/>
			<path class="st4" d="M21.2,54.4v-0.2c0,0,0-0.1,0.1-0.1L21.2,54v-0.2c-0.2,0.1-0.3,0.2-0.3,0.3C20.9,54.2,21,54.3,21.2,54.4z"/>
			<path class="st3" d="M21.5,53.7v0.2c0,0,0,0.1-0.1,0.1l0.1,0.1v0.2c0.2-0.1,0.3-0.2,0.3-0.3S21.7,53.8,21.5,53.7z"/>
			<path class="st3" d="M21.5,52.9v0.2c0,0.1,0,0.1-0.1,0.1l0.1,0.1v0.2c0.1,0,0.3-0.2,0.3-0.3C21.8,53.1,21.7,53,21.5,52.9z"/>
			<path class="st4" d="M21.2,53.6v-0.2c0-0.1,0-0.1,0.1-0.1l-0.1-0.1V53c-0.1,0-0.3,0.2-0.3,0.3C20.9,53.4,21,53.5,21.2,53.6z"/>
		</g>
		<path class="st2" d="M21.4,57.6L21.4,57.6c0-0.1-0.1-0.1-0.2-0.1s-0.1,0-0.2,0v0.1c0.1,0,0.1,0,0.2,0S21.4,57.6,21.4,57.6z"/>
		<path class="st2" d="M21.4,57.2h-0.1h-0.1h0.1C21.3,57.2,21.3,57.2,21.4,57.2z"/>
		<path class="st2" d="M21.3,58c0,0-0.1,0-0.1-0.1h-0.1c0,0,0.1,0,0.1,0.1C21.3,58,21.3,58,21.3,58z"/>
		<path class="st2" d="M21.4,56.9L21.4,56.9c-0.1-0.1-0.1-0.1-0.2-0.1s-0.1,0-0.2,0v0.1c0.1,0,0.1,0,0.2,0
			C21.3,56.8,21.4,56.9,21.4,56.9z"/>
		<path class="st2" d="M21.3,58.8C21.3,58.8,21.2,58.7,21.3,58.8c-0.1,0-0.1,0-0.2,0C21.2,58.8,21.2,58.8,21.3,58.8
			C21.2,58.8,21.3,58.8,21.3,58.8z"/>
		<path class="st2" d="M21.4,58.5L21.4,58.5c-0.1-0.1-0.1-0.1-0.2-0.1s-0.1,0-0.2,0v0.1c0.1,0,0.1,0,0.2,0
			C21.3,58.4,21.3,58.4,21.4,58.5z"/>
		<path class="st2" d="M21.4,56.1L21.4,56.1C21.3,56,21.3,56,21.2,56s-0.1,0-0.2,0v0.1c0.1,0,0.1,0,0.2,0S21.4,56.1,21.4,56.1z"/>
		<path class="st2" d="M21.4,55.6c0,0-0.1,0-0.1-0.1h-0.1c0,0,0.1,0,0.1,0.1C21.3,55.7,21.4,55.6,21.4,55.6z"/>
		<path class="st2" d="M21.4,56.4C21.3,56.4,21.3,56.4,21.4,56.4c-0.1,0-0.1,0-0.2,0C21.2,56.4,21.2,56.4,21.4,56.4
			C21.3,56.4,21.3,56.4,21.4,56.4z"/>
		<path class="st3" d="M21.4,57.5L21.4,57.5c0.1,0.2,0.3,0.3,0.3,0.4v-0.1v-0.5v-0.1C21.7,57.4,21.6,57.5,21.4,57.5z"/>
		<path class="st3" d="M21.1,57.6L21.1,57.6c-0.1-0.2-0.3-0.3-0.3-0.4v0.1v0.5v0.1C20.8,57.8,20.9,57.7,21.1,57.6z"/>
		<path class="st3" d="M21.4,58.3v-0.2V58h-0.1c0,0-0.1,0-0.1-0.1L21.1,58v0.2c0.1,0,0.1,0,0.2,0C21.3,58.4,21.3,58.3,21.4,58.3z"/>
		<path class="st3" d="M21.4,57.2l0.1-0.1v-0.2c-0.1,0-0.1,0-0.2,0s-0.1,0-0.2,0v0.2c0,0,0,0.1,0.1,0.1h0.1
			C21.3,57.2,21.3,57.2,21.4,57.2z"/>
		<path class="st4" d="M21.4,58.3L21.4,58.3c0.1,0.2,0.3,0.3,0.3,0.4v-0.1v-0.5V58C21.7,58.1,21.5,58.3,21.4,58.3z"/>
		<path class="st4" d="M21.3,58l0.1-0.1v-0.2c-0.1,0-0.1,0-0.2,0s-0.1,0-0.2,0v0.2V58h0.1C21.3,57.9,21.3,57.9,21.3,58z"/>
		<path class="st4" d="M21.3,58.8C21.3,58.8,21.2,58.8,21.3,58.8c-0.1,0-0.1,0-0.2,0S21,58.9,21,58.9v0.2c0.1,0,0.1,0,0.2,0
			s0.1,0,0.2,0v-0.2C21.4,58.9,21.3,58.8,21.3,58.8z"/>
		<path class="st4" d="M21.1,58.4L21.1,58.4c-0.2-0.2-0.3-0.3-0.3-0.5V58v0.5v0.1C20.8,58.6,20.9,58.5,21.1,58.4z"/>
		<path class="st3" d="M21.4,57.6v0.2c0,0,0,0.1-0.1,0.1V58v0.2c0.2-0.1,0.3-0.2,0.3-0.3C21.7,57.8,21.6,57.7,21.4,57.6z"/>
		<path class="st4" d="M21.1,58.3v-0.2c0,0,0-0.1,0.1-0.1v-0.1v-0.2c-0.2,0.1-0.3,0.2-0.3,0.3C20.8,58.1,20.9,58.3,21.1,58.3z"/>
		<path class="st4" d="M21,59.1v-0.2c0-0.1,0-0.1,0.1-0.1L21,58.7v-0.2c-0.1,0-0.3,0.2-0.3,0.3C20.8,58.9,20.9,59,21,59.1z"/>
		<path class="st4" d="M21.4,58.5v0.2c0,0.1,0,0.1-0.1,0.1l0.1,0.1v0.2c0.1,0,0.3-0.2,0.3-0.3C21.6,58.6,21.5,58.5,21.4,58.5z"/>
		<path class="st3" d="M21.5,56L21.5,56c0.1,0.2,0.3,0.3,0.3,0.4v-0.1v-0.5v-0.1C21.7,55.8,21.6,55.9,21.5,56z"/>
		<path class="st3" d="M21.4,56.7v-0.2c0-0.1,0-0.1-0.1-0.1h-0.1h-0.1c-0.1,0-0.1,0.1-0.1,0.1v0.2c0.1,0,0.1,0,0.2,0
			C21.3,56.8,21.4,56.7,21.4,56.7z"/>
		<path class="st3" d="M21.4,55.6l0.1-0.1v-0.2c-0.1,0-0.1,0-0.2,0s-0.1,0-0.2,0v0.2v0.1h0.1C21.3,55.6,21.4,55.6,21.4,55.6z"/>
		<path class="st3" d="M21.1,56.1L21.1,56.1c-0.2-0.2-0.3-0.3-0.3-0.5v0.1v0.5v0.1C20.9,56.2,21,56.1,21.1,56.1z"/>
		<path class="st3" d="M21.5,55.3v0.2c0,0,0,0.1-0.1,0.1v0.1v0.2c0.2-0.1,0.3-0.2,0.3-0.3C21.7,55.5,21.6,55.3,21.5,55.3z"/>
		<path class="st4" d="M21.4,56.4c0.1,0,0.1-0.1,0.1-0.1v-0.2c-0.1,0-0.1,0-0.2,0s-0.1,0-0.2,0v0.2c0,0.1,0,0.1,0.1,0.1
			C21.2,56.4,21.2,56.4,21.4,56.4C21.3,56.4,21.3,56.4,21.4,56.4z"/>
		<path class="st4" d="M21.4,56.7L21.4,56.7c0.2,0.2,0.3,0.3,0.3,0.4V57v-0.5v-0.1C21.7,56.6,21.6,56.7,21.4,56.7z"/>
		<path class="st4" d="M21.1,56.9L21.1,56.9c-0.1-0.2-0.3-0.3-0.3-0.4v0.1v0.5v0.1C20.8,57,20.9,56.9,21.1,56.9z"/>
		<path class="st4" d="M21.4,57.5v-0.2c0,0,0-0.1-0.1-0.1h-0.1h-0.1L21,57.3v0.2c0.1,0,0.1,0,0.2,0C21.3,57.6,21.4,57.6,21.4,57.5z"
			/>
		<path class="st4" d="M21.1,57.5v-0.2c0,0,0-0.1,0.1-0.1l-0.1-0.1v-0.2c-0.2,0.1-0.3,0.2-0.3,0.3C20.8,57.4,20.9,57.5,21.1,57.5z"
			/>
		<path class="st3" d="M21.4,56.9v0.2c0,0,0,0.1-0.1,0.1l0.1,0.1v0.2c0.2-0.1,0.3-0.2,0.3-0.3C21.7,57.1,21.6,56.9,21.4,56.9z"/>
		<path class="st3" d="M21.4,56.1v0.2c0,0.1,0,0.1-0.1,0.1l0.1,0.1v0.2c0.1,0,0.3-0.2,0.3-0.3C21.7,56.3,21.6,56.1,21.4,56.1z"/>
		<path class="st4" d="M21.1,56.7v-0.2c0-0.1,0-0.1,0.1-0.1l-0.1-0.1v-0.2c-0.1,0-0.3,0.2-0.3,0.3C20.9,56.5,21,56.7,21.1,56.7z"/>
		<path class="st2" d="M21.3,60.8L21.3,60.8c0-0.1-0.1-0.1-0.2-0.1s-0.1,0-0.2,0v0.1c0.1,0,0.1,0,0.2,0
			C21.2,60.7,21.3,60.8,21.3,60.8z"/>
		<path class="st2" d="M21.3,60.3h-0.1h-0.1h0.1C21.2,60.4,21.3,60.4,21.3,60.3z"/>
		<path class="st2" d="M21.3,61.1c0,0-0.1,0-0.1-0.1h-0.1c0,0,0.1,0,0.1,0.1C21.2,61.2,21.2,61.1,21.3,61.1z"/>
		<path class="st2" d="M21.3,60L21.3,60c-0.1-0.1-0.1-0.1-0.2-0.1s-0.1,0-0.2,0V60c0.1,0,0.1,0,0.2,0C21.2,60,21.3,60,21.3,60z"/>
		<path class="st2" d="M21.4,59.2L21.4,59.2c-0.1-0.1-0.1-0.1-0.2-0.1s-0.1,0-0.2,0v0.1c0.1,0,0.1,0,0.2,0S21.3,59.2,21.4,59.2z"/>
		<path class="st2" d="M21.3,58.8c0,0-0.1,0-0.1-0.1h-0.1c0,0,0.1,0,0.1,0.1C21.3,58.8,21.3,58.8,21.3,58.8z"/>
		<path class="st2" d="M21.3,59.5C21.2,59.5,21.2,59.5,21.3,59.5c-0.1,0-0.1,0-0.2,0C21.1,59.6,21.2,59.6,21.3,59.5
			C21.2,59.6,21.2,59.6,21.3,59.5z"/>
		<path class="st3" d="M21.3,60.7L21.3,60.7c0.1,0.2,0.3,0.3,0.3,0.4V61v-0.5v-0.1C21.6,60.5,21.5,60.6,21.3,60.7z"/>
		<path class="st3" d="M21,60.8L21,60.8c-0.1-0.2-0.3-0.3-0.3-0.4v0.1V61v0.1C20.7,60.9,20.8,60.8,21,60.8z"/>
		<path class="st3" d="M21.3,61.5v-0.2v-0.1h-0.1c0,0-0.1,0-0.1-0.1L21,61.2v0.2c0.1,0,0.1,0,0.2,0C21.2,61.5,21.3,61.5,21.3,61.5z"
			/>
		<path class="st3" d="M21.3,60.3l0.1-0.1V60c-0.1,0-0.1,0-0.2,0s-0.1,0-0.2,0v0.2c0,0,0,0.1,0.1,0.1h0.1
			C21.2,60.3,21.3,60.3,21.3,60.3z"/>
		<path class="st4" d="M21.3,61.5L21.3,61.5c0.1,0.2,0.3,0.3,0.3,0.4v-0.1v-0.5v-0.1C21.6,61.3,21.5,61.4,21.3,61.5z"/>
		<path class="st4" d="M21.3,61.1l0.1-0.1v-0.2c-0.1,0-0.1,0-0.2,0s-0.1,0-0.2,0V61v0.1h0.1C21.2,61.1,21.2,61.1,21.3,61.1z"/>
		<path class="st4" d="M21,61.6L21,61.6c-0.2-0.2-0.3-0.3-0.3-0.5v0.1v0.5v0.1C20.7,61.8,20.8,61.6,21,61.6z"/>
		<path class="st3" d="M21.3,60.8V61c0,0,0,0.1-0.1,0.1v0.1v0.2c0.2-0.1,0.3-0.2,0.3-0.3C21.6,61,21.5,60.8,21.3,60.8z"/>
		<path class="st4" d="M21,61.5v-0.2c0,0,0-0.1,0.1-0.1v-0.1v-0.2c-0.2,0.1-0.3,0.2-0.3,0.3C20.7,61.3,20.8,61.4,21,61.5z"/>
		<path class="st3" d="M21.4,59.1L21.4,59.1c0.1,0.2,0.3,0.3,0.3,0.4v-0.1v-0.5v-0.1C21.6,58.9,21.5,59,21.4,59.1z"/>
		<path class="st3" d="M21.3,59.9v-0.2c0-0.1,0-0.1-0.1-0.1h-0.1H21c-0.1,0-0.1,0.1-0.1,0.1v0.2c0.1,0,0.1,0,0.2,0
			C21.2,59.9,21.3,59.9,21.3,59.9z"/>
		<path class="st3" d="M21.3,58.8l0.1-0.1v-0.2c-0.1,0-0.1,0-0.2,0s-0.1,0-0.2,0v0.2v0.1h0.1C21.3,58.7,21.3,58.7,21.3,58.8z"/>
		<path class="st3" d="M21,59.2L21,59.2c-0.2-0.2-0.3-0.3-0.3-0.5v0.1v0.5v0.1C20.8,59.4,20.9,59.3,21,59.2z"/>
		<path class="st3" d="M21.4,58.4v0.2c0,0,0,0.1-0.1,0.1v0.1V59c0.2-0.1,0.3-0.2,0.3-0.3C21.7,58.6,21.5,58.5,21.4,58.4z"/>
		<path class="st4" d="M21.3,59.5c0.1,0,0.1-0.1,0.1-0.1v-0.2c-0.1,0-0.1,0-0.2,0s-0.1,0-0.2,0v0.2c0,0.1,0,0.1,0.1,0.1
			C21.1,59.5,21.2,59.5,21.3,59.5C21.2,59.5,21.2,59.5,21.3,59.5z"/>
		<path class="st4" d="M21.3,59.9L21.3,59.9c0.2,0.2,0.3,0.3,0.3,0.4v-0.1v-0.5v-0.1C21.6,59.7,21.5,59.8,21.3,59.9z"/>
		<path class="st4" d="M21,60L21,60c-0.1-0.2-0.3-0.3-0.3-0.4v0.1v0.5v0.1C20.7,60.2,20.9,60.1,21,60z"/>
		<path class="st4" d="M21.3,60.7v-0.2c0,0,0-0.1-0.1-0.1h-0.1H21l-0.1,0.1v0.2c0.1,0,0.1,0,0.2,0C21.2,60.7,21.3,60.7,21.3,60.7z"
			/>
		<path class="st4" d="M21,60.7v-0.2c0,0,0-0.1,0.1-0.1L21,60.3v-0.2c-0.2,0.1-0.3,0.2-0.3,0.3S20.8,60.6,21,60.7z"/>
		<path class="st3" d="M21.3,60v0.2c0,0,0,0.1-0.1,0.1l0.1,0.1v0.2c0.2-0.1,0.3-0.2,0.3-0.3C21.6,60.2,21.5,60.1,21.3,60z"/>
		<path class="st3" d="M21.4,59.2v0.2c0,0.1,0,0.1-0.1,0.1l0.1,0.1v0.2c0.1,0,0.3-0.2,0.3-0.3C21.6,59.4,21.5,59.3,21.4,59.2z"/>
		<path class="st4" d="M21,59.9v-0.2c0-0.1,0-0.1,0.1-0.1L21,59.5v-0.2c-0.1,0-0.3,0.2-0.3,0.3C20.8,59.7,20.9,59.8,21,59.9z"/>
		<path class="st2" d="M21.2,63.9L21.2,63.9c0-0.1-0.1-0.1-0.2-0.1s-0.1,0-0.2,0v0.1c0.1,0,0.1,0,0.2,0S21.2,63.9,21.2,63.9z"/>
		<path class="st2" d="M21.2,63.5h-0.1H21h0.1H21.2z"/>
		<path class="st2" d="M21.2,61.9c0,0-0.1,0-0.1-0.1H21c0,0,0.1,0,0.1,0.1C21.2,61.9,21.2,61.9,21.2,61.9z"/>
		<path class="st2" d="M21.2,62.7C21.2,62.6,21.1,62.6,21.2,62.7c-0.1,0-0.1,0-0.2,0C21,62.7,21.1,62.7,21.2,62.7
			C21.1,62.7,21.2,62.7,21.2,62.7z"/>
		<path class="st2" d="M21.1,66.6H21h-0.1H21H21.1z"/>
		<path class="st2" d="M21.2,66.3L21.2,66.3c-0.1-0.1-0.1-0.1-0.2-0.1s-0.1,0-0.2,0v0.1c0.1,0,0.1,0,0.2,0
			C21.1,66.2,21.1,66.2,21.2,66.3z"/>
		<path class="st2" d="M21.1,65.8L21.1,65.8c-0.1,0-0.1,0-0.2,0C21,65.8,21,65.8,21.1,65.8C21,65.8,21.1,65.8,21.1,65.8z"/>
		<polygon class="st5" points="19,50.6 6.9,50.9 6.9,42.3 21,42.1 21,45.1 		"/>
		<polygon class="st6" points="7.5,21.1 7.5,29.6 12.9,32.4 18.8,32.4 21,30.2 21.4,21.4 		"/>
		<polygon class="st7" points="7.5,26.5 7.5,27.5 7.8,29.4 8.5,29.8 12.9,32.1 18.6,32.1 13.1,31.8 8.9,29.2 8.8,28.3 11.4,28.7 
			21,29 21,28.8 21.1,27.2 9.3,26.7 7.5,21.4 		"/>
		<polygon class="st8" points="5,38.8 2.8,29.1 1.5,30.8 0,38 		"/>
		<polygon class="st9" points="20.9,66.3 21.4,66.3 21.6,66.1 21.6,66.2 22.7,66.3 22.8,66 23,66 23.2,64.2 23.3,63.4 22.8,61.9 
			21.8,61.5 20.6,61.6 19.7,62 18.9,63.1 18.9,64.3 19.6,65.1 20.4,65.5 20.6,66 		"/>
		<path class="st6" d="M8,8.8l-1.6,4.8l0.7,4.2l-0.6-0.1L6,18.1l-0.2,1l0.4,1L6,20.7l0.4,0.7l1.1,0.2l0.6,6.1c0,0,2.6,0.2,3.2,0.3
			c0.9,0,9.6,0.2,10.9,0.3c0-0.2-0.3-4.5-0.3-4.5l-0.1-1.7l0.6-2.7L22,18.7l0.1-2.6L22.6,9l-0.9-2.7l-4.2,0.4l-1.3-1.4l-2.8,0.1
			l-1.3,1.5L9,7.6L8,8.8z"/>
		<polygon class="st10" points="7.5,21.7 10.5,22.1 14.4,21.5 15.1,20.5 18.1,20.5 18.9,21.2 21.9,21.9 22.3,28.2 11.4,27.9 
			8.2,27.6 		"/>
		<polygon class="st11" points="15.8,16.5 15.1,20.5 16.7,21 18.1,20.5 17.3,16.5 		"/>
		<ellipse transform="matrix(0.9137 -0.4064 0.4064 0.9137 -7.2632 6.819)" class="st12" cx="12.4" cy="20.5" rx="1" ry="0.7"/>
		<ellipse transform="matrix(0.4064 -0.9137 0.9137 0.4064 -6.8134 30.4827)" class="st12" cx="20.1" cy="20.5" rx="0.7" ry="1"/>
		<rect x="15" y="15.4" class="st13" width="2.6" height="1.4"/>
		<polygon class="st7" points="12.1,13.1 16.1,13.6 16.3,13.9 16.4,15.4 16.6,15.4 16.7,13.9 16.9,13.7 19.5,13.3 20.5,13.4 
			20.3,13 19.6,12.8 16.7,13.2 16.5,13.4 16.4,13.2 12.2,12.6 11.8,12.8 11.4,13.4 		"/>
		<polygon class="st14" points="8,8.8 9.3,14 8.9,15.7 9.2,19.8 10.5,22.1 11.4,27.9 8.2,27.6 7.5,21.5 6.5,21.4 6,20.7 6.2,20.2 
			5.8,19.1 6,18.1 6.5,17.7 7.1,17.8 6.4,13.6 		"/>
		<polygon class="st6" points="15.1,22.3 15.6,23.3 17.9,23.2 18.3,22.4 		"/>
		<g>
			<g>
				<g>
					<path class="st15" d="M15.2,22.4c1,0.2,2,0.3,3,0.1c0.2,0,0.1-0.4-0.1-0.3c-0.9,0.1-1.9,0.1-2.8-0.1C15.1,22,15,22.4,15.2,22.4
						L15.2,22.4z"/>
				</g>
			</g>
		</g>
		<polygon class="st16" points="15.4,22.8 15.7,23.2 17.9,23.2 15.6,23.4 		"/>
		<polygon class="st17" points="6.5,17.7 6.9,17.8 7.1,17.8 7.8,18.1 8,21 9,21.4 8.5,15.9 7.3,12.3 8,8.8 11.5,7.4 13.7,7.4 
			16.3,7.4 17.4,8.1 16.3,10.7 20.3,9.2 21.2,6.6 22.7,8.8 22.5,11.9 23.7,9.3 23.7,6.3 23.2,5.3 22.2,5.4 22.3,2.9 19.5,0 
			12.4,0.5 9.7,3.1 6.8,3.1 5,5.8 5.4,10.3 4.2,10.3 4.5,13.5 6,14.9 		"/>
		<polygon class="st14" points="8.2,9.5 11.6,8.2 16.2,7.9 17.2,8.5 16.3,10.7 20.9,9.7 21.5,8.1 22.3,9.1 22.5,11.9 22.7,8.8 
			21.2,6.6 20.3,9.2 16.3,10.7 17.4,8.1 16.3,7.4 11.5,7.4 8,8.8 		"/>
		<polygon class="st16" points="17.3,25.4 17.4,25.7 17.4,26.2 17.3,26.5 17.7,26.2 17.7,25.6 		"/>
		<polygon class="st18" points="7.5,27.5 6.4,28.1 3.4,30.9 5.4,38.1 11.4,39.5 18.5,40.1 20.7,36.5 23,32.6 21.8,29.1 21,28.8 
			21,30.2 18.8,32.4 12.9,32.4 7.5,29.6 		"/>
		<polygon class="st8" points="6.4,28.1 8.3,33 15.5,38.5 21,32.7 21.8,29 23.7,29.7 24.9,29.7 23.7,39.8 21,43.8 6.8,43.8 
			4.7,40.1 2.8,29.1 4.2,29.1 		"/>
		<path class="st19" d="M7.5,26.4l-3.1,2L3,32.3c0,0,2.1,0,2.7,0c-0.2,0.5-1.6,3.1-1.6,3.1v1.9L8,36.5l7.4,2L8.3,33l-1.9-4.9
			l1.2-0.5v-1.2H7.5z"/>
		<rect x="6.8" y="43.8" class="st20" width="14.1" height="1.2"/>
		<path class="st21" d="M15.4,53.6"/>
		<polygon class="st5" points="21,45.1 13.3,46.6 15.4,53.2 14.9,59.4 17.9,58.9 19.9,55.4 		"/>
		<polygon class="st5" points="6.8,45.1 13.9,46.8 11.1,53.4 10.7,60.4 8.5,60.7 6.1,54.1 		"/>
		<polygon class="st22" points="19.2,53.6 19.3,54.8 18.9,55.8 18.1,56.6 17.3,56.4 16.9,55.6 17.3,54.1 18.2,53.2 		"/>
		<polygon class="st22" points="7,52.3 6.6,53.5 6.8,54.6 7.4,55.5 8.3,55.5 8.8,54.8 8.8,53.3 8.1,52.2 		"/>
		<g>
			<path class="st8" d="M10.8,58.7c-1.1,0.1-2,0-3.1,0c0.1,0.7,0.3,5,0.4,5.8c-0.8,0.1-1.5,0.1-2.4,0.2c-0.4,0.6-0.8,1.2-1.2,1.8
				c2.1-0.3,3.4-0.5,5-0.7c0,0.1,0,0.1,0,0.2c0.5,0,0.7,0,1.2-0.1c0-0.1,0-0.2,0-0.4C10.7,65.3,10.8,58.9,10.8,58.7z"/>
		</g>
		<polygon class="st23" points="7.5,27.5 7.8,29.4 12.9,32.1 18.6,32.1 20.7,30.1 21,28.8 21,30.2 18.8,32.4 12.9,32.4 7.5,29.6 
			7.4,28 7.5,27.9 		"/>
		<path class="st24" d="M13,43.5l-0.1,1.9h1.8l0.5-1.9H13z M13.3,45v-0.3l0.5-0.1l0.1-0.4h-0.6v-0.4h1.4L14.4,45H13.3z"/>
		<g>
			<g>
				<path class="st15" d="M12.2,15c0.9-0.4,1.9-0.3,2.8,0.1c0.2,0.1,0.5,0.1,0.6-0.2c0.1-0.2,0.1-0.5-0.2-0.6
					c-1.1-0.6-2.3-0.7-3.4-0.2c-0.2,0.1-0.4,0.3-0.3,0.5C11.7,14.9,12,15.1,12.2,15L12.2,15z"/>
			</g>
		</g>
		<g>
			<g>
				<path class="st15" d="M18.2,15c0.9-0.4,1.9-0.3,2.8,0.1c0.2,0.1,0.5,0.1,0.6-0.2c0.1-0.2,0.1-0.5-0.2-0.6
					c-1.1-0.6-2.3-0.7-3.4-0.2c-0.2,0.1-0.4,0.3-0.3,0.5C17.7,14.9,18,15.1,18.2,15L18.2,15z"/>
			</g>
		</g>
		<circle class="st13" cx="13.6" cy="16.5" r="2.2"/>
		<path class="st13" d="M13.3,14.4c0,0-0.7,0.1-1.7,0.5c-0.5,0.6-1,1.3-1,1.3l0.1,1.1l1.7,1.1L13.3,14.4z"/>
		<ellipse class="st25" cx="13.6" cy="16.5" rx="1.8" ry="1.8"/>
		<ellipse class="st26" cx="13.7" cy="16.5" rx="1.6" ry="1.6"/>
		<polygon class="st13" points="10.6,17.3 8.6,17.2 7.1,17.8 6.9,17.8 6.5,17.7 7,17.3 8.5,16.4 10.7,16.1 		"/>
		<g>
			<path class="st27" d="M14.5,15.3l-0.3,0.4c0.1,0.1,0.3,0.2,0.4,0.4l0.3-0.3C14.8,15.6,14.7,15.4,14.5,15.3z"/>
			<path class="st27" d="M13.6,15L13.6,15l-0.2,0.5l0,0c0.2,0,0.4,0,0.5,0.1l0.3-0.5C14,15,13.8,15,13.6,15z"/>
			<path class="st27" d="M14.8,16.4c0.1,0.2,0.1,0.3,0.1,0.5c0,0.1,0,0.2,0,0.3C15,17,15,16.8,15,16.5c0-0.1,0-0.2,0-0.3L14.8,16.4z
				"/>
		</g>
		<circle class="st13" cx="19.5" cy="16.5" r="2.2"/>
		<ellipse class="st25" cx="19.6" cy="16.5" rx="1.8" ry="1.8"/>
		<ellipse class="st26" cx="19.6" cy="16.5" rx="1.6" ry="1.6"/>
		<polygon class="st13" points="21.5,17.2 21.7,17.3 22.2,17.7 22.2,16.9 21.6,16.1 		"/>
		<g>
			<path class="st27" d="M20.4,15.3l-0.3,0.4c0.1,0.1,0.3,0.2,0.4,0.4l0.3-0.3C20.7,15.6,20.6,15.5,20.4,15.3z"/>
			<path class="st27" d="M19.5,15L19.5,15l-0.2,0.5l0,0c0.2,0,0.4,0,0.5,0.1l0.3-0.5C19.9,15.1,19.7,15,19.5,15z"/>
			<path class="st27" d="M20.7,16.5c0.1,0.2,0.1,0.3,0.1,0.5c0,0.1,0,0.2,0,0.3c0.1-0.2,0.2-0.5,0.2-0.8c0-0.1,0-0.2,0-0.3
				L20.7,16.5z"/>
		</g>
		<polygon class="st23" points="7.5,27.9 6.8,28.3 8.6,32.7 14.5,36.6 16.2,36.6 20.7,32.6 21.7,29.3 21,29 21,28.8 21.8,29.1 
			21,32.7 16.2,37.7 15.5,38.5 8.3,33 6.4,28.1 7.5,27.5 		"/>
		<polygon class="st8" points="22.7,39.4 24.9,29.7 26.2,31.4 27,38.5 		"/>
		<path class="st19" d="M21.1,28.2l1.8,0.7l1.9,4.5L21,32.7l0.9-3.6L21,28.8L21.1,28.2z"/>
		<polygon class="st19" points="22.3,32.9 23.4,37.2 16.6,37.8 12.8,41.3 21,32.7 		"/>
		<circle class="st27" cx="4.8" cy="36.6" r="0.1"/>
		<circle class="st27" cx="3.8" cy="31.9" r="0.1"/>
		<circle class="st27" cx="22.6" cy="36.8" r="0.1"/>
		<circle class="st27" cx="23.8" cy="32.8" r="0.1"/>
		<polygon class="st19" points="19.8,42.4 17.7,41.1 18.2,40.8 20,42 		"/>
		<polygon class="st28" points="4.5,10.5 5.4,10.7 6.9,12.2 7.9,15.3 4.7,12.6 		"/>
		<path class="st29" d="M4.7,10.7c0.1,0,0.6,0.2,0.6,0.2l0.9,0.9l-0.9-0.5l-0.6-0.1V10.7z"/>
		<polygon class="st28" points="5.4,5.6 7,3.7 9.4,3.7 11.1,5.6 11.4,6.6 10.6,6.1 8.6,5.8 5.4,6.6 		"/>
		<polygon class="st29" points="6,5.3 7,4 9,4 10.6,5.3 8.8,4.7 7.1,4.5 		"/>
		<polygon class="st28" points="10.2,3.4 11.7,6.3 11.6,5.2 14.3,3.3 18.6,3.3 18.5,7.1 16.8,10.2 19.9,9 22.1,3.1 19.3,0.2 
			12.5,0.8 		"/>
		<path class="st29" d="M12.8,1l6.4-0.5l2.5,2.7c0,0-1.7,4.9-1.6,4.7c0-0.2,0.8-4.5,0.8-4.5L19,1.2l-6,0.2l-2.2,1.8L12.8,1z"/>
		<path class="st28" d="M22.1,5.6H23l0.4,0.7l0.1,2.9l-0.4,0.7c0,0,0.1-1,0.1-1.1c0,0-0.2-1.3-0.5-2.3C22.4,6,22.1,5.6,22.1,5.6z"/>
		<polygon class="st29" points="22.5,5.8 22.9,5.8 23.3,6.4 23.3,7.1 23.1,6.4 		"/>
		<polygon class="st16" points="15.1,20.5 16.6,21.4 18.1,20.5 16.7,21 		"/>
		<g>
			<path class="st2" d="M9.7,47.9L9.7,47.9c-0.1,0-0.1,0.1-0.1,0.2c0,0.1,0,0.1,0,0.2h0.1c0-0.1,0-0.1,0-0.2
				C9.7,48.1,9.7,48,9.7,47.9z"/>
			<path class="st2" d="M9.3,48L9.3,48v0.2V48C9.4,48.1,9.3,48,9.3,48z"/>
			<path class="st2" d="M10.1,48c0,0,0,0.1-0.1,0.1v0.1C10,48.2,10,48.1,10.1,48L10.1,48z"/>
			<path class="st2" d="M9,47.9H8.9c0,0.1,0,0.1,0,0.2c0,0.1,0,0.1,0,0.2H9c0-0.1,0-0.1,0-0.2C8.9,48,9,48,9,47.9z"/>
			<path class="st2" d="M10.9,48.1L10.9,48.1c0,0.1,0,0.1,0,0.2C10.9,48.2,10.9,48.2,10.9,48.1L10.9,48.1z"/>
			<path class="st2" d="M10.6,48h-0.1c0,0.1,0,0.1,0,0.2c0,0.1,0,0.1,0,0.2h0.1c0-0.1,0-0.1,0-0.2C10.5,48.1,10.5,48,10.6,48z"/>
			<path class="st2" d="M8.2,47.9H8.1c0,0.1,0,0.1,0,0.2c0,0.1,0,0.1,0,0.2h0.1c0-0.1,0-0.1,0-0.2S8.2,48,8.2,47.9z"/>
			<path class="st2" d="M7.7,47.9C7.7,47.9,7.7,48,7.7,47.9l-0.1,0.2C7.6,48.1,7.6,48,7.7,47.9C7.8,48,7.8,48,7.7,47.9z"/>
			<path class="st2" d="M8.5,48L8.5,48c0,0.1,0,0.1,0,0.2C8.5,48.1,8.5,48.1,8.5,48L8.5,48z"/>
			<path class="st3" d="M9.7,47.9L9.7,47.9c0.2-0.1,0.3-0.3,0.4-0.3H10H9.5H9.4C9.5,47.7,9.6,47.8,9.7,47.9z"/>
			<path class="st3" d="M9.7,48.3L9.7,48.3c-0.2,0.1-0.3,0.3-0.4,0.3h0.1h0.5H10C9.9,48.5,9.8,48.4,9.7,48.3z"/>
			<path class="st3" d="M10.4,48h-0.2h-0.1v0.1c0,0,0,0.1-0.1,0.1l0.1,0.1h0.2c0-0.1,0-0.1,0-0.2C10.5,48.1,10.4,48,10.4,48z"/>
			<path class="st3" d="M9.3,48l-0.1-0.1H9C9,48,9,48,9,48.1c0,0.1,0,0.1,0,0.2h0.2c0,0,0.1,0,0.1-0.1v-0.1C9.3,48.1,9.3,48,9.3,48z
				"/>
			<path class="st4" d="M10.4,48h0.1c0.1-0.1,0.2-0.3,0.3-0.3h-0.1h-0.5h-0.1C10.3,47.7,10.4,47.8,10.4,48z"/>
			<path class="st4" d="M10.1,48L10,47.9H9.8c0,0.1,0,0.1,0,0.2c0,0.1,0,0.1,0,0.2H10h0.1v-0.1C10,48.1,10.1,48,10.1,48z"/>
			<path class="st4" d="M10.9,48.1L10.9,48.1c0,0.1,0,0.1,0,0.2c0,0.1,0.1,0.1,0.1,0.1h0.2c0-0.1,0-0.1,0-0.2c0-0.1,0-0.1,0-0.2
				L11,48C11,48,10.9,48,10.9,48.1z"/>
			<path class="st4" d="M10.6,48.3h-0.1c-0.1,0.2-0.2,0.3-0.4,0.3h0.1h0.5h0.1C10.7,48.6,10.6,48.4,10.6,48.3z"/>
			<path class="st3" d="M9.7,47.9h0.2c0,0,0.1,0,0.1,0.1h0.1h0.2c-0.1-0.2-0.2-0.3-0.3-0.3S9.8,47.8,9.7,47.9z"/>
			<path class="st4" d="M10.4,48.3h-0.2c0,0-0.1,0-0.1-0.1H10H9.8c0.1,0.2,0.2,0.3,0.3,0.3C10.2,48.6,10.4,48.4,10.4,48.3z"/>
			<path class="st4" d="M11.2,48.3H11c-0.1,0-0.1,0-0.1-0.1l-0.1,0.1h-0.2c0,0.1,0.2,0.3,0.3,0.3S11.1,48.5,11.2,48.3z"/>
			<path class="st4" d="M10.6,48h0.2c0.1,0,0.1,0,0.1,0.1L11,48h0.2c0-0.1-0.2-0.3-0.3-0.3C10.7,47.7,10.6,47.8,10.6,48z"/>
			<path class="st3" d="M8.1,47.9h0.1c0.1-0.1,0.2-0.3,0.3-0.3H8.4H7.9H7.8C7.9,47.6,8,47.7,8.1,47.9z"/>
			<path class="st3" d="M8.8,47.9H8.6c-0.1,0-0.1,0-0.1,0.1v0.1v0.1c0,0.1,0.1,0.1,0.1,0.1h0.2c0-0.1,0-0.1,0-0.2
				C8.9,48,8.9,48,8.8,47.9z"/>
			<path class="st3" d="M7.7,47.9L7.7,47.9l-0.3-0.1c0,0.1,0,0.1,0,0.2c0,0.1,0,0.1,0,0.2h0.2h0.1v-0.1C7.7,48,7.7,48,7.7,47.9z"/>
			<path class="st3" d="M8.2,48.2H8.1c-0.1,0.2-0.2,0.3-0.4,0.3h0.1h0.5h0.1C8.4,48.5,8.2,48.4,8.2,48.2z"/>
			<path class="st3" d="M7.4,47.9h0.2c0,0,0.1,0,0.1,0.1h0.1H8c-0.1-0.2-0.2-0.3-0.3-0.3C7.6,47.6,7.4,47.7,7.4,47.9z"/>
			<path class="st4" d="M8.5,48c0-0.1-0.1-0.1-0.1-0.1H8.2c0,0.1,0,0.1,0,0.2c0,0.1,0,0.1,0,0.2h0.2c0.1,0,0.1,0,0.1-0.1
				C8.5,48.1,8.5,48.1,8.5,48L8.5,48z"/>
			<path class="st4" d="M8.8,47.9h0.1c0.1-0.2,0.2-0.3,0.3-0.3H9.1H8.6H8.5C8.7,47.7,8.8,47.8,8.8,47.9z"/>
			<path class="st4" d="M9,48.3H8.9c-0.1,0.1-0.2,0.3-0.3,0.3h0.1h0.5h0.1C9.1,48.5,9,48.4,9,48.3z"/>
			<path class="st4" d="M9.7,47.9H9.5c0,0-0.1,0-0.1,0.1v0.1v0.1l0.1,0.1h0.2c0-0.1,0-0.1,0-0.2C9.7,48,9.7,48,9.7,47.9z"/>
			<path class="st4" d="M9.6,48.3H9.4c0,0-0.1,0-0.1-0.1l-0.1,0.1H9c0.1,0.2,0.2,0.3,0.3,0.3C9.5,48.5,9.6,48.4,9.6,48.3z"/>
			<path class="st3" d="M9,47.9h0.2c0,0,0.1,0,0.1,0.1l0.1-0.1h0.2c-0.1-0.2-0.2-0.3-0.3-0.3C9.2,47.7,9,47.8,9,47.9z"/>
			<path class="st3" d="M8.2,47.9h0.2c0.1,0,0.1,0,0.1,0.1l0.1-0.1h0.2c0-0.1-0.2-0.3-0.3-0.3C8.4,47.7,8.3,47.8,8.2,47.9z"/>
			<path class="st4" d="M8.8,48.2H8.6c-0.1,0-0.1,0-0.1-0.1l-0.1,0.1H8.2c0,0.1,0.2,0.3,0.3,0.3C8.7,48.5,8.8,48.4,8.8,48.2z"/>
			<path class="st2" d="M12.9,48L12.9,48c-0.1,0-0.1,0.1-0.1,0.2c0,0.1,0,0.1,0,0.2h0.1c0-0.1,0-0.1,0-0.2S12.9,48.1,12.9,48z"/>
			<path class="st2" d="M12.5,48.1L12.5,48.1v0.2V48.1C12.5,48.1,12.5,48.1,12.5,48.1z"/>
			<path class="st2" d="M13.2,48.1c0,0,0,0.1-0.1,0.1v0.1C13.1,48.3,13.1,48.2,13.2,48.1C13.3,48.2,13.3,48.1,13.2,48.1z"/>
			<path class="st2" d="M12.1,48H12c0,0.1,0,0.1,0,0.2c0,0.1,0,0.1,0,0.2h0.1c0-0.1,0-0.1,0-0.2S12.1,48.1,12.1,48z"/>
			<path class="st2" d="M11.3,48h-0.1c0,0.1,0,0.1,0,0.2c0,0.1,0,0.1,0,0.2h0.1c0-0.1,0-0.1,0-0.2S11.3,48,11.3,48z"/>
			<path class="st2" d="M10.9,48c0,0,0,0.1-0.1,0.1v0.1C10.8,48.2,10.8,48.1,10.9,48C10.9,48.1,10.9,48.1,10.9,48z"/>
			<path class="st2" d="M11.7,48.1C11.6,48.1,11.6,48.1,11.7,48.1c0,0.1,0,0.1,0,0.2C11.7,48.2,11.7,48.2,11.7,48.1L11.7,48.1z"/>
			<path class="st3" d="M12.8,48L12.8,48c0.2-0.1,0.3-0.3,0.4-0.3h-0.1h-0.5h-0.1C12.6,47.8,12.7,47.9,12.8,48z"/>
			<path class="st3" d="M12.9,48.4L12.9,48.4c-0.2,0.1-0.3,0.3-0.4,0.3h0.1h0.5h0.1C13.1,48.6,12.9,48.5,12.9,48.4z"/>
			<path class="st3" d="M13.6,48h-0.2h-0.1v0.1c0,0,0,0.1-0.1,0.1l0.1,0.1h0.2c0-0.1,0-0.1,0-0.2C13.6,48.2,13.6,48.1,13.6,48z"/>
			<path class="st3" d="M12.5,48.1L12.4,48h-0.2c0,0.1,0,0.1,0,0.2c0,0.1,0,0.1,0,0.2h0.2c0,0,0.1,0,0.1-0.1v-0.1
				C12.4,48.1,12.4,48.1,12.5,48.1z"/>
			<path class="st4" d="M13.6,48h0.1c0.1-0.1,0.2-0.3,0.3-0.3h-0.1h-0.5h-0.1C13.4,47.8,13.5,47.9,13.6,48z"/>
			<path class="st4" d="M13.2,48.1L13.1,48h-0.2c0,0.1,0,0.1,0,0.2c0,0.1,0,0.1,0,0.2h0.2h0.1v-0.1C13.2,48.2,13.2,48.1,13.2,48.1z"
				/>
			<path class="st4" d="M14,48.1C14,48.2,14,48.2,14,48.1c0,0.1,0,0.1,0,0.2c0,0.1,0.1,0.1,0.1,0.1h0.2c0-0.1,0-0.1,0-0.2
				c0-0.1,0-0.1,0-0.2h-0.2C14.1,48.1,14,48.1,14,48.1z"/>
			<path class="st4" d="M13.7,48.4h-0.1c-0.1,0.2-0.2,0.3-0.4,0.3h0.1h0.5h0.1C13.9,48.6,13.7,48.5,13.7,48.4z"/>
			<path class="st3" d="M12.9,48h0.2c0,0,0.1,0,0.1,0.1h0.1h0.2c-0.1-0.2-0.2-0.3-0.3-0.3C13.1,47.8,12.9,47.9,12.9,48z"/>
			<path class="st4" d="M13.6,48.4h-0.2c0,0-0.1,0-0.1-0.1h-0.1H13c0.1,0.2,0.2,0.3,0.3,0.3C13.4,48.6,13.5,48.5,13.6,48.4z"/>
			<path class="st4" d="M14.3,48.4h-0.2c-0.1,0-0.1,0-0.1-0.1l-0.1,0.1h-0.2c0,0.1,0.2,0.3,0.3,0.3C14.2,48.6,14.3,48.5,14.3,48.4z"
				/>
			<path class="st4" d="M13.7,48.1h0.2c0.1,0,0.1,0,0.1,0.1l0.1-0.1h0.2c0-0.1-0.2-0.3-0.3-0.3S13.8,47.9,13.7,48.1z"/>
			<path class="st3" d="M11.2,48h0.1c0.1-0.1,0.2-0.3,0.3-0.3h-0.1H11h-0.1C11,47.7,11.2,47.8,11.2,48z"/>
			<path class="st3" d="M12,48h-0.2c-0.1,0-0.1,0-0.1,0.1v0.1v0.1c0,0.1,0.1,0.1,0.1,0.1H12c0-0.1,0-0.1,0-0.2
				C12,48.1,12,48.1,12,48z"/>
			<path class="st3" d="M10.9,48l-0.1-0.1h-0.2c0,0.1,0,0.1,0,0.2c0,0.1,0,0.1,0,0.2h0.2h0.1v-0.1C10.8,48.1,10.8,48.1,10.9,48z"/>
			<path class="st3" d="M11.3,48.3h-0.1c-0.1,0.2-0.2,0.3-0.4,0.3h0.1h0.5h0.1C11.5,48.6,11.4,48.5,11.3,48.3z"/>
			<path class="st3" d="M10.5,48h0.2c0,0,0.1,0,0.1,0.1h0.1h0.2c-0.1-0.2-0.2-0.3-0.3-0.3C10.7,47.7,10.6,47.8,10.5,48z"/>
			<path class="st4" d="M11.7,48.1c0-0.1-0.1-0.1-0.1-0.1h-0.2c0,0.1,0,0.1,0,0.2c0,0.1,0,0.1,0,0.2h0.2c0.1,0,0.1,0,0.1-0.1
				C11.6,48.2,11.6,48.2,11.7,48.1C11.6,48.1,11.6,48.1,11.7,48.1z"/>
			<path class="st4" d="M12,48h0.1c0.1-0.2,0.2-0.3,0.3-0.3h-0.1h-0.5h-0.1C11.8,47.7,11.9,47.9,12,48z"/>
			<path class="st4" d="M12.1,48.3H12c-0.1,0.1-0.2,0.3-0.3,0.3h0.1h0.5h0.1C12.3,48.6,12.2,48.5,12.1,48.3z"/>
			<path class="st4" d="M12.8,48h-0.2c0,0-0.1,0-0.1,0.1v0.1v0.1l0.1,0.1h0.2c0-0.1,0-0.1,0-0.2C12.8,48.1,12.8,48.1,12.8,48z"/>
			<path class="st4" d="M12.8,48.4h-0.2c0,0-0.1,0-0.1-0.1l-0.1,0.1h-0.2c0.1,0.2,0.2,0.3,0.3,0.3C12.6,48.6,12.7,48.5,12.8,48.4z"
				/>
			<path class="st3" d="M12.1,48h0.2c0,0,0.1,0,0.1,0.1l0.1-0.1h0.2c-0.1-0.2-0.2-0.3-0.3-0.3S12.2,47.9,12.1,48z"/>
			<path class="st3" d="M11.3,48h0.2c0.1,0,0.1,0,0.1,0.1l0.1-0.1h0.2c0-0.1-0.2-0.3-0.3-0.3S11.4,47.8,11.3,48z"/>
			<path class="st4" d="M12,48.3h-0.2c-0.1,0-0.1,0-0.1-0.1l-0.1,0.1h-0.2c0,0.1,0.2,0.3,0.3,0.3S11.9,48.5,12,48.3z"/>
		</g>
		<g>
			<path class="st2" d="M16,48.1L16,48.1c-0.1,0-0.1,0.1-0.1,0.2c0,0.1,0,0.1,0,0.2H16c0-0.1,0-0.1,0-0.2C16,48.2,16,48.2,16,48.1z"
				/>
			<path class="st2" d="M15.6,48.2L15.6,48.2v0.2V48.2C15.6,48.2,15.6,48.2,15.6,48.2z"/>
			<path class="st2" d="M16.4,48.2c0,0,0,0.1-0.1,0.1v0.1C16.3,48.4,16.3,48.3,16.4,48.2C16.4,48.2,16.4,48.2,16.4,48.2z"/>
			<path class="st2" d="M15.3,48.1h-0.1c0,0.1,0,0.1,0,0.2c0,0.1,0,0.1,0,0.2h0.1c0-0.1,0-0.1,0-0.2C15.2,48.2,15.2,48.1,15.3,48.1z
				"/>
			<path class="st2" d="M17.2,48.2C17.2,48.3,17.1,48.3,17.2,48.2c0,0.1,0,0.1,0,0.2C17.2,48.4,17.2,48.3,17.2,48.2
				C17.2,48.3,17.2,48.3,17.2,48.2z"/>
			<path class="st2" d="M16.9,48.1h-0.1c0,0.1,0,0.1,0,0.2c0,0.1,0,0.1,0,0.2h0.1c0-0.1,0-0.1,0-0.2C16.8,48.2,16.8,48.2,16.9,48.1z
				"/>
			<path class="st2" d="M14.5,48.1h-0.1c0,0.1,0,0.1,0,0.2c0,0.1,0,0.1,0,0.2h0.1c0-0.1,0-0.1,0-0.2C14.5,48.2,14.5,48.1,14.5,48.1z
				"/>
			<path class="st2" d="M14,48.1c0,0,0,0.1-0.1,0.1v0.1C13.9,48.3,13.9,48.2,14,48.1C14.1,48.2,14,48.1,14,48.1z"/>
			<path class="st2" d="M14.8,48.2L14.8,48.2c0,0.1,0,0.1,0,0.2C14.8,48.3,14.8,48.3,14.8,48.2L14.8,48.2z"/>
			<path class="st3" d="M15.9,48.1L15.9,48.1c0.2-0.1,0.3-0.3,0.4-0.3h-0.1h-0.5h-0.1C15.8,47.8,15.9,48,15.9,48.1z"/>
			<path class="st3" d="M16,48.4L16,48.4c-0.2,0.1-0.3,0.3-0.4,0.3h0.1h0.5h0.1C16.2,48.7,16.1,48.6,16,48.4z"/>
			<path class="st3" d="M16.7,48.1h-0.2h-0.1v0.1c0,0,0,0.1-0.1,0.1l0.1,0.1h0.2c0-0.1,0-0.1,0-0.2C16.7,48.2,16.7,48.2,16.7,48.1z"
				/>
			<path class="st3" d="M15.6,48.2l-0.1-0.1h-0.2c0,0.1,0,0.1,0,0.2c0,0.1,0,0.1,0,0.2h0.2c0,0,0.1,0,0.1-0.1v-0.1
				C15.6,48.2,15.6,48.2,15.6,48.2z"/>
			<path class="st4" d="M16.7,48.1h0.1c0.1-0.1,0.2-0.3,0.3-0.3H17h-0.5h-0.1C16.5,47.9,16.7,48,16.7,48.1z"/>
			<path class="st4" d="M16.4,48.2l-0.1-0.1h-0.2c0,0.1,0,0.1,0,0.2c0,0.1,0,0.1,0,0.2h0.2h0.1v-0.1C16.3,48.2,16.3,48.2,16.4,48.2z
				"/>
			<path class="st4" d="M17.2,48.2C17.2,48.3,17.2,48.3,17.2,48.2c0,0.1,0,0.1,0,0.2c0,0.1,0.1,0.1,0.1,0.1h0.2c0-0.1,0-0.1,0-0.2
				c0-0.1,0-0.1,0-0.2h-0.2C17.2,48.1,17.2,48.2,17.2,48.2z"/>
			<path class="st4" d="M16.8,48.5h-0.1c-0.1,0.2-0.2,0.3-0.4,0.3h0.1h0.5H17C17,48.7,16.9,48.6,16.8,48.5z"/>
			<path class="st3" d="M16,48.1h0.2c0,0,0.1,0,0.1,0.1h0.1h0.2c-0.1-0.2-0.2-0.3-0.3-0.3C16.2,47.8,16.1,48,16,48.1z"/>
			<path class="st4" d="M16.7,48.5h-0.2c0,0-0.1,0-0.1-0.1h-0.1h-0.2c0.1,0.2,0.2,0.3,0.3,0.3C16.5,48.7,16.7,48.6,16.7,48.5z"/>
			<path class="st4" d="M17.5,48.5h-0.2c-0.1,0-0.1,0-0.1-0.1l-0.1,0.1h-0.2c0,0.1,0.2,0.3,0.3,0.3C17.3,48.7,17.4,48.6,17.5,48.5z"
				/>
			<path class="st4" d="M16.9,48.1h0.2c0.1,0,0.1,0,0.1,0.1l0.1-0.1h0.2c0-0.1-0.2-0.3-0.3-0.3C17,47.9,16.9,48,16.9,48.1z"/>
			<path class="st3" d="M14.4,48.1h0.1c0.1-0.1,0.2-0.3,0.3-0.3h-0.1h-0.5h-0.1C14.2,47.8,14.3,47.9,14.4,48.1z"/>
			<path class="st3" d="M15.1,48.1h-0.2c-0.1,0-0.1,0-0.1,0.1v0.1v0.1c0,0.1,0.1,0.1,0.1,0.1h0.2c0-0.1,0-0.1,0-0.2
				C15.2,48.2,15.1,48.1,15.1,48.1z"/>
			<path class="st3" d="M14,48.1L13.9,48h-0.2c0,0.1,0,0.1,0,0.2c0,0.1,0,0.1,0,0.2h0.2H14v-0.1C14,48.2,14,48.1,14,48.1z"/>
			<path class="st3" d="M14.5,48.4h-0.1c-0.1,0.2-0.2,0.3-0.4,0.3h0.1h0.5h0.1C14.6,48.7,14.5,48.5,14.5,48.4z"/>
			<path class="st3" d="M13.7,48.1h0.2c0,0,0.1,0,0.1,0.1h0.1h0.2c-0.1-0.2-0.2-0.3-0.3-0.3C13.9,47.8,13.7,47.9,13.7,48.1z"/>
			<path class="st4" d="M14.8,48.2c0-0.1-0.1-0.1-0.1-0.1h-0.2c0,0.1,0,0.1,0,0.2c0,0.1,0,0.1,0,0.2h0.2c0.1,0,0.1,0,0.1-0.1
				C14.8,48.3,14.8,48.3,14.8,48.2L14.8,48.2z"/>
			<path class="st4" d="M15.1,48.1h0.1c0.1-0.2,0.2-0.3,0.3-0.3h-0.1h-0.5h-0.1C15,47.8,15.1,47.9,15.1,48.1z"/>
			<path class="st4" d="M15.3,48.4h-0.1c-0.1,0.1-0.2,0.3-0.3,0.3H15h0.5h0.1C15.4,48.7,15.3,48.6,15.3,48.4z"/>
			<path class="st4" d="M15.9,48.1h-0.2c0,0-0.1,0-0.1,0.1v0.1v0.1l0.1,0.1h0.2c0-0.1,0-0.1,0-0.2C16,48.2,16,48.2,15.9,48.1z"/>
			<path class="st4" d="M15.9,48.4h-0.2c0,0-0.1,0-0.1-0.1l-0.1,0.1h-0.2c0.1,0.2,0.2,0.3,0.3,0.3S15.9,48.6,15.9,48.4z"/>
			<path class="st3" d="M15.3,48.1h0.2c0,0,0.1,0,0.1,0.1l0.1-0.1h0.2c-0.1-0.2-0.2-0.3-0.3-0.3S15.3,47.9,15.3,48.1z"/>
			<path class="st3" d="M14.5,48.1h0.2c0.1,0,0.1,0,0.1,0.1l0.1-0.1h0.2c0-0.1-0.2-0.3-0.3-0.3S14.5,47.9,14.5,48.1z"/>
			<path class="st4" d="M15.1,48.4h-0.2c-0.1,0-0.1,0-0.1-0.1l-0.1,0.1h-0.2c0,0.1,0.2,0.3,0.3,0.3C14.9,48.7,15.1,48.6,15.1,48.4z"
				/>
			<path class="st2" d="M19.2,48.2L19.2,48.2c-0.1,0-0.1,0.1-0.1,0.2c0,0.1,0,0.1,0,0.2h0.1c0-0.1,0-0.1,0-0.2
				C19.1,48.3,19.2,48.2,19.2,48.2z"/>
			<path class="st2" d="M18.7,48.2L18.7,48.2v0.2V48.2C18.8,48.3,18.8,48.3,18.7,48.2z"/>
			<path class="st2" d="M19.5,48.3c0,0,0,0.1-0.1,0.1v0.1C19.4,48.5,19.4,48.4,19.5,48.3C19.6,48.3,19.5,48.3,19.5,48.3z"/>
			<path class="st2" d="M18.4,48.2h-0.1c0,0.1,0,0.1,0,0.2c0,0.1,0,0.1,0,0.2h0.1c0-0.1,0-0.1,0-0.2S18.4,48.2,18.4,48.2z"/>
			<path class="st2" d="M17.6,48.2h-0.1c0,0.1,0,0.1,0,0.2c0,0.1,0,0.1,0,0.2h0.1c0-0.1,0-0.1,0-0.2S17.6,48.2,17.6,48.2z"/>
			<path class="st2" d="M17.2,48.2c0,0,0,0.1-0.1,0.1v0.1C17.1,48.4,17.1,48.3,17.2,48.2L17.2,48.2z"/>
			<path class="st2" d="M17.9,48.3L17.9,48.3c0,0.1,0,0.1,0,0.2C18,48.4,18,48.4,17.9,48.3C18,48.3,18,48.3,17.9,48.3z"/>
			<path class="st3" d="M19.1,48.2L19.1,48.2c0.2-0.1,0.3-0.3,0.4-0.3h-0.1h-0.5h-0.1C18.9,47.9,19,48,19.1,48.2z"/>
			<path class="st3" d="M19.2,48.5L19.2,48.5c-0.2,0.1-0.3,0.3-0.4,0.3h0.1h0.5h0.1C19.3,48.8,19.2,48.7,19.2,48.5z"/>
			<path class="st3" d="M19.9,48.2h-0.2h-0.1v0.1c0,0,0,0.1-0.1,0.1l0.1,0.1h0.2c0-0.1,0-0.1,0-0.2C19.9,48.3,19.9,48.3,19.9,48.2z"
				/>
			<path class="st3" d="M18.7,48.2l-0.1-0.1h-0.2c0,0.1,0,0.1,0,0.2c0,0.1,0,0.1,0,0.2h0.2c0,0,0.1,0,0.1-0.1v-0.1
				C18.7,48.3,18.7,48.3,18.7,48.2z"/>
			<path class="st4" d="M19.9,48.2H20c0.1-0.1,0.2-0.3,0.3-0.3h-0.1h-0.5h-0.1C19.7,47.9,19.8,48.1,19.9,48.2z"/>
			<path class="st4" d="M19.5,48.3l-0.1-0.1h-0.2c0,0.1,0,0.1,0,0.2c0,0.1,0,0.1,0,0.2h0.2h0.1v-0.1C19.5,48.3,19.5,48.3,19.5,48.3z
				"/>
			<path class="st4" d="M20.3,48.3C20.3,48.3,20.3,48.4,20.3,48.3c0,0.1,0,0.1,0,0.2c0,0.1,0.1,0.1,0.1,0.1h0.2c0-0.1,0-0.1,0-0.2
				c0-0.1,0-0.1,0-0.2h-0.2C20.4,48.2,20.3,48.3,20.3,48.3z"/>
			<path class="st4" d="M20,48.5h-0.1c-0.1,0.2-0.2,0.3-0.4,0.3h0.1h0.5h0.1C20.1,48.8,20,48.7,20,48.5z"/>
			<path class="st3" d="M19.2,48.2h0.2c0,0,0.1,0,0.1,0.1h0.1h0.2c-0.1-0.2-0.2-0.3-0.3-0.3C19.4,47.9,19.2,48,19.2,48.2z"/>
			<path class="st4" d="M19.8,48.5h-0.2c0,0-0.1,0-0.1-0.1h-0.1h-0.2c0.1,0.2,0.2,0.3,0.3,0.3C19.7,48.8,19.8,48.7,19.8,48.5z"/>
			<path class="st4" d="M20.6,48.6h-0.2c-0.1,0-0.1,0-0.1-0.1l-0.1,0.1H20c0,0.1,0.2,0.3,0.3,0.3C20.4,48.8,20.6,48.7,20.6,48.6z"/>
			<path class="st4" d="M20,48.2h0.2c0.1,0,0.1,0,0.1,0.1l0.1-0.1h0.2c0-0.1-0.2-0.3-0.3-0.3C20.2,48,20,48.1,20,48.2z"/>
			<path class="st3" d="M17.5,48.2h0.1c0.1-0.1,0.2-0.3,0.3-0.3h-0.1h-0.5h-0.1C17.3,47.9,17.4,48,17.5,48.2z"/>
			<path class="st3" d="M18.3,48.2h-0.2c-0.1,0-0.1,0-0.1,0.1v0.1v0.1c0,0.1,0.1,0.1,0.1,0.1h0.2c0-0.1,0-0.1,0-0.2
				C18.3,48.3,18.3,48.2,18.3,48.2z"/>
			<path class="st3" d="M17.2,48.2l-0.1-0.1h-0.2c0,0.1,0,0.1,0,0.2c0,0.1,0,0.1,0,0.2h0.2h0.1v-0.1C17.1,48.3,17.1,48.2,17.2,48.2z
				"/>
			<path class="st3" d="M17.6,48.5h-0.1c-0.1,0.2-0.2,0.3-0.4,0.3h0.1h0.5h0.1C17.8,48.7,17.7,48.6,17.6,48.5z"/>
			<path class="st3" d="M16.8,48.1H17c0,0,0.1,0,0.1,0.1h0.1h0.2c-0.1-0.2-0.2-0.3-0.3-0.3C17,47.9,16.9,48,16.8,48.1z"/>
			<path class="st4" d="M17.9,48.3c0-0.1-0.1-0.1-0.1-0.1h-0.2c0,0.1,0,0.1,0,0.2c0,0.1,0,0.1,0,0.2h0.2c0.1,0,0.1,0,0.1-0.1
				C17.9,48.4,17.9,48.4,17.9,48.3L17.9,48.3z"/>
			<path class="st4" d="M18.3,48.2h0.1c0.1-0.2,0.2-0.3,0.3-0.3h-0.1h-0.5H18C18.1,47.9,18.2,48,18.3,48.2z"/>
			<path class="st4" d="M18.4,48.5h-0.1c-0.1,0.1-0.2,0.3-0.3,0.3h0.1h0.5h0.1C18.6,48.8,18.4,48.7,18.4,48.5z"/>
			<path class="st4" d="M19.1,48.2h-0.2c0,0-0.1,0-0.1,0.1v0.1v0.1l0.1,0.1h0.2c0-0.1,0-0.1,0-0.2C19.1,48.3,19.1,48.2,19.1,48.2z"
				/>
			<path class="st4" d="M19.1,48.5h-0.2c0,0-0.1,0-0.1-0.1l-0.1,0.1h-0.2c0.1,0.2,0.2,0.3,0.3,0.3C18.9,48.8,19,48.7,19.1,48.5z"/>
			<path class="st3" d="M18.4,48.2h0.2c0,0,0.1,0,0.1,0.1l0.1-0.1H19c-0.1-0.2-0.2-0.3-0.3-0.3C18.6,47.9,18.5,48,18.4,48.2z"/>
			<path class="st3" d="M17.6,48.2h0.2c0.1,0,0.1,0,0.1,0.1l0.1-0.1h0.2c0-0.1-0.2-0.3-0.3-0.3C17.8,47.9,17.7,48,17.6,48.2z"/>
			<path class="st4" d="M18.3,48.5h-0.2c-0.1,0-0.1,0-0.1-0.1l-0.1,0.1h-0.2c0,0.1,0.2,0.3,0.3,0.3C18.1,48.8,18.2,48.6,18.3,48.5z"
				/>
		</g>
		<path class="st30" d="M19.9,48.6c0.1-0.1,0.2-0.2,0.2-0.3C20,48.3,20,48.4,19.9,48.6c-0.5,0.3-1-0.2-0.1-0.8
			c0.3-0.2,0.5-0.3,0.8-0.4c0.1,0,0.1,0,0.2-0.1c0.2-0.3,0.3-0.6,0.5-0.9l2.1,0.7c0,0.1-0.1,0.2-0.1,0.3c-0.1,0.2-0.2,0.4-0.3,0.6
			c-0.2,0.3-0.3,0.7-0.5,1c-0.5,0.8-0.7,0.9-0.9,0.9c-0.1,0-0.1-0.1-0.1-0.2C21.3,49.9,21.1,50,21,50s-0.2-0.2-0.1-0.5
			c-0.3,0.4-0.5,0.5-0.6,0.5c-0.2,0-0.2-0.2-0.1-0.6c-0.3,0.3-0.4,0.4-0.6,0.3C19.4,49.6,19.5,49.3,19.9,48.6z"/>
		<polygon class="st31" points="22.2,49.4 21.5,49.6 20.9,49.4 20.2,49.4 20.2,48.3 20.8,47.3 21.2,46.5 23,48 22.6,48.8 		"/>
		<polygon class="st30" points="22,48.4 21.7,48.8 20.9,48.5 21.2,47.9 		"/>
		<polygon class="st8" points="21,47 22.9,48.3 27,38.5 23.4,38.9 		"/>
		
			<ellipse transform="matrix(0.9984 -5.652387e-02 5.652387e-02 0.9984 -3.6061 1.3012)" class="st1" cx="21.2" cy="64.4" rx="0.5" ry="0.7"/>
		<ellipse transform="matrix(0.9984 -5.652387e-02 5.652387e-02 0.9984 -3.6063 1.2956)" cx="21.1" cy="64.4" rx="0.4" ry="0.7"/>
		
			<ellipse transform="matrix(0.9984 -5.652387e-02 5.652387e-02 0.9984 -3.5985 1.3801)" class="st1" cx="22.6" cy="64.3" rx="0.5" ry="0.7"/>
		<ellipse transform="matrix(0.9984 -5.652387e-02 5.652387e-02 0.9984 -3.5983 1.3801)" cx="22.6" cy="64.3" rx="0.4" ry="0.7"/>
		<polygon class="st1" points="21.8,65.2 21.8,65.5 21.8,65.6 22,65.6 22,65.3 		"/>
		<polygon class="st1" points="22.1,65.1 22.2,65.3 22.2,65.5 22.1,65.5 22.1,65.3 		"/>
		<polygon points="21.8,65.2 21.9,65.3 21.9,65.5 21.8,65.6 21.8,65.5 		"/>
		<polygon points="22.1,65.1 22.1,65.3 22.2,65.5 22.1,65.5 22.1,65.3 		"/>
		<polygon class="st9" points="21.6,66.2 21.5,66.2 21.4,66.3 21.5,66.3 21.6,66.3 		"/>
		<polygon class="st9" points="22.8,66.1 22.7,66.3 22.8,66.5 22.9,66.4 23,66.1 		"/>
		<path class="st4" d="M22.1,61.9c0-0.1,1.7-2,1.7-2l-1.2,2.2h-0.2L22.2,62L22.1,61.9z"/>
		<polygon class="st3" points="23.5,60.3 22.2,61.9 22.2,62 22.3,62.1 		"/>
		<path class="st4" d="M22.6,62.5c0.1-0.1,1.8-1.2,1.8-1.2l-1.5,1.5h-0.1l-0.2-0.1L22.6,62.5z"/>
		<polygon class="st3" points="24.2,61.5 22.7,62.5 22.7,62.6 22.7,62.6 		"/>
		<path class="st4" d="M23,63.2c0.1,0,2.1-0.4,2.1-0.4l-2,0.8H23v-0.2V63.2z"/>
		<polygon class="st3" points="24.8,62.9 23.1,63.3 23,63.4 23.1,63.4 		"/>
		<path class="st4" d="M20.4,62.1c0-0.1-1.5-1.6-1.5-1.6l1.1,1.8h0.2l0.2-0.1L20.4,62.1z"/>
		<polygon class="st3" points="19.1,60.8 20.3,62.1 20.3,62.2 20.2,62.2 		"/>
		<path class="st4" d="M21.8,63c0-0.1,1.5-1.6,1.5-1.6l-1.1,1.8H22l-0.2-0.1L21.8,63z"/>
		<polygon class="st3" points="23.1,61.7 21.9,63 21.9,63.1 22,63.1 		"/>
		<path class="st4" d="M21.2,62.4c0-0.1,0.6-2.1,0.6-2.1l-0.1,2.1l-0.1,0.1h-0.2L21.2,62.4z"/>
		<polygon class="st3" points="21.7,60.7 21.2,62.4 21.3,62.4 21.4,62.4 		"/>
		<path class="st4" d="M20,63.1c0-0.1-1.8-1.3-1.8-1.3l1.4,1.6h0.1l0.2-0.1L20,63.1z"/>
		<polygon class="st3" points="18.5,62.1 19.9,63.1 19.9,63.2 19.8,63.3 		"/>
		<path class="st4" d="M19.3,63.9c-0.1,0-2.2-0.2-2.2-0.2l2,0.7l0.1-0.1l0.1-0.2V63.9z"/>
		<polygon class="st3" points="17.5,63.8 19.2,64 19.3,64.1 19.3,64.1 		"/>
		<path class="st4" d="M19.7,62.4c0-0.1-1.3-1.4-1.3-1.4l0.9,1.6h0.1L19.7,62.4L19.7,62.4z"/>
		<polygon class="st3" points="18.6,61.2 19.6,62.4 19.6,62.4 19.5,62.5 		"/>
		<path class="st4" d="M19.3,63.1l-1.6-1l1.3,1.2h0.1l0.1-0.1L19.3,63.1z"/>
		<polygon class="st3" points="17.9,62.3 19.2,63.1 19.2,63.2 19.2,63.2 		"/>
		<g>
			<path class="st8" d="M14.9,58.9c1.1,0,2,0,3.1,0c-0.1,0.7-0.4,5-0.5,5.8c0.8,0.1,1.5,0.1,2.4,0.2c0.4,0.6,0.8,1.2,1.2,1.8
				c-2.1-0.3-3.4-0.5-5-0.7c0,0.1,0,0.1,0,0.2c-0.5,0-0.8-0.1-1.3-0.2c0-0.1,0-2.8,0-2.9C14.8,62.8,14.9,59.2,14.9,58.9z"/>
		</g>
		<polygon class="st20" points="7.5,46.6 5.7,45.9 5.8,43.1 7.5,42.8 		"/>
		<polygon class="st32" points="7.5,42.8 8.2,42.7 8.2,46.3 7.5,46.6 		"/>
		<path class="st32" d="M7.6,44c0,0-1.5,0-1.6,0C6.1,44,7.6,43.9,7.6,44L7.6,44z"/>
		<path class="st30" d="M7.8,48c-0.1-0.1-0.2-0.2-0.2-0.3C7.7,47.7,7.7,47.8,7.8,48c0.5,0.3,1-0.2,0.1-0.8c-0.3-0.2-0.5-0.3-0.8-0.4
			c-0.1,0-0.1,0-0.2-0.1c-0.2-0.3-0.3-0.6-0.5-0.9l-2.1,0.7c0,0.1,0.1,0.2,0.1,0.3c0.1,0.2,0.2,0.4,0.3,0.6c0.2,0.3,0.3,0.7,0.5,1
			c0.5,0.8,0.7,0.9,0.9,0.9c0.1,0,0.1-0.1,0.1-0.2c0.2,0.3,0.4,0.4,0.5,0.3c0.1,0,0.2-0.2,0.1-0.5c0.3,0.4,0.5,0.5,0.6,0.5
			c0.2,0,0.2-0.2,0.1-0.6c0.3,0.3,0.4,0.4,0.6,0.3C8.3,49,8.3,48.7,7.8,48z"/>
		<polygon class="st31" points="5.5,48.8 6.3,49.1 6.8,48.9 7.5,48.8 7.6,47.7 6.9,46.7 6.5,46 4.8,47.4 5.2,48.2 		"/>
		<polygon class="st8" points="6.8,46.4 4.8,47.7 0,38 4.4,38.3 		"/>
		<polygon class="st30" points="5.8,47.8 6,48.2 6.8,47.9 6.6,47.3 		"/>
		<rect x="8.9" y="42.7" class="st20" width="1.9" height="3.8"/>
		<polygon class="st32" points="10.8,42.7 11.1,43.2 11.1,46.2 10.8,46.5 		"/>
		<path class="st32" d="M10.9,44H9.3H10.9z"/>
		<polygon class="st32" points="8.9,43.8 8.9,45.1 8.7,45.1 8.8,43.8 		"/>
	</g>
	<g>
		<polygon class="st15" points="20.4,23.4 18.1,22.3 16.8,22.5 19.5,24.1 20,24.3 20.4,24 20.5,23.8 		"/>
		<polygon class="st33" points="20.3,23.5 20.4,23.7 20.3,23.9 20,24.2 19.7,24.1 19.6,23.9 19.6,23.7 19.8,23.6 20.1,23.5 		"/>
	</g>
	<polygon class="st34" points="7.2,17.5 8.6,16.8 10.7,16.7 10.6,16.3 8.6,16.5 7,17.4 	"/>
	<polygon class="st14" points="6.5,18.7 7,18.5 7.4,19.1 7.5,20.3 7.2,20.8 6.5,20.8 7.1,20.6 7.3,20.2 7,19.8 7,19.5 7.2,19.1 
		7,18.7 	"/>
</g>
</svg>
