<?xml version="1.0" encoding="utf-8"?>
<!-- Generator: Adobe Illustrator 25.0.1, SVG Export Plug-In . SVG Version: 6.00 Build 0)  -->
<svg version="1.1" id="Capa_3" xmlns="http://www.w3.org/2000/svg" xmlns:xlink="http://www.w3.org/1999/xlink" x="0px" y="0px"
	 viewBox="0 0 81.72 89.5" style="enable-background:new 0 0 81.72 89.5;" xml:space="preserve">
<style type="text/css">
	.st0{fill:#94A7D6;}
	.st1{fill:#838383;}
	.st2{fill:#352E29;}
	.st3{fill:#C3987A;}
	.st4{fill:#E0BDA5;}
	.st5{fill:#8A6752;}
	.st6{fill:#49271A;}
	.st7{fill:#DDAC8A;}
	.st8{opacity:0.21;fill:#694F3F;enable-background:new    ;}
	.st9{fill:#7B5938;}
	.st10{fill:#4F3D2E;}
	.st11{fill:#B58E73;}
	.st12{fill:#010202;}
	.st13{fill:#2C1C11;}
	.st14{fill:#FFD402;}
	.st15{fill:#7088B9;}
	.st16{fill:#71706F;}
	.st17{fill:#694F3F;}
	.st18{fill:#4D69A4;}
	.st19{fill:#56413A;}
	.st20{fill:#644940;}
	.st21{fill:#F7AF2A;}
	.st22{fill:#CA8631;}
	.st23{fill:#F5D39A;}
	.st24{opacity:0.13;fill:#010202;enable-background:new    ;}
</style>
<g>
	<polygon class="st0" points="43.57,72.78 33.15,72.78 35.2,58.86 35.87,58.55 43.13,58.59 	"/>
	<polygon class="st1" points="44.96,75.59 32.17,75.59 32.6,69.77 43.05,69.96 	"/>
	<polygon class="st1" points="35.44,84.25 31.73,84.25 32.19,71.18 38.08,72.06 	"/>
	<polygon class="st1" points="45.44,84 42.11,84 40.2,71.55 46.03,71.99 	"/>
	<path class="st2" d="M29.44,46.15c0.12,0.02,1.67,1.07,1.87,1.13c0.2,0.06,2.72,0.79,2.72,0.79l0.16-1.05l-2.1-0.47L29.44,46.15z"
		/>
	<polygon class="st3" points="37.99,43.6 44.98,45.34 47.47,44.37 48.18,47.7 48.27,57.28 43.15,58.57 42.68,59.78 39.61,63.59 
		35.87,59.61 34.85,53.26 33.85,52.84 33.15,50.24 33.54,49.38 33.88,49.1 34.28,49.09 35.23,50.96 36.49,50.76 35.48,45.63 	"/>
	<polygon class="st4" points="38.21,43.67 38.72,57.17 48.27,57.28 48.18,47.35 47.7,44.4 45.11,45.35 	"/>
	<polygon class="st5" points="48.27,57.28 45.22,57.24 44.95,57.77 43.16,57.61 42.81,57.21 38.72,57.17 36.39,55.8 38.37,58.94 
		42.68,59.78 43.15,58.57 	"/>
	<circle class="st6" cx="42.15" cy="49.51" r="0.29"/>
	<g>
		<g>
			<g>
				<path class="st6" d="M42,48.97c0.01,0,0.02-0.01,0.02-0.01c0.01,0-0.02,0.01,0,0c0,0,0.01,0,0.01,0
					c0.01-0.01,0.03-0.01,0.04-0.01c0.01,0,0.02-0.01,0.04-0.01c0.01,0,0.01,0,0.02,0c0,0,0.01,0,0.01,0c0.01,0-0.02,0-0.01,0
					c0.02,0,0.04,0,0.07,0c0.01,0-0.02,0-0.01,0c0,0,0.01,0,0.01,0c0,0,0.01,0,0.01,0c0.01,0,0.02,0.01,0.03,0.01
					c0.02,0.01-0.02-0.01,0,0c0,0,0.01,0,0.01,0.01c0.01,0.01,0.02,0.01,0.03,0.02c0,0,0.01,0.01,0.01,0.01c0.02,0.01-0.01-0.01,0,0
					c0.01,0.01,0.02,0.01,0.03,0.02c0.04,0.03,0.07,0.07,0.1,0.11c0.01,0.01,0.01,0.01,0.01,0.02c0,0,0,0.01,0.01,0.01
					c0.01,0.01-0.01-0.02,0,0c0.01,0.01,0.02,0.03,0.03,0.04c0.03,0.03,0.05,0.07,0.08,0.1c0.01,0.01,0.04,0.02,0.05,0.02
					c0.02,0,0.04-0.01,0.05-0.02c0.01-0.01,0.02-0.03,0.02-0.05c0-0.02-0.01-0.04-0.02-0.05c0.01,0.02,0,0,0,0
					c0,0-0.01-0.01-0.01-0.01c0-0.01-0.01-0.01-0.01-0.02c-0.01-0.01-0.02-0.03-0.03-0.04c-0.02-0.03-0.04-0.06-0.07-0.09
					c-0.03-0.04-0.07-0.08-0.11-0.12c-0.08-0.07-0.17-0.12-0.28-0.11c-0.08,0.01-0.15,0.03-0.22,0.06
					c-0.04,0.02-0.05,0.07-0.03,0.11C41.92,48.98,41.96,48.99,42,48.97L42,48.97z"/>
			</g>
		</g>
	</g>
	<circle class="st6" cx="45.72" cy="49.85" r="0.29"/>
	<g>
		<g>
			<path class="st6" d="M46.07,49.52c-0.1-0.05-0.22-0.08-0.33-0.08c-0.11,0-0.23,0.02-0.33,0.07c-0.02,0.01-0.03,0.03-0.04,0.05
				c-0.01,0.02,0,0.05,0.01,0.06c0.03,0.04,0.07,0.05,0.11,0.03c0,0,0.01,0,0.01-0.01c0.01,0-0.02,0.01,0,0
				c0.01,0,0.01-0.01,0.02-0.01c0.02-0.01,0.03-0.01,0.05-0.01c0.03-0.01,0.06-0.02,0.09-0.02c-0.01,0-0.01,0-0.02,0
				c0.06-0.01,0.12-0.01,0.18,0c-0.01,0-0.01,0-0.02,0c0.04,0,0.07,0.01,0.1,0.02c0.02,0.01,0.03,0.01,0.05,0.02c0,0,0.01,0,0.01,0
				c0,0,0,0,0.01,0c0,0-0.01,0-0.01,0c0.01,0,0.02,0.01,0.03,0.01c0.02,0.01,0.04,0.01,0.06,0.01c0.02-0.01,0.04-0.02,0.05-0.04
				C46.12,49.59,46.11,49.54,46.07,49.52L46.07,49.52z"/>
		</g>
	</g>
	
		<ellipse transform="matrix(0.0108 -0.9999 0.9999 0.0108 -10.9095 93.337)" class="st7" cx="41.72" cy="52.18" rx="0.6" ry="0.78"/>
	<ellipse transform="matrix(0.0108 -0.9999 0.9999 0.0108 -6.4739 97.919)" class="st7" cx="46.25" cy="52.23" rx="0.6" ry="0.78"/>
	<polygon class="st4" points="42.75,57.14 43.16,57.61 44.95,57.77 45.32,57.05 	"/>
	<path class="st8" d="M48.23,52.76c0,0-0.57,1.92-0.54,1.82c-0.63-0.42-2.46-1.55-2.46-1.55l-0.59,0l-0.34,0.36l-0.41-0.46
		l-0.59,0.02l-2.93,1.1l-0.23-1.21l-1.63-1.28l-1.97-0.95L35.51,51l0.88,4.8l2.33,1.37l4.09,0.05l0.35,0.4l1.78,0.15l0.27-0.53
		l3.06,0.03L48.23,52.76z M45.44,56.43l-0.32-0.91l-0.69-0.54l-0.62,0.03l-0.69,0.39l-0.46,0.83L41.91,56l-0.22-1.16l1.67-0.83
		l1.78,0.1c0,0,0.83,0.57,1.31,0.76c-0.02,0.06-0.46,1.3-0.46,1.3L45.44,56.43z"/>
	<g>
		<g>
			<g>
				<path class="st6" d="M44.98,54.39c-0.3,0.01-0.6,0.08-0.9,0.09c-0.08,0-0.16,0-0.24-0.01c0.01,0,0.03,0,0.04,0.01
					c-0.08-0.01-0.17-0.03-0.25-0.07c0.01,0.01,0.02,0.01,0.04,0.02c-0.06-0.03-0.12-0.06-0.18-0.11c0.01,0.01,0.02,0.02,0.03,0.02
					c-0.02-0.01-0.04-0.03-0.05-0.04c-0.03-0.03-0.07-0.04-0.11-0.04c-0.04,0-0.08,0.02-0.11,0.04c-0.03,0.03-0.05,0.07-0.04,0.11
					c0,0.04,0.01,0.08,0.04,0.11c0.05,0.04,0.1,0.09,0.16,0.12c0.05,0.03,0.11,0.06,0.17,0.08c0.11,0.04,0.23,0.06,0.34,0.07
					c0.22,0.01,0.45-0.02,0.67-0.05c0.13-0.02,0.26-0.03,0.38-0.04c0.04,0,0.08-0.02,0.11-0.04c0.03-0.03,0.05-0.07,0.04-0.11
					c0-0.04-0.01-0.08-0.04-0.11C45.06,54.41,45.02,54.39,44.98,54.39L44.98,54.39z"/>
			</g>
		</g>
	</g>
	<polygon class="st9" points="29.44,46.15 32.78,46.98 37.48,47.77 41.97,48.07 49.52,47.62 51.99,46.99 53.66,45.97 34.73,46.45 
		30.02,45.91 	"/>
	<polygon class="st9" points="37.95,36.75 34.9,39.03 34.31,46.4 38.03,46.98 48.01,46.9 48.36,44.84 47.87,43.34 47.51,39.77 
		44.75,36.7 41.38,37.2 	"/>
	<path class="st2" d="M34.43,43.8l-0.12,2.6l2.42-0.09c0,0,3.12-0.42,3.2-0.42c0.08,0,8.29,0.21,8.29,0.21l0.14-1.27l-0.42-1.34
		l-0.07-0.44l-5.54,0.25L34.43,43.8z"/>
	<polygon class="st10" points="33.96,49.09 34.01,47.19 36.49,47.6 36.6,49.77 36.38,52.22 35.73,52.24 35.23,51.01 34.28,49.09 	
		"/>
	<polygon class="st8" points="36.52,48.16 36.56,48.94 38.43,49.59 48.19,48.4 48.18,47.7 42.21,48.07 37.48,47.77 36.49,47.55 	"/>
	<polygon class="st11" points="43.77,48.53 43.57,53.03 45.23,53.03 44.55,48.68 	"/>
	<polygon class="st12" points="35.64,70.3 42.67,70.3 42.69,69.51 35.62,69.4 	"/>
	<polygon class="st13" points="45.58,84 47.3,84.39 48.6,85.41 48.6,86.12 42.24,85.75 42.04,84 	"/>
	<polygon class="st13" points="35.27,84.25 36.99,84.65 38.29,85.66 38.29,86.38 31.93,86.01 31.73,84.25 	"/>
	<rect x="38.62" y="69.32" class="st14" width="1.61" height="1.07"/>
	<polygon class="st15" points="39.61,63.59 42.12,62.21 42.56,61.97 41.74,69.5 42.21,69.51 42.93,60.99 41.9,61.92 	"/>
	<polygon class="st15" points="35.62,69.4 35.95,69.41 35.76,61.6 37.33,62.56 39.61,63.59 37.76,62.23 36.28,60.73 35.3,61.45 	"/>
	<polygon class="st16" points="32.02,76.03 36.06,76.03 36.06,70.3 35.64,70.3 35.62,75.59 32.02,75.59 	"/>
	<polygon class="st17" points="41.69,75.59 46.26,75.59 47.07,63.76 50.01,66.1 52.06,64.22 47.39,59.78 45.32,59.5 44.4,59.13 
		43.13,58.59 	"/>
	<polygon class="st18" points="39.63,63.59 41.9,61.92 43.44,60.53 45.05,61.69 44.4,59.13 43.13,58.59 42.68,59.78 	"/>
	<polygon class="st16" points="41.69,70.3 41.3,76.03 45.83,76.03 45.85,75.59 41.69,75.59 42.14,70.3 	"/>
	<path class="st16" d="M41.69,69.5"/>
	<path class="st16" d="M42.36,62.21"/>
	<polygon class="st19" points="42.84,61.97 43.64,61.11 45.05,61.69 43.44,60.53 42.93,60.99 	"/>
	<polygon class="st17" points="35.87,75.59 31.08,75.59 31.29,69.08 30.72,60.46 31.51,60.16 32.36,59.85 33.82,59.49 34.59,59.07 
		35.2,58.86 	"/>
	<polygon class="st20" points="29.53,63.96 31,62.8 32.02,62.8 33.15,62.98 33.91,63.63 34.26,65.21 33.82,66.24 33.97,67.19 
		33.07,67.98 32.68,67.9 32.17,68.22 32.02,69.07 31.52,69.77 28.57,66.1 	"/>
	<polygon class="st17" points="32.43,64.05 27.14,66.79 25.15,64.22 30.72,60.46 	"/>
	<path class="st21" d="M29.39,69.73c-0.06,0.08-0.08,0.23-0.18,0.25c-0.23,0.06-0.59-0.12-0.87-0.32c-0.22-0.16-0.48-0.42-0.55-0.62
		c-0.05-0.15,0.07-0.25,0.15-0.36c0.18-0.25,0.65-0.22,1.05,0.07C29.39,69.05,29.57,69.48,29.39,69.73z"/>
	
		<ellipse transform="matrix(0.585 -0.8111 0.8111 0.585 -44.4084 51.9612)" class="st22" cx="28.57" cy="69.37" rx="0.51" ry="0.42"/>
	<circle class="st21" cx="28.49" cy="69.21" r="0.03"/>
	<circle class="st21" cx="28.76" cy="69.37" r="0.03"/>
	<polygon class="st21" points="28.36,69.49 28.41,69.48 28.56,69.59 28.6,69.61 28.52,69.6 	"/>
	<path class="st21" d="M27.59,67.75c0,0,0.41-0.68,0.44-0.72c0.03-0.04,0.82-0.65,0.82-0.65l-1.02,0.5l-0.32,0.45L27.59,67.75z"/>
	<polygon class="st21" points="30.43,69.8 30.87,69.69 31.14,69.08 31.1,68.22 30.89,69.09 	"/>
	<polygon class="st22" points="28.6,65.8 29.33,64.52 30.11,63.57 30.99,62.95 32.12,62.88 33.18,63.48 33.74,64.23 33.82,65.31 
		33.46,66.26 32.85,67.22 31.81,68.01 28.68,66.16 	"/>
	<path class="st22" d="M29.1,65.53l-1.3,0.7l-0.33,0.46l-0.18,0.55l0.13,0.75l-0.11,0.15l-0.46,0.3c0,0,0.25,0.39,0.29,0.42
		c0.04,0.03,0.75,0.4,0.75,0.4l0.2-0.07l-0.11-0.34l0.7-0.14l0.36,0.15l0.26,0.4l-0.07,0.54l-0.13,0.18l0.21,0.32l0.3,0.16
		l0.48-0.11l0.26-0.36l0.86-0.23l0.22-0.31c0,0,0.44-1,0.47-1.05c0.02-0.05,0.04-0.68,0.04-0.68l-0.48,0.22l-0.67-0.01l-0.86-0.51
		l-0.71-0.72l-0.2-0.58L29.1,65.53z"/>
	<polygon class="st22" points="32.12,67.05 33.01,67.46 33.43,67.06 33.65,66.57 33.47,66.04 32.87,66.01 	"/>
	<polygon class="st22" points="29.71,65.31 29.04,64.6 29.29,64.07 29.68,63.71 30.24,63.71 30.46,64.27 	"/>
	<polygon class="st21" points="31.11,63.16 29.96,64.02 29.66,64.34 28.97,65.61 29.02,66.71 29.6,67.39 30.62,68.04 31.36,68.05 
		32.21,67.54 32.97,66.78 33.59,65.35 33.54,64.33 33.07,63.75 31.99,63.11 	"/>
	<polygon class="st22" points="31.71,66.06 30.77,65.39 30.9,65.21 31.18,65.19 31.94,64.36 32.16,64.51 31.7,65.54 31.81,65.82 	
		"/>
	<path class="st22" d="M29.88,66.28l-0.29-0.07c0,0-0.07-0.14-0.05-0.18c0.02-0.03,0.36-0.35,0.36-0.35l0.55-0.1l0.54,0.49
		l0.49,0.31l0.11,0.44l-0.26,0.5l-0.2,0l-0.3-0.35L29.88,66.28z"/>
	<polygon class="st21" points="31.57,66.56 30.23,65.58 29.91,65.82 31.41,66.9 	"/>
	<polygon class="st21" points="29.73,66.2 31.07,67.19 31.38,66.96 29.9,65.86 	"/>
	<circle class="st22" cx="31.52" cy="64.35" r="0.13"/>
	<circle class="st22" cx="32.3" cy="64.91" r="0.13"/>
	<path class="st4" d="M32.85,70.48c-0.09-0.06-0.18-0.11-0.26-0.17c0.06,0.01,0.12,0.03,0.18,0.05c0.47,0.17,0.59-0.43-0.16-0.59
		c-0.24-0.05-0.46-0.06-0.68-0.05c-0.05,0-0.1,0.01-0.15,0.02c-0.22-0.17-0.43-0.34-0.63-0.52l-1.14,1.28
		c0.06,0.05,0.11,0.11,0.17,0.17c0.13,0.12,0.27,0.24,0.4,0.36c0.23,0.19,0.45,0.39,0.69,0.57c0.58,0.45,0.77,0.5,0.89,0.37
		c0.04-0.04,0.05-0.09,0.03-0.16c0.25,0.15,0.37,0.15,0.45,0.06c0.08-0.08,0.04-0.23-0.14-0.42c0.35,0.24,0.49,0.25,0.59,0.15
		c0.08-0.09,0.04-0.24-0.16-0.45c0.28,0.14,0.41,0.13,0.48,0.03C33.54,71.05,33.37,70.8,32.85,70.48z"/>
	<polygon class="st17" points="31.8,69.74 30.22,70.87 25.17,65.07 25.15,64.22 27.11,62.89 	"/>
	<path class="st12" d="M31.51,60.16l3.87,3.2c0,0,11.08,7.31,11,7.31c0.01-0.28,0.05-0.73,0.05-0.73l-11.01-7.46l-3.06-2.62
		L31.51,60.16z"/>
	<polygon class="st18" points="39.61,63.59 37.76,62.23 36.28,60.73 34.19,62.27 34.59,59.07 35.71,58.62 	"/>
	<path class="st19" d="M35.11,62.21c0,0,0.16-0.11,0.21-0.16c0.01-0.01-0.02-0.6-0.02-0.6l-0.58,0.43L35.11,62.21z"/>
	<path class="st4" d="M44.73,70.24c0.09-0.06,0.17-0.12,0.25-0.19c-0.06,0.02-0.12,0.04-0.17,0.06c-0.46,0.21-0.62-0.38,0.12-0.6
		c0.23-0.07,0.46-0.1,0.68-0.09c0.05,0,0.1,0.01,0.15,0.01c0.21-0.18,0.41-0.37,0.59-0.56l1.23,1.2c-0.05,0.06-0.1,0.12-0.16,0.18
		c-0.12,0.13-0.25,0.26-0.38,0.39c-0.21,0.21-0.43,0.42-0.65,0.62c-0.55,0.49-0.73,0.55-0.86,0.43c-0.04-0.04-0.05-0.09-0.04-0.16
		c-0.24,0.17-0.36,0.17-0.45,0.09c-0.09-0.08-0.06-0.22,0.11-0.43c-0.33,0.27-0.48,0.29-0.58,0.19c-0.09-0.08-0.05-0.24,0.13-0.46
		c-0.27,0.16-0.4,0.15-0.48,0.06C44.09,70.85,44.24,70.6,44.73,70.24z"/>
	<polygon class="st17" points="45.73,69.4 47.17,70.59 52.57,66.32 52.68,64.79 51.65,63.82 49.3,65.53 	"/>
	<path class="st23" d="M29.89,62.7l1.08,0.37c0.04,0,0.09-0.02,0.11-0.06l0.43-1.18l-0.37,1.2c0,0.05,0.02,0.09,0.06,0.12l0.84,0.33
		l-0.88-0.25c-0.04,0-0.08,0.02-0.11,0.05l-0.5,1.24l0.43-1.25c0.01-0.05-0.02-0.09-0.06-0.12L29.89,62.7z"/>
	<path class="st23" d="M30.96,67.91l0.32,0.06c0.04,0,0.09-0.02,0.11-0.06l0.12-0.28l-0.05,0.3c0,0.05,0.02,0.09,0.06,0.12
		l0.19,0.11l-0.23-0.03c-0.04,0-0.08,0.02-0.11,0.05l-0.16,0.39l0.09-0.4c0.01-0.05-0.02-0.09-0.06-0.12L30.96,67.91z"/>
	<path class="st23" d="M30.17,65.77l-0.17,0.06c-0.02,0.01-0.04,0.03-0.04,0.06l0.02,0.17l-0.06-0.16
		c-0.01-0.02-0.04-0.04-0.07-0.04l-0.12,0l0.12-0.05c0.02-0.01,0.03-0.03,0.04-0.06l-0.04-0.24l0.07,0.23
		c0.01,0.03,0.04,0.04,0.06,0.04L30.17,65.77z"/>
	<path class="st23" d="M33.51,66.4l0.14,0.12c0.02,0.01,0.05,0.02,0.07,0.01l0.14-0.1l-0.11,0.13c-0.02,0.02-0.02,0.05,0,0.08
		l0.06,0.11l-0.1-0.08c-0.02-0.01-0.05-0.01-0.07,0l-0.19,0.15l0.16-0.17c0.02-0.02,0.02-0.05,0.01-0.08L33.51,66.4z"/>
	<polygon class="st22" points="30.38,65.79 30.35,65.79 30.18,66.02 30.22,66.05 	"/>
	<polygon class="st22" points="30.59,65.95 30.57,65.95 30.4,66.18 30.44,66.2 	"/>
	<polygon class="st22" points="30.8,66.1 30.77,66.1 30.61,66.33 30.64,66.35 	"/>
	<polygon class="st22" points="31,66.24 30.97,66.24 30.8,66.47 30.84,66.49 	"/>
	<polygon class="st22" points="31.19,66.38 31.16,66.38 31,66.61 31.03,66.63 	"/>
	<polygon class="st22" points="31.38,66.52 31.36,66.52 31.19,66.75 31.22,66.77 	"/>
	<polygon class="st22" points="30.19,66.08 30.16,66.05 30,66.31 30.02,66.32 	"/>
	<polygon class="st22" points="30.41,66.24 30.38,66.21 30.22,66.47 30.24,66.48 	"/>
	<polygon class="st22" points="30.62,66.38 30.59,66.36 30.43,66.61 30.44,66.63 	"/>
	<polygon class="st22" points="30.82,66.53 30.78,66.5 30.62,66.76 30.64,66.77 	"/>
	<polygon class="st22" points="31.01,66.66 30.97,66.64 30.82,66.89 30.83,66.91 	"/>
	<polygon class="st22" points="31.2,66.8 31.17,66.78 31.01,67.03 31.03,67.05 	"/>
</g>
<ellipse class="st24" cx="39.61" cy="86.12" rx="11.95" ry="0.8"/>
</svg>
