<?xml version="1.0" encoding="utf-8"?>
<!-- Generator: Adobe Illustrator 25.0.1, SVG Export Plug-In . SVG Version: 6.00 Build 0)  -->
<svg version="1.1" id="Capa_3" xmlns="http://www.w3.org/2000/svg" xmlns:xlink="http://www.w3.org/1999/xlink" x="0px" y="0px"
	 viewBox="0 0 81.7 89.5" style="enable-background:new 0 0 81.7 89.5;" xml:space="preserve">
<style type="text/css">
	.st0{opacity:0.13;fill:#010202;enable-background:new    ;}
	.st1{fill:#2A363F;}
	.st2{fill:#5D6E7D;}
	.st3{fill:#7E8C96;}
	.st4{fill:#405161;}
	.st5{fill:#020203;}
	.st6{fill:#C3987A;}
	.st7{fill:url(#SVGID_1_);}
	.st8{fill:url(#SVGID_2_);}
	.st9{fill:url(#SVGID_3_);}
	.st10{fill:#FFFFFF;}
	.st11{fill:#FEEB15;}
	.st12{fill:#29337B;}
	.st13{fill:#0561A8;}
	.st14{fill:#03A0C4;}
	.st15{fill:#10B5C4;}
	.st16{fill:#1D2A33;}
</style>
<ellipse class="st0" cx="39.7" cy="86.6" rx="11.8" ry="0.8"/>
<g>
	<polygon class="st1" points="37.8,81.5 37,79.1 37,78.6 33.7,78.7 33.7,79.4 32.9,82.1 33.9,82 34.1,84.4 32.2,84.9 31.2,86.4 
		35.7,85.8 35.7,85.9 36.8,86 36.8,85.6 36.8,84.9 36.8,84.1 36.8,83.6 36.9,81.6 	"/>
	<polygon class="st1" points="38.5,81.5 39.3,79.2 39.3,78.6 42.7,78.8 42.6,79.5 43.3,82.2 42.3,82.1 42.1,84.5 43.9,85 44.9,86.6 
		40.4,85.8 40.4,86 39.3,86 39.3,85.7 39.3,84.9 39.3,84.1 39.3,83.6 39.3,81.7 	"/>
	<path class="st2" d="M39.3,47c0,0-1.3-0.3-1.5-0.3c-0.1,0-0.9,0-1.8,0c-1.6,0.6-3.1,1.1-3.1,1.1l-2.1,2.9L30.7,53L30,54.2l0.9,4
		l1.8,0.8l0.7,0.8l0.4,0.2l1.1,0.6l1.2,0.2L37,61l1.4,1.6l1.3,0.1l1.1-1.2l1.3-2.5l0.3-1.8l-0.8,1.8l-0.6,1l-2.8,0.2l-1.5-1.4
		l-2.1-5.3l0.1-3.2l3.4-3.2L39.3,47z"/>
	<path class="st2" d="M32.5,62.5l-0.6,0.2l-2.7,4.8l0.1,0.8l3.3,3.4l1.1,1.6L32.1,84c0,0,5.4-0.4,5.5-0.4c0.1,0,2.4,0.2,2.4,0.2
		l3.4,0.3l0-10L42.9,72l-0.3-0.6l0.3-1.5l0-3.4l1.2,1.3l1,0.6l1.4,0.3l0.5,0.2l1.2,1l0.4-1.4l-0.1-1.6l-0.5-2.3l-2.3,0.2l-2.5-4.2
		l-0.8-0.1l-3,3l-0.4,0l-2.1-0.8L34.3,62L32.5,62.5z"/>
	<polygon class="st3" points="42.6,71.4 35.3,71.4 35.2,71 38.2,70.9 42.6,71 	"/>
	<polygon class="st4" points="42.9,67.4 42.9,69.9 42.6,71 38.2,70.9 35.3,71 35.1,70.3 35.1,69.2 35.3,69.4 35.5,70 36.1,70.4 
		37.7,70.6 40.8,70.7 42.4,70.6 42.6,69.9 42.8,67.3 	"/>
	<polygon class="st5" points="34.2,73.8 34.6,73.8 34.9,73.4 35.3,71.5 35.4,69.8 35.2,69.4 35,69.2 34.7,69.3 34.4,69.5 34.2,69.9 
		33.7,71.8 33.8,73.3 	"/>
	<polygon class="st4" points="42.9,66.4 44.1,67.7 45.1,68.4 46.6,68.7 45.1,68.1 44.1,67.5 43,65.9 42.8,63.5 42.7,66.2 42.8,67.3 
		42.9,67.4 	"/>
	<polygon class="st5" points="48.1,64.7 47.9,64.9 47.7,65.8 47.7,67 47.7,68.5 48,69.6 48.1,69.8 48.2,69.9 48.3,69.8 48.4,69.6 
		48.7,68.5 48.7,66.9 48.6,65.6 48.4,64.9 48.3,64.7 	"/>
	<polygon class="st4" points="37.4,64 34.5,63.6 33.1,62.4 33.7,62.2 34.7,63.3 	"/>
	<path class="st6" d="M50.1,64.7c-0.1,0-0.2,0-0.2,0c0,0,0.1,0,0.1-0.1c0.4-0.1,0.2-0.6-0.4-0.3c-0.2,0.1-0.3,0.2-0.5,0.3
		c0,0-0.1,0.1-0.1,0.1c-0.2,0-0.4,0-0.6,0l-0.2,1.4c0.1,0,0.1,0,0.2,0c0.1,0,0.3,0,0.4,0c0.2,0,0.5,0,0.7,0c0.6,0,0.7-0.1,0.8-0.3
		c0,0,0-0.1-0.1-0.1c0.2,0,0.3-0.1,0.3-0.2c0-0.1-0.1-0.2-0.3-0.2c0.3,0,0.4-0.1,0.5-0.2c0-0.1-0.1-0.2-0.3-0.2
		c0.2-0.1,0.3-0.1,0.3-0.2C50.8,64.7,50.6,64.7,50.1,64.7z"/>
	
		<linearGradient id="SVGID_1_" gradientUnits="userSpaceOnUse" x1="48.0094" y1="25.2273" x2="48.7619" y2="25.2273" gradientTransform="matrix(1 0 0 -1 0 90.8268)">
		<stop  offset="0" style="stop-color:#000000"/>
		<stop  offset="0.137" style="stop-color:#040303"/>
		<stop  offset="0.2804" style="stop-color:#110D0A"/>
		<stop  offset="0.4266" style="stop-color:#261D18"/>
		<stop  offset="0.5749" style="stop-color:#43342A"/>
		<stop  offset="0.7248" style="stop-color:#695242"/>
		<stop  offset="0.8737" style="stop-color:#96755E"/>
		<stop  offset="1" style="stop-color:#C3987A"/>
	</linearGradient>
	<polygon class="st7" points="48.1,64.9 48.8,64.9 48.7,66.3 48,66.3 	"/>
	<path class="st6" d="M36.8,69.9c-0.1,0-0.2,0-0.2-0.1C36.6,69.9,36.7,69.9,36.8,69.9c0.3-0.1,0.3-0.5-0.3-0.5
		c-0.2,0-0.4,0.1-0.6,0.1c0,0-0.1,0-0.1,0.1c-0.2-0.1-0.4-0.1-0.6-0.2l-0.7,1.2c0.1,0,0.1,0.1,0.2,0.1c0.1,0.1,0.3,0.1,0.4,0.2
		c0.2,0.1,0.4,0.2,0.7,0.2c0.6,0.2,0.7,0.2,0.8,0c0,0,0-0.1,0-0.1c0.2,0,0.3,0,0.4-0.1c0.1-0.1,0-0.2-0.2-0.3c0.3,0.1,0.5,0.1,0.5,0
		c0.1-0.1,0-0.2-0.2-0.3c0.3,0,0.4,0,0.4-0.1C37.5,70.2,37.3,70,36.8,69.9z"/>
	
		<linearGradient id="SVGID_2_" gradientUnits="userSpaceOnUse" x1="222.8641" y1="-203.5704" x2="223.6167" y2="-203.5704" gradientTransform="matrix(0.9322 0.362 0.362 -0.9322 -99.5157 -200.4585)">
		<stop  offset="0" style="stop-color:#000000"/>
		<stop  offset="0.137" style="stop-color:#040303"/>
		<stop  offset="0.2804" style="stop-color:#110D0A"/>
		<stop  offset="0.4266" style="stop-color:#261D18"/>
		<stop  offset="0.5749" style="stop-color:#43342A"/>
		<stop  offset="0.7248" style="stop-color:#695242"/>
		<stop  offset="0.8737" style="stop-color:#96755E"/>
		<stop  offset="1" style="stop-color:#C3987A"/>
	</linearGradient>
	<polygon class="st8" points="34.9,69.4 35.5,69.6 34.9,70.9 34.3,70.7 	"/>
	<polygon class="st4" points="49.5,66.4 48.7,82.1 48.6,83 48.7,85.2 48.5,86 48.1,86.6 48.7,86.5 48.8,86.5 49.4,86.6 49,86.3 
		49.2,86 49.1,85.6 49.1,83.9 49.1,82.9 49.1,81.5 49.4,75.2 49.8,70.5 50.7,59.3 50.9,58.4 50.9,55.8 51.5,51.5 50.3,51.5 
		49.6,52.1 49.7,53.2 49.8,55.5 50,58.6 49.9,60 	"/>
	
		<linearGradient id="SVGID_3_" gradientUnits="userSpaceOnUse" x1="50.3966" y1="39.9356" x2="50.8809" y2="35.8835" gradientTransform="matrix(1 0 0 -1 0 90.8268)">
		<stop  offset="2.510000e-02" style="stop-color:#FFFFFF"/>
		<stop  offset="0.2199" style="stop-color:#FFF49F"/>
		<stop  offset="0.3919" style="stop-color:#FEEB15"/>
		<stop  offset="0.4481" style="stop-color:#D1C549"/>
		<stop  offset="0.525" style="stop-color:#A19C5E"/>
		<stop  offset="0.6026" style="stop-color:#7D7F64"/>
		<stop  offset="0.68" style="stop-color:#616965"/>
		<stop  offset="0.757" style="stop-color:#4E5C63"/>
		<stop  offset="0.8334" style="stop-color:#445462"/>
		<stop  offset="0.9088" style="stop-color:#405161"/>
	</linearGradient>
	<path class="st9" d="M51.1,54.1c0,0-0.3,0.1-0.7,0.1c-0.3,0-0.5,0.1-0.6,0.1c0,0,0-1.1-0.1-1.4c0-0.4-0.1-0.9-0.1-0.9l0.7-0.6h1.2
		L51.1,54.1z"/>
	<g>
		<path class="st10" d="M50.3,51.7c0,0-0.1-0.1-0.1-0.1c0,0,0,0,0,0l-0.3,0.1l0.3-0.2c0,0,0.1-0.1,0.1-0.2l-0.2-0.5l0.3,0.5
			c0,0,0.1,0.1,0.1,0.1c0,0,0,0,0,0l0.4-0.1l-0.4,0.2C50.4,51.5,50.4,51.6,50.3,51.7l0.2,0.3L50.3,51.7z"/>
		<path class="st11" d="M49.9,50.8l0.3,0.5c0,0,0.1,0.1,0.2,0.1c0,0,0,0,0,0l0.4-0.1l-0.4,0.2c-0.1,0-0.1,0.1-0.1,0.2l0.1,0.4
			l-0.2-0.3c0,0-0.1-0.1-0.1-0.1c0,0,0,0,0,0l-0.3,0.1l0.3-0.2c0,0,0.1-0.1,0.1-0.2L49.9,50.8 M49.9,50.8l0.2,0.6
			c0,0.1,0,0.1-0.1,0.2l-0.3,0.2l0.3-0.1c0,0,0,0,0,0c0.1,0,0.1,0,0.1,0.1l0.2,0.4l-0.1-0.4c0-0.1,0-0.1,0.1-0.2l0.4-0.2l-0.4,0.1
			c0,0,0,0,0,0c-0.1,0-0.1,0-0.1-0.1L49.9,50.8L49.9,50.8z"/>
	</g>
	<polygon class="st5" points="39.3,47 38,47.1 36.1,48.3 35.1,50.1 34.7,53.4 36,57.9 36.8,58.6 37.5,59.6 38.3,60.1 38.9,60.1 
		39.2,60.5 39.7,60.7 40.2,60.5 40.5,60.1 41.1,59.9 41.8,59 42.5,57.1 42.8,54.6 42.8,51.7 42.2,49.3 40.7,47.7 	"/>
	<polygon class="st4" points="33.4,59.9 32.7,60.7 32.1,62.7 34.3,62 36.9,63.2 39.2,63.7 40.1,63.3 41.6,61.8 42.5,60.5 41.5,60 
		40.8,61.4 39.9,62.3 39.5,62.6 38.9,62.6 38.4,62.3 37,61 36.9,61 36.6,61 34.9,60.7 	"/>
	<g>
		<path class="st11" d="M47.9,52.8l3-1.2c0.1-0.1,0.1-0.2,0.1-0.3l-1.3-3.4l1.5,3.3c0.1,0.1,0.2,0.2,0.4,0.1l2.4-0.9l-2.4,1.1
			c-0.1,0.1-0.1,0.2-0.1,0.3l1.3,3.6L51.3,52c-0.1-0.1-0.2-0.2-0.4-0.1L47.9,52.8z"/>
	</g>
	<g>
		<circle class="st12" cx="41.2" cy="54.9" r="0.3"/>
		<circle class="st13" cx="41.2" cy="54.9" r="0.3"/>
		<circle class="st14" cx="41.2" cy="54.9" r="0.2"/>
		<circle class="st15" cx="41.2" cy="54.9" r="0.2"/>
	</g>
	<g>
		<circle class="st12" cx="38.3" cy="54.9" r="0.3"/>
		<circle class="st13" cx="38.3" cy="54.9" r="0.3"/>
		<circle class="st14" cx="38.3" cy="54.9" r="0.2"/>
		<circle class="st15" cx="38.3" cy="54.9" r="0.2"/>
	</g>
	<path class="st4" d="M37,61c0,0-0.8-0.5-0.8-0.5s-0.8-0.8-0.8-0.8l-0.1-1.4l-0.1,1.5l0.8,0.7l0.4,0.3L37,61z"/>
	<polygon class="st4" points="33.4,59.9 32.7,59.1 30.9,58.3 30.8,57.9 32.4,58.5 32.8,57 32.7,58.6 33.1,59.1 33.8,60.1 	"/>
	<polygon class="st4" points="35.4,50.5 34.8,50.7 34.3,51.4 34.2,53.5 34.5,54.9 34.1,53.5 34.2,51.4 34.6,50 36,48 38.1,46.9 
		39.3,47 40,47.4 38,47.6 36.4,48.8 	"/>
	<polygon class="st4" points="35,53.3 36,57.9 35.7,57.7 34.5,53.4 34.8,50.6 35.4,50.5 	"/>
	<path class="st4" d="M34.6,54.4l-0.3-0.9l0.2-2.4l0.2-0.3c0,0-0.3,2.7-0.3,2.7S34.6,54.4,34.6,54.4z"/>
	<path class="st4" d="M30.7,53l0,0.8l0.1,0.6c0,0,0.4,1,0.4,0.9c0,0-0.5-0.9-0.5-0.9l-0.2-0.6l-0.1-0.5L30.7,53z"/>
	<path class="st4" d="M37.9,71.4l0.1,0.3l-0.1,0.5c0,0-0.2,0.4-0.1,0.4c0,0,0.3-0.3,0.3-0.3l0.1-0.5v-0.3L37.9,71.4L37.9,71.4z"/>
	<path class="st4" d="M39.9,71.4L39.9,71.4h0.3l-0.1,0.1l0.1,0.3c0,0,0.1,0.1,0.1,0.2c0,0-0.3-0.2-0.3-0.2l-0.1-0.3l0,0.1l0.1,0.5
		c0,0,0.2,0.4,0.1,0.4c0,0-0.3-0.3-0.3-0.3l-0.1-0.5v-0.3L39.9,71.4L39.9,71.4z"/>
	<path class="st4" d="M36.4,48l-0.9,0.5l-0.7,0.6c0,0-0.9,1.1-0.9,1.1c0-0.1,0.7-1.2,0.7-1.2l0.5-0.6L36,48L36.4,48z"/>
	<polygon class="st4" points="33.2,67.8 35,69.2 35.1,69.4 35.1,69.2 	"/>
	<path class="st4" d="M45.7,64.6L45.7,64.6l0.1,0.2l-0.2,0L45.5,65c0,0-0.1,0.2-0.1,0.2c0,0,0-0.3,0-0.3l0.2-0.2l-0.1,0L45,65
		c0,0-0.3,0.4-0.3,0.3s0.1-0.4,0.1-0.4l0.4-0.4l0.2-0.2L45.7,64.6z"/>
	<path class="st4" d="M32.4,67.1L32.4,67.1l0.3,0.3l-0.3-0.1l-0.2,0.2c0,0-0.1,0.1-0.1,0.2c0,0,0-0.3,0-0.3l0.2-0.2l-0.1,0l-0.3,0.3
		c0,0-0.2,0.3-0.2,0.3c0,0,0.1-0.3,0.1-0.3l0.4-0.3l0.1-0.1l0-0.4l0.1,0.3L32.4,67.1z"/>
	<polygon class="st4" points="37.7,83.6 43.4,84 43.4,83.8 37.7,83.3 37.6,79 37.4,79.8 37.4,80.9 37,81.4 36.9,82.5 36.1,83.5 
		32.2,83.8 32.1,84 	"/>
	<path class="st4" d="M38,60.7c0,0.4-0.1,0.7-0.1,1.1c0.1,0.2,0.3,0.7,0.3,0.7l0.4,0.1l-0.5-0.8L38,60.7z"/>
	<path class="st4" d="M40.7,60.3c0,0.4,0.1,0.7,0.1,1.1c-0.1,0.2-0.3,0.7-0.3,0.7l-0.4,0.1l0.5-0.8L40.7,60.3z"/>
	<path class="st4" d="M47,68.9L47,68.7l0-0.2c0,0,0-0.1,0.1-0.3c-0.1,0.2-0.2,0.3-0.2,0.3l0,0.2l-0.1-0.3l-0.1-0.5c0,0,0-0.1,0-0.4
		c0,0.2-0.1,0.4-0.1,0.4l0,0.5l0.1,0.3L47,68.9z"/>
	<path class="st4" d="M37.7,71.4l0.1,0.2l0,0.4c0,0-0.1,0.4-0.1,0.3c0,0,0.2-0.3,0.2-0.3l0.1-0.5v-0.2H37.7z"/>
	<polygon class="st4" points="33.3,65.4 32.5,66.8 32.4,67.1 32.7,67.3 33.3,67.9 34.2,68.6 33.9,67.7 33.6,66.9 33.5,66 33.7,65.2 
			"/>
	<polygon class="st4" points="42.2,71.4 42.7,72.1 43.3,74.1 43.4,77.1 43.4,77.2 43.5,74.1 42.9,72 42.6,71.4 	"/>
	<polygon class="st16" points="40,47.4 40.7,48 42.4,50.1 42.8,52 42.7,54.4 42.7,55.4 42.6,56.3 42.6,55.4 42.5,54.4 42.6,52 
		42.1,50.1 39.7,47.4 	"/>
</g>
</svg>
