<?xml version="1.0" encoding="utf-8"?>
<!-- Generator: Adobe Illustrator 25.0.1, SVG Export Plug-In . SVG Version: 6.00 Build 0)  -->
<svg version="1.1" id="Capa_2" xmlns="http://www.w3.org/2000/svg" xmlns:xlink="http://www.w3.org/1999/xlink" x="0px" y="0px"
	 viewBox="0 0 81.72 89.5" style="enable-background:new 0 0 81.72 89.5;" xml:space="preserve">
<style type="text/css">
	.st0{opacity:0.13;fill:#010202;enable-background:new    ;}
	.st1{fill:#21264B;}
	.st2{fill:#EAB398;}
	.st3{fill:#F2C8B0;}
	.st4{fill:#C69181;}
	.st5{fill:#B25917;}
	.st6{fill:#DB875C;}
	.st7{fill:#49271A;}
	.st8{fill:#7C3B11;}
	.st9{fill:#4959A4;}
	.st10{fill:#1D1E26;}
	.st11{fill:#A4A498;}
	.st12{fill:#2A3C7C;}
	.st13{fill:#D1D0D1;}
	.st14{fill:#8D8C8D;}
	.st15{fill:#344172;}
</style>
<ellipse class="st0" cx="39.72" cy="86.1" rx="10.7" ry="0.72"/>
<g>
	<path class="st1" d="M38.66,71.68c-0.68,2.18-1.25,4.29-1.91,6.6c-0.3,1.44-1.01,5.27-1.23,6.6c-0.02,0-0.02,0.11-0.04,0.11
		c-0.63,0.04-0.58-0.07-1.17-0.03c0.03-2.21,0.11-5.61,0.07-7.89c0.11-2.01,0.7-5.33,0.81-7.54C36.46,70.08,37.46,71.01,38.66,71.68
		z"/>
</g>
<polygon class="st1" points="39.47,72.16 41.77,77.79 42.21,83.69 42.33,84.09 42.27,84.46 43.44,84.39 44.19,76.77 42.3,69.17 "/>
<polygon class="st1" points="42.78,73.65 36.02,74.06 35.19,69.45 42.29,69.02 "/>
<polygon class="st2" points="29.06,50.54 33.61,46.5 36.65,47.81 38.38,55.57 40.1,55.73 40.1,61.3 39.29,62.16 37.97,61.79 
	36.53,61.21 36.53,60.08 34.58,59.67 31.39,54.4 30.48,53.54 30.17,52.38 "/>
<path class="st3" d="M32.86,47.11c0,0,4.27,8.6,4.5,9.43c0.43-0.13,5.49-1.6,5.49-1.6l-1.67-9.92l-2.02,0.95l-5.56,0.52L32.86,47.11
	z"/>
<polygon class="st4" points="40.1,55.75 37.37,56.54 35.33,56.69 36.56,57.46 39.03,58.45 39.67,60.23 39.63,61.82 40.1,61.35 
	40.1,60.44 39.5,58.77 40.1,58.57 "/>
<polygon class="st4" points="31.54,54.35 32.86,53.28 32.2,55.65 "/>
<polygon class="st5" points="30.28,52.41 31.54,51.38 32.86,51.9 33.28,51.64 32.2,47.75 33.61,46.5 39.17,45.98 41.19,45.03 
	41.97,49.67 42.86,47.29 42.04,43.3 39.5,41.31 34.12,40.57 29.49,42.15 26.56,45.76 25.9,50.04 28.36,53.95 31.07,54.77 
	32.49,56.21 31.54,54.35 30.48,53.54 "/>
<polygon class="st6" points="38.4,49.18 38.98,51.74 39.04,52.03 39.44,51.94 40.19,51.75 38.92,49.18 "/>
<g>
	<g>
		<g>
			<path class="st7" d="M40.87,52.23c-0.05,0.05-0.11,0.09-0.16,0.14c0.01-0.01,0.03-0.02,0.04-0.03c-0.15,0.11-0.31,0.21-0.48,0.3
				c-0.05,0.02-0.09,0.04-0.14,0.07c0.02-0.01,0.03-0.01,0.05-0.02c-0.22,0.09-0.45,0.16-0.68,0.2c-0.07,0.01-0.13,0.02-0.2,0.03
				c0.02,0,0.04-0.01,0.06-0.01c-0.18,0.02-0.35,0.04-0.53,0.04c-0.18,0.01-0.36,0-0.54,0c-0.1,0-0.21-0.01-0.31-0.02
				c-0.03,0-0.06,0.01-0.08,0.02c-0.03,0.01-0.05,0.02-0.07,0.04c-0.04,0.04-0.06,0.1-0.06,0.15c0,0.05,0.02,0.11,0.06,0.15
				c0.01,0.01,0.03,0.02,0.04,0.03c0.03,0.02,0.07,0.03,0.11,0.03c0.22,0.01,0.43,0.02,0.65,0.02c0.21,0,0.42-0.01,0.64-0.03
				c0.22-0.03,0.44-0.06,0.66-0.12c0.22-0.06,0.43-0.14,0.62-0.24c0.21-0.11,0.4-0.24,0.57-0.39c0.02-0.02,0.04-0.04,0.06-0.05
				c0.02-0.02,0.04-0.04,0.04-0.07c0.01-0.03,0.02-0.05,0.02-0.08c0-0.05-0.02-0.11-0.06-0.15c-0.04-0.04-0.09-0.06-0.15-0.06
				c-0.02,0-0.04,0.01-0.06,0.01C40.93,52.18,40.9,52.2,40.87,52.23L40.87,52.23z"/>
		</g>
	</g>
</g>
<circle class="st7" cx="36.83" cy="49.56" r="0.29"/>
<circle class="st7" cx="40.19" cy="48.89" r="0.29"/>
<ellipse transform="matrix(0.9137 -0.4064 0.4064 0.9137 -17.6696 19.5194)" class="st6" cx="37.12" cy="51.36" rx="0.76" ry="0.58"/>
<ellipse transform="matrix(0.2743 -0.9616 0.9616 0.2743 -18.7476 76.067)" class="st6" cx="41.02" cy="50.45" rx="0.58" ry="0.76"/>
<polygon class="st4" points="32.29,52.49 31.28,52.49 30.96,52.81 31.62,52.81 32.29,52.98 "/>
<polygon class="st8" points="25.9,50.04 26.56,45.76 29.49,42.15 27.2,46.5 27.27,49.56 29.2,51.2 30.84,50.42 31.92,50.61 
	31.54,47.08 33.08,45.27 38.76,45.03 41.11,43.77 39.5,41.31 42.04,43.3 42.86,47.29 41.97,49.67 41.19,45.03 39.17,45.98 
	33.61,46.5 32.2,47.75 33.28,51.64 32.86,51.9 31.54,51.38 30.28,52.41 30.48,53.54 31.54,54.35 32.49,56.21 31.07,54.77 
	28.36,53.95 "/>
<polygon class="st9" points="33.61,59.46 36.53,60.08 36.53,61.21 37.97,61.79 39.5,70.89 38.99,73.04 34.38,73.99 31.91,61.79 
	33.61,60.84 33.27,59.46 "/>
<polygon class="st9" points="41.61,58.08 39.5,58.77 40.1,60.44 40.1,61.74 40.48,70.71 41.61,72.42 43.57,71.91 43.57,59.21 
	41.83,58.95 "/>
<polygon class="st10" points="39.5,70.89 40.48,70.71 40.48,69.9 39.37,70.14 "/>
<polygon class="st11" points="37.97,61.79 39.29,62.16 40.1,61.3 40.48,69.9 39.37,70.14 "/>
<polygon class="st10" points="38.41,64.44 40.23,64.38 40.32,66.32 38.72,66.32 "/>
<polygon class="st12" points="33.97,58.66 33.27,59.46 33.61,59.46 34.58,59.67 "/>
<polygon class="st12" points="41.61,58.08 40.1,57.58 40.1,58.57 "/>
<polygon class="st4" points="37.12,61.45 37.97,61.79 37.9,61.34 36.99,61.06 37.07,59.76 34.58,59.16 33.97,58.66 34.22,59.07 
	34.58,59.67 36.53,60.08 36.53,61.21 "/>
<path class="st3" d="M35.47,76.81c-0.05-0.09-0.09-0.18-0.13-0.28c0.04,0.05,0.08,0.09,0.12,0.14c0.3,0.4,0.74,0.04,0.19-0.52
	c-0.17-0.18-0.36-0.32-0.56-0.44c-0.04-0.03-0.09-0.05-0.14-0.07c-0.1-0.25-0.18-0.5-0.25-0.74l-1.69,0.25
	c0.02,0.07,0.03,0.15,0.05,0.22c0.04,0.16,0.09,0.33,0.14,0.49c0.08,0.27,0.17,0.54,0.27,0.81c0.24,0.67,0.38,0.81,0.55,0.79
	c0.06-0.01,0.09-0.04,0.12-0.1c0.13,0.26,0.23,0.32,0.35,0.31c0.12-0.01,0.16-0.14,0.12-0.39c0.16,0.38,0.28,0.47,0.42,0.46
	c0.12-0.01,0.17-0.15,0.12-0.41c0.16,0.27,0.27,0.33,0.4,0.31C35.74,77.62,35.73,77.34,35.47,76.81z"/>
<polygon class="st9" points="33.61,70.21 31.91,61.79 31.12,63.16 31.12,69.55 "/>
<polygon class="st9" points="34.91,75.4 33.22,76.13 31.12,69.55 34.17,68.93 "/>
<path class="st3" d="M42.87,73.19c0.05-0.09,0.09-0.18,0.13-0.28c-0.04,0.05-0.08,0.09-0.12,0.14c-0.3,0.4-0.74,0.04-0.19-0.52
	c0.17-0.18,0.36-0.32,0.56-0.44c0.04-0.03,0.09-0.05,0.14-0.07c0.1-0.25,0.18-0.5,0.25-0.74L45,71.54c0.02,0.16,0.08,0.45,0.11,0.71
	c-0.08,0.27-0.17,0.54-0.27,0.81c-0.24,0.67-0.38,0.81-0.55,0.79c-0.06-0.01-0.09-0.04-0.12-0.1c-0.13,0.26-0.23,0.32-0.35,0.31
	c-0.12-0.01-0.16-0.14-0.12-0.39c-0.16,0.38-0.28,0.47-0.42,0.46c-0.12-0.01-0.17-0.15-0.12-0.41c-0.16,0.27-0.27,0.33-0.4,0.31
	C42.6,74,42.6,73.73,42.87,73.19z"/>
<polygon class="st13" points="35.5,84.95 35.6,85.11 35.9,85.3 36.9,85.35 37.44,85.72 37.26,86.33 37.07,86.33 34.26,86.19 
	34.32,84.61 34.26,84.27 35.17,84.22 35.19,84.8 "/>
<polygon class="st14" points="35.64,84.22 35.89,84.32 36.01,84.54 35.6,85.11 35.5,84.95 "/>
<polygon class="st13" points="43.45,84.37 43.54,84.53 43.85,84.72 44.84,84.78 45.39,85.15 45.21,85.76 45.02,85.76 42.21,85.61 
	42.27,84.04 42.21,83.69 43.12,83.64 43.14,84.22 "/>
<polygon class="st14" points="43.51,83.68 43.83,83.74 43.96,83.96 43.54,84.53 43.45,84.37 "/>
<path class="st15" d="M35.33,73.79c0,0-0.17,0.04-0.58,0.19c-0.05-0.42-0.58-5.06-0.58-5.06L34.47,66l1.28,7.7L35.33,73.79z"/>
<polygon class="st15" points="35.12,64.69 37.03,64.16 37.03,64.59 34.96,65.08 "/>
<polygon class="st15" points="42.59,63.23 40.61,63.33 40.75,63.74 42.86,63.56 "/>
<g>
	<g>
		<path class="st7" d="M36.4,49.16c0.01-0.01,0.02-0.02,0.03-0.03c0.01-0.01,0.01-0.01,0.02-0.02c0,0,0.01,0,0.01-0.01
			c0,0,0.01-0.01,0,0c0.01-0.01,0.03-0.02,0.04-0.03c0.01-0.01,0.03-0.02,0.04-0.02c0,0,0.01,0,0.01,0c0,0,0,0,0.01,0
			c-0.01,0-0.01,0,0,0c0.01,0,0.01-0.01,0.02-0.01c0.01-0.01,0.03-0.01,0.04-0.01c0.01,0,0.02,0,0.02-0.01c0,0,0.01,0,0.01,0
			c0.01,0-0.01,0,0,0c0.02,0,0.03,0,0.05,0c0.03,0,0.05-0.02,0.05-0.05c0-0.03-0.02-0.05-0.05-0.05c-0.14,0-0.28,0.06-0.37,0.17
			c-0.02,0.02-0.02,0.05,0,0.07C36.35,49.18,36.38,49.19,36.4,49.16L36.4,49.16z"/>
	</g>
</g>
<g>
	<g>
		<path class="st7" d="M39.88,48.43c0.01-0.01,0.01-0.01,0.02-0.02c0.01-0.01-0.01,0.01,0,0c0,0,0.01,0,0.01-0.01
			c0.01-0.01,0.02-0.02,0.04-0.02c0.01,0,0.01-0.01,0.02-0.01c0,0,0,0,0,0c0,0,0,0,0,0c0,0,0.01,0,0.01,0
			c0.01-0.01,0.03-0.01,0.04-0.01c0.01,0,0.01,0,0.02,0c0,0,0.01,0,0.01,0c0.01,0-0.01,0,0,0c0.01,0,0.03,0,0.04,0
			c0.01,0,0.02,0,0.02,0c0,0,0.01,0,0.01,0c0,0,0.01,0,0,0c0.01,0,0.03,0.01,0.04,0.01c0.03,0.01,0.06-0.01,0.06-0.04
			c0.01-0.03-0.01-0.06-0.04-0.06c-0.14-0.04-0.29,0-0.39,0.1c-0.02,0.02-0.02,0.05,0,0.07C39.83,48.45,39.86,48.45,39.88,48.43
			L39.88,48.43z"/>
	</g>
</g>
<polygon class="st15" points="42.49,72.19 43.57,71.91 43.51,63.61 43.14,64.46 42.89,68.88 "/>
<polygon class="st9" points="43.38,71.97 45.15,72.47 45.73,66 43.45,65.52 "/>
<polygon class="st9" points="43.43,66.81 43.44,65.96 43.57,59.21 44.81,60.19 45.73,66 "/>
</svg>
