<?xml version="1.0" encoding="utf-8"?>
<!-- Generator: Adobe Illustrator 25.0.1, SVG Export Plug-In . SVG Version: 6.00 Build 0)  -->
<svg version="1.1" xmlns="http://www.w3.org/2000/svg" xmlns:xlink="http://www.w3.org/1999/xlink" x="0px" y="0px"
	 viewBox="0 0 81.72 89.5" style="enable-background:new 0 0 81.72 89.5;" xml:space="preserve">
<style type="text/css">
	.st0{opacity:0.13;fill:#010202;enable-background:new    ;}
	.st1{fill:#2B2B25;}
	.st2{fill:#2C1C11;}
	.st3{fill:#E0B608;}
	.st4{fill:#BA980A;}
	.st5{fill:#05A098;}
	.st6{fill:#841C1A;}
	.st7{fill:#A8AE61;}
	.st8{fill:#696969;}
	.st9{fill:#573C35;}
	.st10{fill:#352E29;}
	.st11{fill:#817837;}
	.st12{fill:#242518;}
	.st13{fill:#FFFFFF;}
	.st14{fill:#7B633B;}
	.st15{fill:#FDE4D9;}
	.st16{fill:#6A1414;}
	.st17{fill:#5E130F;}
	.st18{fill:#FFD402;}
	.st19{fill:#FCE1DC;}
	.st20{fill:#51231A;}
	.st21{fill:#272455;}
	.st22{fill:#C2C1C1;}
	.st23{fill:#563618;}
	.st24{fill:#F2C8B0;}
	.st25{fill:#C69181;}
	.st26{fill:#F49619;}
	.st27{fill:#49271A;}
	.st28{fill:#1C1C3A;}
	.st29{fill:#3A372B;}
	.st30{opacity:0.57;fill:#BCE1E9;enable-background:new    ;}
	.st31{opacity:0.88;fill:#BCE1E9;enable-background:new    ;}
	.st32{fill:#671412;}
	.st33{fill:#734428;}
	.st34{fill:#909091;}
	.st35{fill:#35130F;}
</style>
<g id="Capa_1">
	<ellipse class="st0" cx="37.05" cy="86.54" rx="24.9" ry="1.68"/>
	<polyline class="st1" points="32.85,9.38 33.12,11.26 32.88,12.01 31.14,8.8 	"/>
	<polyline class="st1" points="38.91,34.68 39.25,35.77 39.19,36.23 37.84,34.51 	"/>
	<g>
		<polygon class="st2" points="51.17,75.38 29.54,75.83 29.54,60.54 56.19,60.21 		"/>
		<polygon class="st2" points="56.53,68.04 46.6,68.39 48.86,83.07 51.23,83.58 54.29,76.76 		"/>
		<polygon class="st2" points="39.36,72.04 28.88,72.5 32.32,78.85 35.24,84.31 36.9,83.18 		"/>
		<polygon class="st1" points="16.7,37.96 5.73,29.72 5.75,28.67 18.59,36.31 		"/>
		<polygon class="st1" points="5.73,29.72 1.2,30.69 0.36,29.96 5.75,28.67 		"/>
		<polygon class="st1" points="18.56,40.41 8.74,38.41 8.43,37.71 19.29,38.72 		"/>
		<polygon class="st1" points="8.74,38.41 6.07,40.46 5.28,40.24 8.43,37.71 		"/>
		<polyline class="st1" points="6.35,40.12 6.98,41.06 7.05,41.53 5.28,40.24 		"/>
		<polygon class="st1" points="15.09,39.65 6.2,35.04 6.08,34.28 16.25,38.23 		"/>
		<polygon class="st1" points="6.2,35.04 3.06,36.28 2.36,35.86 6.08,34.28 		"/>
		<polygon class="st1" points="15.16,38.36 6.87,32.74 6.84,31.98 16.48,37.09 		"/>
		<polygon class="st1" points="6.87,32.74 3.61,33.62 2.96,33.11 6.84,31.98 		"/>
		<polyline class="st1" points="4,33.41 4.22,34.52 4.1,34.98 2.96,33.11 		"/>
		<polygon class="st1" points="10.46,28.09 6.95,27.58 6.54,26.83 10.75,27.34 		"/>
		<polyline class="st1" points="7.42,27.54 7.17,28.71 6.86,29.1 6.54,26.83 		"/>
		<polygon class="st1" points="16.13,36.95 10.46,28.09 10.75,27.34 17.94,36.27 		"/>
		<g>
			<polygon class="st3" points="18.09,36.09 17.29,36.18 17.65,33.37 17.96,33.34 			"/>
			<polygon class="st3" points="18,33.73 16.85,33.49 16.94,33.33 17.96,33.34 			"/>
			<polygon class="st3" points="17.02,33.52 16.15,33.93 15.89,33.27 17.01,33.34 			"/>
			<polygon class="st3" points="15.58,33.72 15.51,33.78 15.53,33.57 15.89,33.26 16.03,33.5 15.59,33.62 			"/>
			<polygon class="st3" points="15.78,33.81 15.71,33.87 15.73,33.66 16.09,33.35 16.17,33.56 15.79,33.71 			"/>
			<polygon class="st3" points="15.7,33.92 15.6,33.93 15.74,33.76 16.21,33.71 16.16,33.92 15.76,33.84 			"/>
		</g>
		<path class="st1" d="M21.47,29.97l-3.09,4.26l-4.8,2.32l0.26,1.63l2.99,1.66l1.95-0.51l2.84-1.22c0,0,0.96-3.73,1.27-3.81
			s0.14-3.33,0.14-3.33L21.47,29.97z"/>
		<polygon class="st3" points="23.27,28.5 23.27,29.83 19.46,29.24 18.61,29.59 19.16,28.99 19.76,28.84 		"/>
		<polygon class="st4" points="23.43,29.69 23,30.94 19.46,29.24 20.46,29.28 		"/>
		<polygon class="st5" points="76.22,47 72.68,46.01 72.17,43.38 72.15,41.36 74.54,40.62 75.5,39.05 74.13,35.97 76.36,33.26 
			76.14,35.96 78.05,37.99 78.97,41.31 78.63,43.42 78.11,46.1 		"/>
		<polygon class="st6" points="46.6,75.83 53.6,77.22 58.22,74.82 56.65,67.71 49.09,68.3 		"/>
		<polygon class="st6" points="26.59,75.48 34.06,79.19 41.19,76.37 40.92,67.52 28.69,67.52 		"/>
		<polygon class="st7" points="43.5,38.15 43.49,39.96 42.6,41.33 41.21,40.77 42.03,39.44 42.4,37.86 42.36,36.42 42.86,36.38 		
			"/>
		<polygon class="st7" points="76.1,53.88 73.66,53.67 74.2,49.31 76.78,49.31 		"/>
		<polygon class="st7" points="78.58,49.84 75.56,50.61 72.67,48.35 72.54,47.28 75.34,48.51 78.58,47.28 		"/>
		<polygon class="st7" points="73.97,49.47 72.67,48.35 72.56,47.23 74.23,45.99 74.75,46.49 73.66,47.28 73.66,47.97 74.75,48.25 
					"/>
		<polygon class="st7" points="79.39,45.82 79.29,47.63 78.34,48.95 76.98,48.33 77.86,47.03 78.29,45.47 78.33,44.04 78.83,44.02 
					"/>
		<polygon class="st7" points="80.23,46.17 80.13,47.98 79.19,49.3 77.83,48.68 78.7,47.38 79.14,45.82 79.18,44.39 79.68,44.37 		
			"/>
		<polygon class="st7" points="80.72,47.65 79.83,49.23 78.39,50 77.45,48.83 78.81,48.06 79.89,46.86 80.56,45.59 81.02,45.79 		
			"/>
		<polygon class="st6" points="76.46,61.41 65.31,38.93 56.53,49.12 71.17,64.57 		"/>
		<polygon class="st6" points="24.28,60.1 9.23,60.64 8.72,56.82 24.05,41.08 		"/>
		<polygon class="st6" points="29.11,69.04 56.53,68.04 65.31,38.93 53.56,36.4 18.89,40.38 		"/>
		<polygon class="st8" points="48.66,46.15 40.92,46.42 40.95,68.61 49.09,68.3 49.83,66.22 50.97,62.5 		"/>
		<polygon class="st9" points="10.07,41.29 18.38,43.19 29.37,42.05 58.03,31.66 65.9,23.78 59.4,19.28 55.11,8.35 46.16,1.37 
			37.28,0.74 24.71,7.34 21.6,20.35 23.35,28.66 20.34,37.46 16.58,39.79 11.28,40.1 		"/>
		<g>
			<path class="st10" d="M59.41,19.28l-4.3-10.93l-8.95-6.98l-8.88-0.63l-12.57,6.6L21.6,20.35l1.75,8.31l-3.01,8.8l-3.75,2.33
				l-5.31,0.32l-1.21,1.18l8.31,1.9l10.99-1.14l28.66-10.39l7.87-7.88L59.41,19.28z M57.4,30.19c0,0-28.16,10.34-28.51,10.41
				c-0.36,0.07-11.05,1.35-11.05,1.35l-5.35-0.96l4.88-0.57l4.76-2.53l2.67-9.3l-2.07-8.49l3.39-11.9l11.64-6.18l7.89,0.43
				l8.32,6.58l4.63,11.9l4.42,3.28L57.4,30.19z"/>
		</g>
		<path class="st7" d="M35.12,18.96l1.02,2.58l2.61,10.89h-1.3l-0.51,1c0,0,2.29,3.35,2.39,3.56c0.11,0.21,1.59,7.2,1.59,7.2
			l14.02-3.38l-1.78-9.24l0.43-2.28l-1.3-1.93l-1.05-7.27l-4.82-3.07l-4.26,2.07L35.12,18.96z"/>
		<polygon class="st11" points="32.7,41.63 40.92,44.2 39.33,37 36.93,33.43 37.44,32.44 38.75,32.44 36.14,21.55 35.12,18.96 
			34.41,18.59 31.84,23.56 32.38,31.4 30.93,31.4 29.01,32.12 29.49,34.68 30.56,36.02 31.79,36.24 		"/>
		<polygon class="st12" points="51.17,26.25 44.43,27.08 42.32,25.98 39.83,28.19 39.54,26.47 41.91,23.79 44.89,25.98 50.88,24.54 
					"/>
		<polygon class="st12" points="46.33,28.19 47.9,31.23 45.85,32.24 		"/>
		<path class="st11" d="M39.39,36.72l3.88-2.5l8.76-1.56l1.73,0.33l1.13,1.8l-0.73,1.14l-3.41-0.3l-10.03,2.43
			c0,0-1.61,2.33-1.49,2.04c0.13-0.3-0.78-1.57-0.74-1.71C38.54,38.25,39.39,36.72,39.39,36.72z"/>
		<path class="st12" d="M30.93,31.4h1.04c0,0,1.79,2.33,1.74,2.25c-0.05-0.08,0.51-4.46,0.51-4.46l-0.45-5.43l0.91-4.68L36.44,19
			l5.72,0.12l4.26-2.07l-10.65,0.81l-2.73,0.4l-2.11,3.15l-1.92,5.69l0.18,4.97L30.93,31.4z"/>
		<polygon class="st12" points="51.83,24.24 53.56,28.19 55.91,28.66 56.66,27.95 56.13,30.55 54.89,30.55 54.25,31.4 55.75,31.4 
			56.93,30.62 56.93,29.84 57.94,31.07 56.72,33.64 54.42,34.04 53.76,33 53.42,32.93 53.16,31.58 53.59,29.3 52.29,27.37 		"/>
		<path class="st12" d="M33.84,32.31c-0.01,0.08,2.53,2.69,2.83,2.8s1.39,0,1.39,0l0.75,0.05c0,0,4.06-2.29,4.2-2.32
			c0.13-0.03,2.03,0.13,2.03,0.13l-2.03,0.76l-2.49,1.78l-1.13,1.22l-0.9,1.67l0.74,1.71l0.61-0.78l0.61,2.77l4.33,0.58
			c0,0,2.63-1.31,2.67-1.39c0.04-0.08,2.58-0.78,2.5-0.8c-0.08-0.03,4.94,0.09,4.94,0.09l0.65,1.56l1.62,3.76l-2.22,3.85l-3.62,2.42
			l-5.82,0.71c0,0-14.29-5.42-14.36-5.77c-0.07-0.36-2.13-6.97-2.13-6.97l2.78-3.9l1.92-2.59l-0.36-0.46"/>
		<polygon class="st12" points="53.42,32.93 51.93,32.25 50.3,31.92 52,31.44 53.16,31.58 54.89,32.93 56.55,37.43 58.75,38.28 
			59.12,42.59 57.62,45.5 56.85,46.42 54.15,40.55 54.89,40.57 54,35.93 54.16,35.94 54.89,34.8 53.76,33 		"/>
		<polygon class="st12" points="29.21,33.18 28.33,33.64 27,33.41 26.3,31.01 27.76,31.58 29.67,30.55 29.67,31.58 29.67,31.87 
			29.01,32.12 		"/>
		<polygon class="st12" points="29.67,30.79 27.79,29.06 26.92,27.96 28.29,25.98 28.55,27.34 30.1,27.53 		"/>
		<polygon class="st12" points="46.42,17.04 51.56,19.41 51.24,20.1 		"/>
		<path class="st13" d="M41.3,27.83c0,0.84,0.68,1.53,1.53,1.53c0.84,0,1.53-0.68,1.53-1.53c0-0.17-0.03-0.33-0.08-0.48l-1.88-0.99
			C41.77,26.55,41.3,27.14,41.3,27.83z"/>
		<path class="st13" d="M47.06,27.06c-0.04,0.12-0.07,0.25-0.07,0.38c0,0.61,0.49,1.1,1.1,1.1s1.1-0.49,1.1-1.1
			c0-0.23-0.07-0.45-0.19-0.62L47.06,27.06z"/>
		<g>
			<path class="st14" d="M41.02,9.48l-1.34-1l-1.63-0.07L37.67,9l-0.51,1.68l0.43,0.68l1.09-0.12l0.39,0.16l0.64,0.95l0.13-0.01
				l-0.23-1.09l0.2,0.06l0.32,0.99l0.12-0.01l-0.26-1.01l0.24-0.06l0.2,1.05l0.11-0.01l-0.18-1.05l0.19-0.02l0.19,1.05l0.06-0.01
				l-0.17-1.05l0.11-0.01l0.28,1.04l0.08-0.01l-0.29-1.34l0.32-0.45L41.02,9.48z M39.46,10.8c-0.23,0.14-0.48,0.13-0.57-0.02
				c-0.09-0.14,0.03-0.37,0.26-0.51s0.48-0.13,0.57,0.02C39.8,10.44,39.69,10.66,39.46,10.8z M40.1,11.05L40,10.46l0.48,0.42
				L40.1,11.05z M41.01,10.55c-0.08,0.15-0.33,0.17-0.56,0.06c-0.24-0.12-0.37-0.34-0.29-0.49s0.33-0.17,0.56-0.06
				C40.95,10.18,41.08,10.4,41.01,10.55z"/>
			<path class="st14" d="M41.4,9.46l1.59-1.39c0.13,0.09,0.35,0.1,0.55,0.02c0.29-0.12,0.46-0.38,0.38-0.58
				c-0.07-0.17-0.28-0.25-0.51-0.21c-0.02-0.13-0.11-0.23-0.24-0.26C43,7.01,42.84,7.11,42.81,7.28c-0.02,0.1,0.01,0.19,0.08,0.26
				l-1.72,1.39l0.2,0.15L41.4,9.46z"/>
			<path class="st14" d="M38.46,11.57l-0.37,0.04l-2.45,1.98c-0.09-0.06-0.19-0.11-0.3-0.13c-0.36-0.07-0.69,0.08-0.74,0.34
				s0.19,0.54,0.54,0.61l0,0c-0.05,0.25,0.05,0.49,0.23,0.52c0.18,0.04,0.36-0.14,0.42-0.39l3.1-2.71l-0.09-0.14L38.46,11.57z"/>
			<path class="st14" d="M44.87,11.31c-0.15-0.22-0.52-0.23-0.82-0.02c-0.1,0.07-0.17,0.15-0.23,0.24l-2.5-0.69l-0.03,0.04
				l0.16,0.75l2.61,0.84c0.15,0.21,0.39,0.29,0.54,0.19s0.15-0.36,0-0.57l0,0C44.91,11.88,45.03,11.53,44.87,11.31z"/>
			<path class="st14" d="M35,8.61c0.03-0.09,0.02-0.19-0.04-0.27c-0.1-0.14-0.29-0.17-0.43-0.07c-0.11,0.08-0.15,0.21-0.12,0.33
				c-0.23,0.06-0.39,0.21-0.39,0.39c0.01,0.22,0.26,0.39,0.58,0.39c0.22-0.01,0.41-0.1,0.5-0.24l2.01,0.64l0.17-0.54L35,8.61z"/>
		</g>
		<path class="st15" d="M46.1,53.03l0.25,2.1c-0.15,0.06-0.28,0.23-0.33,0.44c-0.07,0.3,0.05,0.59,0.27,0.64
			c0.18,0.04,0.36-0.09,0.46-0.31c0.11,0.06,0.25,0.04,0.35-0.05c0.12-0.12,0.13-0.31,0.01-0.44c-0.07-0.07-0.17-0.1-0.26-0.09
			l-0.18-2.2l-0.24,0.08L46.1,53.03z"/>
		<path class="st15" d="M42.11,52.24l-0.2,0.22l-0.41,2.46c-0.08,0.01-0.17,0.04-0.25,0.08c-0.25,0.14-0.37,0.41-0.26,0.59
			c0.11,0.18,0.39,0.22,0.64,0.07l0,0c0.1,0.18,0.29,0.26,0.41,0.19c0.12-0.07,0.14-0.27,0.04-0.45l0.41-3.23l-0.13-0.03
			L42.11,52.24z"/>
		<path class="st15" d="M44.18,56.64c-0.17-0.21-0.07-0.56,0.21-0.79c0.09-0.07,0.19-0.12,0.29-0.15l0.02-2.59l0.05-0.02l0.67,0.36
			l0.09,2.74c0.16,0.2,0.17,0.45,0.04,0.57c-0.14,0.11-0.38,0.04-0.55-0.16l0,0C44.71,56.84,44.35,56.85,44.18,56.64z"/>
		<path class="st15" d="M43.17,55.04c-0.09,0-0.19,0.04-0.25,0.12c-0.1,0.14-0.08,0.33,0.06,0.43c0.11,0.08,0.25,0.08,0.35,0.01
			c0.12,0.2,0.32,0.31,0.49,0.25c0.21-0.07,0.3-0.37,0.19-0.67c-0.07-0.21-0.22-0.36-0.38-0.4v-2.11l-0.56,0.01L43.17,55.04z"/>
		<path class="st15" d="M47.5,55.78c-0.09,0-0.19,0.04-0.25,0.12c-0.1,0.14-0.08,0.33,0.06,0.43c0.11,0.08,0.25,0.08,0.35,0.01
			c0.12,0.2,0.32,0.31,0.49,0.25c0.21-0.07,0.3-0.37,0.19-0.67c-0.07-0.21-0.22-0.36-0.38-0.4v-2.11l-0.56,0.01L47.5,55.78z"/>
		<polygon class="st6" points="76.46,61.41 71.17,64.57 69.12,62.4 73.57,51.23 76.46,51.73 		"/>
		<polygon class="st16" points="71.79,55.68 72.51,53.88 70.01,57.34 68.6,57.21 66.5,55.16 68.21,59.02 69.76,59.36 69.56,61.29 
			70.2,59.68 		"/>
		<g>
			<polygon class="st17" points="77.34,50.98 78.21,54.04 72.14,52.42 73.41,49.85 			"/>
			<polygon class="st18" points="78.58,55.35 71.67,53.37 72.14,52.42 78.21,54.04 			"/>
		</g>
		<path class="st19" d="M38.76,81.5C38.76,81.5,38.77,81.45,38.76,81.5L38.76,81.5z"/>
		<polygon class="st20" points="47.77,83.38 48.51,81.39 48.51,80.92 52.22,81.37 51.91,82.06 52.52,83.58 51.23,83.58 50.92,84.37 
			52.43,84.6 53.28,85.51 49.48,85.13 49.48,85.28 48.59,85.28 48.59,84.98 48.59,84.33 48.59,83.83 48.59,83.4 48.51,83.49 		"/>
		<path class="st19" d="M38.27,83.6C38.27,83.6,38.28,83.55,38.27,83.6L38.27,83.6z"/>
		<circle class="st18" cx="39.55" cy="55.77" r="0.8"/>
		<circle class="st18" cx="39.88" cy="59.41" r="0.8"/>
		<circle class="st18" cx="39.88" cy="63.21" r="0.8"/>
		<g>
			<polyline class="st21" points="31.64,59.96 36.31,62.85 35.55,65.2 31.25,63.52 			"/>
			<polyline class="st21" points="33.53,69.62 37.05,63.18 35.07,62.12 32.47,68.8 			"/>
			<g>
				<polygon class="st17" points="31.68,69.12 32.32,67.64 34.35,70.15 32.98,70.78 				"/>
				<polygon class="st18" points="32.59,67.01 34.87,69.92 34.35,70.15 32.32,67.64 				"/>
			</g>
			<g>
				<path class="st2" d="M27.3,70.62c-0.95,2.22-1.61,4.57-2.7,6.73c-0.27,1.39-0.74,2.72-1.09,4.09c-0.71-0.17-1.39-0.39-2.12-0.54
					c0.36-1.86,0.27-2.88,0.55-4.96s0.95-5.21,1.24-7.5C24.6,69.09,25.95,69.84,27.3,70.62z"/>
			</g>
			<polygon class="st2" points="28.2,71.16 30.48,77.16 30.48,81.34 32.65,81.34 33.37,76.25 32.39,69.19 			"/>
			<rect x="24.05" y="68.08" class="st2" width="7.9" height="4.84"/>
			<polygon class="st13" points="24.05,59.84 29.37,59.1 30.32,59.25 31.07,65.47 31.24,68.43 24.05,68.25 			"/>
			<rect x="25.81" y="67.51" class="st17" width="5.06" height="1.46"/>
			<path class="st18" d="M27.63,67.33v1.84h2.03v-1.84H27.63z M29.37,68.87h-1.45v-0.49h0.38v-0.27h-0.38v-0.49h1.45V68.87z"/>
			<rect x="29.84" y="67.44" class="st18" width="0.33" height="1.62"/>
			<path class="st19" d="M38.87,81.84C38.87,81.84,38.88,81.8,38.87,81.84L38.87,81.84z"/>
			<polygon class="st17" points="29.71,81.83 30.42,79.92 30.42,79.46 33.11,79.63 33.05,80.21 33.6,82.4 32.83,82.29 32.63,84.2 
				34.11,84.66 34.93,85.9 31.28,85.31 31.28,85.45 30.42,85.45 30.42,85.17 30.42,84.54 30.42,83.92 30.42,83.51 30.42,81.94 			
				"/>
			<path class="st19" d="M38.39,83.7C38.39,83.7,38.4,83.65,38.39,83.7L38.39,83.7z"/>
			<polygon class="st21" points="29.51,59.1 30.47,63.21 30.24,77.99 33.63,78.68 32,60.13 31,59.38 			"/>
			<polygon class="st13" points="29.51,59.1 30.54,59.51 31.08,60.69 30.13,60.23 29.78,60.25 29.39,61.67 			"/>
			<polygon class="st17" points="29.78,60.25 29.99,60.24 30.87,63.06 30.93,78.13 30.24,77.99 30.47,63.21 			"/>
			<circle class="st18" cx="30.8" cy="63.04" r="0.32"/>
			<circle class="st18" cx="30.93" cy="64.47" r="0.32"/>
			<circle class="st18" cx="30.93" cy="65.97" r="0.32"/>
			<circle class="st18" cx="30.93" cy="67.55" r="0.32"/>
			<circle class="st18" cx="30.93" cy="69.13" r="0.32"/>
			<g>
				<path class="st17" d="M24.16,82.82c-0.12-0.62-0.25-1.24-0.33-1.87c0.03-0.15,0.07-0.3,0.1-0.46c-0.87-0.13-1.72-0.41-2.6-0.53
					c-0.02,0.19-0.05,0.38-0.07,0.56c-0.32,0.74-0.56,1.51-0.86,2.25c0.27,0.01,0.54,0.01,0.81,0.02c-0.02,0.7-0.23,1.38-0.22,2.09
					c-0.55,0.05-1.09,0.21-1.61,0.39c-0.29,0.42-0.57,0.85-0.87,1.27c1.2-0.16,2.42-0.38,3.57-0.79c0,0.05,0,0.1,0,0.14
					c0.28-0.04,0.56-0.07,0.84-0.04c0-0.12,0-0.14,0-0.28c-0.01-0.14,0.01-0.36,0.05-0.53c0.04-0.17,0.08-0.34,0.12-0.52
					s0.03-0.11,0.09-0.39s0.21-0.98,0.27-1.34C23.69,82.79,23.92,82.81,24.16,82.82z"/>
			</g>
			<polygon class="st22" points="26.27,60.92 26.84,61.46 26.35,61.57 			"/>
			<polygon class="st22" points="26.61,67.24 29.02,66.07 29.08,66.21 29.78,65.38 29.78,65.25 30.07,64.98 30.46,64.1 30.46,63.94 
				29.66,65.1 26.61,67.01 			"/>
			<polygon class="st23" points="26.13,66.36 28.76,65.37 29.71,64.36 30.47,63.21 30.5,63.91 30.01,64.9 29.1,65.95 26.13,67.3 			
				"/>
			<path class="st18" d="M29.18,64.71l-0.53,0.63l0.45,0.73l0.61-0.73L29.18,64.71z M29.05,65.65l0.13-0.13l-0.11-0.13l-0.13,0.15
				l-0.14-0.15l0.38-0.47l0.39,0.47l-0.39,0.44L29.05,65.65z"/>
			<polygon class="st21" points="25.91,58.34 26.61,63.46 26.61,77.51 21.57,79.13 21.57,60.06 24.54,58.01 			"/>
			<polygon class="st17" points="25.44,58.22 25.97,63.37 26.15,77.65 26.61,77.51 26.61,63.46 25.91,58.34 			"/>
			<polygon class="st13" points="27.3,61.67 24.05,58.34 22.84,58.8 23.41,61.1 24.16,60.14 25.68,60.49 			"/>
			<circle class="st18" cx="25.85" cy="62.73" r="0.32"/>
			<circle class="st18" cx="25.98" cy="64.16" r="0.32"/>
			<circle class="st18" cx="25.98" cy="65.66" r="0.32"/>
			<circle class="st18" cx="25.98" cy="67.24" r="0.32"/>
			<circle class="st18" cx="25.98" cy="68.82" r="0.32"/>
			<polygon class="st21" points="18.23,66.07 22.54,63.71 21.64,60 17.11,63.71 			"/>
			<polygon class="st21" points="21.98,69.45 20.97,70.46 16.37,64.16 18.32,62.76 			"/>
			<polygon class="st15" points="23.87,47.35 26.06,57.2 33.27,56.34 31.88,46.01 30.95,45.87 29.45,46.92 23.98,46.75 			"/>
			<polygon class="st24" points="23.98,46.75 26.27,57.04 33.37,56.06 29.51,57.78 29.51,59.53 29.28,63.71 24.05,58.34 
				22.65,54.41 22.18,54.41 20.97,52.75 21.2,51.85 22.03,51.53 23.77,52.61 24.05,52.28 22.3,48.81 			"/>
			<polygon class="st25" points="25.4,56.9 27.51,56.9 33.63,55.87 29.77,57.7 29.51,59.1 25.64,57.49 			"/>
			
				<ellipse transform="matrix(0.9137 -0.4064 0.4064 0.9137 -18.9682 15.888)" class="st26" cx="27.92" cy="52.6" rx="0.79" ry="0.6"/>
			
				<ellipse transform="matrix(0.2743 -0.9616 0.9616 0.2743 -26.9416 68.2762)" class="st26" cx="31.77" cy="51.99" rx="0.6" ry="0.79"/>
			<circle class="st27" cx="28.04" cy="50.44" r="0.29"/>
			<g>
				<g>
					<path class="st27" d="M27.62,50.06c0.01-0.01,0.02-0.02,0.03-0.03s0.01-0.01,0.02-0.02c0,0,0.01,0,0.01-0.01l0.01-0.01
						c0,0,0,0,0.01,0l0.01-0.01c0.01,0,0.01-0.01,0.02-0.01c0.01-0.01,0.03-0.02,0.04-0.02h0.01c0,0,0.01,0,0,0
						c0.01,0,0.01-0.01,0.02-0.01c0.01,0,0.03-0.01,0.04-0.01s0.02,0,0.02,0h0.01c0.01,0,0,0,0,0c0.02,0,0.03,0,0.05,0
						c0.03,0,0.05-0.02,0.05-0.05s-0.02-0.05-0.05-0.05c-0.14,0-0.28,0.06-0.37,0.17c-0.02,0.02-0.02,0.05,0,0.07
						C27.57,50.08,27.61,50.08,27.62,50.06L27.62,50.06z"/>
				</g>
			</g>
			<circle class="st27" cx="31.08" cy="50.07" r="0.29"/>
			<g>
				<g>
					<path class="st27" d="M31.16,49.44c0.01,0,0.03,0,0.04,0h0.01c0.01,0-0.01,0,0,0s0.01,0,0.02,0c0.01,0,0.03,0.01,0.04,0.01
						s0.01,0.01,0.02,0.01l0,0c0,0,0.01,0,0.01,0.01c0.01,0.01,0.02,0.01,0.04,0.02c0.01,0,0.01,0.01,0.02,0.01l0,0
						c0,0,0.01,0,0.01,0.01c0.01,0.01,0.02,0.02,0.03,0.03c0,0.01,0.01,0.01,0.01,0.02l0,0l0.01,0.01c0.02,0.02,0.05,0.03,0.07,0.02
						s0.03-0.05,0.02-0.07c-0.08-0.11-0.21-0.19-0.35-0.18c-0.03,0-0.05,0.02-0.05,0.05C31.11,49.41,31.13,49.44,31.16,49.44
						L31.16,49.44z"/>
				</g>
			</g>
			<g>
				<g>
					<path class="st27" d="M31.02,54.47c-0.28,0.21-0.66,0.26-0.99,0.14c-0.05-0.02-0.11,0.02-0.13,0.07
						c-0.02,0.06,0.02,0.11,0.07,0.13c0.38,0.13,0.82,0.08,1.14-0.16c0.04-0.03,0.07-0.09,0.04-0.14
						C31.13,54.46,31.06,54.44,31.02,54.47L31.02,54.47z"/>
				</g>
			</g>
			<polygon class="st18" points="30.37,53.92 28.62,54.07 28.33,54.78 26.6,54.97 24.05,52.28 24.77,55.87 25.38,56.9 27.58,57.75 
				31.08,57.75 33.11,56.78 33.61,55.87 32.92,53.69 32.6,54.29 31.66,53.65 30.65,53.87 31.69,53.88 31.94,54.43 32.53,55.87 
				31.51,56.22 30.79,55.87 30.54,56.12 29.79,56.47 28.62,56.43 28.62,55.87 29.13,54.33 			"/>
			<polygon class="st26" points="28.87,49.28 29.61,54.19 31.4,53.83 29.74,49.28 			"/>
			<polygon class="st18" points="24.19,52.56 24.28,53.41 22.99,52.18 21.97,51.62 21.2,51.85 20.97,52.75 22.18,54.41 22.65,54.41 
				23.07,55.58 23.04,56.55 20.07,53.89 18.43,49.76 18.69,47.53 19.36,45.39 20.97,43.51 23.56,42.33 26.08,42.39 27.9,41.77 
				29.52,41.75 30.92,42.47 32.03,43.77 32.5,45.23 32.53,47.5 32.3,49.15 31.79,46.2 30.95,45.87 29.45,46.92 25.34,46.79 
				23.48,48.37 22.83,49.78 			"/>
			<polygon class="st3" points="27.78,46.6 26.31,50.39 24.42,51.73 22.54,51.32 24.17,50.68 25.53,49.31 26.1,46.93 27.13,45.3 
				28.83,44.96 29.61,45.97 29.45,46.92 28.69,46.21 			"/>
			<polygon class="st18" points="21.26,54.43 20.97,55.87 19.86,56.95 17.91,57.2 19.91,57.75 20.62,57.64 21.27,56.83 21.12,57.75 
				19.86,58.27 21.41,58.34 22.31,57.2 22.31,58.14 23.42,56.56 22.88,55.05 			"/>
			<polygon class="st22" points="29.78,60.25 29.62,60.86 29.89,60.73 			"/>
			<path class="st28" d="M32.34,63.94c-0.01-0.15-0.1-1.09-0.1-1.09l2.72,1.47l-1.37,3.29l0.59,0.81l-0.2,0.36l-1.01-1.29l1.12-2.87
				L32.34,63.94z"/>
			<path class="st19" d="M24.14,70.25c-0.09-0.04-0.18-0.08-0.27-0.12c0.06,0.01,0.12,0.01,0.18,0.03c0.48,0.11,0.57-0.43-0.18-0.51
				c-0.24-0.02-0.47-0.01-0.69,0.02c-0.05,0.01-0.1,0.02-0.15,0.03c-0.23-0.13-0.45-0.26-0.65-0.4l-1.1,1.24
				c0.06,0.04,0.12,0.09,0.18,0.13c0.14,0.09,0.28,0.19,0.42,0.28c0.23,0.15,0.47,0.3,0.71,0.44c0.6,0.34,0.79,0.37,0.91,0.24
				c0.04-0.04,0.04-0.09,0.02-0.15c0.26,0.11,0.37,0.1,0.46,0.01c0.08-0.08,0.03-0.21-0.15-0.36c0.36,0.18,0.5,0.18,0.6,0.08
				c0.08-0.08,0.03-0.21-0.17-0.38c0.29,0.1,0.41,0.07,0.49-0.02C24.85,70.68,24.67,70.48,24.14,70.25z"/>
			<g>
				<polygon class="st17" points="23.03,69.68 22.4,68.2 20.36,70.71 21.74,71.34 				"/>
				<polygon class="st18" points="22.13,67.57 19.85,70.48 20.36,70.71 22.4,68.2 				"/>
			</g>
		</g>
		<g>
			<g>
				<polygon class="st7" points="19.69,59.35 19.25,61.62 14.95,60.76 15.21,58.2 				"/>
				<polygon class="st7" points="20.67,59.09 17.61,59.7 18.31,61.69 21.77,61.4 				"/>
				<polygon class="st7" points="23.12,62.37 22.26,60.78 20.83,59.99 19.87,61.15 21.22,61.93 22.29,63.16 22.94,64.44 
					23.39,64.24 				"/>
				<polygon class="st7" points="23.74,61.69 22.87,60.1 21.44,59.31 20.48,60.47 21.83,61.26 22.9,62.48 23.55,63.76 24.01,63.56 
									"/>
				<polygon class="st7" points="23.54,60.15 22.05,59.11 20.67,59.09 20.08,60.49 21.64,60.6 23.14,61.22 24.29,62.08 24.61,61.69 
									"/>
			</g>
			<polygon class="st7" points="19.62,59.29 21.14,58.49 22.22,58.81 22.75,60.82 22.1,61.11 21.77,59.81 21.13,59.55 20.47,60.46 
							"/>
		</g>
		<polygon class="st6" points="18.8,62.42 9.26,60.9 8.53,56.92 19.08,58.77 		"/>
		<g>
			<polygon class="st17" points="19.13,58.7 16.86,57.03 16.33,62.58 18.85,62.32 			"/>
			<polygon class="st18" points="15.88,56.31 15.38,62.68 16.33,62.58 16.86,57.03 			"/>
		</g>
		<circle class="st18" cx="50.93" cy="54.94" r="0.8"/>
		<circle class="st18" cx="51.72" cy="58.51" r="0.8"/>
		<circle class="st18" cx="52.2" cy="62.28" r="0.8"/>
		<path class="st29" d="M47.45,38.47c-0.29,0.06,0.38,3.49,0.38,3.49s-0.36,2.94-0.45,3.19s2.28,1.28,2.28,1.28l0.47,1.37l-2.6,1.11
			l0.55,1.83l1.35,0.87l-0.18-1.27l0.42-1.04l2.05-0.6l0.12-2.26l-0.9-1.39L49,44.25l1.14-2.27l-1.57-3.1L47.45,38.47z"/>
		<path class="st30" d="M76.2,46c0,0-2.45-0.36-2.42-0.41s-0.85-2.58-0.85-2.58l0.3-0.9l1.62-0.61l0.65-1.07l-0.9-0.8l1.03-1.91
			L75.1,36.5l0.46-1.47l1.11,2.52l-0.45,1.72l1.32,1.32L77.45,43l0.27,1.62L76.2,46z"/>
		<polygon class="st31" points="76.83,44.64 76.19,45.17 74.58,44.62 74.22,43.55 73.97,42.53 75.38,41.84 75.65,40.57 76.36,42.12 
			77.02,43.18 77.03,44.3 		"/>
		<g>
			<polygon class="st3" points="17.85,36.52 17.48,37.24 15.33,35.39 15.48,35.11 			"/>
			<polygon class="st3" points="15.82,35.3 14.99,36.12 14.91,35.97 15.48,35.11 			"/>
			<polygon class="st3" points="15.11,36.01 14.98,36.95 14.28,36.8 14.96,35.91 			"/>
			<polygon class="st3" points="14.49,37.31 14.5,37.41 14.33,37.27 14.28,36.8 14.55,36.82 14.41,37.25 			"/>
			<polygon class="st3" points="14.67,37.19 14.68,37.29 14.52,37.15 14.46,36.68 14.67,36.73 14.59,37.13 			"/>
			<polygon class="st3" points="14.72,37.33 14.67,37.41 14.61,37.2 14.82,36.78 14.98,36.94 14.68,37.23 			"/>
		</g>
		<path class="st15" d="M48.98,55.47c-0.09,0.02-0.18,0.07-0.22,0.16c-0.08,0.15-0.01,0.34,0.14,0.41c0.12,0.06,0.26,0.03,0.35-0.06
			c0.16,0.17,0.37,0.24,0.53,0.15c0.19-0.11,0.22-0.42,0.07-0.69c-0.11-0.19-0.29-0.31-0.45-0.32l-0.39-2.07l-0.55,0.11L48.98,55.47
			z"/>
		<path class="st32" d="M40.95,64.48c0,0,9.62-0.78,9.62-0.76c-0.01,0.02-1.94,5.88-1.94,5.88L41,70.07L40.95,64.48z"/>
		<polygon class="st33" points="40.93,65.71 50.35,64.8 49.03,68.73 40.97,69.28 		"/>
		<path class="st34" d="M42.65,65.03v4.46l4.3-0.35l0.82-4.42L42.65,65.03z M46.57,68.67l-3.36,0.27v-1.27l1.24-0.44l0.12-0.48
			l-1.36,0.15v-1.45l4-0.24L46.57,68.67z"/>
		<polygon class="st20" points="34.07,83.56 34.35,82.64 33.95,81.88 37.21,81.75 36.94,83.03 37.44,83.59 36.79,83.77 36.74,84.35 
			37.58,84.4 38.61,85.22 35.91,85.14 35.92,85.28 35.02,85.33 35.01,85.04 34.97,84.39 34.92,83.96 34.86,83.6 34.64,83.57 		"/>
		<path class="st35" d="M48.59,83.4c0,0,0,0.12,0,0.18c0.16,0.02,2.51,0.32,2.51,0.32l0.12-0.32L48.59,83.4z"/>
		<polygon class="st35" points="36.79,83.77 36.78,83.9 34.9,83.83 34.86,83.6 		"/>
	</g>
	<polygon class="st16" points="60.85,53.74 57.83,52.88 58.22,55.56 54.94,67.24 55.76,74.33 53.28,75.91 46.6,75.83 53.6,77.22 
		58.22,74.82 56.65,67.71 	"/>
</g>
<g id="Capa_2">
</g>
</svg>
