<?xml version="1.0" encoding="utf-8"?>
<!-- Generator: Adobe Illustrator 25.0.1, SVG Export Plug-In . SVG Version: 6.00 Build 0)  -->
<svg version="1.1" id="Capa_2_1_" xmlns="http://www.w3.org/2000/svg" xmlns:xlink="http://www.w3.org/1999/xlink" x="0px" y="0px"
	 viewBox="0 0 23.9 55.3" style="enable-background:new 0 0 23.9 55.3;" xml:space="preserve">
<style type="text/css">
	.st0{opacity:0.13;fill:#010202;enable-background:new    ;}
	.st1{fill:#2C1C11;}
	.st2{fill:#FFFFFF;}
	.st3{fill:#C1C1C1;}
	.st4{fill:#FBE0DB;}
	.st5{fill:#FCE3D8;}
	.st6{fill:#F1C7AF;}
	.st7{fill:#C59080;}
	.st8{fill:#F39519;}
	.st9{fill:#49271A;}
	.st10{fill:#FFD400;}
	.st11{fill:#E0B507;}
	.st12{fill:#0DB4C3;}
	.st13{fill:#D7D8D8;}
	.st14{opacity:0.11;}
</style>
<ellipse class="st0" cx="11.9" cy="54.2" rx="11.9" ry="1.1"/>
<g>
	<g>
		<path class="st1" d="M12.4,35.5c-1.2,2.7-2.2,5.4-3.3,8.3c-0.6,1.8-1.9,6.6-2.3,8.3c-1,0-0.9,0-1.7,0c0.2-2.8,0.6-7.1,0.8-10.1
			c0.3-2.6,1.5-6.7,1.8-9.6C9.3,33.3,10.7,34.5,12.4,35.5z"/>
	</g>
	<polygon class="st1" points="18.1,38.3 8.4,38.3 7.6,32.4 17.8,32.4 	"/>
	<polyline class="st2" points="17.7,22.4 23.4,25.9 22.5,28.8 17.2,26.8 	"/>
	<polygon class="st1" points="13.5,36.2 16.3,43.5 16.4,52.1 18.1,52.1 19.8,42.4 17.8,32.6 	"/>
	<polygon class="st2" points="8.4,22.2 14.9,21.3 16.1,21.5 17,29.2 17.2,32.8 8.4,32.6 	"/>
	<polygon class="st2" points="15.1,21.3 16.3,26.4 15.2,32.7 17.7,32.8 18,22.6 16.5,21.6 	"/>
	<polygon class="st3" points="15.2,21.4 16.4,21.9 17.1,23.4 15.9,22.9 15.5,23 14.9,25.3 14.9,24 	"/>
	<polygon class="st3" points="11.1,23.6 11.8,24.2 11.2,24.4 	"/>
	<polygon class="st2" points="11.8,24.2 11.5,26.7 8.4,32.6 7.6,32.4 5.3,22.5 9,20 	"/>
	<polygon class="st3" points="12.2,25.5 7.5,20.9 6.7,21.5 7.5,24.4 8.5,23.1 9.3,23.2 	"/>
	<polygon class="st2" points="7.2,26.8 5.7,22.4 5.4,22.7 5.3,22.5 0.2,27.5 1.8,30.3 2.1,30.1 2.2,30.2 	"/>
	<path class="st4" d="M8.6,35.3c-0.1-0.1-0.2-0.2-0.3-0.2c0.1,0,0.1,0.1,0.2,0.1c0.5,0.3,0.8-0.3,0-0.7c-0.3-0.1-0.5-0.2-0.8-0.2
		c-0.1,0-0.1,0-0.2,0c-0.2-0.2-0.3-0.3-0.5-0.5l-2.5-3.6c-0.7,0.6-1.2,0.9-1.8,1.5l3,3.7l0,0c0.2,0.3,0.5,0.5,0.7,0.7
		c0.6,0.6,0.8,0.7,1,0.6c0.1,0,0.1-0.1,0.1-0.2c0.3,0.2,0.4,0.2,0.5,0.2c0.1-0.1,0.1-0.2-0.1-0.5c0.4,0.3,0.5,0.4,0.7,0.3
		c0.1-0.1,0.1-0.2-0.1-0.5c0.3,0.2,0.5,0.2,0.6,0.1C9.2,36,9.1,35.7,8.6,35.3z"/>
	<path class="st2" d="M4.6,30.2l-2.7-4.1l-0.3,0.2l-0.1-0.1l-1.4,1.3L0.4,29l2.3,2.9C3.2,31.4,3.9,30.8,4.6,30.2z"/>
	<polygon class="st5" points="8.1,6.9 10.8,19 19.7,17.9 18,5.2 16.8,5.1 15,6.3 8.3,6.1 	"/>
	<polygon class="st6" points="8.3,6.1 11.1,18.8 19.7,17.9 15.1,19.7 15.1,21.9 14.8,27 8.4,20.4 6.6,15.6 6.1,15.6 4.6,13.5 
		4.9,12.4 5.9,12 8,13.3 8.4,12.9 6.2,8.7 	"/>
	<polygon class="st7" points="10,18.6 12.6,18.6 19.7,17.9 15.4,19.6 15.1,21.3 10.3,19.3 	"/>
	<ellipse transform="matrix(0.9137 -0.4064 0.4064 0.9137 -4.2895 6.4799)" class="st8" cx="13.1" cy="13.3" rx="1" ry="0.7"/>
	<ellipse transform="matrix(0.2743 -0.9617 0.9617 0.2743 0.8399 26.2751)" class="st8" cx="17.8" cy="12.6" rx="0.7" ry="1"/>
	<circle class="st9" cx="13.3" cy="10.7" r="0.4"/>
	<g>
		<g>
			<path class="st9" d="M12.6,10.5C12.6,10.5,12.6,10.5,12.6,10.5C12.6,10.5,12.6,10.5,12.6,10.5C12.6,10.5,12.6,10.5,12.6,10.5
				C12.6,10.5,12.6,10.4,12.6,10.5c0-0.1,0-0.1,0-0.1c0,0,0,0,0,0c0,0,0,0,0,0c0,0,0,0,0,0c0,0,0,0,0,0c0,0,0,0,0,0c0,0,0,0,0,0
				c0,0,0,0,0,0c0,0,0,0,0,0c0,0,0,0,0,0c0,0,0,0,0,0c0,0,0,0,0,0c0,0,0-0.1,0-0.1c0,0-0.1,0-0.1,0c-0.1,0.1-0.2,0.3-0.3,0.4
				C12.5,10.5,12.5,10.6,12.6,10.5C12.6,10.6,12.6,10.6,12.6,10.5L12.6,10.5z"/>
		</g>
	</g>
	<circle class="st9" cx="17" cy="10.2" r="0.4"/>
	<g>
		<g>
			<path class="st9" d="M17.3,9.6C17.3,9.6,17.3,9.6,17.3,9.6C17.3,9.6,17.3,9.6,17.3,9.6C17.3,9.6,17.3,9.6,17.3,9.6
				C17.3,9.6,17.3,9.6,17.3,9.6C17.4,9.7,17.4,9.7,17.3,9.6C17.4,9.7,17.4,9.7,17.3,9.6c0.1,0.1,0.1,0.1,0.1,0.1c0,0,0,0,0,0
				c0,0,0,0,0,0c0,0,0,0,0,0c0,0,0,0,0,0c0,0,0,0,0,0c0,0,0,0,0,0c0,0,0,0,0,0c0,0,0,0,0,0c0,0,0,0,0,0c0,0,0,0,0,0.1
				c0,0,0,0.1,0.1,0c0,0,0.1,0,0-0.1c0-0.2-0.2-0.3-0.3-0.4C17.3,9.5,17.2,9.5,17.3,9.6C17.2,9.6,17.2,9.6,17.3,9.6L17.3,9.6z"/>
		</g>
	</g>
	<polygon class="st8" points="14.3,9.2 15.2,15.3 17.4,14.8 15.4,9.2 	"/>
	<polygon class="st10" points="8.5,13.3 8.6,14.3 7.1,12.8 5.8,12.1 4.9,12.4 4.6,13.5 6.1,15.6 6.6,15.6 7.1,17 7.6,18.2 4,16.4 
		1.3,11 1.8,7.1 2.6,4.5 4.6,2.2 7.8,0.7 10.8,0.8 13.1,0 15.1,0 16.8,0.9 18.2,2.5 18.7,4.3 18.8,7.1 18.5,9.1 17.9,5.5 16.8,5.1 
		15,6.3 9.9,6.2 7.7,8.1 6.9,9.9 	"/>
	<polygon class="st11" points="12.9,6 11.1,10.6 8.8,12.3 6.5,11.8 8.5,11 10.2,9.3 10.9,6.4 12.1,4.4 14.2,3.9 15.2,5.2 15,6.3 
		14.1,5.5 	"/>
	<polygon class="st2" points="12.4,24.5 8.4,20.4 6.9,21 7.6,23.8 8.5,22.6 10.4,23 	"/>
	<polygon class="st2" points="15.1,21.3 16.3,21.8 17,23.3 15.8,22.7 15.4,22.7 14.9,24.5 	"/>
	<polygon class="st12" points="10.8,22.9 12.4,23.2 14.6,23.1 15,22.2 14.8,27 	"/>
	<polygon class="st2" points="14.5,23.6 12.5,23.9 11.4,23.5 12,24.1 12.6,24.3 14.5,24.1 15,23.7 15,23 	"/>
	<polygon class="st2" points="12.6,24.8 13.4,24.9 14.5,24.8 14.9,24.5 14.9,24.9 14.7,25.2 13.5,25.3 13.1,25.2 	"/>
	<polygon class="st2" points="13.8,25.9 14.1,26 14.7,25.9 14.9,25.7 14.8,26.1 14.8,26.2 14.2,26.3 14.1,26.3 	"/>
	<polygon class="st3" points="5.4,47.4 7.7,48.3 6.7,52.1 5,52.1 	"/>
	<polygon class="st3" points="16.4,52.1 18.1,52.1 18.8,48 16.3,48.3 	"/>
	<polygon class="st1" points="5,52.1 4,52.8 2.7,53 1.8,53.5 1.4,54.2 2.3,54.2 5.9,54 6.1,53.7 6.1,54 6.8,54 6.7,52.1 	"/>
	<polygon class="st1" points="18.1,52.1 19,52.8 20.4,53 21.3,53.5 21.7,54.2 20.7,54.2 17.2,54 17,53.7 17,54 16.3,54 16.4,52.1 	
		"/>
	<polygon class="st1" points="7.3,31.1 7.6,32.8 17.6,33.3 17.7,32.8 17.8,30.8 	"/>
	<path class="st2" d="M23.7,27.1l-0.3-1.1l-1.2-0.7l-1.9,4.1c0.6,0.4,1.2,0.7,1.7,0.9L23.7,27.1z"/>
	<path class="st3" d="M21.3,28.1l-3.7-1.8c0,0-0.1,4.2-0.1,4.5c0.1,0,0.2,0,0.3,0c0,0,0.1-3.5,0.1-3.8l2.8,1.1l-0.5,1.1
		c0.1,0.1,0.3,0.2,0.4,0.2L21.3,28.1z"/>
	<path class="st4" d="M20.6,33.1l1.5-2.8c-0.6-0.3-1.1-0.6-1.7-0.9l0,0c-0.1,0-0.1-0.1-0.2-0.1L18.4,33c0,0.1-0.1,0.1-0.1,0.2
		c-0.1,0-0.1,0-0.2,0.1c-0.3,0.1-0.5,0.2-0.8,0.4c-0.8,0.5-0.3,1.1,0.1,0.7c0.1,0,0.1-0.1,0.2-0.1c-0.1,0.1-0.1,0.2-0.2,0.3
		c-0.4,0.6-0.5,0.9-0.3,1c0.1,0.1,0.3,0,0.5-0.3c-0.1,0.3-0.1,0.5,0,0.5c0.2,0,0.3,0,0.6-0.4c-0.1,0.3-0.1,0.4,0.1,0.5
		c0.1,0,0.3,0,0.5-0.3c0,0.1,0,0.1,0.1,0.1c0.2,0.1,0.4-0.1,0.8-0.8c0.1-0.2,0.2-0.3,0.3-0.5l0,0l0.3-0.5l0,0
		c0.1-0.1,0.2-0.3,0.2-0.4C20.6,33.2,20.6,33.1,20.6,33.1z"/>
	<g>
		<circle class="st10" cx="11.7" cy="33.8" r="0.3"/>
		<circle class="st10" cx="11.1" cy="31.9" r="0.3"/>
		<circle class="st10" cx="14.2" cy="33.7" r="0.3"/>
		<circle class="st10" cx="14.7" cy="31.8" r="0.3"/>
	</g>
	<polygon class="st13" points="4.4,29.6 2,31.5 2.4,32.1 2.9,32.4 4.8,30.3 	"/>
	<polygon class="st13" points="19.6,30 21.7,31.1 22.2,30.7 22.3,29.9 20.1,29.1 	"/>
	<circle class="st9" cx="17.5" cy="16" r="0.4"/>
	<polygon class="st14" points="15,22.2 14.7,22.7 14.8,27 	"/>
	<polygon class="st14" points="10.8,22.9 11.5,23 14.2,26.3 14.8,26.2 14.8,27 	"/>
</g>
</svg>
