<?xml version="1.0" encoding="utf-8"?>
<!-- Generator: Adobe Illustrator 25.0.1, SVG Export Plug-In . SVG Version: 6.00 Build 0)  -->
<svg version="1.1" id="Capa_1" xmlns="http://www.w3.org/2000/svg" xmlns:xlink="http://www.w3.org/1999/xlink" x="0px" y="0px"
	 viewBox="0 0 42.6 58.3" style="enable-background:new 0 0 42.6 58.3;" xml:space="preserve">
<style type="text/css">
	.st0{opacity:0.13;fill:#010202;enable-background:new    ;}
	.st1{fill:#A2AE94;}
	.st2{fill:#CDDAC1;}
	.st3{fill:#917C7C;}
	.st4{fill:#B6777A;}
	.st5{fill:#3A2D1F;}
	.st6{fill:#C5CFB9;}
	.st7{fill:#566E75;}
	.st8{fill:#8E6943;}
	.st9{fill:#573928;}
	.st10{fill:#AF8555;}
	.st11{fill:#694630;}
	.st12{fill:#596E76;}
	.st13{fill:#30343E;}
	.st14{fill:#191E18;}
	.st15{fill:#757F73;}
	.st16{fill:#DCEBD9;}
	.st17{fill:#A3B79E;}
	.st18{fill:#2557A3;}
	.st19{fill:#475F64;}
	.st20{fill:#3C5257;}
</style>
<ellipse class="st0" cx="18.7" cy="56.6" rx="18.7" ry="1.7"/>
<g>
	<g>
		<g>
			<polyline class="st1" points="29,48.5 28.3,49.2 28,50.4 28,51 27.8,51.3 27.4,51.4 27,50.7 26.5,50.3 26.3,50.1 25.9,49.5 
				26,48.7 27.1,47.8 27.7,47.7 			"/>
			<polygon class="st1" points="27.5,48.4 26.2,52.8 25.8,56.2 28.7,56.2 28.7,52.8 28.7,48.7 			"/>
			<path class="st1" d="M34.1,35c0,0,2.7-5.1,3-5.5c0.2-0.4,0.4-3.2,0.4-3.2l-0.8-2.6l-0.8-0.1L35.1,25l-0.9,4.3l-1.8,4.8L34.1,35z"
				/>
			<polygon class="st1" points="25.6,54.9 23.5,54.4 23.1,53.9 22.7,53.7 21.9,54 21.7,54.6 21.9,55.2 22,55.8 22.5,56.3 22.8,56.8 
				24.9,57.2 25.9,56.9 28,57 28.7,56.3 28.6,55 			"/>
			<polygon class="st2" points="33.7,34.1 30.2,33.5 27.9,35 26.7,37.2 28.2,39.5 30.5,41.6 30.3,42.4 34.1,44.1 34.4,43 35.9,43.1 
				38.2,41.9 39.2,39.3 38.2,36.6 			"/>
			<polygon class="st1" points="38.5,38.9 37.5,41.3 35.9,42.3 33.5,42.9 34.1,44.1 34.4,43 35.9,43.1 38.2,41.9 39.2,39.3 
				38.2,36.6 			"/>
			<path class="st3" d="M28.2,39.5c0.2,0.1,5.2,2.6,5.2,2.6l-3.1,0.3l0.2-0.9L28.2,39.5z"/>
			<polygon class="st4" points="29.4,36.8 29.8,37.2 29.6,37.5 29.2,37.4 28.9,37.2 29,36.8 			"/>
			
				<ellipse transform="matrix(0.4582 -0.8889 0.8889 0.4582 -16.2197 44.5669)" class="st5" cx="28.4" cy="35.6" rx="0.4" ry="0.2"/>
			<ellipse transform="matrix(0.4582 -0.8889 0.8889 0.4582 -15.929 48.6274)" class="st5" cx="31.9" cy="37.4" rx="0.4" ry="0.2"/>
			<polygon class="st5" points="27.3,37.1 27.7,37 28.1,37.1 30.5,38.2 32.4,39.1 32.7,39.8 32.3,40 29.7,38.7 27.5,37.6 			"/>
			<path class="st6" d="M27.6,37.1L27.6,37.1c0,0.1,0.1,0.2,0.2,0.2l0.1,0c0.1,0,0.2,0,0.2,0.1l0,0.1c0,0.1,0.1,0.1,0.2,0.1l0.1,0
				c0.1,0,0.1,0,0.2,0.1l0.1,0.2c0,0.1,0.1,0.1,0.2,0.1l0.1,0c0.1,0,0.1,0,0.2,0.1l0.1,0.1c0,0.1,0.1,0.1,0.2,0.1l0.1,0
				c0.1,0,0.1,0,0.2,0.1l0,0.1c0,0.1,0.1,0.1,0.2,0.1l0.1,0c0.1,0,0.2,0,0.2,0.1l0,0.1c0,0.1,0.1,0.1,0.2,0.1c0.1,0,0.2,0,0.2,0.1
				l0,0c0,0.1,0.1,0.1,0.2,0.1l0.1,0c0.1,0,0.1,0,0.2,0.1l0.1,0.1c0,0.1,0.1,0.1,0.2,0.1l0.1,0c0.1,0,0.2,0,0.2,0.1l0,0
				c0,0.1,0.1,0.1,0.2,0.1l0.2,0c0,0,0,0,0.1,0l0.1-0.1c0,0,0.1-0.1,0.1-0.1l0-0.1l-2-0.9l-2.3-1L27.7,37
				C27.7,37,27.6,37.1,27.6,37.1z"/>
			<path class="st6" d="M29.7,38.7l2.6,1.3l0.2-0.1l-0.2-0.4c0-0.1-0.1-0.1-0.2-0.1L32,39.5c-0.1,0-0.1,0-0.2-0.1l0-0.1
				c0-0.1-0.1-0.1-0.2-0.1l-0.1,0c-0.1,0-0.1,0-0.1-0.1l-0.1-0.2c0-0.1-0.1-0.1-0.1-0.1l-0.2,0c-0.1,0-0.1,0-0.1-0.1l-0.1-0.1
				c0-0.1-0.1-0.1-0.1-0.1l-0.1,0c-0.1,0-0.1,0-0.1-0.1l0-0.1c0-0.1-0.1-0.1-0.1-0.1l-0.2,0c-0.1,0-0.1,0-0.1-0.1l0-0.1
				c0-0.1-0.1-0.1-0.1-0.1l-0.2,0c-0.1,0-0.1,0-0.1-0.1l-0.1-0.2c0-0.1-0.1-0.1-0.1-0.1l-0.2,0c-0.1,0-0.1,0-0.1-0.1l-0.1-0.2
				c0-0.1-0.1-0.1-0.1-0.1l-0.2,0c-0.1,0-0.1,0-0.1-0.1L28,37.5c0-0.1-0.1-0.1-0.1-0.1l-0.1,0c-0.1,0-0.2,0-0.2-0.1
				c0-0.1-0.1-0.2-0.2-0.1c0,0,0,0,0,0l0.1,0.4L29.7,38.7z"/>
			<path class="st2" d="M36.9,37.3c0,0,4.1-4.4,4.5-4.8c0.3-0.3,1.3-3.1,1.3-3.1l-0.2-2.8l-0.8-0.3l-1.2,1.1l-2.1,4.1l-3.1,4.4
				L36.9,37.3z"/>
			<polygon class="st2" points="30.3,42.4 28.5,44.7 27.2,48.6 27.3,50.4 28.7,51.7 30.6,51.9 33.7,51.2 34.6,44.8 34.4,43 			"/>
			<polygon class="st2" points="32.6,48.4 31,52.8 30.6,56.2 33.8,56.2 33.8,52.8 33.8,48.7 			"/>
			<polygon class="st1" points="31.7,50.8 31.3,52.8 31,56.2 30.6,56.2 31,52.8 			"/>
			<polygon class="st1" points="31.5,51.6 30.6,51.7 28.4,51.4 28.7,51.7 30.6,51.9 31.5,51.7 			"/>
			<polygon class="st1" points="30.3,42.4 29.6,42.6 28.7,44.4 			"/>
			<path class="st1" d="M33.5,42.9c0.1,0.1-1.4,6.4-1.4,6.4l1.1,1.4l0.1-1.6l0.5-4.8L33.5,42.9z"/>
			<polyline class="st1" points="32.2,49.2 31.6,50 30.6,50.6 29.9,50.7 29.7,50.9 29.7,51.4 30.4,51.7 30.9,52.1 31.2,52.2 
				31.8,52.4 32.6,52.2 33.2,50.9 33.3,50.3 			"/>
			<polygon class="st1" points="28.9,48.8 29.4,48.8 29.6,48.5 29.3,48.3 29.1,48.3 29.3,48.5 29.3,48.6 29.2,48.7 28.6,48.7 			"/>
			<polygon class="st2" points="30.7,55 28.6,54.6 28.2,54.1 27.8,53.8 27,54.2 26.8,54.8 27,55.4 27.2,56 27.6,56.4 28,57 30,57.3 
				31,57 33.1,57.1 33.8,56.5 33.8,55.2 			"/>
			<polygon class="st4" points="40.6,30.8 41.3,28.2 40.4,30.7 37.4,35 37.4,35.3 			"/>
			<polygon class="st4" points="35.8,28.3 35.8,25.6 35.5,28.2 33.5,33.1 33.6,33.4 			"/>
		</g>
		<ellipse transform="matrix(0.2743 -0.9617 0.9617 0.2743 -13.2799 59.8566)" class="st4" cx="33" cy="38.7" rx="0.5" ry="0.6"/>
		<path class="st4" d="M27.9,36c0.2,0.2,0.3,0.5,0.2,0.7c-0.1,0.2-0.5,0.2-0.7,0c-0.1-0.1-0.1-0.1-0.2-0.2l0.3-0.6
			C27.7,35.9,27.8,35.9,27.9,36z"/>
	</g>
	<g>
		<g>
			<polygon class="st7" points="11.2,53.9 5.1,54.1 5.2,50.7 4.8,49.7 5.3,48.5 5.6,40.2 11.8,41.2 11.3,49.3 			"/>
			<path class="st8" d="M18,43.7c0-0.2,0.1-0.3,0.1-0.5c0,0.1-0.1,0.2-0.1,0.2c-0.3,0.7-1.1,0.2-0.5-0.8c0.2-0.3,0.4-0.6,0.6-0.8
				c0.1-0.1,0.1-0.1,0.2-0.1c0-0.4,0.1-0.8,0.1-1.2l2.6,0c0,0.1,0,0.2,0,0.4c0,0.3,0,0.5,0,0.8c0,0.4,0,0.9-0.1,1.3
				c-0.1,1.1-0.2,1.3-0.5,1.4c-0.1,0-0.2,0-0.2-0.1c-0.1,0.4-0.2,0.6-0.4,0.6c-0.2,0-0.3-0.2-0.3-0.6c-0.1,0.6-0.2,0.8-0.4,0.8
				c-0.2,0-0.3-0.2-0.3-0.6c-0.1,0.5-0.3,0.6-0.5,0.6C18,45,17.9,44.6,18,43.7z"/>
			<path class="st7" d="M9.3,24.4l-2.5,0.8L5.1,35.5L4.8,43l1.5,1.5l4.4-2.5l2.4-1.4c0,0,0.4,1.3,1.1,1.4c0.6,0.4,2.9,2.1,3.7,2.7
				c0.9-0.9,1.5-1.5,1.5-1.5l0.8-3.5v-2.8l-1-10.9l-4.4-1.5L10.7,24L9.3,24.4z"/>
			<polygon class="st9" points="15.8,25 16.3,26.5 17.2,26.8 18.3,25.8 18.3,25.3 15.8,24.8 			"/>
			<polygon class="st7" points="18,46 6.5,45.8 6,38.7 17.1,38.9 			"/>
			<polygon class="st7" points="18.7,54.1 12.8,54.1 12.8,51 12.6,50.6 12.7,50.1 13.2,39.5 19.1,37.9 18.8,50.6 			"/>
			<polygon class="st10" points="20.3,25.6 22.5,14.9 22.7,13.9 21.9,9.9 17.6,7.4 13.7,7.4 10.2,9.7 9.1,17.4 9.1,23.6 11.2,25.3 
				14.6,25.6 15.5,24.8 			"/>
			<polygon class="st8" points="14.5,24.7 15.5,14.3 13.7,7.4 10.2,9.7 9.1,17.4 9.1,23.6 11.2,25.3 14.6,25.6 15.5,24.8 			"/>
			<polygon class="st11" points="15.5,24.8 12.3,24.4 13.2,25.5 14.6,25.6 			"/>
			<polygon class="st10" points="19.7,18.9 26.4,21.3 27,22.3 25.7,24.4 22.3,24 21.1,25.6 20.3,25.6 16.3,23.1 19.4,19.4 			"/>
			<polygon class="st5" points="27,22.3 24.7,21.8 25.3,23.2 26.5,23.2 			"/>
			<polygon class="st8" points="21.6,19.6 18.1,18.9 21.2,18.9 21.9,17.8 			"/>
			<ellipse transform="matrix(0.1528 -0.9883 0.9883 0.1528 -1.0772 31.748)" class="st5" cx="18" cy="16.5" rx="1.4" ry="0.6"/>
			<ellipse class="st5" cx="20.6" cy="16.9" rx="0.6" ry="1.4"/>
			<polygon class="st5" points="22.3,24 17.4,23.2 22,24.4 			"/>
			<polygon class="st12" points="17.5,8.7 25.8,7.4 27.4,9.1 25.7,9.9 			"/>
			<polygon class="st13" points="23.4,9.9 7.2,9.1 5.3,6.6 25.7,9.9 			"/>
			<polygon class="st14" points="12.3,7.7 12.3,6.6 19.6,8.4 19.6,8.9 			"/>
			<polygon class="st15" points="13.3,6.9 13.3,7.7 14.3,7.9 13.8,7.4 13.8,7 			"/>
			<polygon class="st7" points="19.6,8.4 20.7,4.8 20.8,0.3 17.8,0 16,1.8 12.5,2 12.3,6.6 			"/>
			<path class="st16" d="M9.7,24.3l0.7,5.9c0,0,0.3,3.7,0.4,5.5c0.4,1,2.2,4.9,2.2,4.9c0,0,2-3.5,2.3-4.1c0.2-3.2,0.4-6.9,0.4-6.9
				l-0.3-4.8l-0.9,0.8l-3.4-0.3l-1.3-1.1L9.7,24.3z"/>
			<polyline class="st8" points="9.1,17.4 9,23.5 11.2,25.3 			"/>
			<polygon class="st10" points="9.7,14.2 7.2,21.5 6.5,24.8 7.4,26 8.4,25.8 9.2,24.4 10.4,15.2 			"/>
			<path class="st17" d="M10.1,27.4C10.1,27.4,10.1,27.4,10.1,27.4c0.7-0.5,2.9-1.7,2.9-1.7h0.8l1.9,1.4l-0.3-0.2l-1.6-1.1h-0.8
				L10.1,27.4z"/>
			<polygon class="st18" points="12.9,26.8 13.7,26.8 13.9,26 13.7,25.8 12.9,25.8 12.6,26 			"/>
			<polygon class="st18" points="12.9,26.8 10.9,30.9 9.9,40.2 13.2,43.3 16.1,39.3 15.1,30.2 13.7,26.8 			"/>
			<polygon points="12.7,26.4 13.9,26 13.7,25.8 12.9,25.8 12.6,26 			"/>
			<polygon points="12.9,26.7 13.8,26.5 13.7,26.8 14.1,27.9 12.2,28.3 			"/>
			<polygon points="10.9,30.9 15,30 15.1,30.2 15.3,31.4 10.7,33 			"/>
			<polygon points="10.4,35.5 15.5,33.5 15.7,35.8 10.1,37.9 			"/>
			<polygon points="9.9,40.2 13.2,43.3 16.1,39.3 16,38.5 			"/>
			<polygon class="st10" points="9.1,53.9 11.8,53.9 12.6,53.3 13.1,53.1 14.1,53.8 14.1,54.6 13.8,55.3 13.4,56.1 12.7,56.5 
				12.1,57.2 9.4,57.1 8.1,56.4 5.4,56 4.7,55 5.1,53.3 			"/>
			<polygon class="st10" points="17.2,54.1 20,53.7 20.6,53.1 21.2,52.8 22.2,53.3 22.3,54.1 22.1,54.9 21.8,55.7 21.1,56.3 
				20.6,57 17.9,57.2 16.6,56.7 13.9,56.6 13,55.7 13.2,53.9 			"/>
			<polygon class="st7" points="19.1,25.9 21,27.1 20.6,30.2 21.2,41.6 18,41.6 			"/>
			<polygon class="st19" points="7,43.2 7.5,42.9 7.1,37.9 7.2,32 7,37.9 			"/>
			<polygon class="st19" points="19.7,41.6 19.3,30.5 20,41.6 			"/>
			<path class="st19" d="M19,43.5l0,0.7c0,0,0,0.4,0,0.9c-0.6,0.2-0.9,0.3-1.1,0.4c0,0-4.6-2.1-4.6-2.1l4.6,1.3L19,43.5z"/>
			<polygon class="st19" points="13.2,43.3 9,44.6 7.5,42.7 5.5,42.4 5.3,46.7 5.3,48.5 4.8,49.7 5.2,50.7 4.7,55 7.2,53.6 
				7.2,46.8 8.5,45.4 11.2,44.2 			"/>
			<path class="st10" d="M6,43.7c0-0.2-0.1-0.3-0.1-0.5c0,0.1,0.1,0.2,0.1,0.2c0.3,0.7,1.1,0.2,0.5-0.8c-0.2-0.3-0.4-0.6-0.6-0.8
				c-0.1-0.1-0.1-0.1-0.2-0.1c0-0.4-0.1-0.8-0.1-1.2l-2.6,0c0,0.1,0,0.2,0,0.4c0,0.3,0,0.5,0,0.8c0,0.4,0,0.9,0.1,1.3
				c0.1,1.1,0.2,1.3,0.5,1.4c0.1,0,0.2,0,0.2-0.1c0.1,0.4,0.2,0.6,0.4,0.6c0.2,0,0.3-0.2,0.3-0.6c0.1,0.6,0.2,0.8,0.4,0.8
				c0.2,0,0.3-0.2,0.3-0.6C5.5,44.9,5.6,45,5.8,45C6.1,45,6.2,44.6,6,43.7z"/>
			<polygon class="st7" points="6.8,25.2 2,26.5 2.8,28.7 2.6,41.5 7,43.2 			"/>
			<path class="st20" d="M11.4,44.1"/>
			<polygon class="st8" points="15.9,54 14.9,55.3 14.4,56.6 13.9,56.6 13.4,56.1 13.4,56.1 14.1,54.6 14.1,54 			"/>
			<polygon class="st19" points="12.9,45.9 13.8,45.9 13.3,46.1 13.4,53.3 17.2,53.6 18.7,53.4 18.7,53.9 17.2,54.1 15.3,54 
				13.4,56.1 14.1,54.6 14.1,53.8 13.4,53.3 13.1,53.1 12.8,53.2 12.8,51 12.6,50.6 12.7,50.1 			"/>
			<polygon class="st8" points="6.6,56.2 5.4,56 4.7,55 6.3,54.1 7.2,53.6 6.5,55.2 			"/>
		</g>
		<polygon class="st19" points="10.6,33.4 9.2,40.4 13,43.7 13.2,43.3 9.9,40.2 		"/>
	</g>
</g>
</svg>
