<?xml version="1.0" encoding="utf-8"?>
<!-- Generator: Adobe Illustrator 25.0.1, SVG Export Plug-In . SVG Version: 6.00 Build 0)  -->
<svg version="1.1" id="Capa_3" xmlns="http://www.w3.org/2000/svg" xmlns:xlink="http://www.w3.org/1999/xlink" x="0px" y="0px"
	 viewBox="0 0 31.1 58.2" style="enable-background:new 0 0 31.1 58.2;" xml:space="preserve">
<style type="text/css">
	.st0{fill:#DFBCA4;}
	.st1{fill:#1D1E1E;}
	.st2{fill:#080909;}
	.st3{fill:#C2977A;}
	.st4{fill:#896652;}
	.st5{fill:#4F3D2E;}
	.st6{fill:#B58D73;}
	.st7{fill:#49271A;}
	.st8{fill:#DDAB89;}
	.st9{opacity:9.000000e-02;fill:#684F3E;enable-background:new    ;}
	.st10{fill:#7DCAD9;}
	.st11{fill:#02A4A7;}
	.st12{fill:#B31917;}
	.st13{fill:#BB9709;}
	.st14{fill:#D85574;}
	.st15{fill:#9F7D13;}
	.st16{fill:#988171;}
	.st17{fill:#BE5417;}
	.st18{fill:#A46B2C;}
	.st19{fill:#FFD400;}
	.st20{fill:#2C1C11;}
	.st21{fill:#DFEFF0;}
	.st22{fill:url(#SVGID_1_);}
	.st23{fill:url(#SVGID_2_);}
	.st24{fill:#E84E1B;}
	.st25{opacity:0.56;fill:#DFEFF0;enable-background:new    ;}
	.st26{fill:#6B6C6D;}
	.st27{fill:#BFBEBE;}
	.st28{opacity:0.13;fill:#010202;enable-background:new    ;}
</style>
<g>
	<path class="st0" d="M1.3,28c0.1,0,0.3,0.1,0.4,0.1c-0.1,0-0.1-0.1-0.2-0.1c-0.6-0.4-0.2-1,0.7-0.4c0.3,0.2,0.5,0.5,0.7,0.7
		c0,0.1,0.1,0.1,0.1,0.2c0.3,0.1,0.5,0.1,0.8,0.2L9.1,29c-0.2,1.1,0.2,1.8,0,2.8L3,31l0,0c-0.4-0.1-0.8-0.2-1.2-0.2
		c-1-0.2-1.2-0.4-1.2-0.7c0-0.1,0-0.1,0.1-0.2c-0.4-0.1-0.5-0.3-0.5-0.4c0-0.2,0.2-0.3,0.5-0.2C0.2,29.1,0,28.9,0,28.7
		c0-0.2,0.2-0.3,0.6-0.2c-0.4-0.2-0.5-0.3-0.5-0.5C0.1,27.7,0.5,27.7,1.3,28z"/>
	<g>
		<path class="st1" d="M19.3,40c-1.1,2.5-2,4.8-3,7.5c-0.5,1.6-1.7,6-2.1,7.5c-0.9,0-0.8,0-1.6,0c0.2-2.5,0.6-6.5,0.7-9.1
			c0.3-2.3,1.3-6.1,1.7-8.6C16.6,38,17.8,39.1,19.3,40z"/>
	</g>
	<polygon class="st1" points="20.3,40.6 22.9,47.2 23,55 24.5,55 26.1,46.2 24.3,37.3 	"/>
	<polygon class="st1" points="24.5,42.5 15.7,42.5 15,37.2 24.2,37.2 	"/>
	<polygon class="st2" points="12.7,55 11.8,55.6 10.6,55.8 9.8,56.2 9.5,56.9 10.3,56.9 13.5,56.7 13.7,56.4 13.7,56.7 14.3,56.7 
		14.2,55 	"/>
	<polygon class="st2" points="24.5,55 25.4,55.6 26.6,55.8 27.4,56.2 27.7,56.9 26.9,56.9 23.7,56.7 23.5,56.4 23.5,56.7 22.9,56.7 
		23,55 	"/>
	<path class="st3" d="M7.9,9.6l2,4.2v1.7l1.6,2.1l1.2,0.2l1.8,5.7c0,0,1.8,2.2,3,3.8c1.1,0.6,2.4,1.3,2.9,1.6
		c0.1-0.3,2.8-7.6,2.8-7.6l2.4-0.2L26.5,4L14.2,4.4L9.4,5.9L7.9,9.6z"/>
	<polygon class="st0" points="18.1,21.7 25.6,21.2 27.7,7.2 25.9,3 24,3.4 21.2,4.1 13.4,5.1 	"/>
	<path class="st4" d="M15.8,21.1l2.3,0.6l5.1-0.3c0,0-2.4,6.7-2.8,7.6c-0.2-0.1-1.8-1.2-2.3-1.6c0,0,0-0.4,0-0.5
		c0.6,0.4,1.3,0.9,1.7,1.2C18.4,26.2,15.8,21.1,15.8,21.1z"/>
	<path class="st5" d="M17.5,5.3l-1.4,1.9v0.9h1c0,0-0.9,1.7-1,2.1c0.4-0.4,2.1-2.3,2.1-2.3l-0.6-0.7l1.7-2.4L17.5,5.3z"/>
	<path class="st3" d="M24,3.4L19.3,5l-1.6,2.3L18.3,8c0,0-0.2,0.2-0.4,0.4c-0.2,0.5-0.8,1.6-0.9,1.8c0.4-0.4,2-2.3,2-2.3l-0.6-0.7
		L20,5.1l5-1.5l1,0.6l0.4,1l-0.1-1.1l-0.5-0.7L24,3.4z"/>
	<polygon class="st6" points="21.3,11.3 21.4,14.7 22.9,14.7 22,11.4 	"/>
	<circle class="st7" cx="19.1" cy="11.8" r="0.4"/>
	<circle class="st7" cx="24.1" cy="11.4" r="0.4"/>
	<g>
		<g>
			<g>
				<path class="st7" d="M18.6,11.1C18.6,11,18.6,11,18.6,11.1c0.1-0.1,0.1-0.2,0.1-0.2l0,0l0,0l0,0l0,0l0,0h0.1l0,0l0,0l0,0l0,0
					l0,0l0,0c0,0,0.1,0,0.1,0.1H19v-0.1c-0.1-0.1-0.3-0.1-0.4-0.1c-0.2,0-0.3,0.1-0.4,0.3C18.4,11.1,18.6,11.2,18.6,11.1L18.6,11.1z
					"/>
			</g>
		</g>
	</g>
	<g>
		<g>
			<path class="st7" d="M24.4,10.6c-0.3,0-0.5,0-0.7,0.2v0.1h0.1c0.1-0.1,0.2-0.1,0.2-0.1c0.1,0,0.1,0,0.1,0h0.1l0,0l0,0l0,0
				C24.2,10.8,24.3,10.8,24.4,10.6C24.5,10.7,24.5,10.6,24.4,10.6L24.4,10.6z"/>
		</g>
	</g>
	
		<ellipse transform="matrix(1.083355e-02 -0.9999 0.9999 1.083355e-02 4.8381 32.9227)" class="st8" cx="19.1" cy="14" rx="0.8" ry="1"/>
	
		<ellipse transform="matrix(1.083355e-02 -0.9999 0.9999 1.083355e-02 10.7714 38.2549)" class="st8" cx="24.7" cy="13.7" rx="0.8" ry="1"/>
	<path class="st9" d="M24.6,15.9c-0.5-0.3-1.6-0.7-1.6-0.7h-0.5l-0.1,0.1v0.5l-0.2-0.2l-0.1-0.4h-0.4l-2,0.8c0,0,0.1,0.1,0.2,0.2
		c1.3,0,3.5,0.1,4.6,0.1C24.4,16.1,24.5,16,24.6,15.9z"/>
	<path class="st9" d="M17.1,18.3c0,0,1.3,1.4,1.6,1.6c0.3,0.1,2,0.5,2,0.5h2.6l1.7-0.8l1-1.2l-0.4,2.8c0,0-6.2,0.4-7.5,0.5
		C18,21.2,17.1,18.3,17.1,18.3z"/>
	<g>
		<g>
			<g>
				<path class="st7" d="M23.4,16.6c-0.5,0.1-1,0.2-1.5,0.1c-0.4,0-0.8-0.1-1.1-0.4c-0.2-0.2-0.4,0.1-0.3,0.3
					c0.3,0.3,0.8,0.4,1.3,0.5c0.6,0.1,1.1,0,1.7-0.1C23.8,16.9,23.7,16.6,23.4,16.6L23.4,16.6z"/>
			</g>
		</g>
	</g>
	<polygon class="st3" points="14.7,7.2 16.4,6.3 16.7,6.5 17.3,5.6 14.6,6.5 	"/>
	<polygon class="st5" points="13.6,15.4 13.9,13.1 13.4,8.3 14.6,6.5 24,3.4 26.2,3.4 25.2,2 22.2,0.8 18.7,-0.2 11,1.9 8.4,5.4 
		7.9,9.6 9.9,13.9 11.4,13.2 12.4,13.6 	"/>
	<path class="st5" d="M25.9,2.9l1.5,1.5l0.3,2.7c0,0-0.5,3.9-0.6,4.5c0-0.2-0.6-5.7-0.8-7.7c-0.2-0.2-0.4-0.5-0.6-0.7
		C25.8,3.1,25.9,2.9,25.9,2.9z"/>
	<polygon class="st10" points="24.4,32.9 24.7,28.8 24.6,24.4 22.8,24.4 21.5,25.6 20.4,29 18.1,27.4 18.1,26.1 17,25.6 15.7,23.5 
		13.4,25 13.1,24.4 11.8,25.5 12.6,31.5 14.4,35.8 14.6,37.2 22.3,37.2 24.4,37.2 25.1,35.1 	"/>
	<polygon class="st10" points="12.9,22.4 15.7,23.5 16.5,26.5 13.6,25.5 12.4,25 	"/>
	<polygon class="st10" points="21.7,26.5 24,24.4 23.2,23.2 21,23.9 	"/>
	<polygon class="st11" points="12.9,22.4 13.9,21.7 14.3,22.9 	"/>
	<polygon class="st11" points="23.2,23.2 22.5,23 22.4,23.5 	"/>
	<polygon class="st11" points="12.9,25.7 17.1,27.2 17.8,28.3 19.7,28.9 19.4,28.3 18.1,27.4 18.1,26.1 17,25.6 15.7,23.5 
		16.5,26.5 12.4,25 	"/>
	<polygon class="st11" points="21.5,25.6 21.1,26.8 20.7,27.9 21,27.6 21.3,26.9 21.7,27 23.3,25 21.7,26.5 	"/>
	<polygon class="st12" points="16.1,24.9 19.4,27.5 19.2,27.9 16.4,26 	"/>
	<polygon class="st12" points="21.4,25.4 20,27.5 20.1,27.9 21.6,26 	"/>
	<polygon class="st12" points="19.4,27.5 20,27.5 20.1,27.9 20,28.9 19.7,28.9 19.2,27.9 	"/>
	<polygon class="st11" points="21,23.9 21.2,25.7 21.4,25.4 	"/>
	<polygon class="st13" points="9.4,11.7 10.5,9.9 11.3,11.7 10.9,13.4 9.9,13.9 9.9,15.6 10.3,16.1 10.2,16.2 9.4,16.1 	"/>
	<polygon class="st0" points="9.4,11.7 9.9,11.9 10.2,11.8 10.4,11.5 10.6,11.8 11,11.9 11.3,11.7 10.5,9.9 	"/>
	<polygon class="st14" points="9.4,16.1 9.4,16.3 9.7,16.5 9.9,16.5 10.1,16.4 10.2,16.2 	"/>
	<polygon points="10.3,10.1 10.4,10.2 10.5,10.2 10.6,10.1 10.5,9.7 10.5,9.6 10.4,9.6 	"/>
	<polygon class="st15" points="10.9,13.2 9.8,13.8 9.7,15.9 10.2,16.2 10.3,16.1 9.9,15.6 9.9,13.9 10.9,13.4 	"/>
	<polygon class="st16" points="11.3,11.6 11,11.8 11,11.6 11,11.8 10.7,11.7 10.5,11.5 10.4,11 10.4,11.5 10,11.8 10,11.8 
		10.1,11.2 9.8,11.8 9.5,11.6 9.4,11.7 9.8,11.9 9.8,11.9 9.9,11.9 10,11.9 10,11.9 10.2,11.8 10.4,11.6 10.4,11.6 10.4,11.5 
		10.5,11.6 10.5,11.6 10.6,11.8 11,11.9 11,11.9 11,11.9 11.3,11.7 	"/>
	<polygon class="st12" points="19.7,28.9 19.2,29.4 18.1,33.4 15.9,36.6 14.4,37.2 14.1,38.3 16.1,38.6 17.7,37.2 19.6,33.8 
		20.1,29.4 20,28.9 	"/>
	<polygon class="st11" points="18,37.2 24.4,37.2 24.4,37.1 18.2,36.7 19.8,33.9 20.3,29.4 20.3,29.3 20.4,29.2 20.4,29.1 20.4,29 
		20.1,28.8 20,28.7 20,28.9 20.1,29.4 19.6,33.8 17.7,37.2 	"/>
	<polygon class="st10" points="11.8,25.5 11.5,25.2 11,25.8 9.1,28.4 8.1,28.8 8.3,31.9 9.6,31.7 10.2,31.3 12.6,31.5 	"/>
	<polygon class="st17" points="24.4,37.2 24.4,37.9 16.9,37.9 17.7,37.2 	"/>
	<path class="st18" d="M21.3,39.4"/>
	<path class="st19" d="M20,37.1L19.9,38h0.9l0.2-0.9H20z M20.7,37.9H20v-0.3l0.3-0.1v-0.1H20v-0.3h0.8L20.7,37.9z"/>
	<polygon class="st20" points="23.3,37.2 23.7,37.2 23.7,38.1 23.4,38.3 	"/>
	<polygon class="st20" points="21.8,37.2 22.1,37.2 22.1,38.3 21.8,38.3 	"/>
	<path class="st20" d="M19.3,37.2v0.9H19v-0.9H19.3z"/>
	<polygon class="st20" points="17.7,37.2 18,37.2 18,38.1 17.8,38.1 	"/>
	<polygon class="st0" points="30,30.2 31.1,32.9 31.1,33.9 30.3,34.6 28.9,34.5 27.7,32.3 	"/>
	<polygon class="st10" points="24.6,24.4 25,24.2 29.5,28.6 30.6,29.3 30.9,30.1 30.7,31.4 29.2,31.3 27.6,31.9 27.3,31.3 
		24.6,29.4 24.7,28.8 	"/>
	<ellipse transform="matrix(0.1707 -0.9853 0.9853 0.1707 -5.457 49.8601)" class="st21" cx="26.9" cy="28.2" rx="3.5" ry="3.8"/>
	<ellipse transform="matrix(0.4124 -0.911 0.911 0.4124 -6.8809 40.8735)" class="st21" cx="28.2" cy="25.8" rx="1.5" ry="2.4"/>
	
		<linearGradient id="SVGID_1_" gradientUnits="userSpaceOnUse" x1="122.8169" y1="55.6355" x2="125.0303" y2="61.5093" gradientTransform="matrix(0.9853 0.1707 0.1707 -0.9853 -105.2359 64.7185)">
		<stop  offset="0" style="stop-color:#DFEFF0"/>
		<stop  offset="0.5239" style="stop-color:#7787C1"/>
	</linearGradient>
	<path class="st22" d="M29.1,26.1l-0.3,1.5L28,28h-1.6L25,27l-0.2-1c-0.1,0-0.1,0.1-0.2,0.1c-0.4,0.4-0.7,0.9-0.8,1.5
		c-0.3,1.6,0.9,3.1,2.6,3.4s3.3-0.8,3.6-2.4C30.2,27.8,29.8,26.8,29.1,26.1z"/>
	
		<linearGradient id="SVGID_2_" gradientUnits="userSpaceOnUse" x1="-751.9919" y1="311.4519" x2="-754.1555" y2="311.298" gradientTransform="matrix(-0.7446 -0.6675 0.6675 -0.7446 -740.1282 -245.0084)">
		<stop  offset="0" style="stop-color:#DFEFF0"/>
		<stop  offset="3.768305e-02" style="stop-color:#D1E1EA"/>
		<stop  offset="0.1552" style="stop-color:#AABAD8"/>
		<stop  offset="0.2633" style="stop-color:#8E9ECB"/>
		<stop  offset="0.3578" style="stop-color:#7D8DC4"/>
		<stop  offset="0.4281" style="stop-color:#7787C1"/>
		<stop  offset="0.7924" style="stop-color:#7787C1"/>
	</linearGradient>
	<polygon class="st23" points="29,26.5 29.2,26.2 29,25.9 28.6,25.4 27.7,24.9 27.4,25 27.4,25.3 27.5,25.4 28.4,25.5 28.3,25.6 
		28.3,25.7 28.6,25.8 28.9,25.9 29,26.2 	"/>
	<g>
		<polygon class="st24" points="28.9,29.2 27.9,29.7 26.8,29.6 25.5,29.2 25.7,28.5 26.3,28.4 26.7,28.5 27,28.4 27.2,28.4 
			27.1,28.6 27.9,29 28.7,29 		"/>
		<polygon class="st24" points="28.7,29 28.8,28.7 29.2,28.5 29.1,28.9 29.6,29 29.3,29.3 28.9,29.2 		"/>
		<polygon class="st24" points="26.5,29.4 26.7,29.7 27,29.9 27.1,29.7 26.8,29.4 		"/>
	</g>
	<circle class="st7" cx="26" cy="28.9" r="0.1"/>
	<circle class="st25" cx="25.3" cy="28.6" r="0.1"/>
	<circle class="st25" cx="25.2" cy="27.8" r="0.1"/>
	<rect x="25.4" y="28.2" class="st25" width="0" height="0"/>
	<rect x="25.3" y="28.1" class="st25" width="0" height="0"/>
	<circle class="st21" cx="25.6" cy="27.5" r="0.1"/>
	<rect x="25.5" y="27.4" class="st21" width="0" height="0"/>
	<rect x="25.5" y="27.5" class="st21" width="0" height="0"/>
	<rect x="25.5" y="28.6" class="st25" width="0" height="0"/>
	<rect x="25.4" y="28.7" class="st25" width="0" height="0"/>
	<polygon class="st11" points="12.6,31.5 13.7,31.5 13.3,31.8 15,35.8 15.5,36.3 16,36.4 15.9,36.6 14.6,37.1 14.4,35.8 	"/>
	<path class="st11" d="M20.3,36.9c0,0,0.1-0.3,0.2-0.8c0-0.4,0.1-0.9,0.1-0.9l0.1,1l-0.1,0.7H20.3z"/>
	<circle class="st26" cx="20.3" cy="31.5" r="0.2"/>
	<circle class="st27" cx="20.3" cy="31.5" r="0.2"/>
	<circle class="st26" cx="20.4" cy="32.5" r="0.2"/>
	<circle class="st27" cx="20.4" cy="32.6" r="0.2"/>
	<circle class="st26" cx="20.3" cy="34" r="0.2"/>
	<circle class="st27" cx="20.4" cy="34" r="0.2"/>
	<polygon class="st11" points="10.2,31.3 10.8,31.3 11.2,29.8 	"/>
	<path class="st11" d="M19.5,28.8l-0.4,0.5l-0.2,1.1l0.3-1l0.4-0.5L19.5,28.8z"/>
	<polygon class="st11" points="21.6,30.1 22.2,30.9 23.7,32 23.7,32.9 25.1,35.1 24.4,32.9 24.5,32.1 24.5,31.6 	"/>
	<path class="st0" d="M22.5,27.5c0.1,0.1,0.2,0.2,0.3,0.3c0-0.1-0.1-0.2-0.1-0.2c-0.4-0.6,0.2-1,0.8-0.1c0.2,0.3,0.8,1.7,1,2
		l4.9,1.9c-0.2,1.2-0.3,2.7-0.4,3.2c0,0-0.7-0.2-1.6-0.6c-2-1.2-5.1-3.5-5.4-3.6c-0.9-0.5-1-0.8-0.9-1.1c0,0,0.1-0.1,0.3,0.1
		c-0.2-0.2-0.5-0.6-0.4-0.8c0.1-0.2,0.3-0.2,0.6,0c-0.5-0.4-0.6-0.6-0.5-0.8c0.1-0.2,0.3-0.2,0.6,0c-0.3-0.3-0.4-0.5-0.3-0.7
		C21.4,26.8,21.8,26.9,22.5,27.5z"/>
</g>
<ellipse class="st28" cx="17.2" cy="56.9" rx="12.6" ry="1.3"/>
</svg>
